  0
SECTION
  2
HEADER
  9
$ACADVER
  1
AC1014
  9
$HANDSEED
  5
FFFF
  9
$MEASUREMENT
 70
     1
  0
ENDSEC
  0
SECTION
  2
TABLES
  0
TABLE
  2
VPORT
  5
8
330
0
100
AcDbSymbolTable
 70
     4
  0
VPORT
  5
2E
330
8
100
AcDbSymbolTableRecord
100
AcDbViewportTableRecord
  2
*ACTIVE
 70
     0
 10
0.0
 20
0.0
 11
1.0
 21
1.0
 12
210.0
 22
148.5
 13
0.0
 23
0.0
 14
10.0
 24
10.0
 15
10.0
 25
10.0
 16
0.0
 26
0.0
 36
1.0
 17
0.0
 27
0.0
 37
0.0
 40
341.0
 41
1.24
 42
50.0
 43
0.0
 44
0.0
 50
0.0
 51
0.0
 71
     0
 72
   100
 73
     1
 74
     3
 75
     0
 76
     0
 77
     0
 78
     0
  0
ENDTAB
  0
TABLE
  2
LTYPE
  5
5
330
0
100
AcDbSymbolTable
 70
     1
  0
LTYPE
  5
14
330
5
100
AcDbSymbolTableRecord
100
AcDbLinetypeTableRecord
  2
BYBLOCK
 70
     0
  3

 72
    65
 73
     0
 40
0.0
  0
LTYPE
  5
15
330
5
100
AcDbSymbolTableRecord
100
AcDbLinetypeTableRecord
  2
BYLAYER
 70
     0
  3

 72
    65
 73
     0
 40
0.0
  0
LTYPE
  5
16
330
5
100
AcDbSymbolTableRecord
100
AcDbLinetypeTableRecord
  2
CONTINUOUS
 70
     0
  3
Solid line
 72
    65
 73
     0
 40
0.0
  0
ENDTAB
  0
TABLE
  2
LAYER
  5
2
100
AcDbSymbolTable
 70
6
  0
LAYER
  5
50
100
AcDbSymbolTableRecord
100
AcDbLayerTableRecord
  2
0
 70
0
  6
CONTINUOUS
  0
LAYER
  5
51
100
AcDbSymbolTableRecord
100
AcDbLayerTableRecord
  2
panel
 70
0
  6
CONTINUOUS
  0
LAYER
  5
52
100
AcDbSymbolTableRecord
100
AcDbLayerTableRecord
  2
logo
 70
0
  6
CONTINUOUS
  0
LAYER
  5
53
100
AcDbSymbolTableRecord
100
AcDbLayerTableRecord
  2
other
 70
0
  6
CONTINUOUS
  0
LAYER
  5
54
100
AcDbSymbolTableRecord
100
AcDbLayerTableRecord
  2
text
 70
0
  6
CONTINUOUS
  0
LAYER
  5
55
100
AcDbSymbolTableRecord
100
AcDbLayerTableRecord
  2
asdf
 70
0
  6
CONTINUOUS
  0
ENDTAB
  0
TABLE
  2
STYLE
  5
3
330
0
100
AcDbSymbolTable
 70
     1
  0
STYLE
  5
11
330
3
100
AcDbSymbolTableRecord
100
AcDbTextStyleTableRecord
  2
STANDARD
 70
     0
 40
0.0
 41
1.0
 50
0.0
 71
     0
 42
2.5
  3
txt
  4

  0
ENDTAB
  0
TABLE
  2
VIEW
  5
6
330
0
100
AcDbSymbolTable
 70
     0
  0
ENDTAB
  0
TABLE
  2
UCS
  5
7
330
0
100
AcDbSymbolTable
 70
     0
  0
ENDTAB
  0
TABLE
  2
APPID
  5
9
330
0
100
AcDbSymbolTable
 70
     2
  0
APPID
  5
12
330
9
100
AcDbSymbolTableRecord
100
AcDbRegAppTableRecord
  2
ACAD
 70
     0
  0
ENDTAB
  0
TABLE
  2
DIMSTYLE
  5
A
330
0
100
AcDbSymbolTable
 70
     1
  0
DIMSTYLE
105
27
330
A
100
AcDbSymbolTableRecord
100
AcDbDimStyleTableRecord
  2
ISO-25
 70
     0
  3

  4

  5

  6

  7

 40
1.0
 41
2.5
 42
0.625
 43
3.75
 44
1.25
 45
0.0
 46
0.0
 47
0.0
 48
0.0
140
2.5
141
2.5
142
0.0
143
0.03937007874016
144
1.0
145
0.0
146
1.0
147
0.625
 71
     0
 72
     0
 73
     0
 74
     0
 75
     0
 76
     0
 77
     1
 78
     8
170
     0
171
     3
172
     1
173
     0
174
     0
175
     0
176
     0
177
     0
178
     0
270
     2
271
     2
272
     2
273
     2
274
     3
340
11
275
     0
280
     0
281
     0
282
     0
283
     0
284
     8
285
     0
286
     0
287
     3
288
     0
  0
ENDTAB
  0
TABLE
  2
BLOCK_RECORD
  5
1
330
0
100
AcDbSymbolTable
 70
     1
  0
BLOCK_RECORD
  5
1F
330
1
100
AcDbSymbolTableRecord
100
AcDbBlockTableRecord
  2
*MODEL_SPACE
  0
BLOCK_RECORD
  5
1B
330
1
100
AcDbSymbolTableRecord
100
AcDbBlockTableRecord
  2
*PAPER_SPACE
  0
ENDTAB
  0
ENDSEC
  0
SECTION
  2
BLOCKS
  0
BLOCK
  5
20
330
1F
100
AcDbEntity
  8
0
100
AcDbBlockBegin
  2
*MODEL_SPACE
 70
     0
 10
0.0
 20
0.0
 30
0.0
  3
*MODEL_SPACE
  1

  0
ENDBLK
  5
21
330
1F
100
AcDbEntity
  8
0
100
AcDbBlockEnd
  0
BLOCK
  5
1C
330
1B
100
AcDbEntity
 67
     1
  8
0
100
AcDbBlockBegin
  2
*PAPER_SPACE
  1

  0
ENDBLK
  5
1D
330
1B
100
AcDbEntity
 67
     1
  8
0
100
AcDbBlockEnd
  0
ENDSEC
  0
SECTION
  2
ENTITIES
  0
LINE
  5
100
100
AcDbEntity
  8
panel
 62
7
100
AcDbLine
 10
0.049951
 20
0.049849
 30
0.0
 11
50.750047
 21
0.049849
 31
0.0
  0
LINE
  5
101
100
AcDbEntity
  8
panel
 62
7
100
AcDbLine
 10
0.049951
 20
128.450048
 30
0.0
 11
0.049951
 21
0.049849
 31
0.0
  0
LINE
  5
102
100
AcDbEntity
  8
panel
 62
7
100
AcDbLine
 10
50.750047
 20
0.049849
 30
0.0
 11
50.750047
 21
128.450048
 31
0.0
  0
LINE
  5
103
100
AcDbEntity
  8
panel
 62
7
100
AcDbLine
 10
50.750047
 20
128.450048
 30
0.0
 11
0.049951
 21
128.450048
 31
0.0
  0
SPLINE
  5
104
100
AcDbEntity
  8
panel
 62
7
100
AcDbSpline
 70
8
 71
3
 72
8
 73
4
 74
0
 40
0
 40
0
 40
0
 40
0
 40
1
 40
1
 40
1
 40
1
 10
3.044011
 20
4.596334
 30
0.0
 10
2.190265
 20
4.595469
 30
0.0
 10
1.498625
 20
3.902303
 30
0.0
 10
1.498625
 20
3.047538
 30
0.0
  0
SPLINE
  5
105
100
AcDbEntity
  8
panel
 62
7
100
AcDbSpline
 70
8
 71
3
 72
8
 73
4
 74
0
 40
0
 40
0
 40
0
 40
0
 40
1
 40
1
 40
1
 40
1
 10
1.498625
 20
3.047538
 30
0.0
 10
1.498625
 20
2.192773
 30
0.0
 10
2.190265
 20
1.499606
 30
0.0
 10
3.044011
 20
1.498741
 30
0.0
  0
LINE
  5
106
100
AcDbEntity
  8
panel
 62
7
100
AcDbLine
 10
3.043898
 20
1.498641
 30
0.0
 11
6.038108
 21
1.498641
 31
0.0
  0
SPLINE
  5
107
100
AcDbEntity
  8
panel
 62
7
100
AcDbSpline
 70
8
 71
3
 72
8
 73
4
 74
0
 40
0
 40
0
 40
0
 40
0
 40
1
 40
1
 40
1
 40
1
 10
6.038111
 20
1.498741
 30
0.0
 10
6.891857
 20
1.499606
 30
0.0
 10
7.583497
 20
2.192773
 30
0.0
 10
7.583497
 20
3.047538
 30
0.0
  0
SPLINE
  5
108
100
AcDbEntity
  8
panel
 62
7
100
AcDbSpline
 70
8
 71
3
 72
8
 73
4
 74
0
 40
0
 40
0
 40
0
 40
0
 40
1
 40
1
 40
1
 40
1
 10
7.583497
 20
3.047538
 30
0.0
 10
7.583497
 20
3.902303
 30
0.0
 10
6.891857
 20
4.595469
 30
0.0
 10
6.038111
 20
4.596334
 30
0.0
  0
LINE
  5
109
100
AcDbEntity
  8
panel
 62
7
100
AcDbLine
 10
3.043898
 20
4.596358
 30
0.0
 11
6.038108
 21
4.596358
 31
0.0
  0
SPLINE
  5
10a
100
AcDbEntity
  8
panel
 62
7
100
AcDbSpline
 70
8
 71
3
 72
8
 73
4
 74
0
 40
0
 40
0
 40
0
 40
0
 40
1
 40
1
 40
1
 40
1
 10
9.481326
 20
19.584695
 30
0.0
 10
9.481326
 20
20.709209
 30
0.0
 10
8.882120
 20
21.748302
 30
0.0
 10
7.909423
 20
22.310559
 30
0.0
  0
SPLINE
  5
10b
100
AcDbEntity
  8
panel
 62
7
100
AcDbSpline
 70
8
 71
3
 72
8
 73
4
 74
0
 40
0
 40
0
 40
0
 40
0
 40
1
 40
1
 40
1
 40
1
 10
7.909423
 20
22.310559
 30
0.0
 10
6.936726
 20
22.872815
 30
0.0
 10
5.738314
 20
22.872815
 30
0.0
 10
4.765617
 20
22.310559
 30
0.0
  0
SPLINE
  5
10c
100
AcDbEntity
  8
panel
 62
7
100
AcDbSpline
 70
8
 71
3
 72
8
 73
4
 74
0
 40
0
 40
0
 40
0
 40
0
 40
1
 40
1
 40
1
 40
1
 10
4.765617
 20
22.310559
 30
0.0
 10
3.792920
 20
21.748302
 30
0.0
 10
3.193714
 20
20.709209
 30
0.0
 10
3.193714
 20
19.584695
 30
0.0
  0
SPLINE
  5
10d
100
AcDbEntity
  8
panel
 62
7
100
AcDbSpline
 70
8
 71
3
 72
8
 73
4
 74
0
 40
0
 40
0
 40
0
 40
0
 40
1
 40
1
 40
1
 40
1
 10
3.193714
 20
19.584695
 30
0.0
 10
3.193714
 20
18.460181
 30
0.0
 10
3.792920
 20
17.421088
 30
0.0
 10
4.765617
 20
16.858831
 30
0.0
  0
SPLINE
  5
10e
100
AcDbEntity
  8
panel
 62
7
100
AcDbSpline
 70
8
 71
3
 72
8
 73
4
 74
0
 40
0
 40
0
 40
0
 40
0
 40
1
 40
1
 40
1
 40
1
 10
4.765617
 20
16.858831
 30
0.0
 10
5.738314
 20
16.296575
 30
0.0
 10
6.936726
 20
16.296575
 30
0.0
 10
7.909423
 20
16.858831
 30
0.0
  0
SPLINE
  5
10f
100
AcDbEntity
  8
panel
 62
7
100
AcDbSpline
 70
8
 71
3
 72
8
 73
4
 74
0
 40
0
 40
0
 40
0
 40
0
 40
1
 40
1
 40
1
 40
1
 10
7.909423
 20
16.858831
 30
0.0
 10
8.882120
 20
17.421088
 30
0.0
 10
9.481326
 20
18.460181
 30
0.0
 10
9.481326
 20
19.584695
 30
0.0
  0
LINE
  5
110
100
AcDbEntity
  8
panel
 62
7
100
AcDbLine
 10
9.481326
 20
19.584695
 30
0.0
 11
9.481326
 21
19.584695
 31
0.0
  0
SPLINE
  5
111
100
AcDbEntity
  8
panel
 62
7
100
AcDbSpline
 70
8
 71
3
 72
8
 73
4
 74
0
 40
0
 40
0
 40
0
 40
0
 40
1
 40
1
 40
1
 40
1
 10
19.012545
 20
19.584695
 30
0.0
 10
19.012545
 20
21.323042
 30
0.0
 10
17.605015
 20
22.732251
 30
0.0
 10
15.868739
 20
22.732251
 30
0.0
  0
SPLINE
  5
112
100
AcDbEntity
  8
panel
 62
7
100
AcDbSpline
 70
8
 71
3
 72
8
 73
4
 74
0
 40
0
 40
0
 40
0
 40
0
 40
1
 40
1
 40
1
 40
1
 10
15.868739
 20
22.732251
 30
0.0
 10
14.132463
 20
22.732251
 30
0.0
 10
12.724933
 20
21.323042
 30
0.0
 10
12.724933
 20
19.584695
 30
0.0
  0
SPLINE
  5
113
100
AcDbEntity
  8
panel
 62
7
100
AcDbSpline
 70
8
 71
3
 72
8
 73
4
 74
0
 40
0
 40
0
 40
0
 40
0
 40
1
 40
1
 40
1
 40
1
 10
12.724933
 20
19.584695
 30
0.0
 10
12.724933
 20
18.460181
 30
0.0
 10
13.324139
 20
17.421088
 30
0.0
 10
14.296836
 20
16.858831
 30
0.0
  0
SPLINE
  5
114
100
AcDbEntity
  8
panel
 62
7
100
AcDbSpline
 70
8
 71
3
 72
8
 73
4
 74
0
 40
0
 40
0
 40
0
 40
0
 40
1
 40
1
 40
1
 40
1
 10
14.296836
 20
16.858831
 30
0.0
 10
15.269533
 20
16.296575
 30
0.0
 10
16.467945
 20
16.296575
 30
0.0
 10
17.440642
 20
16.858831
 30
0.0
  0
SPLINE
  5
115
100
AcDbEntity
  8
panel
 62
7
100
AcDbSpline
 70
8
 71
3
 72
8
 73
4
 74
0
 40
0
 40
0
 40
0
 40
0
 40
1
 40
1
 40
1
 40
1
 10
17.440642
 20
16.858831
 30
0.0
 10
18.413339
 20
17.421088
 30
0.0
 10
19.012545
 20
18.460181
 30
0.0
 10
19.012545
 20
19.584695
 30
0.0
  0
LINE
  5
116
100
AcDbEntity
  8
panel
 62
7
100
AcDbLine
 10
19.012545
 20
19.584695
 30
0.0
 11
19.012545
 21
19.584695
 31
0.0
  0
SPLINE
  5
117
100
AcDbEntity
  8
panel
 62
7
100
AcDbSpline
 70
8
 71
3
 72
8
 73
4
 74
0
 40
0
 40
0
 40
0
 40
0
 40
1
 40
1
 40
1
 40
1
 10
28.543762
 20
19.584695
 30
0.0
 10
28.542756
 20
21.322329
 30
0.0
 10
27.135521
 20
22.730426
 30
0.0
 10
25.399957
 20
22.730426
 30
0.0
  0
SPLINE
  5
118
100
AcDbEntity
  8
panel
 62
7
100
AcDbSpline
 70
8
 71
3
 72
8
 73
4
 74
0
 40
0
 40
0
 40
0
 40
0
 40
1
 40
1
 40
1
 40
1
 10
25.399957
 20
22.730426
 30
0.0
 10
23.664393
 20
22.730426
 30
0.0
 10
22.257158
 20
21.322329
 30
0.0
 10
22.256152
 20
19.584695
 30
0.0
  0
SPLINE
  5
119
100
AcDbEntity
  8
panel
 62
7
100
AcDbSpline
 70
8
 71
3
 72
8
 73
4
 74
0
 40
0
 40
0
 40
0
 40
0
 40
1
 40
1
 40
1
 40
1
 10
22.256152
 20
19.584695
 30
0.0
 10
22.257158
 20
17.847061
 30
0.0
 10
23.664393
 20
16.438964
 30
0.0
 10
25.399957
 20
16.438964
 30
0.0
  0
SPLINE
  5
11a
100
AcDbEntity
  8
panel
 62
7
100
AcDbSpline
 70
8
 71
3
 72
8
 73
4
 74
0
 40
0
 40
0
 40
0
 40
0
 40
1
 40
1
 40
1
 40
1
 10
25.399957
 20
16.438964
 30
0.0
 10
27.135521
 20
16.438964
 30
0.0
 10
28.542756
 20
17.847061
 30
0.0
 10
28.543762
 20
19.584695
 30
0.0
  0
LINE
  5
11b
100
AcDbEntity
  8
panel
 62
7
100
AcDbLine
 10
28.543762
 20
19.584695
 30
0.0
 11
28.543762
 21
19.584695
 31
0.0
  0
SPLINE
  5
11c
100
AcDbEntity
  8
panel
 62
7
100
AcDbSpline
 70
8
 71
3
 72
8
 73
4
 74
0
 40
0
 40
0
 40
0
 40
0
 40
1
 40
1
 40
1
 40
1
 10
9.481326
 20
33.274061
 30
0.0
 10
9.481326
 20
34.398574
 30
0.0
 10
8.882120
 20
35.437668
 30
0.0
 10
7.909423
 20
35.999925
 30
0.0
  0
SPLINE
  5
11d
100
AcDbEntity
  8
panel
 62
7
100
AcDbSpline
 70
8
 71
3
 72
8
 73
4
 74
0
 40
0
 40
0
 40
0
 40
0
 40
1
 40
1
 40
1
 40
1
 10
7.909423
 20
35.999925
 30
0.0
 10
6.936726
 20
36.562181
 30
0.0
 10
5.738314
 20
36.562181
 30
0.0
 10
4.765617
 20
35.999925
 30
0.0
  0
SPLINE
  5
11e
100
AcDbEntity
  8
panel
 62
7
100
AcDbSpline
 70
8
 71
3
 72
8
 73
4
 74
0
 40
0
 40
0
 40
0
 40
0
 40
1
 40
1
 40
1
 40
1
 10
4.765617
 20
35.999925
 30
0.0
 10
3.792920
 20
35.437668
 30
0.0
 10
3.193714
 20
34.398574
 30
0.0
 10
3.193714
 20
33.274061
 30
0.0
  0
SPLINE
  5
11f
100
AcDbEntity
  8
panel
 62
7
100
AcDbSpline
 70
8
 71
3
 72
8
 73
4
 74
0
 40
0
 40
0
 40
0
 40
0
 40
1
 40
1
 40
1
 40
1
 10
3.193714
 20
33.274061
 30
0.0
 10
3.193714
 20
32.149547
 30
0.0
 10
3.792920
 20
31.110454
 30
0.0
 10
4.765617
 20
30.548197
 30
0.0
  0
SPLINE
  5
120
100
AcDbEntity
  8
panel
 62
7
100
AcDbSpline
 70
8
 71
3
 72
8
 73
4
 74
0
 40
0
 40
0
 40
0
 40
0
 40
1
 40
1
 40
1
 40
1
 10
4.765617
 20
30.548197
 30
0.0
 10
5.738314
 20
29.985940
 30
0.0
 10
6.936726
 20
29.985940
 30
0.0
 10
7.909423
 20
30.548197
 30
0.0
  0
SPLINE
  5
121
100
AcDbEntity
  8
panel
 62
7
100
AcDbSpline
 70
8
 71
3
 72
8
 73
4
 74
0
 40
0
 40
0
 40
0
 40
0
 40
1
 40
1
 40
1
 40
1
 10
7.909423
 20
30.548197
 30
0.0
 10
8.882120
 20
31.110454
 30
0.0
 10
9.481326
 20
32.149547
 30
0.0
 10
9.481326
 20
33.274061
 30
0.0
  0
LINE
  5
122
100
AcDbEntity
  8
panel
 62
7
100
AcDbLine
 10
9.481326
 20
33.274061
 30
0.0
 11
9.481326
 21
33.274061
 31
0.0
  0
SPLINE
  5
123
100
AcDbEntity
  8
panel
 62
7
100
AcDbSpline
 70
8
 71
3
 72
8
 73
4
 74
0
 40
0
 40
0
 40
0
 40
0
 40
1
 40
1
 40
1
 40
1
 10
11.731890
 20
45.614478
 30
0.0
 10
11.731289
 20
46.441836
 30
0.0
 10
11.061213
 20
47.112223
 30
0.0
 10
10.234840
 20
47.112223
 30
0.0
  0
SPLINE
  5
124
100
AcDbEntity
  8
panel
 62
7
100
AcDbSpline
 70
8
 71
3
 72
8
 73
4
 74
0
 40
0
 40
0
 40
0
 40
0
 40
1
 40
1
 40
1
 40
1
 10
10.234840
 20
47.112223
 30
0.0
 10
9.408467
 20
47.112223
 30
0.0
 10
8.738392
 20
46.441836
 30
0.0
 10
8.737790
 20
45.614478
 30
0.0
  0
SPLINE
  5
125
100
AcDbEntity
  8
panel
 62
7
100
AcDbSpline
 70
8
 71
3
 72
8
 73
4
 74
0
 40
0
 40
0
 40
0
 40
0
 40
1
 40
1
 40
1
 40
1
 10
8.737790
 20
45.614478
 30
0.0
 10
8.738392
 20
44.787119
 30
0.0
 10
9.408467
 20
44.116732
 30
0.0
 10
10.234840
 20
44.116732
 30
0.0
  0
SPLINE
  5
126
100
AcDbEntity
  8
panel
 62
7
100
AcDbSpline
 70
8
 71
3
 72
8
 73
4
 74
0
 40
0
 40
0
 40
0
 40
0
 40
1
 40
1
 40
1
 40
1
 10
10.234840
 20
44.116732
 30
0.0
 10
11.061213
 20
44.116732
 30
0.0
 10
11.731289
 20
44.787119
 30
0.0
 10
11.731890
 20
45.614478
 30
0.0
  0
LINE
  5
127
100
AcDbEntity
  8
panel
 62
7
100
AcDbLine
 10
11.731890
 20
45.614478
 30
0.0
 11
11.731890
 21
45.614478
 31
0.0
  0
SPLINE
  5
128
100
AcDbEntity
  8
panel
 62
7
100
AcDbSpline
 70
8
 71
3
 72
8
 73
4
 74
0
 40
0
 40
0
 40
0
 40
0
 40
1
 40
1
 40
1
 40
1
 10
38.074981
 20
19.584695
 30
0.0
 10
38.073975
 20
21.322329
 30
0.0
 10
36.666741
 20
22.730426
 30
0.0
 10
34.931176
 20
22.730426
 30
0.0
  0
SPLINE
  5
129
100
AcDbEntity
  8
panel
 62
7
100
AcDbSpline
 70
8
 71
3
 72
8
 73
4
 74
0
 40
0
 40
0
 40
0
 40
0
 40
1
 40
1
 40
1
 40
1
 10
34.931176
 20
22.730426
 30
0.0
 10
33.195612
 20
22.730426
 30
0.0
 10
31.788378
 20
21.322329
 30
0.0
 10
31.787372
 20
19.584695
 30
0.0
  0
SPLINE
  5
12a
100
AcDbEntity
  8
panel
 62
7
100
AcDbSpline
 70
8
 71
3
 72
8
 73
4
 74
0
 40
0
 40
0
 40
0
 40
0
 40
1
 40
1
 40
1
 40
1
 10
31.787372
 20
19.584695
 30
0.0
 10
31.788378
 20
17.847061
 30
0.0
 10
33.195612
 20
16.438964
 30
0.0
 10
34.931176
 20
16.438964
 30
0.0
  0
SPLINE
  5
12b
100
AcDbEntity
  8
panel
 62
7
100
AcDbSpline
 70
8
 71
3
 72
8
 73
4
 74
0
 40
0
 40
0
 40
0
 40
0
 40
1
 40
1
 40
1
 40
1
 10
34.931176
 20
16.438964
 30
0.0
 10
36.666741
 20
16.438964
 30
0.0
 10
38.073975
 20
17.847061
 30
0.0
 10
38.074981
 20
19.584695
 30
0.0
  0
LINE
  5
12c
100
AcDbEntity
  8
panel
 62
7
100
AcDbLine
 10
38.074981
 20
19.584695
 30
0.0
 11
38.074981
 21
19.584695
 31
0.0
  0
SPLINE
  5
12d
100
AcDbEntity
  8
panel
 62
7
100
AcDbSpline
 70
8
 71
3
 72
8
 73
4
 74
0
 40
0
 40
0
 40
0
 40
0
 40
1
 40
1
 40
1
 40
1
 10
44.761806
 20
4.596334
 30
0.0
 10
43.908060
 20
4.595469
 30
0.0
 10
43.216420
 20
3.902303
 30
0.0
 10
43.216420
 20
3.047538
 30
0.0
  0
SPLINE
  5
12e
100
AcDbEntity
  8
panel
 62
7
100
AcDbSpline
 70
8
 71
3
 72
8
 73
4
 74
0
 40
0
 40
0
 40
0
 40
0
 40
1
 40
1
 40
1
 40
1
 10
43.216420
 20
3.047538
 30
0.0
 10
43.216420
 20
2.192773
 30
0.0
 10
43.908060
 20
1.499606
 30
0.0
 10
44.761806
 20
1.498741
 30
0.0
  0
LINE
  5
12f
100
AcDbEntity
  8
panel
 62
7
100
AcDbLine
 10
44.761891
 20
1.498641
 30
0.0
 11
47.755837
 21
1.498641
 31
0.0
  0
SPLINE
  5
130
100
AcDbEntity
  8
panel
 62
7
100
AcDbSpline
 70
8
 71
3
 72
8
 73
4
 74
0
 40
0
 40
0
 40
0
 40
0
 40
1
 40
1
 40
1
 40
1
 10
47.755906
 20
1.498741
 30
0.0
 10
48.609652
 20
1.499606
 30
0.0
 10
49.301292
 20
2.192773
 30
0.0
 10
49.301292
 20
3.047538
 30
0.0
  0
SPLINE
  5
131
100
AcDbEntity
  8
panel
 62
7
100
AcDbSpline
 70
8
 71
3
 72
8
 73
4
 74
0
 40
0
 40
0
 40
0
 40
0
 40
1
 40
1
 40
1
 40
1
 10
49.301292
 20
3.047538
 30
0.0
 10
49.301292
 20
3.902303
 30
0.0
 10
48.609652
 20
4.595469
 30
0.0
 10
47.755906
 20
4.596334
 30
0.0
  0
LINE
  5
132
100
AcDbEntity
  8
panel
 62
7
100
AcDbLine
 10
44.761891
 20
4.596358
 30
0.0
 11
47.755837
 21
4.596358
 31
0.0
  0
SPLINE
  5
133
100
AcDbEntity
  8
panel
 62
7
100
AcDbSpline
 70
8
 71
3
 72
8
 73
4
 74
0
 40
0
 40
0
 40
0
 40
0
 40
1
 40
1
 40
1
 40
1
 10
47.606200
 20
19.584695
 30
0.0
 10
47.605194
 20
21.322329
 30
0.0
 10
46.197960
 20
22.730426
 30
0.0
 10
44.462396
 20
22.730426
 30
0.0
  0
SPLINE
  5
134
100
AcDbEntity
  8
panel
 62
7
100
AcDbSpline
 70
8
 71
3
 72
8
 73
4
 74
0
 40
0
 40
0
 40
0
 40
0
 40
1
 40
1
 40
1
 40
1
 10
44.462396
 20
22.730426
 30
0.0
 10
42.726832
 20
22.730426
 30
0.0
 10
41.319597
 20
21.322329
 30
0.0
 10
41.318591
 20
19.584695
 30
0.0
  0
SPLINE
  5
135
100
AcDbEntity
  8
panel
 62
7
100
AcDbSpline
 70
8
 71
3
 72
8
 73
4
 74
0
 40
0
 40
0
 40
0
 40
0
 40
1
 40
1
 40
1
 40
1
 10
41.318591
 20
19.584695
 30
0.0
 10
41.319597
 20
17.847061
 30
0.0
 10
42.726832
 20
16.438964
 30
0.0
 10
44.462396
 20
16.438964
 30
0.0
  0
SPLINE
  5
136
100
AcDbEntity
  8
panel
 62
7
100
AcDbSpline
 70
8
 71
3
 72
8
 73
4
 74
0
 40
0
 40
0
 40
0
 40
0
 40
1
 40
1
 40
1
 40
1
 10
44.462396
 20
16.438964
 30
0.0
 10
46.197960
 20
16.438964
 30
0.0
 10
47.605194
 20
17.847061
 30
0.0
 10
47.606200
 20
19.584695
 30
0.0
  0
LINE
  5
137
100
AcDbEntity
  8
panel
 62
7
100
AcDbLine
 10
47.606200
 20
19.584695
 30
0.0
 11
47.606200
 21
19.584695
 31
0.0
  0
SPLINE
  5
138
100
AcDbEntity
  8
panel
 62
7
100
AcDbSpline
 70
8
 71
3
 72
8
 73
4
 74
0
 40
0
 40
0
 40
0
 40
0
 40
1
 40
1
 40
1
 40
1
 10
15.519427
 20
69.246125
 30
0.0
 10
15.519427
 20
70.531283
 30
0.0
 10
14.834621
 20
71.718818
 30
0.0
 10
13.722967
 20
72.361397
 30
0.0
  0
SPLINE
  5
139
100
AcDbEntity
  8
panel
 62
7
100
AcDbSpline
 70
8
 71
3
 72
8
 73
4
 74
0
 40
0
 40
0
 40
0
 40
0
 40
1
 40
1
 40
1
 40
1
 10
13.722967
 20
72.361397
 30
0.0
 10
12.611314
 20
73.003976
 30
0.0
 10
11.241700
 20
73.003976
 30
0.0
 10
10.130047
 20
72.361397
 30
0.0
  0
SPLINE
  5
13a
100
AcDbEntity
  8
panel
 62
7
100
AcDbSpline
 70
8
 71
3
 72
8
 73
4
 74
0
 40
0
 40
0
 40
0
 40
0
 40
1
 40
1
 40
1
 40
1
 10
10.130047
 20
72.361397
 30
0.0
 10
9.018393
 20
71.718818
 30
0.0
 10
8.333587
 20
70.531283
 30
0.0
 10
8.333587
 20
69.246125
 30
0.0
  0
SPLINE
  5
13b
100
AcDbEntity
  8
panel
 62
7
100
AcDbSpline
 70
8
 71
3
 72
8
 73
4
 74
0
 40
0
 40
0
 40
0
 40
0
 40
1
 40
1
 40
1
 40
1
 10
8.333587
 20
69.246125
 30
0.0
 10
8.333587
 20
67.960967
 30
0.0
 10
9.018393
 20
66.773432
 30
0.0
 10
10.130047
 20
66.130853
 30
0.0
  0
SPLINE
  5
13c
100
AcDbEntity
  8
panel
 62
7
100
AcDbSpline
 70
8
 71
3
 72
8
 73
4
 74
0
 40
0
 40
0
 40
0
 40
0
 40
1
 40
1
 40
1
 40
1
 10
10.130047
 20
66.130853
 30
0.0
 10
11.241700
 20
65.488274
 30
0.0
 10
12.611314
 20
65.488274
 30
0.0
 10
13.722967
 20
66.130853
 30
0.0
  0
SPLINE
  5
13d
100
AcDbEntity
  8
panel
 62
7
100
AcDbSpline
 70
8
 71
3
 72
8
 73
4
 74
0
 40
0
 40
0
 40
0
 40
0
 40
1
 40
1
 40
1
 40
1
 10
13.722967
 20
66.130853
 30
0.0
 10
14.834621
 20
66.773432
 30
0.0
 10
15.519427
 20
67.960967
 30
0.0
 10
15.519427
 20
69.246125
 30
0.0
  0
LINE
  5
13e
100
AcDbEntity
  8
panel
 62
7
100
AcDbLine
 10
15.519427
 20
69.246125
 30
0.0
 11
15.519427
 21
69.246125
 31
0.0
  0
SPLINE
  5
13f
100
AcDbEntity
  8
panel
 62
7
100
AcDbSpline
 70
8
 71
3
 72
8
 73
4
 74
0
 40
0
 40
0
 40
0
 40
0
 40
1
 40
1
 40
1
 40
1
 10
11.633085
 20
103.469542
 30
0.0
 10
11.632595
 20
104.296979
 30
0.0
 10
10.962486
 20
104.967488
 30
0.0
 10
10.136036
 20
104.967488
 30
0.0
  0
SPLINE
  5
140
100
AcDbEntity
  8
panel
 62
7
100
AcDbSpline
 70
8
 71
3
 72
8
 73
4
 74
0
 40
0
 40
0
 40
0
 40
0
 40
1
 40
1
 40
1
 40
1
 10
10.136036
 20
104.967488
 30
0.0
 10
9.309585
 20
104.967488
 30
0.0
 10
8.639477
 20
104.296979
 30
0.0
 10
8.638986
 20
103.469542
 30
0.0
  0
SPLINE
  5
141
100
AcDbEntity
  8
panel
 62
7
100
AcDbSpline
 70
8
 71
3
 72
8
 73
4
 74
0
 40
0
 40
0
 40
0
 40
0
 40
1
 40
1
 40
1
 40
1
 10
8.638986
 20
103.469542
 30
0.0
 10
8.639477
 20
102.642106
 30
0.0
 10
9.309585
 20
101.971597
 30
0.0
 10
10.136036
 20
101.971597
 30
0.0
  0
SPLINE
  5
142
100
AcDbEntity
  8
panel
 62
7
100
AcDbSpline
 70
8
 71
3
 72
8
 73
4
 74
0
 40
0
 40
0
 40
0
 40
0
 40
1
 40
1
 40
1
 40
1
 10
10.136036
 20
101.971597
 30
0.0
 10
10.962486
 20
101.971597
 30
0.0
 10
11.632595
 20
102.642106
 30
0.0
 10
11.633085
 20
103.469542
 30
0.0
  0
LINE
  5
143
100
AcDbEntity
  8
panel
 62
7
100
AcDbLine
 10
11.633085
 20
103.469542
 30
0.0
 11
11.633085
 21
103.469542
 31
0.0
  0
SPLINE
  5
144
100
AcDbEntity
  8
panel
 62
7
100
AcDbSpline
 70
8
 71
3
 72
8
 73
4
 74
0
 40
0
 40
0
 40
0
 40
0
 40
1
 40
1
 40
1
 40
1
 10
11.633085
 20
109.764655
 30
0.0
 10
11.632595
 20
110.592091
 30
0.0
 10
10.962486
 20
111.262600
 30
0.0
 10
10.136036
 20
111.262600
 30
0.0
  0
SPLINE
  5
145
100
AcDbEntity
  8
panel
 62
7
100
AcDbSpline
 70
8
 71
3
 72
8
 73
4
 74
0
 40
0
 40
0
 40
0
 40
0
 40
1
 40
1
 40
1
 40
1
 10
10.136036
 20
111.262600
 30
0.0
 10
9.309585
 20
111.262600
 30
0.0
 10
8.639477
 20
110.592091
 30
0.0
 10
8.638986
 20
109.764655
 30
0.0
  0
SPLINE
  5
146
100
AcDbEntity
  8
panel
 62
7
100
AcDbSpline
 70
8
 71
3
 72
8
 73
4
 74
0
 40
0
 40
0
 40
0
 40
0
 40
1
 40
1
 40
1
 40
1
 10
8.638986
 20
109.764655
 30
0.0
 10
8.639477
 20
108.937218
 30
0.0
 10
9.309585
 20
108.266709
 30
0.0
 10
10.136036
 20
108.266709
 30
0.0
  0
SPLINE
  5
147
100
AcDbEntity
  8
panel
 62
7
100
AcDbSpline
 70
8
 71
3
 72
8
 73
4
 74
0
 40
0
 40
0
 40
0
 40
0
 40
1
 40
1
 40
1
 40
1
 10
10.136036
 20
108.266709
 30
0.0
 10
10.962486
 20
108.266709
 30
0.0
 10
11.632595
 20
108.937218
 30
0.0
 10
11.633085
 20
109.764655
 30
0.0
  0
LINE
  5
148
100
AcDbEntity
  8
panel
 62
7
100
AcDbLine
 10
11.633085
 20
109.764655
 30
0.0
 11
11.633085
 21
109.764655
 31
0.0
  0
SPLINE
  5
149
100
AcDbEntity
  8
panel
 62
7
100
AcDbSpline
 70
8
 71
3
 72
8
 73
4
 74
0
 40
0
 40
0
 40
0
 40
0
 40
1
 40
1
 40
1
 40
1
 10
3.044011
 20
127.001268
 30
0.0
 10
2.491338
 20
127.001268
 30
0.0
 10
1.980648
 20
126.706068
 30
0.0
 10
1.704311
 20
126.226869
 30
0.0
  0
SPLINE
  5
14a
100
AcDbEntity
  8
panel
 62
7
100
AcDbSpline
 70
8
 71
3
 72
8
 73
4
 74
0
 40
0
 40
0
 40
0
 40
0
 40
1
 40
1
 40
1
 40
1
 10
1.704311
 20
126.226869
 30
0.0
 10
1.427975
 20
125.747669
 30
0.0
 10
1.427975
 20
125.157271
 30
0.0
 10
1.704311
 20
124.678071
 30
0.0
  0
SPLINE
  5
14b
100
AcDbEntity
  8
panel
 62
7
100
AcDbSpline
 70
8
 71
3
 72
8
 73
4
 74
0
 40
0
 40
0
 40
0
 40
0
 40
1
 40
1
 40
1
 40
1
 10
1.704311
 20
124.678071
 30
0.0
 10
1.980648
 20
124.198871
 30
0.0
 10
2.491338
 20
123.903672
 30
0.0
 10
3.044011
 20
123.903672
 30
0.0
  0
LINE
  5
14c
100
AcDbEntity
  8
panel
 62
7
100
AcDbLine
 10
3.043898
 20
123.903804
 30
0.0
 11
6.038108
 21
123.903804
 31
0.0
  0
SPLINE
  5
14d
100
AcDbEntity
  8
panel
 62
7
100
AcDbSpline
 70
8
 71
3
 72
8
 73
4
 74
0
 40
0
 40
0
 40
0
 40
0
 40
1
 40
1
 40
1
 40
1
 10
6.038111
 20
123.903672
 30
0.0
 10
6.590784
 20
123.903672
 30
0.0
 10
7.101474
 20
124.198871
 30
0.0
 10
7.377811
 20
124.678071
 30
0.0
  0
SPLINE
  5
14e
100
AcDbEntity
  8
panel
 62
7
100
AcDbSpline
 70
8
 71
3
 72
8
 73
4
 74
0
 40
0
 40
0
 40
0
 40
0
 40
1
 40
1
 40
1
 40
1
 10
7.377811
 20
124.678071
 30
0.0
 10
7.654147
 20
125.157271
 30
0.0
 10
7.654147
 20
125.747669
 30
0.0
 10
7.377811
 20
126.226869
 30
0.0
  0
SPLINE
  5
14f
100
AcDbEntity
  8
panel
 62
7
100
AcDbSpline
 70
8
 71
3
 72
8
 73
4
 74
0
 40
0
 40
0
 40
0
 40
0
 40
1
 40
1
 40
1
 40
1
 10
7.377811
 20
126.226869
 30
0.0
 10
7.101474
 20
126.706068
 30
0.0
 10
6.590784
 20
127.001268
 30
0.0
 10
6.038111
 20
127.001268
 30
0.0
  0
LINE
  5
150
100
AcDbEntity
  8
panel
 62
7
100
AcDbLine
 10
3.043898
 20
127.001257
 30
0.0
 11
6.038108
 21
127.001257
 31
0.0
  0
SPLINE
  5
151
100
AcDbEntity
  8
panel
 62
7
100
AcDbSpline
 70
8
 71
3
 72
8
 73
4
 74
0
 40
0
 40
0
 40
0
 40
0
 40
1
 40
1
 40
1
 40
1
 10
28.992878
 20
104.218961
 30
0.0
 10
28.992877
 20
106.205643
 30
0.0
 10
27.384272
 20
107.816167
 30
0.0
 10
25.399957
 20
107.816167
 30
0.0
  0
SPLINE
  5
152
100
AcDbEntity
  8
panel
 62
7
100
AcDbSpline
 70
8
 71
3
 72
8
 73
4
 74
0
 40
0
 40
0
 40
0
 40
0
 40
1
 40
1
 40
1
 40
1
 10
25.399957
 20
107.816167
 30
0.0
 10
23.415642
 20
107.816167
 30
0.0
 10
21.807037
 20
106.205643
 30
0.0
 10
21.807037
 20
104.218961
 30
0.0
  0
SPLINE
  5
153
100
AcDbEntity
  8
panel
 62
7
100
AcDbSpline
 70
8
 71
3
 72
8
 73
4
 74
0
 40
0
 40
0
 40
0
 40
0
 40
1
 40
1
 40
1
 40
1
 10
21.807037
 20
104.218961
 30
0.0
 10
21.807037
 20
102.933803
 30
0.0
 10
22.491843
 20
101.746268
 30
0.0
 10
23.603497
 20
101.103689
 30
0.0
  0
SPLINE
  5
154
100
AcDbEntity
  8
panel
 62
7
100
AcDbSpline
 70
8
 71
3
 72
8
 73
4
 74
0
 40
0
 40
0
 40
0
 40
0
 40
1
 40
1
 40
1
 40
1
 10
23.603497
 20
101.103689
 30
0.0
 10
24.715150
 20
100.461110
 30
0.0
 10
26.084764
 20
100.461110
 30
0.0
 10
27.196417
 20
101.103689
 30
0.0
  0
SPLINE
  5
155
100
AcDbEntity
  8
panel
 62
7
100
AcDbSpline
 70
8
 71
3
 72
8
 73
4
 74
0
 40
0
 40
0
 40
0
 40
0
 40
1
 40
1
 40
1
 40
1
 10
27.196417
 20
101.103689
 30
0.0
 10
28.308071
 20
101.746268
 30
0.0
 10
28.992878
 20
102.933803
 30
0.0
 10
28.992878
 20
104.218961
 30
0.0
  0
LINE
  5
156
100
AcDbEntity
  8
panel
 62
7
100
AcDbLine
 10
28.992878
 20
104.218961
 30
0.0
 11
28.992878
 21
104.218961
 31
0.0
  0
SPLINE
  5
157
100
AcDbEntity
  8
panel
 62
7
100
AcDbSpline
 70
8
 71
3
 72
8
 73
4
 74
0
 40
0
 40
0
 40
0
 40
0
 40
1
 40
1
 40
1
 40
1
 10
42.466328
 20
69.246125
 30
0.0
 10
42.466328
 20
70.531283
 30
0.0
 10
41.781521
 20
71.718818
 30
0.0
 10
40.669867
 20
72.361397
 30
0.0
  0
SPLINE
  5
158
100
AcDbEntity
  8
panel
 62
7
100
AcDbSpline
 70
8
 71
3
 72
8
 73
4
 74
0
 40
0
 40
0
 40
0
 40
0
 40
1
 40
1
 40
1
 40
1
 10
40.669867
 20
72.361397
 30
0.0
 10
39.558214
 20
73.003976
 30
0.0
 10
38.188601
 20
73.003976
 30
0.0
 10
37.076947
 20
72.361397
 30
0.0
  0
SPLINE
  5
159
100
AcDbEntity
  8
panel
 62
7
100
AcDbSpline
 70
8
 71
3
 72
8
 73
4
 74
0
 40
0
 40
0
 40
0
 40
0
 40
1
 40
1
 40
1
 40
1
 10
37.076947
 20
72.361397
 30
0.0
 10
35.965294
 20
71.718818
 30
0.0
 10
35.280487
 20
70.531283
 30
0.0
 10
35.280487
 20
69.246125
 30
0.0
  0
SPLINE
  5
15a
100
AcDbEntity
  8
panel
 62
7
100
AcDbSpline
 70
8
 71
3
 72
8
 73
4
 74
0
 40
0
 40
0
 40
0
 40
0
 40
1
 40
1
 40
1
 40
1
 10
35.280487
 20
69.246125
 30
0.0
 10
35.280487
 20
67.960967
 30
0.0
 10
35.965294
 20
66.773432
 30
0.0
 10
37.076947
 20
66.130853
 30
0.0
  0
SPLINE
  5
15b
100
AcDbEntity
  8
panel
 62
7
100
AcDbSpline
 70
8
 71
3
 72
8
 73
4
 74
0
 40
0
 40
0
 40
0
 40
0
 40
1
 40
1
 40
1
 40
1
 10
37.076947
 20
66.130853
 30
0.0
 10
38.188601
 20
65.488274
 30
0.0
 10
39.558214
 20
65.488274
 30
0.0
 10
40.669867
 20
66.130853
 30
0.0
  0
SPLINE
  5
15c
100
AcDbEntity
  8
panel
 62
7
100
AcDbSpline
 70
8
 71
3
 72
8
 73
4
 74
0
 40
0
 40
0
 40
0
 40
0
 40
1
 40
1
 40
1
 40
1
 10
40.669867
 20
66.130853
 30
0.0
 10
41.781521
 20
66.773432
 30
0.0
 10
42.466328
 20
67.960967
 30
0.0
 10
42.466328
 20
69.246125
 30
0.0
  0
LINE
  5
15d
100
AcDbEntity
  8
panel
 62
7
100
AcDbLine
 10
42.466328
 20
69.246125
 30
0.0
 11
42.466328
 21
69.246125
 31
0.0
  0
SPLINE
  5
15e
100
AcDbEntity
  8
panel
 62
7
100
AcDbSpline
 70
8
 71
3
 72
8
 73
4
 74
0
 40
0
 40
0
 40
0
 40
0
 40
1
 40
1
 40
1
 40
1
 10
44.761806
 20
127.001268
 30
0.0
 10
44.209133
 20
127.001268
 30
0.0
 10
43.698443
 20
126.706068
 30
0.0
 10
43.422106
 20
126.226869
 30
0.0
  0
SPLINE
  5
15f
100
AcDbEntity
  8
panel
 62
7
100
AcDbSpline
 70
8
 71
3
 72
8
 73
4
 74
0
 40
0
 40
0
 40
0
 40
0
 40
1
 40
1
 40
1
 40
1
 10
43.422106
 20
126.226869
 30
0.0
 10
43.145770
 20
125.747669
 30
0.0
 10
43.145770
 20
125.157271
 30
0.0
 10
43.422106
 20
124.678071
 30
0.0
  0
SPLINE
  5
160
100
AcDbEntity
  8
panel
 62
7
100
AcDbSpline
 70
8
 71
3
 72
8
 73
4
 74
0
 40
0
 40
0
 40
0
 40
0
 40
1
 40
1
 40
1
 40
1
 10
43.422106
 20
124.678071
 30
0.0
 10
43.698443
 20
124.198871
 30
0.0
 10
44.209133
 20
123.903672
 30
0.0
 10
44.761806
 20
123.903672
 30
0.0
  0
LINE
  5
161
100
AcDbEntity
  8
panel
 62
7
100
AcDbLine
 10
44.761891
 20
123.903804
 30
0.0
 11
47.755837
 21
123.903804
 31
0.0
  0
SPLINE
  5
162
100
AcDbEntity
  8
panel
 62
7
100
AcDbSpline
 70
8
 71
3
 72
8
 73
4
 74
0
 40
0
 40
0
 40
0
 40
0
 40
1
 40
1
 40
1
 40
1
 10
47.755906
 20
123.903672
 30
0.0
 10
48.308579
 20
123.903672
 30
0.0
 10
48.819269
 20
124.198871
 30
0.0
 10
49.095606
 20
124.678071
 30
0.0
  0
SPLINE
  5
163
100
AcDbEntity
  8
panel
 62
7
100
AcDbSpline
 70
8
 71
3
 72
8
 73
4
 74
0
 40
0
 40
0
 40
0
 40
0
 40
1
 40
1
 40
1
 40
1
 10
49.095606
 20
124.678071
 30
0.0
 10
49.371942
 20
125.157271
 30
0.0
 10
49.371942
 20
125.747669
 30
0.0
 10
49.095606
 20
126.226869
 30
0.0
  0
SPLINE
  5
164
100
AcDbEntity
  8
panel
 62
7
100
AcDbSpline
 70
8
 71
3
 72
8
 73
4
 74
0
 40
0
 40
0
 40
0
 40
0
 40
1
 40
1
 40
1
 40
1
 10
49.095606
 20
126.226869
 30
0.0
 10
48.819269
 20
126.706068
 30
0.0
 10
48.308579
 20
127.001268
 30
0.0
 10
47.755906
 20
127.001268
 30
0.0
  0
LINE
  5
165
100
AcDbEntity
  8
panel
 62
7
100
AcDbLine
 10
44.761891
 20
127.001257
 30
0.0
 11
47.755837
 21
127.001257
 31
0.0
  0
LINE
  5
166
100
AcDbEntity
  8
logo
 62
7
100
AcDbLine
 10
22.753201
 20
7.817070
 30
0.0
 11
22.974174
 21
7.706586
 31
0.0
  0
LINE
  5
167
100
AcDbEntity
  8
logo
 62
7
100
AcDbLine
 10
22.974174
 20
7.706586
 30
0.0
 11
23.047831
 21
7.596101
 31
0.0
  0
LINE
  5
168
100
AcDbEntity
  8
logo
 62
7
100
AcDbLine
 10
23.047831
 20
7.596101
 30
0.0
 11
23.121489
 21
7.375133
 31
0.0
  0
LINE
  5
169
100
AcDbEntity
  8
logo
 62
7
100
AcDbLine
 10
23.121489
 20
7.375133
 30
0.0
 11
23.121489
 21
7.043680
 31
0.0
  0
LINE
  5
16a
100
AcDbEntity
  8
logo
 62
7
100
AcDbLine
 10
23.121489
 20
7.043680
 30
0.0
 11
23.047831
 21
6.822711
 31
0.0
  0
LINE
  5
16b
100
AcDbEntity
  8
logo
 62
7
100
AcDbLine
 10
23.047831
 20
6.822711
 30
0.0
 11
22.974174
 21
6.712228
 31
0.0
  0
LINE
  5
16c
100
AcDbEntity
  8
logo
 62
7
100
AcDbLine
 10
22.974174
 20
6.712228
 30
0.0
 11
22.826858
 21
6.601743
 31
0.0
  0
LINE
  5
16d
100
AcDbEntity
  8
logo
 62
7
100
AcDbLine
 10
22.826858
 20
6.601743
 30
0.0
 11
22.237613
 21
6.601743
 31
0.0
  0
LINE
  5
16e
100
AcDbEntity
  8
logo
 62
7
100
AcDbLine
 10
22.237613
 20
6.601743
 30
0.0
 11
22.237613
 21
8.921913
 31
0.0
  0
LINE
  5
16f
100
AcDbEntity
  8
logo
 62
7
100
AcDbLine
 10
22.237613
 20
8.921913
 30
0.0
 11
22.753201
 21
8.921913
 31
0.0
  0
LINE
  5
170
100
AcDbEntity
  8
logo
 62
7
100
AcDbLine
 10
22.753201
 20
8.921913
 30
0.0
 11
22.900516
 21
8.811428
 31
0.0
  0
LINE
  5
171
100
AcDbEntity
  8
logo
 62
7
100
AcDbLine
 10
22.900516
 20
8.811428
 30
0.0
 11
22.974174
 21
8.700945
 31
0.0
  0
LINE
  5
172
100
AcDbEntity
  8
logo
 62
7
100
AcDbLine
 10
22.974174
 20
8.700945
 30
0.0
 11
23.047831
 21
8.479976
 31
0.0
  0
LINE
  5
173
100
AcDbEntity
  8
logo
 62
7
100
AcDbLine
 10
23.047831
 20
8.479976
 30
0.0
 11
23.047831
 21
8.259008
 31
0.0
  0
LINE
  5
174
100
AcDbEntity
  8
logo
 62
7
100
AcDbLine
 10
23.047831
 20
8.259008
 30
0.0
 11
22.974174
 21
8.038038
 31
0.0
  0
LINE
  5
175
100
AcDbEntity
  8
logo
 62
7
100
AcDbLine
 10
22.974174
 20
8.038038
 30
0.0
 11
22.900516
 21
7.927555
 31
0.0
  0
LINE
  5
176
100
AcDbEntity
  8
logo
 62
7
100
AcDbLine
 10
22.900516
 20
7.927555
 30
0.0
 11
22.753201
 21
7.817070
 31
0.0
  0
LINE
  5
177
100
AcDbEntity
  8
logo
 62
7
100
AcDbLine
 10
22.753201
 20
7.817070
 30
0.0
 11
22.237613
 21
7.817070
 31
0.0
  0
LINE
  5
178
100
AcDbEntity
  8
logo
 62
7
100
AcDbLine
 10
24.520954
 20
6.601743
 30
0.0
 11
23.784393
 21
6.601743
 31
0.0
  0
LINE
  5
179
100
AcDbEntity
  8
logo
 62
7
100
AcDbLine
 10
23.784393
 20
6.601743
 30
0.0
 11
23.784393
 21
8.921913
 31
0.0
  0
LINE
  5
17a
100
AcDbEntity
  8
logo
 62
7
100
AcDbLine
 10
25.036557
 20
7.817070
 30
0.0
 11
25.552145
 21
7.817070
 31
0.0
  0
LINE
  5
17b
100
AcDbEntity
  8
logo
 62
7
100
AcDbLine
 10
25.773118
 20
6.601743
 30
0.0
 11
25.036557
 21
6.601743
 31
0.0
  0
LINE
  5
17c
100
AcDbEntity
  8
logo
 62
7
100
AcDbLine
 10
25.036557
 20
6.601743
 30
0.0
 11
25.036557
 21
8.921913
 31
0.0
  0
LINE
  5
17d
100
AcDbEntity
  8
logo
 62
7
100
AcDbLine
 10
25.036557
 20
8.921913
 30
0.0
 11
25.773118
 21
8.921913
 31
0.0
  0
LINE
  5
17e
100
AcDbEntity
  8
logo
 62
7
100
AcDbLine
 10
26.436022
 20
7.817070
 30
0.0
 11
26.951610
 21
7.817070
 31
0.0
  0
LINE
  5
17f
100
AcDbEntity
  8
logo
 62
7
100
AcDbLine
 10
27.172583
 20
6.601743
 30
0.0
 11
26.436022
 21
6.601743
 31
0.0
  0
LINE
  5
180
100
AcDbEntity
  8
logo
 62
7
100
AcDbLine
 10
26.436022
 20
6.601743
 30
0.0
 11
26.436022
 21
8.921913
 31
0.0
  0
LINE
  5
181
100
AcDbEntity
  8
logo
 62
7
100
AcDbLine
 10
26.436022
 20
8.921913
 30
0.0
 11
27.172583
 21
8.921913
 31
0.0
  0
LINE
  5
182
100
AcDbEntity
  8
logo
 62
7
100
AcDbLine
 10
27.835487
 20
6.601743
 30
0.0
 11
27.835487
 21
8.921913
 31
0.0
  0
LINE
  5
183
100
AcDbEntity
  8
logo
 62
7
100
AcDbLine
 10
27.835487
 20
8.921913
 30
0.0
 11
28.424733
 21
8.921913
 31
0.0
  0
LINE
  5
184
100
AcDbEntity
  8
logo
 62
7
100
AcDbLine
 10
28.424733
 20
8.921913
 30
0.0
 11
28.572048
 21
8.811428
 31
0.0
  0
LINE
  5
185
100
AcDbEntity
  8
logo
 62
7
100
AcDbLine
 10
28.572048
 20
8.811428
 30
0.0
 11
28.645705
 21
8.700945
 31
0.0
  0
LINE
  5
186
100
AcDbEntity
  8
logo
 62
7
100
AcDbLine
 10
28.645705
 20
8.700945
 30
0.0
 11
28.719363
 21
8.479976
 31
0.0
  0
LINE
  5
187
100
AcDbEntity
  8
logo
 62
7
100
AcDbLine
 10
28.719363
 20
8.479976
 30
0.0
 11
28.719363
 21
8.148523
 31
0.0
  0
LINE
  5
188
100
AcDbEntity
  8
logo
 62
7
100
AcDbLine
 10
28.719363
 20
8.148523
 30
0.0
 11
28.645705
 21
7.927555
 31
0.0
  0
LINE
  5
189
100
AcDbEntity
  8
logo
 62
7
100
AcDbLine
 10
28.645705
 20
7.927555
 30
0.0
 11
28.572048
 21
7.817070
 31
0.0
  0
LINE
  5
18a
100
AcDbEntity
  8
logo
 62
7
100
AcDbLine
 10
28.572048
 20
7.817070
 30
0.0
 11
28.424733
 21
7.706586
 31
0.0
  0
LINE
  5
18b
100
AcDbEntity
  8
logo
 62
7
100
AcDbLine
 10
28.424733
 20
7.706586
 30
0.0
 11
27.835487
 21
7.706586
 31
0.0
  0
LINE
  5
18c
100
AcDbEntity
  8
logo
 62
7
100
AcDbLine
 10
22.532243
 20
4.878188
 30
0.0
 11
22.753201
 21
4.767704
 31
0.0
  0
LINE
  5
18d
100
AcDbEntity
  8
logo
 62
7
100
AcDbLine
 10
22.753201
 20
4.767704
 30
0.0
 11
22.826858
 21
4.657219
 31
0.0
  0
LINE
  5
18e
100
AcDbEntity
  8
logo
 62
7
100
AcDbLine
 10
22.826858
 20
4.657219
 30
0.0
 11
22.900516
 21
4.436251
 31
0.0
  0
LINE
  5
18f
100
AcDbEntity
  8
logo
 62
7
100
AcDbLine
 10
22.900516
 20
4.436251
 30
0.0
 11
22.900516
 21
4.104798
 31
0.0
  0
LINE
  5
190
100
AcDbEntity
  8
logo
 62
7
100
AcDbLine
 10
22.900516
 20
4.104798
 30
0.0
 11
22.826858
 21
3.883829
 31
0.0
  0
LINE
  5
191
100
AcDbEntity
  8
logo
 62
7
100
AcDbLine
 10
22.826858
 20
3.883829
 30
0.0
 11
22.753201
 21
3.773346
 31
0.0
  0
LINE
  5
192
100
AcDbEntity
  8
logo
 62
7
100
AcDbLine
 10
22.753201
 20
3.773346
 30
0.0
 11
22.605901
 21
3.662861
 31
0.0
  0
LINE
  5
193
100
AcDbEntity
  8
logo
 62
7
100
AcDbLine
 10
22.605901
 20
3.662861
 30
0.0
 11
22.016640
 21
3.662861
 31
0.0
  0
LINE
  5
194
100
AcDbEntity
  8
logo
 62
7
100
AcDbLine
 10
22.016640
 20
3.662861
 30
0.0
 11
22.016640
 21
5.983031
 31
0.0
  0
LINE
  5
195
100
AcDbEntity
  8
logo
 62
7
100
AcDbLine
 10
22.016640
 20
5.983031
 30
0.0
 11
22.532243
 21
5.983031
 31
0.0
  0
LINE
  5
196
100
AcDbEntity
  8
logo
 62
7
100
AcDbLine
 10
22.532243
 20
5.983031
 30
0.0
 11
22.679558
 21
5.872546
 31
0.0
  0
LINE
  5
197
100
AcDbEntity
  8
logo
 62
7
100
AcDbLine
 10
22.679558
 20
5.872546
 30
0.0
 11
22.753201
 21
5.762063
 31
0.0
  0
LINE
  5
198
100
AcDbEntity
  8
logo
 62
7
100
AcDbLine
 10
22.753201
 20
5.762063
 30
0.0
 11
22.826858
 21
5.541094
 31
0.0
  0
LINE
  5
199
100
AcDbEntity
  8
logo
 62
7
100
AcDbLine
 10
22.826858
 20
5.541094
 30
0.0
 11
22.826858
 21
5.320126
 31
0.0
  0
LINE
  5
19a
100
AcDbEntity
  8
logo
 62
7
100
AcDbLine
 10
22.826858
 20
5.320126
 30
0.0
 11
22.753201
 21
5.099156
 31
0.0
  0
LINE
  5
19b
100
AcDbEntity
  8
logo
 62
7
100
AcDbLine
 10
22.753201
 20
5.099156
 30
0.0
 11
22.679558
 21
4.988673
 31
0.0
  0
LINE
  5
19c
100
AcDbEntity
  8
logo
 62
7
100
AcDbLine
 10
22.679558
 20
4.988673
 30
0.0
 11
22.532243
 21
4.878188
 31
0.0
  0
LINE
  5
19d
100
AcDbEntity
  8
logo
 62
7
100
AcDbLine
 10
22.532243
 20
4.878188
 30
0.0
 11
22.016640
 21
4.878188
 31
0.0
  0
LINE
  5
19e
100
AcDbEntity
  8
logo
 62
7
100
AcDbLine
 10
24.299981
 20
3.662861
 30
0.0
 11
23.563420
 21
3.662861
 31
0.0
  0
LINE
  5
19f
100
AcDbEntity
  8
logo
 62
7
100
AcDbLine
 10
23.563420
 20
3.662861
 30
0.0
 11
23.563420
 21
5.983031
 31
0.0
  0
LINE
  5
1a0
100
AcDbEntity
  8
logo
 62
7
100
AcDbLine
 10
25.110200
 20
5.983031
 30
0.0
 11
25.404830
 21
5.983031
 31
0.0
  0
LINE
  5
1a1
100
AcDbEntity
  8
logo
 62
7
100
AcDbLine
 10
25.404830
 20
5.983031
 30
0.0
 11
25.552145
 21
5.872546
 31
0.0
  0
LINE
  5
1a2
100
AcDbEntity
  8
logo
 62
7
100
AcDbLine
 10
25.552145
 20
5.872546
 30
0.0
 11
25.699461
 21
5.651578
 31
0.0
  0
LINE
  5
1a3
100
AcDbEntity
  8
logo
 62
7
100
AcDbLine
 10
25.699461
 20
5.651578
 30
0.0
 11
25.773118
 21
5.209641
 31
0.0
  0
LINE
  5
1a4
100
AcDbEntity
  8
logo
 62
7
100
AcDbLine
 10
25.773118
 20
5.209641
 30
0.0
 11
25.773118
 21
4.436251
 31
0.0
  0
LINE
  5
1a5
100
AcDbEntity
  8
logo
 62
7
100
AcDbLine
 10
25.773118
 20
4.436251
 30
0.0
 11
25.699461
 21
3.994314
 31
0.0
  0
LINE
  5
1a6
100
AcDbEntity
  8
logo
 62
7
100
AcDbLine
 10
25.699461
 20
3.994314
 30
0.0
 11
25.552145
 21
3.773346
 31
0.0
  0
LINE
  5
1a7
100
AcDbEntity
  8
logo
 62
7
100
AcDbLine
 10
25.552145
 20
3.773346
 30
0.0
 11
25.404830
 21
3.662861
 31
0.0
  0
LINE
  5
1a8
100
AcDbEntity
  8
logo
 62
7
100
AcDbLine
 10
25.404830
 20
3.662861
 30
0.0
 11
25.110200
 21
3.662861
 31
0.0
  0
LINE
  5
1a9
100
AcDbEntity
  8
logo
 62
7
100
AcDbLine
 10
25.110200
 20
3.662861
 30
0.0
 11
24.962900
 21
3.773346
 31
0.0
  0
LINE
  5
1aa
100
AcDbEntity
  8
logo
 62
7
100
AcDbLine
 10
24.962900
 20
3.773346
 30
0.0
 11
24.815584
 21
3.994314
 31
0.0
  0
LINE
  5
1ab
100
AcDbEntity
  8
logo
 62
7
100
AcDbLine
 10
24.815584
 20
3.994314
 30
0.0
 11
24.741927
 21
4.436251
 31
0.0
  0
LINE
  5
1ac
100
AcDbEntity
  8
logo
 62
7
100
AcDbLine
 10
24.741927
 20
4.436251
 30
0.0
 11
24.741927
 21
5.209641
 31
0.0
  0
LINE
  5
1ad
100
AcDbEntity
  8
logo
 62
7
100
AcDbLine
 10
24.741927
 20
5.209641
 30
0.0
 11
24.815584
 21
5.651578
 31
0.0
  0
LINE
  5
1ae
100
AcDbEntity
  8
logo
 62
7
100
AcDbLine
 10
24.815584
 20
5.651578
 30
0.0
 11
24.962900
 21
5.872546
 31
0.0
  0
LINE
  5
1af
100
AcDbEntity
  8
logo
 62
7
100
AcDbLine
 10
24.962900
 20
5.872546
 30
0.0
 11
25.110200
 21
5.983031
 31
0.0
  0
LINE
  5
1b0
100
AcDbEntity
  8
logo
 62
7
100
AcDbLine
 10
26.730637
 20
5.983031
 30
0.0
 11
27.025268
 21
5.983031
 31
0.0
  0
LINE
  5
1b1
100
AcDbEntity
  8
logo
 62
7
100
AcDbLine
 10
27.025268
 20
5.983031
 30
0.0
 11
27.172583
 21
5.872546
 31
0.0
  0
LINE
  5
1b2
100
AcDbEntity
  8
logo
 62
7
100
AcDbLine
 10
27.172583
 20
5.872546
 30
0.0
 11
27.319898
 21
5.651578
 31
0.0
  0
LINE
  5
1b3
100
AcDbEntity
  8
logo
 62
7
100
AcDbLine
 10
27.319898
 20
5.651578
 30
0.0
 11
27.393541
 21
5.209641
 31
0.0
  0
LINE
  5
1b4
100
AcDbEntity
  8
logo
 62
7
100
AcDbLine
 10
27.393541
 20
5.209641
 30
0.0
 11
27.393541
 21
4.436251
 31
0.0
  0
LINE
  5
1b5
100
AcDbEntity
  8
logo
 62
7
100
AcDbLine
 10
27.393541
 20
4.436251
 30
0.0
 11
27.319898
 21
3.994314
 31
0.0
  0
LINE
  5
1b6
100
AcDbEntity
  8
logo
 62
7
100
AcDbLine
 10
27.319898
 20
3.994314
 30
0.0
 11
27.172583
 21
3.773346
 31
0.0
  0
LINE
  5
1b7
100
AcDbEntity
  8
logo
 62
7
100
AcDbLine
 10
27.172583
 20
3.773346
 30
0.0
 11
27.025268
 21
3.662861
 31
0.0
  0
LINE
  5
1b8
100
AcDbEntity
  8
logo
 62
7
100
AcDbLine
 10
27.025268
 20
3.662861
 30
0.0
 11
26.730637
 21
3.662861
 31
0.0
  0
LINE
  5
1b9
100
AcDbEntity
  8
logo
 62
7
100
AcDbLine
 10
26.730637
 20
3.662861
 30
0.0
 11
26.583337
 21
3.773346
 31
0.0
  0
LINE
  5
1ba
100
AcDbEntity
  8
logo
 62
7
100
AcDbLine
 10
26.583337
 20
3.773346
 30
0.0
 11
26.436022
 21
3.994314
 31
0.0
  0
LINE
  5
1bb
100
AcDbEntity
  8
logo
 62
7
100
AcDbLine
 10
26.436022
 20
3.994314
 30
0.0
 11
26.362364
 21
4.436251
 31
0.0
  0
LINE
  5
1bc
100
AcDbEntity
  8
logo
 62
7
100
AcDbLine
 10
26.362364
 20
4.436251
 30
0.0
 11
26.362364
 21
5.209641
 31
0.0
  0
LINE
  5
1bd
100
AcDbEntity
  8
logo
 62
7
100
AcDbLine
 10
26.362364
 20
5.209641
 30
0.0
 11
26.436022
 21
5.651578
 31
0.0
  0
LINE
  5
1be
100
AcDbEntity
  8
logo
 62
7
100
AcDbLine
 10
26.436022
 20
5.651578
 30
0.0
 11
26.583337
 21
5.872546
 31
0.0
  0
LINE
  5
1bf
100
AcDbEntity
  8
logo
 62
7
100
AcDbLine
 10
26.583337
 20
5.872546
 30
0.0
 11
26.730637
 21
5.983031
 31
0.0
  0
LINE
  5
1c0
100
AcDbEntity
  8
logo
 62
7
100
AcDbLine
 10
28.056460
 20
3.662861
 30
0.0
 11
28.056460
 21
5.983031
 31
0.0
  0
LINE
  5
1c1
100
AcDbEntity
  8
logo
 62
7
100
AcDbLine
 10
28.056460
 20
5.983031
 30
0.0
 11
28.645705
 21
5.983031
 31
0.0
  0
LINE
  5
1c2
100
AcDbEntity
  8
logo
 62
7
100
AcDbLine
 10
28.645705
 20
5.983031
 30
0.0
 11
28.793021
 21
5.872546
 31
0.0
  0
LINE
  5
1c3
100
AcDbEntity
  8
logo
 62
7
100
AcDbLine
 10
28.793021
 20
5.872546
 30
0.0
 11
28.866678
 21
5.762063
 31
0.0
  0
LINE
  5
1c4
100
AcDbEntity
  8
logo
 62
7
100
AcDbLine
 10
28.866678
 20
5.762063
 30
0.0
 11
28.940321
 21
5.541094
 31
0.0
  0
LINE
  5
1c5
100
AcDbEntity
  8
logo
 62
7
100
AcDbLine
 10
28.940321
 20
5.541094
 30
0.0
 11
28.940321
 21
5.209641
 31
0.0
  0
LINE
  5
1c6
100
AcDbEntity
  8
logo
 62
7
100
AcDbLine
 10
28.940321
 20
5.209641
 30
0.0
 11
28.866678
 21
4.988673
 31
0.0
  0
LINE
  5
1c7
100
AcDbEntity
  8
logo
 62
7
100
AcDbLine
 10
28.866678
 20
4.988673
 30
0.0
 11
28.793021
 21
4.878188
 31
0.0
  0
LINE
  5
1c8
100
AcDbEntity
  8
logo
 62
7
100
AcDbLine
 10
28.793021
 20
4.878188
 30
0.0
 11
28.645705
 21
4.767704
 31
0.0
  0
LINE
  5
1c9
100
AcDbEntity
  8
logo
 62
7
100
AcDbLine
 10
28.645705
 20
4.767704
 30
0.0
 11
28.056460
 21
4.767704
 31
0.0
  0
LINE
  5
1ca
100
AcDbEntity
  8
logo
 62
7
100
AcDbLine
 10
20.941612
 20
9.147373
 30
0.0
 11
21.458298
 21
9.479889
 31
0.0
  0
LINE
  5
1cb
100
AcDbEntity
  8
logo
 62
7
100
AcDbLine
 10
20.528003
 20
4.168941
 30
0.0
 11
20.491437
 21
4.686528
 31
0.0
  0
LINE
  5
1cc
100
AcDbEntity
  8
logo
 62
7
100
AcDbLine
 10
20.487477
 20
3.049532
 30
0.0
 11
20.783964
 21
3.687148
 31
0.0
  0
LINE
  5
1cd
100
AcDbEntity
  8
logo
 62
7
100
AcDbLine
 10
30.195826
 20
4.016377
 30
0.0
 11
29.863300
 21
3.499697
 31
0.0
  0
LINE
  5
1ce
100
AcDbEntity
  8
logo
 62
7
100
AcDbLine
 10
20.491437
 20
7.960543
 30
0.0
 11
20.609101
 21
8.630693
 31
0.0
  0
LINE
  5
1cf
100
AcDbEntity
  8
logo
 62
7
100
AcDbLine
 10
29.863300
 20
9.147373
 30
0.0
 11
30.195826
 21
8.630693
 31
0.0
  0
LINE
  5
1d0
100
AcDbEntity
  8
logo
 62
7
100
AcDbLine
 10
29.346629
 20
9.479892
 30
0.0
 11
29.863300
 21
9.147373
 31
0.0
  0
LINE
  5
1d1
100
AcDbEntity
  8
logo
 62
7
100
AcDbLine
 10
30.313490
 20
7.960546
 30
0.0
 11
30.313475
 21
4.686528
 31
0.0
  0
LINE
  5
1d2
100
AcDbEntity
  8
logo
 62
7
100
AcDbLine
 10
20.609101
 20
8.630693
 30
0.0
 11
20.941612
 21
9.147373
 31
0.0
  0
LINE
  5
1d3
100
AcDbEntity
  8
logo
 62
7
100
AcDbLine
 10
21.616951
 20
3.084368
 30
0.0
 11
21.148911
 21
3.328316
 31
0.0
  0
LINE
  5
1d4
100
AcDbEntity
  8
logo
 62
7
100
AcDbLine
 10
21.148911
 20
3.328316
 30
0.0
 11
20.487477
 21
3.049532
 31
0.0
  0
LINE
  5
1d5
100
AcDbEntity
  8
logo
 62
7
100
AcDbLine
 10
22.128441
 20
9.597549
 30
0.0
 11
28.676471
 21
9.597554
 31
0.0
  0
LINE
  5
1d6
100
AcDbEntity
  8
logo
 62
7
100
AcDbLine
 10
28.676471
 20
9.597554
 30
0.0
 11
29.346629
 21
9.479892
 31
0.0
  0
LINE
  5
1d7
100
AcDbEntity
  8
logo
 62
7
100
AcDbLine
 10
29.346629
 20
3.167180
 30
0.0
 11
28.676471
 21
3.049519
 31
0.0
  0
LINE
  5
1d8
100
AcDbEntity
  8
logo
 62
7
100
AcDbLine
 10
30.313475
 20
4.686528
 30
0.0
 11
30.195826
 21
4.016377
 31
0.0
  0
LINE
  5
1d9
100
AcDbEntity
  8
logo
 62
7
100
AcDbLine
 10
28.676471
 20
3.049519
 30
0.0
 11
22.128441
 21
3.049519
 31
0.0
  0
LINE
  5
1da
100
AcDbEntity
  8
logo
 62
7
100
AcDbLine
 10
22.128441
 20
3.049519
 30
0.0
 11
21.616951
 21
3.084368
 31
0.0
  0
LINE
  5
1db
100
AcDbEntity
  8
logo
 62
7
100
AcDbLine
 10
29.863300
 20
3.499697
 30
0.0
 11
29.346629
 21
3.167180
 31
0.0
  0
LINE
  5
1dc
100
AcDbEntity
  8
logo
 62
7
100
AcDbLine
 10
20.783964
 20
3.687148
 30
0.0
 11
20.528003
 21
4.168941
 31
0.0
  0
LINE
  5
1dd
100
AcDbEntity
  8
logo
 62
7
100
AcDbLine
 10
21.458298
 20
9.479889
 30
0.0
 11
22.128441
 21
9.597549
 31
0.0
  0
LINE
  5
1de
100
AcDbEntity
  8
logo
 62
7
100
AcDbLine
 10
30.195826
 20
8.630693
 30
0.0
 11
30.313490
 21
7.960546
 31
0.0
  0
LINE
  5
1df
100
AcDbEntity
  8
logo
 62
7
100
AcDbLine
 10
20.491437
 20
4.686528
 30
0.0
 11
20.491437
 21
7.960543
 31
0.0
  0
LINE
  5
1e0
100
AcDbEntity
  8
other
 62
7
100
AcDbLine
 10
28.392647
 20
24.567440
 30
0.0
 11
28.392647
 21
26.567950
 31
0.0
  0
LINE
  5
1e1
100
AcDbEntity
  8
other
 62
7
100
AcDbLine
 10
28.392647
 20
26.567950
 30
0.0
 11
26.392647
 21
24.567440
 31
0.0
  0
LINE
  5
1e2
100
AcDbEntity
  8
other
 62
7
100
AcDbLine
 10
26.392647
 20
24.567440
 30
0.0
 11
26.392647
 21
26.567950
 31
0.0
  0
LINE
  5
1e3
100
AcDbEntity
  8
other
 62
7
100
AcDbLine
 10
26.392647
 20
26.567950
 30
0.0
 11
24.392647
 21
24.567440
 31
0.0
  0
LINE
  5
1e4
100
AcDbEntity
  8
other
 62
7
100
AcDbLine
 10
24.392647
 20
24.567440
 30
0.0
 11
24.392647
 21
26.567950
 31
0.0
  0
LINE
  5
1e5
100
AcDbEntity
  8
other
 62
7
100
AcDbLine
 10
24.392647
 20
26.567950
 30
0.0
 11
22.392648
 21
24.567440
 31
0.0
  0
LINE
  5
1e6
100
AcDbEntity
  8
other
 62
7
100
AcDbLine
 10
31.931152
 20
24.554450
 30
0.0
 11
32.931152
 21
26.554450
 31
0.0
  0
LINE
  5
1e7
100
AcDbEntity
  8
other
 62
7
100
AcDbLine
 10
32.931152
 20
26.554450
 30
0.0
 11
33.931150
 21
24.554450
 31
0.0
  0
LINE
  5
1e8
100
AcDbEntity
  8
other
 62
7
100
AcDbLine
 10
33.931150
 20
24.554450
 30
0.0
 11
34.931151
 21
26.554450
 31
0.0
  0
LINE
  5
1e9
100
AcDbEntity
  8
other
 62
7
100
AcDbLine
 10
34.931151
 20
26.554450
 30
0.0
 11
35.931152
 21
24.554450
 31
0.0
  0
LINE
  5
1ea
100
AcDbEntity
  8
other
 62
7
100
AcDbLine
 10
35.931152
 20
24.554450
 30
0.0
 11
36.931152
 21
26.554450
 31
0.0
  0
LINE
  5
1eb
100
AcDbEntity
  8
other
 62
7
100
AcDbLine
 10
36.931152
 20
26.554450
 30
0.0
 11
37.931150
 21
24.554450
 31
0.0
  0
LINE
  5
1ec
100
AcDbEntity
  8
other
 62
7
100
AcDbLine
 10
42.462378
 20
24.582090
 30
0.0
 11
42.462378
 21
26.582600
 31
0.0
  0
LINE
  5
1ed
100
AcDbEntity
  8
other
 62
7
100
AcDbLine
 10
42.462378
 20
26.582600
 30
0.0
 11
44.462376
 21
26.582600
 31
0.0
  0
LINE
  5
1ee
100
AcDbEntity
  8
other
 62
7
100
AcDbLine
 10
44.462376
 20
26.582600
 30
0.0
 11
44.462376
 21
24.582090
 31
0.0
  0
LINE
  5
1ef
100
AcDbEntity
  8
other
 62
7
100
AcDbLine
 10
44.462376
 20
24.582090
 30
0.0
 11
46.462377
 21
24.582090
 31
0.0
  0
LINE
  5
1f0
100
AcDbEntity
  8
other
 62
7
100
AcDbLine
 10
46.462377
 20
24.582090
 30
0.0
 11
46.462377
 21
26.582090
 31
0.0
  0
LINE
  5
1f1
100
AcDbEntity
  8
text
 62
7
100
AcDbLine
 10
36.161191
 20
80.103299
 30
0.0
 11
36.161191
 21
78.234983
 31
0.0
  0
LINE
  5
1f2
100
AcDbEntity
  8
text
 62
7
100
AcDbLine
 10
36.161191
 20
80.103299
 30
0.0
 11
36.962704
 21
80.103299
 31
0.0
  0
LINE
  5
1f3
100
AcDbEntity
  8
text
 62
7
100
AcDbLine
 10
36.962704
 20
80.103299
 30
0.0
 11
37.227994
 21
80.012988
 31
0.0
  0
LINE
  5
1f4
100
AcDbEntity
  8
text
 62
7
100
AcDbLine
 10
37.227994
 20
80.012988
 30
0.0
 11
37.318305
 21
79.922677
 31
0.0
  0
LINE
  5
1f5
100
AcDbEntity
  8
text
 62
7
100
AcDbLine
 10
37.318305
 20
79.922677
 30
0.0
 11
37.408616
 21
79.747698
 31
0.0
  0
LINE
  5
1f6
100
AcDbEntity
  8
text
 62
7
100
AcDbLine
 10
37.408616
 20
79.747698
 30
0.0
 11
37.408616
 21
79.479586
 31
0.0
  0
LINE
  5
1f7
100
AcDbEntity
  8
text
 62
7
100
AcDbLine
 10
37.408616
 20
79.479586
 30
0.0
 11
37.318305
 21
79.301786
 31
0.0
  0
LINE
  5
1f8
100
AcDbEntity
  8
text
 62
7
100
AcDbLine
 10
37.318305
 20
79.301786
 30
0.0
 11
37.227994
 21
79.211475
 31
0.0
  0
LINE
  5
1f9
100
AcDbEntity
  8
text
 62
7
100
AcDbLine
 10
37.227994
 20
79.211475
 30
0.0
 11
36.962704
 21
79.123985
 31
0.0
  0
LINE
  5
1fa
100
AcDbEntity
  8
text
 62
7
100
AcDbLine
 10
36.962704
 20
79.123985
 30
0.0
 11
36.161191
 21
79.123985
 31
0.0
  0
LINE
  5
1fb
100
AcDbEntity
  8
text
 62
7
100
AcDbLine
 10
37.854532
 20
80.103299
 30
0.0
 11
38.297622
 21
78.234983
 31
0.0
  0
LINE
  5
1fc
100
AcDbEntity
  8
text
 62
7
100
AcDbLine
 10
38.740713
 20
80.103299
 30
0.0
 11
38.297622
 21
78.234983
 31
0.0
  0
LINE
  5
1fd
100
AcDbEntity
  8
text
 62
7
100
AcDbLine
 10
38.740713
 20
80.103299
 30
0.0
 11
39.186625
 21
78.234983
 31
0.0
  0
LINE
  5
1fe
100
AcDbEntity
  8
text
 62
7
100
AcDbLine
 10
39.632537
 20
80.103299
 30
0.0
 11
39.186625
 21
78.234983
 31
0.0
  0
LINE
  5
1ff
100
AcDbEntity
  8
text
 62
7
100
AcDbLine
 10
40.163111
 20
80.103299
 30
0.0
 11
40.163111
 21
78.234983
 31
0.0
  0
LINE
  5
200
100
AcDbEntity
  8
text
 62
7
100
AcDbLine
 10
40.163111
 20
80.103299
 30
0.0
 11
40.874313
 21
78.234983
 31
0.0
  0
LINE
  5
201
100
AcDbEntity
  8
text
 62
7
100
AcDbLine
 10
41.585515
 20
80.103299
 30
0.0
 11
40.874313
 21
78.234983
 31
0.0
  0
LINE
  5
202
100
AcDbEntity
  8
text
 62
7
100
AcDbLine
 10
41.585515
 20
80.103299
 30
0.0
 11
41.585515
 21
78.234983
 31
0.0
  0
LINE
  5
203
100
AcDbEntity
  8
text
 62
7
100
AcDbLine
 10
5.170091
 20
80.103316
 30
0.0
 11
5.170091
 21
78.235000
 31
0.0
  0
LINE
  5
204
100
AcDbEntity
  8
text
 62
7
100
AcDbLine
 10
5.170091
 20
80.103316
 30
0.0
 11
6.327205
 21
80.103316
 31
0.0
  0
LINE
  5
205
100
AcDbEntity
  8
text
 62
7
100
AcDbLine
 10
5.170091
 20
79.211492
 30
0.0
 11
5.881293
 21
79.211492
 31
0.0
  0
LINE
  5
206
100
AcDbEntity
  8
text
 62
7
100
AcDbLine
 10
6.770291
 20
80.103316
 30
0.0
 11
6.770291
 21
78.235000
 31
0.0
  0
LINE
  5
207
100
AcDbEntity
  8
text
 62
7
100
AcDbLine
 10
7.481501
 20
80.103316
 30
0.0
 11
7.481501
 21
78.235000
 31
0.0
  0
LINE
  5
208
100
AcDbEntity
  8
text
 62
7
100
AcDbLine
 10
7.481501
 20
80.103316
 30
0.0
 11
8.728926
 21
78.235000
 31
0.0
  0
LINE
  5
209
100
AcDbEntity
  8
text
 62
7
100
AcDbLine
 10
8.728926
 20
80.103316
 30
0.0
 11
8.728926
 21
78.235000
 31
0.0
  0
LINE
  5
20a
100
AcDbEntity
  8
text
 62
7
100
AcDbLine
 10
9.437301
 20
80.103316
 30
0.0
 11
9.437301
 21
78.235000
 31
0.0
  0
LINE
  5
20b
100
AcDbEntity
  8
text
 62
7
100
AcDbLine
 10
9.437301
 20
80.103316
 30
0.0
 11
10.594415
 21
80.103316
 31
0.0
  0
LINE
  5
20c
100
AcDbEntity
  8
text
 62
7
100
AcDbLine
 10
9.437301
 20
79.211492
 30
0.0
 11
10.148503
 21
79.211492
 31
0.0
  0
LINE
  5
20d
100
AcDbEntity
  8
text
 62
7
100
AcDbLine
 10
9.437301
 20
78.235000
 30
0.0
 11
10.594415
 21
78.235000
 31
0.0
  0
LINE
  5
20e
100
AcDbEntity
  8
text
 62
7
100
AcDbLine
 10
12.547402
 20
80.103316
 30
0.0
 11
12.547402
 21
78.235000
 31
0.0
  0
LINE
  5
20f
100
AcDbEntity
  8
text
 62
7
100
AcDbLine
 10
11.926511
 20
80.103316
 30
0.0
 11
13.171114
 21
80.103316
 31
0.0
  0
LINE
  5
210
100
AcDbEntity
  8
text
 62
7
100
AcDbLine
 10
13.614201
 20
80.103316
 30
0.0
 11
13.614201
 21
78.768401
 31
0.0
  0
LINE
  5
211
100
AcDbEntity
  8
text
 62
7
100
AcDbLine
 10
13.614201
 20
78.768401
 30
0.0
 11
13.704512
 21
78.501701
 31
0.0
  0
LINE
  5
212
100
AcDbEntity
  8
text
 62
7
100
AcDbLine
 10
13.704512
 20
78.501701
 30
0.0
 11
13.882312
 21
78.323900
 31
0.0
  0
LINE
  5
213
100
AcDbEntity
  8
text
 62
7
100
AcDbLine
 10
13.882312
 20
78.323900
 30
0.0
 11
14.150424
 21
78.235000
 31
0.0
  0
LINE
  5
214
100
AcDbEntity
  8
text
 62
7
100
AcDbLine
 10
14.150424
 20
78.235000
 30
0.0
 11
14.325403
 21
78.235000
 31
0.0
  0
LINE
  5
215
100
AcDbEntity
  8
text
 62
7
100
AcDbLine
 10
14.325403
 20
78.235000
 30
0.0
 11
14.593514
 21
78.323900
 31
0.0
  0
LINE
  5
216
100
AcDbEntity
  8
text
 62
7
100
AcDbLine
 10
14.593514
 20
78.323900
 30
0.0
 11
14.771315
 21
78.501701
 31
0.0
  0
LINE
  5
217
100
AcDbEntity
  8
text
 62
7
100
AcDbLine
 10
14.771315
 20
78.501701
 30
0.0
 11
14.861626
 21
78.768401
 31
0.0
  0
LINE
  5
218
100
AcDbEntity
  8
text
 62
7
100
AcDbLine
 10
14.861626
 20
78.768401
 30
0.0
 11
14.861626
 21
80.103316
 31
0.0
  0
LINE
  5
219
100
AcDbEntity
  8
text
 62
7
100
AcDbLine
 10
15.569991
 20
80.103316
 30
0.0
 11
15.569991
 21
78.235000
 31
0.0
  0
LINE
  5
21a
100
AcDbEntity
  8
text
 62
7
100
AcDbLine
 10
15.569991
 20
80.103316
 30
0.0
 11
16.817416
 21
78.235000
 31
0.0
  0
LINE
  5
21b
100
AcDbEntity
  8
text
 62
7
100
AcDbLine
 10
16.817416
 20
80.103316
 30
0.0
 11
16.817416
 21
78.235000
 31
0.0
  0
LINE
  5
21c
100
AcDbEntity
  8
text
 62
7
100
AcDbLine
 10
17.525791
 20
80.103316
 30
0.0
 11
17.525791
 21
78.235000
 31
0.0
  0
LINE
  5
21d
100
AcDbEntity
  8
text
 62
7
100
AcDbLine
 10
17.525791
 20
80.103316
 30
0.0
 11
18.682905
 21
80.103316
 31
0.0
  0
LINE
  5
21e
100
AcDbEntity
  8
text
 62
7
100
AcDbLine
 10
17.525791
 20
79.211492
 30
0.0
 11
18.236993
 21
79.211492
 31
0.0
  0
LINE
  5
21f
100
AcDbEntity
  8
text
 62
7
100
AcDbLine
 10
17.525791
 20
78.235000
 30
0.0
 11
18.682905
 21
78.235000
 31
0.0
  0
LINE
  5
220
100
AcDbEntity
  8
text
 62
7
100
AcDbLine
 10
17.531610
 20
115.509894
 30
0.0
 11
17.531610
 21
113.641578
 31
0.0
  0
LINE
  5
221
100
AcDbEntity
  8
text
 62
7
100
AcDbLine
 10
17.531610
 20
115.509894
 30
0.0
 11
18.688724
 21
115.509894
 31
0.0
  0
LINE
  5
222
100
AcDbEntity
  8
text
 62
7
100
AcDbLine
 10
17.531610
 20
114.618070
 30
0.0
 11
18.242812
 21
114.618070
 31
0.0
  0
LINE
  5
223
100
AcDbEntity
  8
text
 62
7
100
AcDbLine
 10
19.131810
 20
115.509894
 30
0.0
 11
19.131810
 21
113.641578
 31
0.0
  0
LINE
  5
224
100
AcDbEntity
  8
text
 62
7
100
AcDbLine
 10
19.131810
 20
115.509894
 30
0.0
 11
19.933323
 21
115.509894
 31
0.0
  0
LINE
  5
225
100
AcDbEntity
  8
text
 62
7
100
AcDbLine
 10
19.933323
 20
115.509894
 30
0.0
 11
20.198613
 21
115.419583
 31
0.0
  0
LINE
  5
226
100
AcDbEntity
  8
text
 62
7
100
AcDbLine
 10
20.198613
 20
115.419583
 30
0.0
 11
20.288924
 21
115.329272
 31
0.0
  0
LINE
  5
227
100
AcDbEntity
  8
text
 62
7
100
AcDbLine
 10
20.288924
 20
115.329272
 30
0.0
 11
20.379235
 21
115.154293
 31
0.0
  0
LINE
  5
228
100
AcDbEntity
  8
text
 62
7
100
AcDbLine
 10
20.379235
 20
115.154293
 30
0.0
 11
20.379235
 21
114.973671
 31
0.0
  0
LINE
  5
229
100
AcDbEntity
  8
text
 62
7
100
AcDbLine
 10
20.379235
 20
114.973671
 30
0.0
 11
20.288924
 21
114.798692
 31
0.0
  0
LINE
  5
22a
100
AcDbEntity
  8
text
 62
7
100
AcDbLine
 10
20.288924
 20
114.798692
 30
0.0
 11
20.198613
 21
114.708381
 31
0.0
  0
LINE
  5
22b
100
AcDbEntity
  8
text
 62
7
100
AcDbLine
 10
20.198613
 20
114.708381
 30
0.0
 11
19.933323
 21
114.618070
 31
0.0
  0
LINE
  5
22c
100
AcDbEntity
  8
text
 62
7
100
AcDbLine
 10
19.933323
 20
114.618070
 30
0.0
 11
19.131810
 21
114.618070
 31
0.0
  0
LINE
  5
22d
100
AcDbEntity
  8
text
 62
7
100
AcDbLine
 10
19.755522
 20
114.618070
 30
0.0
 11
20.379235
 21
113.641578
 31
0.0
  0
LINE
  5
22e
100
AcDbEntity
  8
text
 62
7
100
AcDbLine
 10
21.000130
 20
115.509894
 30
0.0
 11
21.000130
 21
113.641578
 31
0.0
  0
LINE
  5
22f
100
AcDbEntity
  8
text
 62
7
100
AcDbLine
 10
21.000130
 20
115.509894
 30
0.0
 11
22.157244
 21
115.509894
 31
0.0
  0
LINE
  5
230
100
AcDbEntity
  8
text
 62
7
100
AcDbLine
 10
21.000130
 20
114.618070
 30
0.0
 11
21.711332
 21
114.618070
 31
0.0
  0
LINE
  5
231
100
AcDbEntity
  8
text
 62
7
100
AcDbLine
 10
21.000130
 20
113.641578
 30
0.0
 11
22.157244
 21
113.641578
 31
0.0
  0
LINE
  5
232
100
AcDbEntity
  8
text
 62
7
100
AcDbLine
 10
23.133732
 20
115.509894
 30
0.0
 11
22.955931
 21
115.419583
 31
0.0
  0
LINE
  5
233
100
AcDbEntity
  8
text
 62
7
100
AcDbLine
 10
22.955931
 20
115.419583
 30
0.0
 11
22.778131
 21
115.241782
 31
0.0
  0
LINE
  5
234
100
AcDbEntity
  8
text
 62
7
100
AcDbLine
 10
22.778131
 20
115.241782
 30
0.0
 11
22.687820
 21
115.063982
 31
0.0
  0
LINE
  5
235
100
AcDbEntity
  8
text
 62
7
100
AcDbLine
 10
22.687820
 20
115.063982
 30
0.0
 11
22.600330
 21
114.798692
 31
0.0
  0
LINE
  5
236
100
AcDbEntity
  8
text
 62
7
100
AcDbLine
 10
22.600330
 20
114.798692
 30
0.0
 11
22.600330
 21
114.352780
 31
0.0
  0
LINE
  5
237
100
AcDbEntity
  8
text
 62
7
100
AcDbLine
 10
22.600330
 20
114.352780
 30
0.0
 11
22.687820
 21
114.087490
 31
0.0
  0
LINE
  5
238
100
AcDbEntity
  8
text
 62
7
100
AcDbLine
 10
22.687820
 20
114.087490
 30
0.0
 11
22.778131
 21
113.908279
 31
0.0
  0
LINE
  5
239
100
AcDbEntity
  8
text
 62
7
100
AcDbLine
 10
22.778131
 20
113.908279
 30
0.0
 11
22.955931
 21
113.730478
 31
0.0
  0
LINE
  5
23a
100
AcDbEntity
  8
text
 62
7
100
AcDbLine
 10
22.955931
 20
113.730478
 30
0.0
 11
23.133732
 21
113.641578
 31
0.0
  0
LINE
  5
23b
100
AcDbEntity
  8
text
 62
7
100
AcDbLine
 10
23.133732
 20
113.641578
 30
0.0
 11
23.489333
 21
113.641578
 31
0.0
  0
LINE
  5
23c
100
AcDbEntity
  8
text
 62
7
100
AcDbLine
 10
23.489333
 20
113.641578
 30
0.0
 11
23.667133
 21
113.730478
 31
0.0
  0
LINE
  5
23d
100
AcDbEntity
  8
text
 62
7
100
AcDbLine
 10
23.667133
 20
113.730478
 30
0.0
 11
23.844934
 21
113.908279
 31
0.0
  0
LINE
  5
23e
100
AcDbEntity
  8
text
 62
7
100
AcDbLine
 10
23.844934
 20
113.908279
 30
0.0
 11
23.935245
 21
114.087490
 31
0.0
  0
LINE
  5
23f
100
AcDbEntity
  8
text
 62
7
100
AcDbLine
 10
23.935245
 20
114.087490
 30
0.0
 11
24.022734
 21
114.352780
 31
0.0
  0
LINE
  5
240
100
AcDbEntity
  8
text
 62
7
100
AcDbLine
 10
24.022734
 20
114.352780
 30
0.0
 11
24.022734
 21
114.798692
 31
0.0
  0
LINE
  5
241
100
AcDbEntity
  8
text
 62
7
100
AcDbLine
 10
24.022734
 20
114.798692
 30
0.0
 11
23.935245
 21
115.063982
 31
0.0
  0
LINE
  5
242
100
AcDbEntity
  8
text
 62
7
100
AcDbLine
 10
23.935245
 20
115.063982
 30
0.0
 11
23.844934
 21
115.241782
 31
0.0
  0
LINE
  5
243
100
AcDbEntity
  8
text
 62
7
100
AcDbLine
 10
23.844934
 20
115.241782
 30
0.0
 11
23.667133
 21
115.419583
 31
0.0
  0
LINE
  5
244
100
AcDbEntity
  8
text
 62
7
100
AcDbLine
 10
23.667133
 20
115.419583
 30
0.0
 11
23.489333
 21
115.509894
 31
0.0
  0
LINE
  5
245
100
AcDbEntity
  8
text
 62
7
100
AcDbLine
 10
23.489333
 20
115.509894
 30
0.0
 11
23.133732
 21
115.509894
 31
0.0
  0
LINE
  5
246
100
AcDbEntity
  8
text
 62
7
100
AcDbLine
 10
23.399022
 20
113.997179
 30
0.0
 11
23.935245
 21
113.463778
 31
0.0
  0
LINE
  5
247
100
AcDbEntity
  8
text
 62
7
100
AcDbLine
 10
24.643630
 20
115.509894
 30
0.0
 11
24.643630
 21
114.174979
 31
0.0
  0
LINE
  5
248
100
AcDbEntity
  8
text
 62
7
100
AcDbLine
 10
24.643630
 20
114.174979
 30
0.0
 11
24.733941
 21
113.908279
 31
0.0
  0
LINE
  5
249
100
AcDbEntity
  8
text
 62
7
100
AcDbLine
 10
24.733941
 20
113.908279
 30
0.0
 11
24.911741
 21
113.730478
 31
0.0
  0
LINE
  5
24a
100
AcDbEntity
  8
text
 62
7
100
AcDbLine
 10
24.911741
 20
113.730478
 30
0.0
 11
25.179853
 21
113.641578
 31
0.0
  0
LINE
  5
24b
100
AcDbEntity
  8
text
 62
7
100
AcDbLine
 10
25.179853
 20
113.641578
 30
0.0
 11
25.354832
 21
113.641578
 31
0.0
  0
LINE
  5
24c
100
AcDbEntity
  8
text
 62
7
100
AcDbLine
 10
25.354832
 20
113.641578
 30
0.0
 11
25.622943
 21
113.730478
 31
0.0
  0
LINE
  5
24d
100
AcDbEntity
  8
text
 62
7
100
AcDbLine
 10
25.622943
 20
113.730478
 30
0.0
 11
25.800744
 21
113.908279
 31
0.0
  0
LINE
  5
24e
100
AcDbEntity
  8
text
 62
7
100
AcDbLine
 10
25.800744
 20
113.908279
 30
0.0
 11
25.891055
 21
114.174979
 31
0.0
  0
LINE
  5
24f
100
AcDbEntity
  8
text
 62
7
100
AcDbLine
 10
25.891055
 20
114.174979
 30
0.0
 11
25.891055
 21
115.509894
 31
0.0
  0
LINE
  5
250
100
AcDbEntity
  8
text
 62
7
100
AcDbLine
 10
26.599430
 20
115.509894
 30
0.0
 11
26.599430
 21
113.641578
 31
0.0
  0
LINE
  5
251
100
AcDbEntity
  8
text
 62
7
100
AcDbLine
 10
26.599430
 20
115.509894
 30
0.0
 11
27.756544
 21
115.509894
 31
0.0
  0
LINE
  5
252
100
AcDbEntity
  8
text
 62
7
100
AcDbLine
 10
26.599430
 20
114.618070
 30
0.0
 11
27.310632
 21
114.618070
 31
0.0
  0
LINE
  5
253
100
AcDbEntity
  8
text
 62
7
100
AcDbLine
 10
26.599430
 20
113.641578
 30
0.0
 11
27.756544
 21
113.641578
 31
0.0
  0
LINE
  5
254
100
AcDbEntity
  8
text
 62
7
100
AcDbLine
 10
28.287110
 20
115.509894
 30
0.0
 11
28.287110
 21
113.641578
 31
0.0
  0
LINE
  5
255
100
AcDbEntity
  8
text
 62
7
100
AcDbLine
 10
28.287110
 20
115.509894
 30
0.0
 11
29.534535
 21
113.641578
 31
0.0
  0
LINE
  5
256
100
AcDbEntity
  8
text
 62
7
100
AcDbLine
 10
29.534535
 20
115.509894
 30
0.0
 11
29.534535
 21
113.641578
 31
0.0
  0
LINE
  5
257
100
AcDbEntity
  8
text
 62
7
100
AcDbLine
 10
31.490335
 20
115.063982
 30
0.0
 11
31.400024
 21
115.241782
 31
0.0
  0
LINE
  5
258
100
AcDbEntity
  8
text
 62
7
100
AcDbLine
 10
31.400024
 20
115.241782
 30
0.0
 11
31.222223
 21
115.419583
 31
0.0
  0
LINE
  5
259
100
AcDbEntity
  8
text
 62
7
100
AcDbLine
 10
31.222223
 20
115.419583
 30
0.0
 11
31.044423
 21
115.509894
 31
0.0
  0
LINE
  5
25a
100
AcDbEntity
  8
text
 62
7
100
AcDbLine
 10
31.044423
 20
115.509894
 30
0.0
 11
30.688822
 21
115.509894
 31
0.0
  0
LINE
  5
25b
100
AcDbEntity
  8
text
 62
7
100
AcDbLine
 10
30.688822
 20
115.509894
 30
0.0
 11
30.511021
 21
115.419583
 31
0.0
  0
LINE
  5
25c
100
AcDbEntity
  8
text
 62
7
100
AcDbLine
 10
30.511021
 20
115.419583
 30
0.0
 11
30.333221
 21
115.241782
 31
0.0
  0
LINE
  5
25d
100
AcDbEntity
  8
text
 62
7
100
AcDbLine
 10
30.333221
 20
115.241782
 30
0.0
 11
30.242910
 21
115.063982
 31
0.0
  0
LINE
  5
25e
100
AcDbEntity
  8
text
 62
7
100
AcDbLine
 10
30.242910
 20
115.063982
 30
0.0
 11
30.155420
 21
114.798692
 31
0.0
  0
LINE
  5
25f
100
AcDbEntity
  8
text
 62
7
100
AcDbLine
 10
30.155420
 20
114.798692
 30
0.0
 11
30.155420
 21
114.352780
 31
0.0
  0
LINE
  5
260
100
AcDbEntity
  8
text
 62
7
100
AcDbLine
 10
30.155420
 20
114.352780
 30
0.0
 11
30.242910
 21
114.087490
 31
0.0
  0
LINE
  5
261
100
AcDbEntity
  8
text
 62
7
100
AcDbLine
 10
30.242910
 20
114.087490
 30
0.0
 11
30.333221
 21
113.908279
 31
0.0
  0
LINE
  5
262
100
AcDbEntity
  8
text
 62
7
100
AcDbLine
 10
30.333221
 20
113.908279
 30
0.0
 11
30.511021
 21
113.730478
 31
0.0
  0
LINE
  5
263
100
AcDbEntity
  8
text
 62
7
100
AcDbLine
 10
30.511021
 20
113.730478
 30
0.0
 11
30.688822
 21
113.641578
 31
0.0
  0
LINE
  5
264
100
AcDbEntity
  8
text
 62
7
100
AcDbLine
 10
30.688822
 20
113.641578
 30
0.0
 11
31.044423
 21
113.641578
 31
0.0
  0
LINE
  5
265
100
AcDbEntity
  8
text
 62
7
100
AcDbLine
 10
31.044423
 20
113.641578
 30
0.0
 11
31.222223
 21
113.730478
 31
0.0
  0
LINE
  5
266
100
AcDbEntity
  8
text
 62
7
100
AcDbLine
 10
31.222223
 20
113.730478
 30
0.0
 11
31.400024
 21
113.908279
 31
0.0
  0
LINE
  5
267
100
AcDbEntity
  8
text
 62
7
100
AcDbLine
 10
31.400024
 20
113.908279
 30
0.0
 11
31.490335
 21
114.087490
 31
0.0
  0
LINE
  5
268
100
AcDbEntity
  8
text
 62
7
100
AcDbLine
 10
31.845920
 20
115.509894
 30
0.0
 11
32.557122
 21
114.618070
 31
0.0
  0
LINE
  5
269
100
AcDbEntity
  8
text
 62
7
100
AcDbLine
 10
32.557122
 20
114.618070
 30
0.0
 11
32.557122
 21
113.641578
 31
0.0
  0
LINE
  5
26a
100
AcDbEntity
  8
text
 62
7
100
AcDbLine
 10
33.268324
 20
115.509894
 30
0.0
 11
32.557122
 21
114.618070
 31
0.0
  0
LINE
  5
26b
100
AcDbEntity
  8
text
 62
7
100
AcDbLine
 10
3.091891
 20
28.740416
 30
0.0
 11
3.091891
 21
26.872100
 31
0.0
  0
LINE
  5
26c
100
AcDbEntity
  8
text
 62
7
100
AcDbLine
 10
3.091891
 20
28.740416
 30
0.0
 11
4.249005
 21
28.740416
 31
0.0
  0
LINE
  5
26d
100
AcDbEntity
  8
text
 62
7
100
AcDbLine
 10
3.091891
 20
27.848592
 30
0.0
 11
3.803093
 21
27.848592
 31
0.0
  0
LINE
  5
26e
100
AcDbEntity
  8
text
 62
7
100
AcDbLine
 10
4.692091
 20
28.740416
 30
0.0
 11
4.692091
 21
26.872100
 31
0.0
  0
LINE
  5
26f
100
AcDbEntity
  8
text
 62
7
100
AcDbLine
 10
4.692091
 20
28.740416
 30
0.0
 11
5.493604
 21
28.740416
 31
0.0
  0
LINE
  5
270
100
AcDbEntity
  8
text
 62
7
100
AcDbLine
 10
5.493604
 20
28.740416
 30
0.0
 11
5.758894
 21
28.650105
 31
0.0
  0
LINE
  5
271
100
AcDbEntity
  8
text
 62
7
100
AcDbLine
 10
5.758894
 20
28.650105
 30
0.0
 11
5.849205
 21
28.559794
 31
0.0
  0
LINE
  5
272
100
AcDbEntity
  8
text
 62
7
100
AcDbLine
 10
5.849205
 20
28.559794
 30
0.0
 11
5.939516
 21
28.384815
 31
0.0
  0
LINE
  5
273
100
AcDbEntity
  8
text
 62
7
100
AcDbLine
 10
5.939516
 20
28.384815
 30
0.0
 11
5.939516
 21
28.204193
 31
0.0
  0
LINE
  5
274
100
AcDbEntity
  8
text
 62
7
100
AcDbLine
 10
5.939516
 20
28.204193
 30
0.0
 11
5.849205
 21
28.029214
 31
0.0
  0
LINE
  5
275
100
AcDbEntity
  8
text
 62
7
100
AcDbLine
 10
5.849205
 20
28.029214
 30
0.0
 11
5.758894
 21
27.938903
 31
0.0
  0
LINE
  5
276
100
AcDbEntity
  8
text
 62
7
100
AcDbLine
 10
5.758894
 20
27.938903
 30
0.0
 11
5.493604
 21
27.848592
 31
0.0
  0
LINE
  5
277
100
AcDbEntity
  8
text
 62
7
100
AcDbLine
 10
5.493604
 20
27.848592
 30
0.0
 11
4.692091
 21
27.848592
 31
0.0
  0
LINE
  5
278
100
AcDbEntity
  8
text
 62
7
100
AcDbLine
 10
5.315803
 20
27.848592
 30
0.0
 11
5.939516
 21
26.872100
 31
0.0
  0
LINE
  5
279
100
AcDbEntity
  8
text
 62
7
100
AcDbLine
 10
6.560411
 20
28.740416
 30
0.0
 11
6.560411
 21
26.872100
 31
0.0
  0
LINE
  5
27a
100
AcDbEntity
  8
text
 62
7
100
AcDbLine
 10
6.560411
 20
28.740416
 30
0.0
 11
7.717525
 21
28.740416
 31
0.0
  0
LINE
  5
27b
100
AcDbEntity
  8
text
 62
7
100
AcDbLine
 10
6.560411
 20
27.848592
 30
0.0
 11
7.271613
 21
27.848592
 31
0.0
  0
LINE
  5
27c
100
AcDbEntity
  8
text
 62
7
100
AcDbLine
 10
6.560411
 20
26.872100
 30
0.0
 11
7.717525
 21
26.872100
 31
0.0
  0
LINE
  5
27d
100
AcDbEntity
  8
text
 62
7
100
AcDbLine
 10
8.694013
 20
28.740416
 30
0.0
 11
8.516212
 21
28.650105
 31
0.0
  0
LINE
  5
27e
100
AcDbEntity
  8
text
 62
7
100
AcDbLine
 10
8.516212
 20
28.650105
 30
0.0
 11
8.338412
 21
28.472304
 31
0.0
  0
LINE
  5
27f
100
AcDbEntity
  8
text
 62
7
100
AcDbLine
 10
8.338412
 20
28.472304
 30
0.0
 11
8.248101
 21
28.294504
 31
0.0
  0
LINE
  5
280
100
AcDbEntity
  8
text
 62
7
100
AcDbLine
 10
8.248101
 20
28.294504
 30
0.0
 11
8.160611
 21
28.029214
 31
0.0
  0
LINE
  5
281
100
AcDbEntity
  8
text
 62
7
100
AcDbLine
 10
8.160611
 20
28.029214
 30
0.0
 11
8.160611
 21
27.583302
 31
0.0
  0
LINE
  5
282
100
AcDbEntity
  8
text
 62
7
100
AcDbLine
 10
8.160611
 20
27.583302
 30
0.0
 11
8.248101
 21
27.318012
 31
0.0
  0
LINE
  5
283
100
AcDbEntity
  8
text
 62
7
100
AcDbLine
 10
8.248101
 20
27.318012
 30
0.0
 11
8.338412
 21
27.138801
 31
0.0
  0
LINE
  5
284
100
AcDbEntity
  8
text
 62
7
100
AcDbLine
 10
8.338412
 20
27.138801
 30
0.0
 11
8.516212
 21
26.961000
 31
0.0
  0
LINE
  5
285
100
AcDbEntity
  8
text
 62
7
100
AcDbLine
 10
8.516212
 20
26.961000
 30
0.0
 11
8.694013
 21
26.872100
 31
0.0
  0
LINE
  5
286
100
AcDbEntity
  8
text
 62
7
100
AcDbLine
 10
8.694013
 20
26.872100
 30
0.0
 11
9.049614
 21
26.872100
 31
0.0
  0
LINE
  5
287
100
AcDbEntity
  8
text
 62
7
100
AcDbLine
 10
9.049614
 20
26.872100
 30
0.0
 11
9.227414
 21
26.961000
 31
0.0
  0
LINE
  5
288
100
AcDbEntity
  8
text
 62
7
100
AcDbLine
 10
9.227414
 20
26.961000
 30
0.0
 11
9.405215
 21
27.138801
 31
0.0
  0
LINE
  5
289
100
AcDbEntity
  8
text
 62
7
100
AcDbLine
 10
9.405215
 20
27.138801
 30
0.0
 11
9.495526
 21
27.318012
 31
0.0
  0
LINE
  5
28a
100
AcDbEntity
  8
text
 62
7
100
AcDbLine
 10
9.495526
 20
27.318012
 30
0.0
 11
9.583015
 21
27.583302
 31
0.0
  0
LINE
  5
28b
100
AcDbEntity
  8
text
 62
7
100
AcDbLine
 10
9.583015
 20
27.583302
 30
0.0
 11
9.583015
 21
28.029214
 31
0.0
  0
LINE
  5
28c
100
AcDbEntity
  8
text
 62
7
100
AcDbLine
 10
9.583015
 20
28.029214
 30
0.0
 11
9.495526
 21
28.294504
 31
0.0
  0
LINE
  5
28d
100
AcDbEntity
  8
text
 62
7
100
AcDbLine
 10
9.495526
 20
28.294504
 30
0.0
 11
9.405215
 21
28.472304
 31
0.0
  0
LINE
  5
28e
100
AcDbEntity
  8
text
 62
7
100
AcDbLine
 10
9.405215
 20
28.472304
 30
0.0
 11
9.227414
 21
28.650105
 31
0.0
  0
LINE
  5
28f
100
AcDbEntity
  8
text
 62
7
100
AcDbLine
 10
9.227414
 20
28.650105
 30
0.0
 11
9.049614
 21
28.740416
 31
0.0
  0
LINE
  5
290
100
AcDbEntity
  8
text
 62
7
100
AcDbLine
 10
9.049614
 20
28.740416
 30
0.0
 11
8.694013
 21
28.740416
 31
0.0
  0
LINE
  5
291
100
AcDbEntity
  8
text
 62
7
100
AcDbLine
 10
8.959303
 20
27.227701
 30
0.0
 11
9.495526
 21
26.694300
 31
0.0
  0
LINE
  5
292
100
AcDbEntity
  8
text
 62
7
100
AcDbLine
 10
6.161116
 20
25.475304
 30
0.0
 11
6.070805
 21
25.653104
 31
0.0
  0
LINE
  5
293
100
AcDbEntity
  8
text
 62
7
100
AcDbLine
 10
6.070805
 20
25.653104
 30
0.0
 11
5.893004
 21
25.830905
 31
0.0
  0
LINE
  5
294
100
AcDbEntity
  8
text
 62
7
100
AcDbLine
 10
5.893004
 20
25.830905
 30
0.0
 11
5.715204
 21
25.921216
 31
0.0
  0
LINE
  5
295
100
AcDbEntity
  8
text
 62
7
100
AcDbLine
 10
5.715204
 20
25.921216
 30
0.0
 11
5.359603
 21
25.921216
 31
0.0
  0
LINE
  5
296
100
AcDbEntity
  8
text
 62
7
100
AcDbLine
 10
5.359603
 20
25.921216
 30
0.0
 11
5.181802
 21
25.830905
 31
0.0
  0
LINE
  5
297
100
AcDbEntity
  8
text
 62
7
100
AcDbLine
 10
5.181802
 20
25.830905
 30
0.0
 11
5.004002
 21
25.653104
 31
0.0
  0
LINE
  5
298
100
AcDbEntity
  8
text
 62
7
100
AcDbLine
 10
5.004002
 20
25.653104
 30
0.0
 11
4.913691
 21
25.475304
 31
0.0
  0
LINE
  5
299
100
AcDbEntity
  8
text
 62
7
100
AcDbLine
 10
4.913691
 20
25.475304
 30
0.0
 11
4.826201
 21
25.210014
 31
0.0
  0
LINE
  5
29a
100
AcDbEntity
  8
text
 62
7
100
AcDbLine
 10
4.826201
 20
25.210014
 30
0.0
 11
4.826201
 21
24.764102
 31
0.0
  0
LINE
  5
29b
100
AcDbEntity
  8
text
 62
7
100
AcDbLine
 10
4.826201
 20
24.764102
 30
0.0
 11
4.913691
 21
24.498812
 31
0.0
  0
LINE
  5
29c
100
AcDbEntity
  8
text
 62
7
100
AcDbLine
 10
4.913691
 20
24.498812
 30
0.0
 11
5.004002
 21
24.319601
 31
0.0
  0
LINE
  5
29d
100
AcDbEntity
  8
text
 62
7
100
AcDbLine
 10
5.004002
 20
24.319601
 30
0.0
 11
5.181802
 21
24.141800
 31
0.0
  0
LINE
  5
29e
100
AcDbEntity
  8
text
 62
7
100
AcDbLine
 10
5.181802
 20
24.141800
 30
0.0
 11
5.359603
 21
24.052900
 31
0.0
  0
LINE
  5
29f
100
AcDbEntity
  8
text
 62
7
100
AcDbLine
 10
5.359603
 20
24.052900
 30
0.0
 11
5.715204
 21
24.052900
 31
0.0
  0
LINE
  5
2a0
100
AcDbEntity
  8
text
 62
7
100
AcDbLine
 10
5.715204
 20
24.052900
 30
0.0
 11
5.893004
 21
24.141800
 31
0.0
  0
LINE
  5
2a1
100
AcDbEntity
  8
text
 62
7
100
AcDbLine
 10
5.893004
 20
24.141800
 30
0.0
 11
6.070805
 21
24.319601
 31
0.0
  0
LINE
  5
2a2
100
AcDbEntity
  8
text
 62
7
100
AcDbLine
 10
6.070805
 20
24.319601
 30
0.0
 11
6.161116
 21
24.498812
 31
0.0
  0
LINE
  5
2a3
100
AcDbEntity
  8
text
 62
7
100
AcDbLine
 10
6.516721
 20
25.921216
 30
0.0
 11
7.227923
 21
24.052900
 31
0.0
  0
LINE
  5
2a4
100
AcDbEntity
  8
text
 62
7
100
AcDbLine
 10
7.939125
 20
25.921216
 30
0.0
 11
7.227923
 21
24.052900
 31
0.0
  0
LINE
  5
2a5
100
AcDbEntity
  8
text
 62
7
100
AcDbLine
 10
13.778805
 20
26.182304
 30
0.0
 11
13.601004
 21
26.360105
 31
0.0
  0
LINE
  5
2a6
100
AcDbEntity
  8
text
 62
7
100
AcDbLine
 10
13.601004
 20
26.360105
 30
0.0
 11
13.332893
 21
26.450416
 31
0.0
  0
LINE
  5
2a7
100
AcDbEntity
  8
text
 62
7
100
AcDbLine
 10
13.332893
 20
26.450416
 30
0.0
 11
12.977292
 21
26.450416
 31
0.0
  0
LINE
  5
2a8
100
AcDbEntity
  8
text
 62
7
100
AcDbLine
 10
12.977292
 20
26.450416
 30
0.0
 11
12.712002
 21
26.360105
 31
0.0
  0
LINE
  5
2a9
100
AcDbEntity
  8
text
 62
7
100
AcDbLine
 10
12.712002
 20
26.360105
 30
0.0
 11
12.534201
 21
26.182304
 31
0.0
  0
LINE
  5
2aa
100
AcDbEntity
  8
text
 62
7
100
AcDbLine
 10
12.534201
 20
26.182304
 30
0.0
 11
12.534201
 21
26.004504
 31
0.0
  0
LINE
  5
2ab
100
AcDbEntity
  8
text
 62
7
100
AcDbLine
 10
12.534201
 20
26.004504
 30
0.0
 11
12.621691
 21
25.826703
 31
0.0
  0
LINE
  5
2ac
100
AcDbEntity
  8
text
 62
7
100
AcDbLine
 10
12.621691
 20
25.826703
 30
0.0
 11
12.712002
 21
25.739214
 31
0.0
  0
LINE
  5
2ad
100
AcDbEntity
  8
text
 62
7
100
AcDbLine
 10
12.712002
 20
25.739214
 30
0.0
 11
12.889802
 21
25.648903
 31
0.0
  0
LINE
  5
2ae
100
AcDbEntity
  8
text
 62
7
100
AcDbLine
 10
12.889802
 20
25.648903
 30
0.0
 11
13.423204
 21
25.471102
 31
0.0
  0
LINE
  5
2af
100
AcDbEntity
  8
text
 62
7
100
AcDbLine
 10
13.423204
 20
25.471102
 30
0.0
 11
13.601004
 21
25.383613
 31
0.0
  0
LINE
  5
2b0
100
AcDbEntity
  8
text
 62
7
100
AcDbLine
 10
13.601004
 20
25.383613
 30
0.0
 11
13.688494
 21
25.293302
 31
0.0
  0
LINE
  5
2b1
100
AcDbEntity
  8
text
 62
7
100
AcDbLine
 10
13.688494
 20
25.293302
 30
0.0
 11
13.778805
 21
25.115501
 31
0.0
  0
LINE
  5
2b2
100
AcDbEntity
  8
text
 62
7
100
AcDbLine
 10
13.778805
 20
25.115501
 30
0.0
 11
13.778805
 21
24.848801
 31
0.0
  0
LINE
  5
2b3
100
AcDbEntity
  8
text
 62
7
100
AcDbLine
 10
13.778805
 20
24.848801
 30
0.0
 11
13.601004
 21
24.671000
 31
0.0
  0
LINE
  5
2b4
100
AcDbEntity
  8
text
 62
7
100
AcDbLine
 10
13.601004
 20
24.671000
 30
0.0
 11
13.332893
 21
24.582100
 31
0.0
  0
LINE
  5
2b5
100
AcDbEntity
  8
text
 62
7
100
AcDbLine
 10
13.332893
 20
24.582100
 30
0.0
 11
12.977292
 21
24.582100
 31
0.0
  0
LINE
  5
2b6
100
AcDbEntity
  8
text
 62
7
100
AcDbLine
 10
12.977292
 20
24.582100
 30
0.0
 11
12.712002
 21
24.671000
 31
0.0
  0
LINE
  5
2b7
100
AcDbEntity
  8
text
 62
7
100
AcDbLine
 10
12.712002
 20
24.671000
 30
0.0
 11
12.534201
 21
24.848801
 31
0.0
  0
LINE
  5
2b8
100
AcDbEntity
  8
text
 62
7
100
AcDbLine
 10
14.134401
 20
26.450416
 30
0.0
 11
14.845603
 21
25.558592
 31
0.0
  0
LINE
  5
2b9
100
AcDbEntity
  8
text
 62
7
100
AcDbLine
 10
14.845603
 20
25.558592
 30
0.0
 11
14.845603
 21
24.582100
 31
0.0
  0
LINE
  5
2ba
100
AcDbEntity
  8
text
 62
7
100
AcDbLine
 10
15.556805
 20
26.450416
 30
0.0
 11
14.845603
 21
25.558592
 31
0.0
  0
LINE
  5
2bb
100
AcDbEntity
  8
text
 62
7
100
AcDbLine
 10
15.999901
 20
26.450416
 30
0.0
 11
15.999901
 21
24.582100
 31
0.0
  0
LINE
  5
2bc
100
AcDbEntity
  8
text
 62
7
100
AcDbLine
 10
15.999901
 20
26.450416
 30
0.0
 11
17.247326
 21
24.582100
 31
0.0
  0
LINE
  5
2bd
100
AcDbEntity
  8
text
 62
7
100
AcDbLine
 10
17.247326
 20
26.450416
 30
0.0
 11
17.247326
 21
24.582100
 31
0.0
  0
LINE
  5
2be
100
AcDbEntity
  8
text
 62
7
100
AcDbLine
 10
19.203126
 20
26.004504
 30
0.0
 11
19.112815
 21
26.182304
 31
0.0
  0
LINE
  5
2bf
100
AcDbEntity
  8
text
 62
7
100
AcDbLine
 10
19.112815
 20
26.182304
 30
0.0
 11
18.935014
 21
26.360105
 31
0.0
  0
LINE
  5
2c0
100
AcDbEntity
  8
text
 62
7
100
AcDbLine
 10
18.935014
 20
26.360105
 30
0.0
 11
18.757214
 21
26.450416
 31
0.0
  0
LINE
  5
2c1
100
AcDbEntity
  8
text
 62
7
100
AcDbLine
 10
18.757214
 20
26.450416
 30
0.0
 11
18.401613
 21
26.450416
 31
0.0
  0
LINE
  5
2c2
100
AcDbEntity
  8
text
 62
7
100
AcDbLine
 10
18.401613
 20
26.450416
 30
0.0
 11
18.223812
 21
26.360105
 31
0.0
  0
LINE
  5
2c3
100
AcDbEntity
  8
text
 62
7
100
AcDbLine
 10
18.223812
 20
26.360105
 30
0.0
 11
18.046012
 21
26.182304
 31
0.0
  0
LINE
  5
2c4
100
AcDbEntity
  8
text
 62
7
100
AcDbLine
 10
18.046012
 20
26.182304
 30
0.0
 11
17.955701
 21
26.004504
 31
0.0
  0
LINE
  5
2c5
100
AcDbEntity
  8
text
 62
7
100
AcDbLine
 10
17.955701
 20
26.004504
 30
0.0
 11
17.868211
 21
25.739214
 31
0.0
  0
LINE
  5
2c6
100
AcDbEntity
  8
text
 62
7
100
AcDbLine
 10
17.868211
 20
25.739214
 30
0.0
 11
17.868211
 21
25.293302
 31
0.0
  0
LINE
  5
2c7
100
AcDbEntity
  8
text
 62
7
100
AcDbLine
 10
17.868211
 20
25.293302
 30
0.0
 11
17.955701
 21
25.028012
 31
0.0
  0
LINE
  5
2c8
100
AcDbEntity
  8
text
 62
7
100
AcDbLine
 10
17.955701
 20
25.028012
 30
0.0
 11
18.046012
 21
24.848801
 31
0.0
  0
LINE
  5
2c9
100
AcDbEntity
  8
text
 62
7
100
AcDbLine
 10
18.046012
 20
24.848801
 30
0.0
 11
18.223812
 21
24.671000
 31
0.0
  0
LINE
  5
2ca
100
AcDbEntity
  8
text
 62
7
100
AcDbLine
 10
18.223812
 20
24.671000
 30
0.0
 11
18.401613
 21
24.582100
 31
0.0
  0
LINE
  5
2cb
100
AcDbEntity
  8
text
 62
7
100
AcDbLine
 10
18.401613
 20
24.582100
 30
0.0
 11
18.757214
 21
24.582100
 31
0.0
  0
LINE
  5
2cc
100
AcDbEntity
  8
text
 62
7
100
AcDbLine
 10
18.757214
 20
24.582100
 30
0.0
 11
18.935014
 21
24.671000
 31
0.0
  0
LINE
  5
2cd
100
AcDbEntity
  8
text
 62
7
100
AcDbLine
 10
18.935014
 20
24.671000
 30
0.0
 11
19.112815
 21
24.848801
 31
0.0
  0
LINE
  5
2ce
100
AcDbEntity
  8
text
 62
7
100
AcDbLine
 10
19.112815
 20
24.848801
 30
0.0
 11
19.203126
 21
25.028012
 31
0.0
  0
LINE
  5
2cf
100
AcDbEntity
  8
text
 62
7
100
AcDbLine
 10
14.447925
 20
125.338998
 30
0.0
 11
14.447925
 21
122.965825
 31
0.0
  0
LINE
  5
2d0
100
AcDbEntity
  8
text
 62
7
100
AcDbLine
 10
14.447925
 20
125.338998
 30
0.0
 11
15.466023
 21
125.338998
 31
0.0
  0
LINE
  5
2d1
100
AcDbEntity
  8
text
 62
7
100
AcDbLine
 10
15.466023
 20
125.338998
 30
0.0
 11
15.802999
 21
125.224283
 31
0.0
  0
LINE
  5
2d2
100
AcDbEntity
  8
text
 62
7
100
AcDbLine
 10
15.802999
 20
125.224283
 30
0.0
 11
15.917715
 21
125.109567
 31
0.0
  0
LINE
  5
2d3
100
AcDbEntity
  8
text
 62
7
100
AcDbLine
 10
15.917715
 20
125.109567
 30
0.0
 11
16.032430
 21
124.887307
 31
0.0
  0
LINE
  5
2d4
100
AcDbEntity
  8
text
 62
7
100
AcDbLine
 10
16.032430
 20
124.887307
 30
0.0
 11
16.032430
 21
124.657876
 31
0.0
  0
LINE
  5
2d5
100
AcDbEntity
  8
text
 62
7
100
AcDbLine
 10
16.032430
 20
124.657876
 30
0.0
 11
15.917715
 21
124.435615
 31
0.0
  0
LINE
  5
2d6
100
AcDbEntity
  8
text
 62
7
100
AcDbLine
 10
15.917715
 20
124.435615
 30
0.0
 11
15.802999
 21
124.320900
 31
0.0
  0
LINE
  5
2d7
100
AcDbEntity
  8
text
 62
7
100
AcDbLine
 10
15.802999
 20
124.320900
 30
0.0
 11
15.466023
 21
124.206184
 31
0.0
  0
LINE
  5
2d8
100
AcDbEntity
  8
text
 62
7
100
AcDbLine
 10
15.466023
 20
124.206184
 30
0.0
 11
14.447925
 21
124.206184
 31
0.0
  0
LINE
  5
2d9
100
AcDbEntity
  8
text
 62
7
100
AcDbLine
 10
15.240177
 20
124.206184
 30
0.0
 11
16.032430
 21
122.965825
 31
0.0
  0
LINE
  5
2da
100
AcDbEntity
  8
text
 62
7
100
AcDbLine
 10
17.272794
 20
124.546745
 30
0.0
 11
17.050533
 21
124.435615
 31
0.0
  0
LINE
  5
2db
100
AcDbEntity
  8
text
 62
7
100
AcDbLine
 10
17.050533
 20
124.435615
 30
0.0
 11
16.821102
 21
124.206184
 31
0.0
  0
LINE
  5
2dc
100
AcDbEntity
  8
text
 62
7
100
AcDbLine
 10
16.821102
 20
124.206184
 30
0.0
 11
16.709972
 21
123.869208
 31
0.0
  0
LINE
  5
2dd
100
AcDbEntity
  8
text
 62
7
100
AcDbLine
 10
16.709972
 20
123.869208
 30
0.0
 11
16.709972
 21
123.643363
 31
0.0
  0
LINE
  5
2de
100
AcDbEntity
  8
text
 62
7
100
AcDbLine
 10
16.709972
 20
123.643363
 30
0.0
 11
16.821102
 21
123.304594
 31
0.0
  0
LINE
  5
2df
100
AcDbEntity
  8
text
 62
7
100
AcDbLine
 10
16.821102
 20
123.304594
 30
0.0
 11
17.050533
 21
123.078748
 31
0.0
  0
LINE
  5
2e0
100
AcDbEntity
  8
text
 62
7
100
AcDbLine
 10
17.050533
 20
123.078748
 30
0.0
 11
17.272794
 21
122.965825
 31
0.0
  0
LINE
  5
2e1
100
AcDbEntity
  8
text
 62
7
100
AcDbLine
 10
17.272794
 20
122.965825
 30
0.0
 11
17.613355
 21
122.965825
 31
0.0
  0
LINE
  5
2e2
100
AcDbEntity
  8
text
 62
7
100
AcDbLine
 10
17.613355
 20
122.965825
 30
0.0
 11
17.839201
 21
123.078748
 31
0.0
  0
LINE
  5
2e3
100
AcDbEntity
  8
text
 62
7
100
AcDbLine
 10
17.839201
 20
123.078748
 30
0.0
 11
18.065046
 21
123.304594
 31
0.0
  0
LINE
  5
2e4
100
AcDbEntity
  8
text
 62
7
100
AcDbLine
 10
18.065046
 20
123.304594
 30
0.0
 11
18.176177
 21
123.643363
 31
0.0
  0
LINE
  5
2e5
100
AcDbEntity
  8
text
 62
7
100
AcDbLine
 10
18.176177
 20
123.643363
 30
0.0
 11
18.176177
 21
123.869208
 31
0.0
  0
LINE
  5
2e6
100
AcDbEntity
  8
text
 62
7
100
AcDbLine
 10
18.176177
 20
123.869208
 30
0.0
 11
18.065046
 21
124.206184
 31
0.0
  0
LINE
  5
2e7
100
AcDbEntity
  8
text
 62
7
100
AcDbLine
 10
18.065046
 20
124.206184
 30
0.0
 11
17.839201
 21
124.435615
 31
0.0
  0
LINE
  5
2e8
100
AcDbEntity
  8
text
 62
7
100
AcDbLine
 10
17.839201
 20
124.435615
 30
0.0
 11
17.613355
 21
124.546745
 31
0.0
  0
LINE
  5
2e9
100
AcDbEntity
  8
text
 62
7
100
AcDbLine
 10
17.613355
 20
124.546745
 30
0.0
 11
17.272794
 21
124.546745
 31
0.0
  0
LINE
  5
2ea
100
AcDbEntity
  8
text
 62
7
100
AcDbLine
 10
18.964840
 20
125.338998
 30
0.0
 11
18.964840
 21
122.965825
 31
0.0
  0
LINE
  5
2eb
100
AcDbEntity
  8
text
 62
7
100
AcDbLine
 10
18.964840
 20
124.206184
 30
0.0
 11
19.194270
 21
124.435615
 31
0.0
  0
LINE
  5
2ec
100
AcDbEntity
  8
text
 62
7
100
AcDbLine
 10
19.194270
 20
124.435615
 30
0.0
 11
19.416531
 21
124.546745
 31
0.0
  0
LINE
  5
2ed
100
AcDbEntity
  8
text
 62
7
100
AcDbLine
 10
19.416531
 20
124.546745
 30
0.0
 11
19.757092
 21
124.546745
 31
0.0
  0
LINE
  5
2ee
100
AcDbEntity
  8
text
 62
7
100
AcDbLine
 10
19.757092
 20
124.546745
 30
0.0
 11
19.982938
 21
124.435615
 31
0.0
  0
LINE
  5
2ef
100
AcDbEntity
  8
text
 62
7
100
AcDbLine
 10
19.982938
 20
124.435615
 30
0.0
 11
20.208784
 21
124.206184
 31
0.0
  0
LINE
  5
2f0
100
AcDbEntity
  8
text
 62
7
100
AcDbLine
 10
20.208784
 20
124.206184
 30
0.0
 11
20.319914
 21
123.869208
 31
0.0
  0
LINE
  5
2f1
100
AcDbEntity
  8
text
 62
7
100
AcDbLine
 10
20.319914
 20
123.869208
 30
0.0
 11
20.319914
 21
123.643363
 31
0.0
  0
LINE
  5
2f2
100
AcDbEntity
  8
text
 62
7
100
AcDbLine
 10
20.319914
 20
123.643363
 30
0.0
 11
20.208784
 21
123.304594
 31
0.0
  0
LINE
  5
2f3
100
AcDbEntity
  8
text
 62
7
100
AcDbLine
 10
20.208784
 20
123.304594
 30
0.0
 11
19.982938
 21
123.078748
 31
0.0
  0
LINE
  5
2f4
100
AcDbEntity
  8
text
 62
7
100
AcDbLine
 10
19.982938
 20
123.078748
 30
0.0
 11
19.757092
 21
122.965825
 31
0.0
  0
LINE
  5
2f5
100
AcDbEntity
  8
text
 62
7
100
AcDbLine
 10
19.757092
 20
122.965825
 30
0.0
 11
19.416531
 21
122.965825
 31
0.0
  0
LINE
  5
2f6
100
AcDbEntity
  8
text
 62
7
100
AcDbLine
 10
19.416531
 20
122.965825
 30
0.0
 11
19.194270
 21
123.078748
 31
0.0
  0
LINE
  5
2f7
100
AcDbEntity
  8
text
 62
7
100
AcDbLine
 10
19.194270
 20
123.078748
 30
0.0
 11
18.964840
 21
123.304594
 31
0.0
  0
LINE
  5
2f8
100
AcDbEntity
  8
text
 62
7
100
AcDbLine
 10
21.560269
 20
124.546745
 30
0.0
 11
21.338008
 21
124.435615
 31
0.0
  0
LINE
  5
2f9
100
AcDbEntity
  8
text
 62
7
100
AcDbLine
 10
21.338008
 20
124.435615
 30
0.0
 11
21.108577
 21
124.206184
 31
0.0
  0
LINE
  5
2fa
100
AcDbEntity
  8
text
 62
7
100
AcDbLine
 10
21.108577
 20
124.206184
 30
0.0
 11
20.997447
 21
123.869208
 31
0.0
  0
LINE
  5
2fb
100
AcDbEntity
  8
text
 62
7
100
AcDbLine
 10
20.997447
 20
123.869208
 30
0.0
 11
20.997447
 21
123.643363
 31
0.0
  0
LINE
  5
2fc
100
AcDbEntity
  8
text
 62
7
100
AcDbLine
 10
20.997447
 20
123.643363
 30
0.0
 11
21.108577
 21
123.304594
 31
0.0
  0
LINE
  5
2fd
100
AcDbEntity
  8
text
 62
7
100
AcDbLine
 10
21.108577
 20
123.304594
 30
0.0
 11
21.338008
 21
123.078748
 31
0.0
  0
LINE
  5
2fe
100
AcDbEntity
  8
text
 62
7
100
AcDbLine
 10
21.338008
 20
123.078748
 30
0.0
 11
21.560269
 21
122.965825
 31
0.0
  0
LINE
  5
2ff
100
AcDbEntity
  8
text
 62
7
100
AcDbLine
 10
21.560269
 20
122.965825
 30
0.0
 11
21.900830
 21
122.965825
 31
0.0
  0
LINE
  5
300
100
AcDbEntity
  8
text
 62
7
100
AcDbLine
 10
21.900830
 20
122.965825
 30
0.0
 11
22.126676
 21
123.078748
 31
0.0
  0
LINE
  5
301
100
AcDbEntity
  8
text
 62
7
100
AcDbLine
 10
22.126676
 20
123.078748
 30
0.0
 11
22.352521
 21
123.304594
 31
0.0
  0
LINE
  5
302
100
AcDbEntity
  8
text
 62
7
100
AcDbLine
 10
22.352521
 20
123.304594
 30
0.0
 11
22.463652
 21
123.643363
 31
0.0
  0
LINE
  5
303
100
AcDbEntity
  8
text
 62
7
100
AcDbLine
 10
22.463652
 20
123.643363
 30
0.0
 11
22.463652
 21
123.869208
 31
0.0
  0
LINE
  5
304
100
AcDbEntity
  8
text
 62
7
100
AcDbLine
 10
22.463652
 20
123.869208
 30
0.0
 11
22.352521
 21
124.206184
 31
0.0
  0
LINE
  5
305
100
AcDbEntity
  8
text
 62
7
100
AcDbLine
 10
22.352521
 20
124.206184
 30
0.0
 11
22.126676
 21
124.435615
 31
0.0
  0
LINE
  5
306
100
AcDbEntity
  8
text
 62
7
100
AcDbLine
 10
22.126676
 20
124.435615
 30
0.0
 11
21.900830
 21
124.546745
 31
0.0
  0
LINE
  5
307
100
AcDbEntity
  8
text
 62
7
100
AcDbLine
 10
21.900830
 20
124.546745
 30
0.0
 11
21.560269
 21
124.546745
 31
0.0
  0
LINE
  5
308
100
AcDbEntity
  8
text
 62
7
100
AcDbLine
 10
23.367043
 20
125.338998
 30
0.0
 11
23.367043
 21
123.417517
 31
0.0
  0
LINE
  5
309
100
AcDbEntity
  8
text
 62
7
100
AcDbLine
 10
23.367043
 20
123.417517
 30
0.0
 11
23.481758
 21
123.078748
 31
0.0
  0
LINE
  5
30a
100
AcDbEntity
  8
text
 62
7
100
AcDbLine
 10
23.481758
 20
123.078748
 30
0.0
 11
23.704019
 21
122.965825
 31
0.0
  0
LINE
  5
30b
100
AcDbEntity
  8
text
 62
7
100
AcDbLine
 10
23.704019
 20
122.965825
 30
0.0
 11
23.933450
 21
122.965825
 31
0.0
  0
LINE
  5
30c
100
AcDbEntity
  8
text
 62
7
100
AcDbLine
 10
23.030067
 20
124.546745
 30
0.0
 11
23.818735
 21
124.546745
 31
0.0
  0
LINE
  5
30d
100
AcDbEntity
  8
text
 62
7
100
AcDbLine
 10
24.607398
 20
125.338998
 30
0.0
 11
24.607398
 21
122.965825
 31
0.0
  0
LINE
  5
30e
100
AcDbEntity
  8
text
 62
7
100
AcDbLine
 10
24.607398
 20
125.338998
 30
0.0
 11
25.399651
 21
125.338998
 31
0.0
  0
LINE
  5
30f
100
AcDbEntity
  8
text
 62
7
100
AcDbLine
 10
25.399651
 20
125.338998
 30
0.0
 11
25.740212
 21
125.224283
 31
0.0
  0
LINE
  5
310
100
AcDbEntity
  8
text
 62
7
100
AcDbLine
 10
25.740212
 20
125.224283
 30
0.0
 11
25.962473
 21
124.998437
 31
0.0
  0
LINE
  5
311
100
AcDbEntity
  8
text
 62
7
100
AcDbLine
 10
25.962473
 20
124.998437
 30
0.0
 11
26.077188
 21
124.772591
 31
0.0
  0
LINE
  5
312
100
AcDbEntity
  8
text
 62
7
100
AcDbLine
 10
26.077188
 20
124.772591
 30
0.0
 11
26.191904
 21
124.435615
 31
0.0
  0
LINE
  5
313
100
AcDbEntity
  8
text
 62
7
100
AcDbLine
 10
26.191904
 20
124.435615
 30
0.0
 11
26.191904
 21
123.869208
 31
0.0
  0
LINE
  5
314
100
AcDbEntity
  8
text
 62
7
100
AcDbLine
 10
26.191904
 20
123.869208
 30
0.0
 11
26.077188
 21
123.532232
 31
0.0
  0
LINE
  5
315
100
AcDbEntity
  8
text
 62
7
100
AcDbLine
 10
26.077188
 20
123.532232
 30
0.0
 11
25.962473
 21
123.304594
 31
0.0
  0
LINE
  5
316
100
AcDbEntity
  8
text
 62
7
100
AcDbLine
 10
25.962473
 20
123.304594
 30
0.0
 11
25.740212
 21
123.078748
 31
0.0
  0
LINE
  5
317
100
AcDbEntity
  8
text
 62
7
100
AcDbLine
 10
25.740212
 20
123.078748
 30
0.0
 11
25.399651
 21
122.965825
 31
0.0
  0
LINE
  5
318
100
AcDbEntity
  8
text
 62
7
100
AcDbLine
 10
25.399651
 20
122.965825
 30
0.0
 11
24.607398
 21
122.965825
 31
0.0
  0
LINE
  5
319
100
AcDbEntity
  8
text
 62
7
100
AcDbLine
 10
26.869445
 20
125.338998
 30
0.0
 11
26.980576
 21
125.224283
 31
0.0
  0
LINE
  5
31a
100
AcDbEntity
  8
text
 62
7
100
AcDbLine
 10
26.980576
 20
125.224283
 30
0.0
 11
27.095291
 21
125.338998
 31
0.0
  0
LINE
  5
31b
100
AcDbEntity
  8
text
 62
7
100
AcDbLine
 10
27.095291
 20
125.338998
 30
0.0
 11
26.980576
 21
125.450128
 31
0.0
  0
LINE
  5
31c
100
AcDbEntity
  8
text
 62
7
100
AcDbLine
 10
26.980576
 20
125.450128
 30
0.0
 11
26.869445
 21
125.338998
 31
0.0
  0
LINE
  5
31d
100
AcDbEntity
  8
text
 62
7
100
AcDbLine
 10
26.980576
 20
124.546745
 30
0.0
 11
26.980576
 21
122.965825
 31
0.0
  0
LINE
  5
31e
100
AcDbEntity
  8
text
 62
7
100
AcDbLine
 10
29.127875
 20
124.546745
 30
0.0
 11
29.127875
 21
122.965825
 31
0.0
  0
LINE
  5
31f
100
AcDbEntity
  8
text
 62
7
100
AcDbLine
 10
29.127875
 20
124.206184
 30
0.0
 11
28.902029
 21
124.435615
 31
0.0
  0
LINE
  5
320
100
AcDbEntity
  8
text
 62
7
100
AcDbLine
 10
28.902029
 20
124.435615
 30
0.0
 11
28.676183
 21
124.546745
 31
0.0
  0
LINE
  5
321
100
AcDbEntity
  8
text
 62
7
100
AcDbLine
 10
28.676183
 20
124.546745
 30
0.0
 11
28.335622
 21
124.546745
 31
0.0
  0
LINE
  5
322
100
AcDbEntity
  8
text
 62
7
100
AcDbLine
 10
28.335622
 20
124.546745
 30
0.0
 11
28.113362
 21
124.435615
 31
0.0
  0
LINE
  5
323
100
AcDbEntity
  8
text
 62
7
100
AcDbLine
 10
28.113362
 20
124.435615
 30
0.0
 11
27.883931
 21
124.206184
 31
0.0
  0
LINE
  5
324
100
AcDbEntity
  8
text
 62
7
100
AcDbLine
 10
27.883931
 20
124.206184
 30
0.0
 11
27.772801
 21
123.869208
 31
0.0
  0
LINE
  5
325
100
AcDbEntity
  8
text
 62
7
100
AcDbLine
 10
27.772801
 20
123.869208
 30
0.0
 11
27.772801
 21
123.643363
 31
0.0
  0
LINE
  5
326
100
AcDbEntity
  8
text
 62
7
100
AcDbLine
 10
27.772801
 20
123.643363
 30
0.0
 11
27.883931
 21
123.304594
 31
0.0
  0
LINE
  5
327
100
AcDbEntity
  8
text
 62
7
100
AcDbLine
 10
27.883931
 20
123.304594
 30
0.0
 11
28.113362
 21
123.078748
 31
0.0
  0
LINE
  5
328
100
AcDbEntity
  8
text
 62
7
100
AcDbLine
 10
28.113362
 20
123.078748
 30
0.0
 11
28.335622
 21
122.965825
 31
0.0
  0
LINE
  5
329
100
AcDbEntity
  8
text
 62
7
100
AcDbLine
 10
28.335622
 20
122.965825
 30
0.0
 11
28.676183
 21
122.965825
 31
0.0
  0
LINE
  5
32a
100
AcDbEntity
  8
text
 62
7
100
AcDbLine
 10
28.676183
 20
122.965825
 30
0.0
 11
28.902029
 21
123.078748
 31
0.0
  0
LINE
  5
32b
100
AcDbEntity
  8
text
 62
7
100
AcDbLine
 10
28.902029
 20
123.078748
 30
0.0
 11
29.127875
 21
123.304594
 31
0.0
  0
LINE
  5
32c
100
AcDbEntity
  8
text
 62
7
100
AcDbLine
 10
30.027681
 20
125.338998
 30
0.0
 11
30.027681
 21
122.965825
 31
0.0
  0
LINE
  5
32d
100
AcDbEntity
  8
text
 62
7
100
AcDbLine
 10
31.382753
 20
124.546745
 30
0.0
 11
31.160492
 21
124.435615
 31
0.0
  0
LINE
  5
32e
100
AcDbEntity
  8
text
 62
7
100
AcDbLine
 10
31.160492
 20
124.435615
 30
0.0
 11
30.931062
 21
124.206184
 31
0.0
  0
LINE
  5
32f
100
AcDbEntity
  8
text
 62
7
100
AcDbLine
 10
30.931062
 20
124.206184
 30
0.0
 11
30.819931
 21
123.869208
 31
0.0
  0
LINE
  5
330
100
AcDbEntity
  8
text
 62
7
100
AcDbLine
 10
30.819931
 20
123.869208
 30
0.0
 11
30.819931
 21
123.643363
 31
0.0
  0
LINE
  5
331
100
AcDbEntity
  8
text
 62
7
100
AcDbLine
 10
30.819931
 20
123.643363
 30
0.0
 11
30.931062
 21
123.304594
 31
0.0
  0
LINE
  5
332
100
AcDbEntity
  8
text
 62
7
100
AcDbLine
 10
30.931062
 20
123.304594
 30
0.0
 11
31.160492
 21
123.078748
 31
0.0
  0
LINE
  5
333
100
AcDbEntity
  8
text
 62
7
100
AcDbLine
 10
31.160492
 20
123.078748
 30
0.0
 11
31.382753
 21
122.965825
 31
0.0
  0
LINE
  5
334
100
AcDbEntity
  8
text
 62
7
100
AcDbLine
 10
31.382753
 20
122.965825
 30
0.0
 11
31.723314
 21
122.965825
 31
0.0
  0
LINE
  5
335
100
AcDbEntity
  8
text
 62
7
100
AcDbLine
 10
31.723314
 20
122.965825
 30
0.0
 11
31.949160
 21
123.078748
 31
0.0
  0
LINE
  5
336
100
AcDbEntity
  8
text
 62
7
100
AcDbLine
 10
31.949160
 20
123.078748
 30
0.0
 11
32.175006
 21
123.304594
 31
0.0
  0
LINE
  5
337
100
AcDbEntity
  8
text
 62
7
100
AcDbLine
 10
32.175006
 20
123.304594
 30
0.0
 11
32.286136
 21
123.643363
 31
0.0
  0
LINE
  5
338
100
AcDbEntity
  8
text
 62
7
100
AcDbLine
 10
32.286136
 20
123.643363
 30
0.0
 11
32.286136
 21
123.869208
 31
0.0
  0
LINE
  5
339
100
AcDbEntity
  8
text
 62
7
100
AcDbLine
 10
32.286136
 20
123.869208
 30
0.0
 11
32.175006
 21
124.206184
 31
0.0
  0
LINE
  5
33a
100
AcDbEntity
  8
text
 62
7
100
AcDbLine
 10
32.175006
 20
124.206184
 30
0.0
 11
31.949160
 21
124.435615
 31
0.0
  0
LINE
  5
33b
100
AcDbEntity
  8
text
 62
7
100
AcDbLine
 10
31.949160
 20
124.435615
 30
0.0
 11
31.723314
 21
124.546745
 31
0.0
  0
LINE
  5
33c
100
AcDbEntity
  8
text
 62
7
100
AcDbLine
 10
31.723314
 20
124.546745
 30
0.0
 11
31.382753
 21
124.546745
 31
0.0
  0
LINE
  5
33d
100
AcDbEntity
  8
text
 62
7
100
AcDbLine
 10
34.318756
 20
124.546745
 30
0.0
 11
34.318756
 21
122.739980
 31
0.0
  0
LINE
  5
33e
100
AcDbEntity
  8
text
 62
7
100
AcDbLine
 10
34.318756
 20
122.739980
 30
0.0
 11
34.207626
 21
122.399419
 31
0.0
  0
LINE
  5
33f
100
AcDbEntity
  8
text
 62
7
100
AcDbLine
 10
34.207626
 20
122.399419
 30
0.0
 11
34.092910
 21
122.288288
 31
0.0
  0
LINE
  5
340
100
AcDbEntity
  8
text
 62
7
100
AcDbLine
 10
34.092910
 20
122.288288
 30
0.0
 11
33.867065
 21
122.177158
 31
0.0
  0
LINE
  5
341
100
AcDbEntity
  8
text
 62
7
100
AcDbLine
 10
33.867065
 20
122.177158
 30
0.0
 11
33.526504
 21
122.177158
 31
0.0
  0
LINE
  5
342
100
AcDbEntity
  8
text
 62
7
100
AcDbLine
 10
33.526504
 20
122.177158
 30
0.0
 11
33.304243
 21
122.288288
 31
0.0
  0
LINE
  5
343
100
AcDbEntity
  8
text
 62
7
100
AcDbLine
 10
34.318756
 20
124.206184
 30
0.0
 11
34.092910
 21
124.435615
 31
0.0
  0
LINE
  5
344
100
AcDbEntity
  8
text
 62
7
100
AcDbLine
 10
34.092910
 20
124.435615
 30
0.0
 11
33.867065
 21
124.546745
 31
0.0
  0
LINE
  5
345
100
AcDbEntity
  8
text
 62
7
100
AcDbLine
 10
33.867065
 20
124.546745
 30
0.0
 11
33.526504
 21
124.546745
 31
0.0
  0
LINE
  5
346
100
AcDbEntity
  8
text
 62
7
100
AcDbLine
 10
33.526504
 20
124.546745
 30
0.0
 11
33.304243
 21
124.435615
 31
0.0
  0
LINE
  5
347
100
AcDbEntity
  8
text
 62
7
100
AcDbLine
 10
33.304243
 20
124.435615
 30
0.0
 11
33.074812
 21
124.206184
 31
0.0
  0
LINE
  5
348
100
AcDbEntity
  8
text
 62
7
100
AcDbLine
 10
33.074812
 20
124.206184
 30
0.0
 11
32.963682
 21
123.869208
 31
0.0
  0
LINE
  5
349
100
AcDbEntity
  8
text
 62
7
100
AcDbLine
 10
32.963682
 20
123.869208
 30
0.0
 11
32.963682
 21
123.643363
 31
0.0
  0
LINE
  5
34a
100
AcDbEntity
  8
text
 62
7
100
AcDbLine
 10
32.963682
 20
123.643363
 30
0.0
 11
33.074812
 21
123.304594
 31
0.0
  0
LINE
  5
34b
100
AcDbEntity
  8
text
 62
7
100
AcDbLine
 10
33.074812
 20
123.304594
 30
0.0
 11
33.304243
 21
123.078748
 31
0.0
  0
LINE
  5
34c
100
AcDbEntity
  8
text
 62
7
100
AcDbLine
 10
33.304243
 20
123.078748
 30
0.0
 11
33.526504
 21
122.965825
 31
0.0
  0
LINE
  5
34d
100
AcDbEntity
  8
text
 62
7
100
AcDbLine
 10
33.526504
 20
122.965825
 30
0.0
 11
33.867065
 21
122.965825
 31
0.0
  0
LINE
  5
34e
100
AcDbEntity
  8
text
 62
7
100
AcDbLine
 10
33.867065
 20
122.965825
 30
0.0
 11
34.092910
 21
123.078748
 31
0.0
  0
LINE
  5
34f
100
AcDbEntity
  8
text
 62
7
100
AcDbLine
 10
34.092910
 20
123.078748
 30
0.0
 11
34.318756
 21
123.304594
 31
0.0
  0
LINE
  5
350
100
AcDbEntity
  8
text
 62
7
100
AcDbLine
 10
36.351376
 20
124.206184
 30
0.0
 11
36.236661
 21
124.435615
 31
0.0
  0
LINE
  5
351
100
AcDbEntity
  8
text
 62
7
100
AcDbLine
 10
36.236661
 20
124.435615
 30
0.0
 11
35.899684
 21
124.546745
 31
0.0
  0
LINE
  5
352
100
AcDbEntity
  8
text
 62
7
100
AcDbLine
 10
35.899684
 20
124.546745
 30
0.0
 11
35.559123
 21
124.546745
 31
0.0
  0
LINE
  5
353
100
AcDbEntity
  8
text
 62
7
100
AcDbLine
 10
35.559123
 20
124.546745
 30
0.0
 11
35.218562
 21
124.435615
 31
0.0
  0
LINE
  5
354
100
AcDbEntity
  8
text
 62
7
100
AcDbLine
 10
35.218562
 20
124.435615
 30
0.0
 11
35.107432
 21
124.206184
 31
0.0
  0
LINE
  5
355
100
AcDbEntity
  8
text
 62
7
100
AcDbLine
 10
35.107432
 20
124.206184
 30
0.0
 11
35.218562
 21
123.983924
 31
0.0
  0
LINE
  5
356
100
AcDbEntity
  8
text
 62
7
100
AcDbLine
 10
35.218562
 20
123.983924
 30
0.0
 11
35.447993
 21
123.869208
 31
0.0
  0
LINE
  5
357
100
AcDbEntity
  8
text
 62
7
100
AcDbLine
 10
35.447993
 20
123.869208
 30
0.0
 11
36.010815
 21
123.754493
 31
0.0
  0
LINE
  5
358
100
AcDbEntity
  8
text
 62
7
100
AcDbLine
 10
36.010815
 20
123.754493
 30
0.0
 11
36.236661
 21
123.643363
 31
0.0
  0
LINE
  5
359
100
AcDbEntity
  8
text
 62
7
100
AcDbLine
 10
36.236661
 20
123.643363
 30
0.0
 11
36.351376
 21
123.417517
 31
0.0
  0
LINE
  5
35a
100
AcDbEntity
  8
text
 62
7
100
AcDbLine
 10
36.351376
 20
123.417517
 30
0.0
 11
36.351376
 21
123.304594
 31
0.0
  0
LINE
  5
35b
100
AcDbEntity
  8
text
 62
7
100
AcDbLine
 10
36.351376
 20
123.304594
 30
0.0
 11
36.236661
 21
123.078748
 31
0.0
  0
LINE
  5
35c
100
AcDbEntity
  8
text
 62
7
100
AcDbLine
 10
36.236661
 20
123.078748
 30
0.0
 11
35.899684
 21
122.965825
 31
0.0
  0
LINE
  5
35d
100
AcDbEntity
  8
text
 62
7
100
AcDbLine
 10
35.899684
 20
122.965825
 30
0.0
 11
35.559123
 21
122.965825
 31
0.0
  0
LINE
  5
35e
100
AcDbEntity
  8
text
 62
7
100
AcDbLine
 10
35.559123
 20
122.965825
 30
0.0
 11
35.218562
 21
123.078748
 31
0.0
  0
LINE
  5
35f
100
AcDbEntity
  8
text
 62
7
100
AcDbLine
 10
35.218562
 20
123.078748
 30
0.0
 11
35.107432
 21
123.304594
 31
0.0
  0
LINE
  5
360
100
AcDbEntity
  8
text
 62
7
100
AcDbLine
 10
14.841467
 20
120.858996
 30
0.0
 11
15.744779
 21
118.486010
 31
0.0
  0
LINE
  5
361
100
AcDbEntity
  8
text
 62
7
100
AcDbLine
 10
16.648091
 20
120.858996
 30
0.0
 11
15.744779
 21
118.486010
 31
0.0
  0
LINE
  5
362
100
AcDbEntity
  8
text
 62
7
100
AcDbLine
 10
18.795243
 20
120.292633
 30
0.0
 11
18.680537
 21
120.518461
 31
0.0
  0
LINE
  5
363
100
AcDbEntity
  8
text
 62
7
100
AcDbLine
 10
18.680537
 20
120.518461
 30
0.0
 11
18.454709
 21
120.744289
 31
0.0
  0
LINE
  5
364
100
AcDbEntity
  8
text
 62
7
100
AcDbLine
 10
18.454709
 20
120.744289
 30
0.0
 11
18.228881
 21
120.858996
 31
0.0
  0
LINE
  5
365
100
AcDbEntity
  8
text
 62
7
100
AcDbLine
 10
18.228881
 20
120.858996
 30
0.0
 11
17.777225
 21
120.858996
 31
0.0
  0
LINE
  5
366
100
AcDbEntity
  8
text
 62
7
100
AcDbLine
 10
17.777225
 20
120.858996
 30
0.0
 11
17.551397
 21
120.744289
 31
0.0
  0
LINE
  5
367
100
AcDbEntity
  8
text
 62
7
100
AcDbLine
 10
17.551397
 20
120.744289
 30
0.0
 11
17.325569
 21
120.518461
 31
0.0
  0
LINE
  5
368
100
AcDbEntity
  8
text
 62
7
100
AcDbLine
 10
17.325569
 20
120.518461
 30
0.0
 11
17.210863
 21
120.292633
 31
0.0
  0
LINE
  5
369
100
AcDbEntity
  8
text
 62
7
100
AcDbLine
 10
17.210863
 20
120.292633
 30
0.0
 11
17.099741
 21
119.955684
 31
0.0
  0
LINE
  5
36a
100
AcDbEntity
  8
text
 62
7
100
AcDbLine
 10
17.099741
 20
119.955684
 30
0.0
 11
17.099741
 21
119.389322
 31
0.0
  0
LINE
  5
36b
100
AcDbEntity
  8
text
 62
7
100
AcDbLine
 10
17.099741
 20
119.389322
 30
0.0
 11
17.210863
 21
119.052372
 31
0.0
  0
LINE
  5
36c
100
AcDbEntity
  8
text
 62
7
100
AcDbLine
 10
17.210863
 20
119.052372
 30
0.0
 11
17.325569
 21
118.824752
 31
0.0
  0
LINE
  5
36d
100
AcDbEntity
  8
text
 62
7
100
AcDbLine
 10
17.325569
 20
118.824752
 30
0.0
 11
17.551397
 21
118.598924
 31
0.0
  0
LINE
  5
36e
100
AcDbEntity
  8
text
 62
7
100
AcDbLine
 10
17.551397
 20
118.598924
 30
0.0
 11
17.777225
 21
118.486010
 31
0.0
  0
LINE
  5
36f
100
AcDbEntity
  8
text
 62
7
100
AcDbLine
 10
17.777225
 20
118.486010
 30
0.0
 11
18.228881
 21
118.486010
 31
0.0
  0
LINE
  5
370
100
AcDbEntity
  8
text
 62
7
100
AcDbLine
 10
18.228881
 20
118.486010
 30
0.0
 11
18.454709
 21
118.598924
 31
0.0
  0
LINE
  5
371
100
AcDbEntity
  8
text
 62
7
100
AcDbLine
 10
18.454709
 20
118.598924
 30
0.0
 11
18.680537
 21
118.824752
 31
0.0
  0
LINE
  5
372
100
AcDbEntity
  8
text
 62
7
100
AcDbLine
 10
18.680537
 20
118.824752
 30
0.0
 11
18.795243
 21
119.052372
 31
0.0
  0
LINE
  5
373
100
AcDbEntity
  8
text
 62
7
100
AcDbLine
 10
20.150216
 20
120.858996
 30
0.0
 11
19.924388
 21
120.744289
 31
0.0
  0
LINE
  5
374
100
AcDbEntity
  8
text
 62
7
100
AcDbLine
 10
19.924388
 20
120.744289
 30
0.0
 11
19.698560
 21
120.518461
 31
0.0
  0
LINE
  5
375
100
AcDbEntity
  8
text
 62
7
100
AcDbLine
 10
19.698560
 20
120.518461
 30
0.0
 11
19.583853
 21
120.292633
 31
0.0
  0
LINE
  5
376
100
AcDbEntity
  8
text
 62
7
100
AcDbLine
 10
19.583853
 20
120.292633
 30
0.0
 11
19.472732
 21
119.955684
 31
0.0
  0
LINE
  5
377
100
AcDbEntity
  8
text
 62
7
100
AcDbLine
 10
19.472732
 20
119.955684
 30
0.0
 11
19.472732
 21
119.389322
 31
0.0
  0
LINE
  5
378
100
AcDbEntity
  8
text
 62
7
100
AcDbLine
 10
19.472732
 20
119.389322
 30
0.0
 11
19.583853
 21
119.052372
 31
0.0
  0
LINE
  5
379
100
AcDbEntity
  8
text
 62
7
100
AcDbLine
 10
19.583853
 20
119.052372
 30
0.0
 11
19.698560
 21
118.824752
 31
0.0
  0
LINE
  5
37a
100
AcDbEntity
  8
text
 62
7
100
AcDbLine
 10
19.698560
 20
118.824752
 30
0.0
 11
19.924388
 21
118.598924
 31
0.0
  0
LINE
  5
37b
100
AcDbEntity
  8
text
 62
7
100
AcDbLine
 10
19.924388
 20
118.598924
 30
0.0
 11
20.150216
 21
118.486010
 31
0.0
  0
LINE
  5
37c
100
AcDbEntity
  8
text
 62
7
100
AcDbLine
 10
20.150216
 20
118.486010
 30
0.0
 11
20.601871
 21
118.486010
 31
0.0
  0
LINE
  5
37d
100
AcDbEntity
  8
text
 62
7
100
AcDbLine
 10
20.601871
 20
118.486010
 30
0.0
 11
20.827699
 21
118.598924
 31
0.0
  0
LINE
  5
37e
100
AcDbEntity
  8
text
 62
7
100
AcDbLine
 10
20.827699
 20
118.598924
 30
0.0
 11
21.053527
 21
118.824752
 31
0.0
  0
LINE
  5
37f
100
AcDbEntity
  8
text
 62
7
100
AcDbLine
 10
21.053527
 20
118.824752
 30
0.0
 11
21.168234
 21
119.052372
 31
0.0
  0
LINE
  5
380
100
AcDbEntity
  8
text
 62
7
100
AcDbLine
 10
21.168234
 20
119.052372
 30
0.0
 11
21.279355
 21
119.389322
 31
0.0
  0
LINE
  5
381
100
AcDbEntity
  8
text
 62
7
100
AcDbLine
 10
21.279355
 20
119.389322
 30
0.0
 11
21.279355
 21
119.955684
 31
0.0
  0
LINE
  5
382
100
AcDbEntity
  8
text
 62
7
100
AcDbLine
 10
21.279355
 20
119.955684
 30
0.0
 11
21.168234
 21
120.292633
 31
0.0
  0
LINE
  5
383
100
AcDbEntity
  8
text
 62
7
100
AcDbLine
 10
21.168234
 20
120.292633
 30
0.0
 11
21.053527
 21
120.518461
 31
0.0
  0
LINE
  5
384
100
AcDbEntity
  8
text
 62
7
100
AcDbLine
 10
21.053527
 20
120.518461
 30
0.0
 11
20.827699
 21
120.744289
 31
0.0
  0
LINE
  5
385
100
AcDbEntity
  8
text
 62
7
100
AcDbLine
 10
20.827699
 20
120.744289
 30
0.0
 11
20.601871
 21
120.858996
 31
0.0
  0
LINE
  5
386
100
AcDbEntity
  8
text
 62
7
100
AcDbLine
 10
20.601871
 20
120.858996
 30
0.0
 11
20.150216
 21
120.858996
 31
0.0
  0
LINE
  5
387
100
AcDbEntity
  8
text
 62
7
100
AcDbLine
 10
23.989293
 20
120.858996
 30
0.0
 11
23.085981
 21
118.486010
 31
0.0
  0
LINE
  5
388
100
AcDbEntity
  8
text
 62
7
100
AcDbLine
 10
23.989293
 20
120.858996
 30
0.0
 11
24.892605
 21
118.486010
 31
0.0
  0
LINE
  5
389
100
AcDbEntity
  8
text
 62
7
100
AcDbLine
 10
23.422931
 20
119.274615
 30
0.0
 11
24.555655
 21
119.274615
 31
0.0
  0
LINE
  5
38a
100
AcDbEntity
  8
text
 62
7
100
AcDbLine
 10
26.925051
 20
120.518461
 30
0.0
 11
26.699223
 21
120.744289
 31
0.0
  0
LINE
  5
38b
100
AcDbEntity
  8
text
 62
7
100
AcDbLine
 10
26.699223
 20
120.744289
 30
0.0
 11
26.358689
 21
120.858996
 31
0.0
  0
LINE
  5
38c
100
AcDbEntity
  8
text
 62
7
100
AcDbLine
 10
26.358689
 20
120.858996
 30
0.0
 11
25.907033
 21
120.858996
 31
0.0
  0
LINE
  5
38d
100
AcDbEntity
  8
text
 62
7
100
AcDbLine
 10
25.907033
 20
120.858996
 30
0.0
 11
25.570083
 21
120.744289
 31
0.0
  0
LINE
  5
38e
100
AcDbEntity
  8
text
 62
7
100
AcDbLine
 10
25.570083
 20
120.744289
 30
0.0
 11
25.344255
 21
120.518461
 31
0.0
  0
LINE
  5
38f
100
AcDbEntity
  8
text
 62
7
100
AcDbLine
 10
25.344255
 20
120.518461
 30
0.0
 11
25.344255
 21
120.292633
 31
0.0
  0
LINE
  5
390
100
AcDbEntity
  8
text
 62
7
100
AcDbLine
 10
25.344255
 20
120.292633
 30
0.0
 11
25.455377
 21
120.066805
 31
0.0
  0
LINE
  5
391
100
AcDbEntity
  8
text
 62
7
100
AcDbLine
 10
25.455377
 20
120.066805
 30
0.0
 11
25.570083
 21
119.955684
 31
0.0
  0
LINE
  5
392
100
AcDbEntity
  8
text
 62
7
100
AcDbLine
 10
25.570083
 20
119.955684
 30
0.0
 11
25.795911
 21
119.840978
 31
0.0
  0
LINE
  5
393
100
AcDbEntity
  8
text
 62
7
100
AcDbLine
 10
25.795911
 20
119.840978
 30
0.0
 11
26.473395
 21
119.615150
 31
0.0
  0
LINE
  5
394
100
AcDbEntity
  8
text
 62
7
100
AcDbLine
 10
26.473395
 20
119.615150
 30
0.0
 11
26.699223
 21
119.504028
 31
0.0
  0
LINE
  5
395
100
AcDbEntity
  8
text
 62
7
100
AcDbLine
 10
26.699223
 20
119.504028
 30
0.0
 11
26.810345
 21
119.389322
 31
0.0
  0
LINE
  5
396
100
AcDbEntity
  8
text
 62
7
100
AcDbLine
 10
26.810345
 20
119.389322
 30
0.0
 11
26.925051
 21
119.163494
 31
0.0
  0
LINE
  5
397
100
AcDbEntity
  8
text
 62
7
100
AcDbLine
 10
26.925051
 20
119.163494
 30
0.0
 11
26.925051
 21
118.824752
 31
0.0
  0
LINE
  5
398
100
AcDbEntity
  8
text
 62
7
100
AcDbLine
 10
26.925051
 20
118.824752
 30
0.0
 11
26.699223
 21
118.598924
 31
0.0
  0
LINE
  5
399
100
AcDbEntity
  8
text
 62
7
100
AcDbLine
 10
26.699223
 20
118.598924
 30
0.0
 11
26.358689
 21
118.486010
 31
0.0
  0
LINE
  5
39a
100
AcDbEntity
  8
text
 62
7
100
AcDbLine
 10
26.358689
 20
118.486010
 30
0.0
 11
25.907033
 21
118.486010
 31
0.0
  0
LINE
  5
39b
100
AcDbEntity
  8
text
 62
7
100
AcDbLine
 10
25.907033
 20
118.486010
 30
0.0
 11
25.570083
 21
118.598924
 31
0.0
  0
LINE
  5
39c
100
AcDbEntity
  8
text
 62
7
100
AcDbLine
 10
25.570083
 20
118.598924
 30
0.0
 11
25.344255
 21
118.824752
 31
0.0
  0
LINE
  5
39d
100
AcDbEntity
  8
text
 62
7
100
AcDbLine
 10
27.828369
 20
120.858996
 30
0.0
 11
29.068631
 21
120.858996
 31
0.0
  0
LINE
  5
39e
100
AcDbEntity
  8
text
 62
7
100
AcDbLine
 10
29.068631
 20
120.858996
 30
0.0
 11
28.394731
 21
119.955684
 31
0.0
  0
LINE
  5
39f
100
AcDbEntity
  8
text
 62
7
100
AcDbLine
 10
28.394731
 20
119.955684
 30
0.0
 11
28.731681
 21
119.955684
 31
0.0
  0
LINE
  5
3a0
100
AcDbEntity
  8
text
 62
7
100
AcDbLine
 10
28.731681
 20
119.955684
 30
0.0
 11
28.957509
 21
119.840978
 31
0.0
  0
LINE
  5
3a1
100
AcDbEntity
  8
text
 62
7
100
AcDbLine
 10
28.957509
 20
119.840978
 30
0.0
 11
29.068631
 21
119.726271
 31
0.0
  0
LINE
  5
3a2
100
AcDbEntity
  8
text
 62
7
100
AcDbLine
 10
29.068631
 20
119.726271
 30
0.0
 11
29.183337
 21
119.389322
 31
0.0
  0
LINE
  5
3a3
100
AcDbEntity
  8
text
 62
7
100
AcDbLine
 10
29.183337
 20
119.389322
 30
0.0
 11
29.183337
 21
119.163494
 31
0.0
  0
LINE
  5
3a4
100
AcDbEntity
  8
text
 62
7
100
AcDbLine
 10
29.183337
 20
119.163494
 30
0.0
 11
29.068631
 21
118.824752
 31
0.0
  0
LINE
  5
3a5
100
AcDbEntity
  8
text
 62
7
100
AcDbLine
 10
29.068631
 20
118.824752
 30
0.0
 11
28.846387
 21
118.598924
 31
0.0
  0
LINE
  5
3a6
100
AcDbEntity
  8
text
 62
7
100
AcDbLine
 10
28.846387
 20
118.598924
 30
0.0
 11
28.505853
 21
118.486010
 31
0.0
  0
LINE
  5
3a7
100
AcDbEntity
  8
text
 62
7
100
AcDbLine
 10
28.505853
 20
118.486010
 30
0.0
 11
28.165319
 21
118.486010
 31
0.0
  0
LINE
  5
3a8
100
AcDbEntity
  8
text
 62
7
100
AcDbLine
 10
28.165319
 20
118.486010
 30
0.0
 11
27.828369
 21
118.598924
 31
0.0
  0
LINE
  5
3a9
100
AcDbEntity
  8
text
 62
7
100
AcDbLine
 10
27.828369
 20
118.598924
 30
0.0
 11
27.713663
 21
118.711838
 31
0.0
  0
LINE
  5
3aa
100
AcDbEntity
  8
text
 62
7
100
AcDbLine
 10
27.713663
 20
118.711838
 30
0.0
 11
27.602541
 21
118.937666
 31
0.0
  0
LINE
  5
3ab
100
AcDbEntity
  8
text
 62
7
100
AcDbLine
 10
30.086592
 20
120.858996
 30
0.0
 11
31.326853
 21
120.858996
 31
0.0
  0
LINE
  5
3ac
100
AcDbEntity
  8
text
 62
7
100
AcDbLine
 10
31.326853
 20
120.858996
 30
0.0
 11
30.652954
 21
119.955684
 31
0.0
  0
LINE
  5
3ad
100
AcDbEntity
  8
text
 62
7
100
AcDbLine
 10
30.652954
 20
119.955684
 30
0.0
 11
30.989904
 21
119.955684
 31
0.0
  0
LINE
  5
3ae
100
AcDbEntity
  8
text
 62
7
100
AcDbLine
 10
30.989904
 20
119.955684
 30
0.0
 11
31.215731
 21
119.840978
 31
0.0
  0
LINE
  5
3af
100
AcDbEntity
  8
text
 62
7
100
AcDbLine
 10
31.215731
 20
119.840978
 30
0.0
 11
31.326853
 21
119.726271
 31
0.0
  0
LINE
  5
3b0
100
AcDbEntity
  8
text
 62
7
100
AcDbLine
 10
31.326853
 20
119.726271
 30
0.0
 11
31.441559
 21
119.389322
 31
0.0
  0
LINE
  5
3b1
100
AcDbEntity
  8
text
 62
7
100
AcDbLine
 10
31.441559
 20
119.389322
 30
0.0
 11
31.441559
 21
119.163494
 31
0.0
  0
LINE
  5
3b2
100
AcDbEntity
  8
text
 62
7
100
AcDbLine
 10
31.441559
 20
119.163494
 30
0.0
 11
31.326853
 21
118.824752
 31
0.0
  0
LINE
  5
3b3
100
AcDbEntity
  8
text
 62
7
100
AcDbLine
 10
31.326853
 20
118.824752
 30
0.0
 11
31.104610
 21
118.598924
 31
0.0
  0
LINE
  5
3b4
100
AcDbEntity
  8
text
 62
7
100
AcDbLine
 10
31.104610
 20
118.598924
 30
0.0
 11
30.764076
 21
118.486010
 31
0.0
  0
LINE
  5
3b5
100
AcDbEntity
  8
text
 62
7
100
AcDbLine
 10
30.764076
 20
118.486010
 30
0.0
 11
30.423541
 21
118.486010
 31
0.0
  0
LINE
  5
3b6
100
AcDbEntity
  8
text
 62
7
100
AcDbLine
 10
30.423541
 20
118.486010
 30
0.0
 11
30.086592
 21
118.598924
 31
0.0
  0
LINE
  5
3b7
100
AcDbEntity
  8
text
 62
7
100
AcDbLine
 10
30.086592
 20
118.598924
 30
0.0
 11
29.971885
 21
118.711838
 31
0.0
  0
LINE
  5
3b8
100
AcDbEntity
  8
text
 62
7
100
AcDbLine
 10
29.971885
 20
118.711838
 30
0.0
 11
29.860764
 21
118.937666
 31
0.0
  0
LINE
  5
3b9
100
AcDbEntity
  8
text
 62
7
100
AcDbLine
 10
33.248177
 20
120.858996
 30
0.0
 11
32.119037
 21
119.274615
 31
0.0
  0
LINE
  5
3ba
100
AcDbEntity
  8
text
 62
7
100
AcDbLine
 10
32.119037
 20
119.274615
 30
0.0
 11
33.814539
 21
119.274615
 31
0.0
  0
LINE
  5
3bb
100
AcDbEntity
  8
text
 62
7
100
AcDbLine
 10
33.248177
 20
120.858996
 30
0.0
 11
33.248177
 21
118.486010
 31
0.0
  0
LINE
  5
3bc
100
AcDbEntity
  8
text
 62
7
100
AcDbLine
 10
35.054921
 20
120.858996
 30
0.0
 11
34.717972
 21
120.744289
 31
0.0
  0
LINE
  5
3bd
100
AcDbEntity
  8
text
 62
7
100
AcDbLine
 10
34.717972
 20
120.744289
 30
0.0
 11
34.488559
 21
120.407340
 31
0.0
  0
LINE
  5
3be
100
AcDbEntity
  8
text
 62
7
100
AcDbLine
 10
34.488559
 20
120.407340
 30
0.0
 11
34.377437
 21
119.840978
 31
0.0
  0
LINE
  5
3bf
100
AcDbEntity
  8
text
 62
7
100
AcDbLine
 10
34.377437
 20
119.840978
 30
0.0
 11
34.377437
 21
119.504028
 31
0.0
  0
LINE
  5
3c0
100
AcDbEntity
  8
text
 62
7
100
AcDbLine
 10
34.377437
 20
119.504028
 30
0.0
 11
34.488559
 21
118.937666
 31
0.0
  0
LINE
  5
3c1
100
AcDbEntity
  8
text
 62
7
100
AcDbLine
 10
34.488559
 20
118.937666
 30
0.0
 11
34.717972
 21
118.598924
 31
0.0
  0
LINE
  5
3c2
100
AcDbEntity
  8
text
 62
7
100
AcDbLine
 10
34.717972
 20
118.598924
 30
0.0
 11
35.054921
 21
118.486010
 31
0.0
  0
LINE
  5
3c3
100
AcDbEntity
  8
text
 62
7
100
AcDbLine
 10
35.054921
 20
118.486010
 30
0.0
 11
35.280749
 21
118.486010
 31
0.0
  0
LINE
  5
3c4
100
AcDbEntity
  8
text
 62
7
100
AcDbLine
 10
35.280749
 20
118.486010
 30
0.0
 11
35.621284
 21
118.598924
 31
0.0
  0
LINE
  5
3c5
100
AcDbEntity
  8
text
 62
7
100
AcDbLine
 10
35.621284
 20
118.598924
 30
0.0
 11
35.843527
 21
118.937666
 31
0.0
  0
LINE
  5
3c6
100
AcDbEntity
  8
text
 62
7
100
AcDbLine
 10
35.843527
 20
118.937666
 30
0.0
 11
35.958233
 21
119.504028
 31
0.0
  0
LINE
  5
3c7
100
AcDbEntity
  8
text
 62
7
100
AcDbLine
 10
35.958233
 20
119.504028
 30
0.0
 11
35.958233
 21
119.840978
 31
0.0
  0
LINE
  5
3c8
100
AcDbEntity
  8
text
 62
7
100
AcDbLine
 10
35.958233
 20
119.840978
 30
0.0
 11
35.843527
 21
120.407340
 31
0.0
  0
LINE
  5
3c9
100
AcDbEntity
  8
text
 62
7
100
AcDbLine
 10
35.843527
 20
120.407340
 30
0.0
 11
35.621284
 21
120.744289
 31
0.0
  0
LINE
  5
3ca
100
AcDbEntity
  8
text
 62
7
100
AcDbLine
 10
35.621284
 20
120.744289
 30
0.0
 11
35.280749
 21
120.858996
 31
0.0
  0
LINE
  5
3cb
100
AcDbEntity
  8
text
 62
7
100
AcDbLine
 10
35.280749
 20
120.858996
 30
0.0
 11
35.054921
 21
120.858996
 31
0.0
  0
LINE
  5
3cc
100
AcDbEntity
  8
text
 62
7
100
AcDbLine
 10
21.488357
 20
14.141116
 30
0.0
 11
21.223067
 21
14.050805
 31
0.0
  0
LINE
  5
3cd
100
AcDbEntity
  8
text
 62
7
100
AcDbLine
 10
21.223067
 20
14.050805
 30
0.0
 11
21.042445
 21
13.785515
 31
0.0
  0
LINE
  5
3ce
100
AcDbEntity
  8
text
 62
7
100
AcDbLine
 10
21.042445
 20
13.785515
 30
0.0
 11
20.954955
 21
13.339603
 31
0.0
  0
LINE
  5
3cf
100
AcDbEntity
  8
text
 62
7
100
AcDbLine
 10
20.954955
 20
13.339603
 30
0.0
 11
20.954955
 21
13.074313
 31
0.0
  0
LINE
  5
3d0
100
AcDbEntity
  8
text
 62
7
100
AcDbLine
 10
20.954955
 20
13.074313
 30
0.0
 11
21.042445
 21
12.628401
 31
0.0
  0
LINE
  5
3d1
100
AcDbEntity
  8
text
 62
7
100
AcDbLine
 10
21.042445
 20
12.628401
 30
0.0
 11
21.223067
 21
12.361700
 31
0.0
  0
LINE
  5
3d2
100
AcDbEntity
  8
text
 62
7
100
AcDbLine
 10
21.223067
 20
12.361700
 30
0.0
 11
21.488357
 21
12.272800
 31
0.0
  0
LINE
  5
3d3
100
AcDbEntity
  8
text
 62
7
100
AcDbLine
 10
21.488357
 20
12.272800
 30
0.0
 11
21.666157
 21
12.272800
 31
0.0
  0
LINE
  5
3d4
100
AcDbEntity
  8
text
 62
7
100
AcDbLine
 10
21.666157
 20
12.272800
 30
0.0
 11
21.934269
 21
12.361700
 31
0.0
  0
LINE
  5
3d5
100
AcDbEntity
  8
text
 62
7
100
AcDbLine
 10
21.934269
 20
12.361700
 30
0.0
 11
22.109248
 21
12.628401
 31
0.0
  0
LINE
  5
3d6
100
AcDbEntity
  8
text
 62
7
100
AcDbLine
 10
22.109248
 20
12.628401
 30
0.0
 11
22.199559
 21
13.074313
 31
0.0
  0
LINE
  5
3d7
100
AcDbEntity
  8
text
 62
7
100
AcDbLine
 10
22.199559
 20
13.074313
 30
0.0
 11
22.199559
 21
13.339603
 31
0.0
  0
LINE
  5
3d8
100
AcDbEntity
  8
text
 62
7
100
AcDbLine
 10
22.199559
 20
13.339603
 30
0.0
 11
22.109248
 21
13.785515
 31
0.0
  0
LINE
  5
3d9
100
AcDbEntity
  8
text
 62
7
100
AcDbLine
 10
22.109248
 20
13.785515
 30
0.0
 11
21.934269
 21
14.050805
 31
0.0
  0
LINE
  5
3da
100
AcDbEntity
  8
text
 62
7
100
AcDbLine
 10
21.934269
 20
14.050805
 30
0.0
 11
21.666157
 21
14.141116
 31
0.0
  0
LINE
  5
3db
100
AcDbEntity
  8
text
 62
7
100
AcDbLine
 10
21.666157
 20
14.141116
 30
0.0
 11
21.488357
 21
14.141116
 31
0.0
  0
LINE
  5
3dc
100
AcDbEntity
  8
text
 62
7
100
AcDbLine
 10
22.820445
 20
13.074313
 30
0.0
 11
24.423471
 21
13.074313
 31
0.0
  0
LINE
  5
3dd
100
AcDbEntity
  8
text
 62
7
100
AcDbLine
 10
25.312477
 20
13.785515
 30
0.0
 11
25.487456
 21
13.873004
 31
0.0
  0
LINE
  5
3de
100
AcDbEntity
  8
text
 62
7
100
AcDbLine
 10
25.487456
 20
13.873004
 30
0.0
 11
25.755567
 21
14.141116
 31
0.0
  0
LINE
  5
3df
100
AcDbEntity
  8
text
 62
7
100
AcDbLine
 10
25.755567
 20
14.141116
 30
0.0
 11
25.755567
 21
12.272800
 31
0.0
  0
LINE
  5
3e0
100
AcDbEntity
  8
text
 62
7
100
AcDbLine
 10
27.355777
 20
14.141116
 30
0.0
 11
27.090487
 21
14.050805
 31
0.0
  0
LINE
  5
3e1
100
AcDbEntity
  8
text
 62
7
100
AcDbLine
 10
27.090487
 20
14.050805
 30
0.0
 11
26.909865
 21
13.785515
 31
0.0
  0
LINE
  5
3e2
100
AcDbEntity
  8
text
 62
7
100
AcDbLine
 10
26.909865
 20
13.785515
 30
0.0
 11
26.822375
 21
13.339603
 31
0.0
  0
LINE
  5
3e3
100
AcDbEntity
  8
text
 62
7
100
AcDbLine
 10
26.822375
 20
13.339603
 30
0.0
 11
26.822375
 21
13.074313
 31
0.0
  0
LINE
  5
3e4
100
AcDbEntity
  8
text
 62
7
100
AcDbLine
 10
26.822375
 20
13.074313
 30
0.0
 11
26.909865
 21
12.628401
 31
0.0
  0
LINE
  5
3e5
100
AcDbEntity
  8
text
 62
7
100
AcDbLine
 10
26.909865
 20
12.628401
 30
0.0
 11
27.090487
 21
12.361700
 31
0.0
  0
LINE
  5
3e6
100
AcDbEntity
  8
text
 62
7
100
AcDbLine
 10
27.090487
 20
12.361700
 30
0.0
 11
27.355777
 21
12.272800
 31
0.0
  0
LINE
  5
3e7
100
AcDbEntity
  8
text
 62
7
100
AcDbLine
 10
27.355777
 20
12.272800
 30
0.0
 11
27.533577
 21
12.272800
 31
0.0
  0
LINE
  5
3e8
100
AcDbEntity
  8
text
 62
7
100
AcDbLine
 10
27.533577
 20
12.272800
 30
0.0
 11
27.801689
 21
12.361700
 31
0.0
  0
LINE
  5
3e9
100
AcDbEntity
  8
text
 62
7
100
AcDbLine
 10
27.801689
 20
12.361700
 30
0.0
 11
27.976668
 21
12.628401
 31
0.0
  0
LINE
  5
3ea
100
AcDbEntity
  8
text
 62
7
100
AcDbLine
 10
27.976668
 20
12.628401
 30
0.0
 11
28.066979
 21
13.074313
 31
0.0
  0
LINE
  5
3eb
100
AcDbEntity
  8
text
 62
7
100
AcDbLine
 10
28.066979
 20
13.074313
 30
0.0
 11
28.066979
 21
13.339603
 31
0.0
  0
LINE
  5
3ec
100
AcDbEntity
  8
text
 62
7
100
AcDbLine
 10
28.066979
 20
13.339603
 30
0.0
 11
27.976668
 21
13.785515
 31
0.0
  0
LINE
  5
3ed
100
AcDbEntity
  8
text
 62
7
100
AcDbLine
 10
27.976668
 20
13.785515
 30
0.0
 11
27.801689
 21
14.050805
 31
0.0
  0
LINE
  5
3ee
100
AcDbEntity
  8
text
 62
7
100
AcDbLine
 10
27.801689
 20
14.050805
 30
0.0
 11
27.533577
 21
14.141116
 31
0.0
  0
LINE
  5
3ef
100
AcDbEntity
  8
text
 62
7
100
AcDbLine
 10
27.533577
 20
14.141116
 30
0.0
 11
27.355777
 21
14.141116
 31
0.0
  0
LINE
  5
3f0
100
AcDbEntity
  8
text
 62
7
100
AcDbLine
 10
28.422575
 20
14.141116
 30
0.0
 11
29.133777
 21
12.272800
 31
0.0
  0
LINE
  5
3f1
100
AcDbEntity
  8
text
 62
7
100
AcDbLine
 10
29.844979
 20
14.141116
 30
0.0
 11
29.133777
 21
12.272800
 31
0.0
  0
LINE
  5
3f2
100
AcDbEntity
  8
text
 62
7
100
AcDbLine
 10
3.370403
 20
110.698786
 30
0.0
 11
2.659201
 21
108.830470
 31
0.0
  0
LINE
  5
3f3
100
AcDbEntity
  8
text
 62
7
100
AcDbLine
 10
3.370403
 20
110.698786
 30
0.0
 11
4.081605
 21
108.830470
 31
0.0
  0
LINE
  5
3f4
100
AcDbEntity
  8
text
 62
7
100
AcDbLine
 10
2.924491
 20
109.451361
 30
0.0
 11
3.816315
 21
109.451361
 31
0.0
  0
LINE
  5
3f5
100
AcDbEntity
  8
text
 62
7
100
AcDbLine
 10
4.524691
 20
110.698786
 30
0.0
 11
4.524691
 21
108.830470
 31
0.0
  0
LINE
  5
3f6
100
AcDbEntity
  8
text
 62
7
100
AcDbLine
 10
4.524691
 20
110.698786
 30
0.0
 11
5.148403
 21
110.698786
 31
0.0
  0
LINE
  5
3f7
100
AcDbEntity
  8
text
 62
7
100
AcDbLine
 10
5.148403
 20
110.698786
 30
0.0
 11
5.416515
 21
110.608475
 31
0.0
  0
LINE
  5
3f8
100
AcDbEntity
  8
text
 62
7
100
AcDbLine
 10
5.416515
 20
110.608475
 30
0.0
 11
5.591494
 21
110.430674
 31
0.0
  0
LINE
  5
3f9
100
AcDbEntity
  8
text
 62
7
100
AcDbLine
 10
5.591494
 20
110.430674
 30
0.0
 11
5.681805
 21
110.252874
 31
0.0
  0
LINE
  5
3fa
100
AcDbEntity
  8
text
 62
7
100
AcDbLine
 10
5.681805
 20
110.252874
 30
0.0
 11
5.772116
 21
109.987584
 31
0.0
  0
LINE
  5
3fb
100
AcDbEntity
  8
text
 62
7
100
AcDbLine
 10
5.772116
 20
109.987584
 30
0.0
 11
5.772116
 21
109.541672
 31
0.0
  0
LINE
  5
3fc
100
AcDbEntity
  8
text
 62
7
100
AcDbLine
 10
5.772116
 20
109.541672
 30
0.0
 11
5.681805
 21
109.276382
 31
0.0
  0
LINE
  5
3fd
100
AcDbEntity
  8
text
 62
7
100
AcDbLine
 10
5.681805
 20
109.276382
 30
0.0
 11
5.591494
 21
109.097171
 31
0.0
  0
LINE
  5
3fe
100
AcDbEntity
  8
text
 62
7
100
AcDbLine
 10
5.591494
 20
109.097171
 30
0.0
 11
5.416515
 21
108.919370
 31
0.0
  0
LINE
  5
3ff
100
AcDbEntity
  8
text
 62
7
100
AcDbLine
 10
5.416515
 20
108.919370
 30
0.0
 11
5.148403
 21
108.830470
 31
0.0
  0
LINE
  5
400
100
AcDbEntity
  8
text
 62
7
100
AcDbLine
 10
5.148403
 20
108.830470
 30
0.0
 11
4.524691
 21
108.830470
 31
0.0
  0
LINE
  5
401
100
AcDbEntity
  8
text
 62
7
100
AcDbLine
 10
7.104213
 20
110.698786
 30
0.0
 11
7.104213
 21
109.276382
 31
0.0
  0
LINE
  5
402
100
AcDbEntity
  8
text
 62
7
100
AcDbLine
 10
7.104213
 20
109.276382
 30
0.0
 11
7.016723
 21
109.008270
 31
0.0
  0
LINE
  5
403
100
AcDbEntity
  8
text
 62
7
100
AcDbLine
 10
7.016723
 20
109.008270
 30
0.0
 11
6.929234
 21
108.919370
 31
0.0
  0
LINE
  5
404
100
AcDbEntity
  8
text
 62
7
100
AcDbLine
 10
6.929234
 20
108.919370
 30
0.0
 11
6.748612
 21
108.830470
 31
0.0
  0
LINE
  5
405
100
AcDbEntity
  8
text
 62
7
100
AcDbLine
 10
6.748612
 20
108.830470
 30
0.0
 11
6.573633
 21
108.830470
 31
0.0
  0
LINE
  5
406
100
AcDbEntity
  8
text
 62
7
100
AcDbLine
 10
6.573633
 20
108.830470
 30
0.0
 11
6.393011
 21
108.919370
 31
0.0
  0
LINE
  5
407
100
AcDbEntity
  8
text
 62
7
100
AcDbLine
 10
6.393011
 20
108.919370
 30
0.0
 11
6.305521
 21
109.008270
 31
0.0
  0
LINE
  5
408
100
AcDbEntity
  8
text
 62
7
100
AcDbLine
 10
6.305521
 20
109.008270
 30
0.0
 11
6.218032
 21
109.276382
 31
0.0
  0
LINE
  5
409
100
AcDbEntity
  8
text
 62
7
100
AcDbLine
 10
6.218032
 20
109.276382
 30
0.0
 11
6.218032
 21
109.451361
 31
0.0
  0
LINE
  5
40a
100
AcDbEntity
  8
text
 62
7
100
AcDbLine
 10
5.326216
 20
103.957774
 30
0.0
 11
5.235905
 21
104.135574
 31
0.0
  0
LINE
  5
40b
100
AcDbEntity
  8
text
 62
7
100
AcDbLine
 10
5.235905
 20
104.135574
 30
0.0
 11
5.058104
 21
104.313375
 31
0.0
  0
LINE
  5
40c
100
AcDbEntity
  8
text
 62
7
100
AcDbLine
 10
5.058104
 20
104.313375
 30
0.0
 11
4.880304
 21
104.403686
 31
0.0
  0
LINE
  5
40d
100
AcDbEntity
  8
text
 62
7
100
AcDbLine
 10
4.880304
 20
104.403686
 30
0.0
 11
4.524703
 21
104.403686
 31
0.0
  0
LINE
  5
40e
100
AcDbEntity
  8
text
 62
7
100
AcDbLine
 10
4.524703
 20
104.403686
 30
0.0
 11
4.346902
 21
104.313375
 31
0.0
  0
LINE
  5
40f
100
AcDbEntity
  8
text
 62
7
100
AcDbLine
 10
4.346902
 20
104.313375
 30
0.0
 11
4.169102
 21
104.135574
 31
0.0
  0
LINE
  5
410
100
AcDbEntity
  8
text
 62
7
100
AcDbLine
 10
4.169102
 20
104.135574
 30
0.0
 11
4.078791
 21
103.957774
 31
0.0
  0
LINE
  5
411
100
AcDbEntity
  8
text
 62
7
100
AcDbLine
 10
4.078791
 20
103.957774
 30
0.0
 11
3.991301
 21
103.692484
 31
0.0
  0
LINE
  5
412
100
AcDbEntity
  8
text
 62
7
100
AcDbLine
 10
3.991301
 20
103.692484
 30
0.0
 11
3.991301
 21
103.246572
 31
0.0
  0
LINE
  5
413
100
AcDbEntity
  8
text
 62
7
100
AcDbLine
 10
3.991301
 20
103.246572
 30
0.0
 11
4.078791
 21
102.981282
 31
0.0
  0
LINE
  5
414
100
AcDbEntity
  8
text
 62
7
100
AcDbLine
 10
4.078791
 20
102.981282
 30
0.0
 11
4.169102
 21
102.802071
 31
0.0
  0
LINE
  5
415
100
AcDbEntity
  8
text
 62
7
100
AcDbLine
 10
4.169102
 20
102.802071
 30
0.0
 11
4.346902
 21
102.624270
 31
0.0
  0
LINE
  5
416
100
AcDbEntity
  8
text
 62
7
100
AcDbLine
 10
4.346902
 20
102.624270
 30
0.0
 11
4.524703
 21
102.535370
 31
0.0
  0
LINE
  5
417
100
AcDbEntity
  8
text
 62
7
100
AcDbLine
 10
4.524703
 20
102.535370
 30
0.0
 11
4.880304
 21
102.535370
 31
0.0
  0
LINE
  5
418
100
AcDbEntity
  8
text
 62
7
100
AcDbLine
 10
4.880304
 20
102.535370
 30
0.0
 11
5.058104
 21
102.624270
 31
0.0
  0
LINE
  5
419
100
AcDbEntity
  8
text
 62
7
100
AcDbLine
 10
5.058104
 20
102.624270
 30
0.0
 11
5.235905
 21
102.802071
 31
0.0
  0
LINE
  5
41a
100
AcDbEntity
  8
text
 62
7
100
AcDbLine
 10
5.235905
 20
102.802071
 30
0.0
 11
5.326216
 21
102.981282
 31
0.0
  0
LINE
  5
41b
100
AcDbEntity
  8
text
 62
7
100
AcDbLine
 10
7.013914
 20
104.135574
 30
0.0
 11
6.926424
 21
104.313375
 31
0.0
  0
LINE
  5
41c
100
AcDbEntity
  8
text
 62
7
100
AcDbLine
 10
6.926424
 20
104.313375
 30
0.0
 11
6.658313
 21
104.403686
 31
0.0
  0
LINE
  5
41d
100
AcDbEntity
  8
text
 62
7
100
AcDbLine
 10
6.658313
 20
104.403686
 30
0.0
 11
6.483334
 21
104.403686
 31
0.0
  0
LINE
  5
41e
100
AcDbEntity
  8
text
 62
7
100
AcDbLine
 10
6.483334
 20
104.403686
 30
0.0
 11
6.215222
 21
104.313375
 31
0.0
  0
LINE
  5
41f
100
AcDbEntity
  8
text
 62
7
100
AcDbLine
 10
6.215222
 20
104.313375
 30
0.0
 11
6.037422
 21
104.048085
 31
0.0
  0
LINE
  5
420
100
AcDbEntity
  8
text
 62
7
100
AcDbLine
 10
6.037422
 20
104.048085
 30
0.0
 11
5.947111
 21
103.602173
 31
0.0
  0
LINE
  5
421
100
AcDbEntity
  8
text
 62
7
100
AcDbLine
 10
5.947111
 20
103.602173
 30
0.0
 11
5.947111
 21
103.156261
 31
0.0
  0
LINE
  5
422
100
AcDbEntity
  8
text
 62
7
100
AcDbLine
 10
5.947111
 20
103.156261
 30
0.0
 11
6.037422
 21
102.802071
 31
0.0
  0
LINE
  5
423
100
AcDbEntity
  8
text
 62
7
100
AcDbLine
 10
6.037422
 20
102.802071
 30
0.0
 11
6.215222
 21
102.624270
 31
0.0
  0
LINE
  5
424
100
AcDbEntity
  8
text
 62
7
100
AcDbLine
 10
6.215222
 20
102.624270
 30
0.0
 11
6.483334
 21
102.535370
 31
0.0
  0
LINE
  5
425
100
AcDbEntity
  8
text
 62
7
100
AcDbLine
 10
6.483334
 20
102.535370
 30
0.0
 11
6.570823
 21
102.535370
 31
0.0
  0
LINE
  5
426
100
AcDbEntity
  8
text
 62
7
100
AcDbLine
 10
6.570823
 20
102.535370
 30
0.0
 11
6.838935
 21
102.624270
 31
0.0
  0
LINE
  5
427
100
AcDbEntity
  8
text
 62
7
100
AcDbLine
 10
6.838935
 20
102.624270
 30
0.0
 11
7.013914
 21
102.802071
 31
0.0
  0
LINE
  5
428
100
AcDbEntity
  8
text
 62
7
100
AcDbLine
 10
7.013914
 20
102.802071
 30
0.0
 11
7.104225
 21
103.068771
 31
0.0
  0
LINE
  5
429
100
AcDbEntity
  8
text
 62
7
100
AcDbLine
 10
7.104225
 20
103.068771
 30
0.0
 11
7.104225
 21
103.156261
 31
0.0
  0
LINE
  5
42a
100
AcDbEntity
  8
text
 62
7
100
AcDbLine
 10
7.104225
 20
103.156261
 30
0.0
 11
7.013914
 21
103.424372
 31
0.0
  0
LINE
  5
42b
100
AcDbEntity
  8
text
 62
7
100
AcDbLine
 10
7.013914
 20
103.424372
 30
0.0
 11
6.838935
 21
103.602173
 31
0.0
  0
LINE
  5
42c
100
AcDbEntity
  8
text
 62
7
100
AcDbLine
 10
6.838935
 20
103.602173
 30
0.0
 11
6.570823
 21
103.692484
 31
0.0
  0
LINE
  5
42d
100
AcDbEntity
  8
text
 62
7
100
AcDbLine
 10
6.570823
 20
103.692484
 30
0.0
 11
6.483334
 21
103.692484
 31
0.0
  0
LINE
  5
42e
100
AcDbEntity
  8
text
 62
7
100
AcDbLine
 10
6.483334
 20
103.692484
 30
0.0
 11
6.215222
 21
103.602173
 31
0.0
  0
LINE
  5
42f
100
AcDbEntity
  8
text
 62
7
100
AcDbLine
 10
6.215222
 20
103.602173
 30
0.0
 11
6.037422
 21
103.424372
 31
0.0
  0
LINE
  5
430
100
AcDbEntity
  8
text
 62
7
100
AcDbLine
 10
6.037422
 20
103.424372
 30
0.0
 11
5.947111
 21
103.156261
 31
0.0
  0
LINE
  5
431
100
AcDbEntity
  8
text
 62
7
100
AcDbLine
 10
3.991291
 20
46.548716
 30
0.0
 11
3.991291
 21
44.680400
 31
0.0
  0
LINE
  5
432
100
AcDbEntity
  8
text
 62
7
100
AcDbLine
 10
5.238716
 20
46.548716
 30
0.0
 11
5.238716
 21
44.680400
 31
0.0
  0
LINE
  5
433
100
AcDbEntity
  8
text
 62
7
100
AcDbLine
 10
3.991291
 20
45.656892
 30
0.0
 11
5.238716
 21
45.656892
 31
0.0
  0
LINE
  5
434
100
AcDbEntity
  8
text
 62
7
100
AcDbLine
 10
5.947101
 20
46.548716
 30
0.0
 11
5.947101
 21
44.680400
 31
0.0
  0
LINE
  5
435
100
AcDbEntity
  8
text
 62
7
100
AcDbLine
 10
5.947101
 20
46.548716
 30
0.0
 11
7.104215
 21
46.548716
 31
0.0
  0
LINE
  5
436
100
AcDbEntity
  8
text
 62
7
100
AcDbLine
 10
5.947101
 20
45.656892
 30
0.0
 11
6.658303
 21
45.656892
 31
0.0
  0
ENDSEC
  0
SECTION
  2
OBJECTS
  0
DICTIONARY
  5
C
330
0
100
AcDbDictionary
  3
ACAD_GROUP
350
D
  3
ACAD_MLINESTYLE
350
17
  0
DICTIONARY
  5
D
330
C
100
AcDbDictionary
  0
DICTIONARY
  5
1A
330
C
100
AcDbDictionary
  0
DICTIONARY
  5
17
330
C
100
AcDbDictionary
  3
STANDARD
350
18
  0
DICTIONARY
  5
19
330
C
100
AcDbDictionary
  0
ENDSEC
  0
EOF
