  0
SECTION
  2
HEADER
  9
$ACADVER
  1
AC1014
  9
$HANDSEED
  5
FFFF
  9
$MEASUREMENT
 70
     1
  0
ENDSEC
  0
SECTION
  2
TABLES
  0
TABLE
  2
VPORT
  5
8
330
0
100
AcDbSymbolTable
 70
     4
  0
VPORT
  5
2E
330
8
100
AcDbSymbolTableRecord
100
AcDbViewportTableRecord
  2
*ACTIVE
 70
     0
 10
0.0
 20
0.0
 11
1.0
 21
1.0
 12
210.0
 22
148.5
 13
0.0
 23
0.0
 14
10.0
 24
10.0
 15
10.0
 25
10.0
 16
0.0
 26
0.0
 36
1.0
 17
0.0
 27
0.0
 37
0.0
 40
341.0
 41
1.24
 42
50.0
 43
0.0
 44
0.0
 50
0.0
 51
0.0
 71
     0
 72
   100
 73
     1
 74
     3
 75
     0
 76
     0
 77
     0
 78
     0
  0
ENDTAB
  0
TABLE
  2
LTYPE
  5
5
330
0
100
AcDbSymbolTable
 70
     1
  0
LTYPE
  5
14
330
5
100
AcDbSymbolTableRecord
100
AcDbLinetypeTableRecord
  2
BYBLOCK
 70
     0
  3

 72
    65
 73
     0
 40
0.0
  0
LTYPE
  5
15
330
5
100
AcDbSymbolTableRecord
100
AcDbLinetypeTableRecord
  2
BYLAYER
 70
     0
  3

 72
    65
 73
     0
 40
0.0
  0
LTYPE
  5
16
330
5
100
AcDbSymbolTableRecord
100
AcDbLinetypeTableRecord
  2
CONTINUOUS
 70
     0
  3
Solid line
 72
    65
 73
     0
 40
0.0
  0
ENDTAB
  0
TABLE
  2
LAYER
  5
2
100
AcDbSymbolTable
 70
4
  0
LAYER
  5
50
100
AcDbSymbolTableRecord
100
AcDbLayerTableRecord
  2
0
 70
0
  6
CONTINUOUS
  0
LAYER
  5
51
100
AcDbSymbolTableRecord
100
AcDbLayerTableRecord
  2
panel_dxf_import
 70
0
  6
CONTINUOUS
  0
LAYER
  5
52
100
AcDbSymbolTableRecord
100
AcDbLayerTableRecord
  2
text
 70
0
  6
CONTINUOUS
  0
LAYER
  5
53
100
AcDbSymbolTableRecord
100
AcDbLayerTableRecord
  2
logo
 70
0
  6
CONTINUOUS
  0
ENDTAB
  0
TABLE
  2
STYLE
  5
3
330
0
100
AcDbSymbolTable
 70
     1
  0
STYLE
  5
11
330
3
100
AcDbSymbolTableRecord
100
AcDbTextStyleTableRecord
  2
STANDARD
 70
     0
 40
0.0
 41
1.0
 50
0.0
 71
     0
 42
2.5
  3
txt
  4

  0
ENDTAB
  0
TABLE
  2
VIEW
  5
6
330
0
100
AcDbSymbolTable
 70
     0
  0
ENDTAB
  0
TABLE
  2
UCS
  5
7
330
0
100
AcDbSymbolTable
 70
     0
  0
ENDTAB
  0
TABLE
  2
APPID
  5
9
330
0
100
AcDbSymbolTable
 70
     2
  0
APPID
  5
12
330
9
100
AcDbSymbolTableRecord
100
AcDbRegAppTableRecord
  2
ACAD
 70
     0
  0
ENDTAB
  0
TABLE
  2
DIMSTYLE
  5
A
330
0
100
AcDbSymbolTable
 70
     1
  0
DIMSTYLE
105
27
330
A
100
AcDbSymbolTableRecord
100
AcDbDimStyleTableRecord
  2
ISO-25
 70
     0
  3

  4

  5

  6

  7

 40
1.0
 41
2.5
 42
0.625
 43
3.75
 44
1.25
 45
0.0
 46
0.0
 47
0.0
 48
0.0
140
2.5
141
2.5
142
0.0
143
0.03937007874016
144
1.0
145
0.0
146
1.0
147
0.625
 71
     0
 72
     0
 73
     0
 74
     0
 75
     0
 76
     0
 77
     1
 78
     8
170
     0
171
     3
172
     1
173
     0
174
     0
175
     0
176
     0
177
     0
178
     0
270
     2
271
     2
272
     2
273
     2
274
     3
340
11
275
     0
280
     0
281
     0
282
     0
283
     0
284
     8
285
     0
286
     0
287
     3
288
     0
  0
ENDTAB
  0
TABLE
  2
BLOCK_RECORD
  5
1
330
0
100
AcDbSymbolTable
 70
     1
  0
BLOCK_RECORD
  5
1F
330
1
100
AcDbSymbolTableRecord
100
AcDbBlockTableRecord
  2
*MODEL_SPACE
  0
BLOCK_RECORD
  5
1B
330
1
100
AcDbSymbolTableRecord
100
AcDbBlockTableRecord
  2
*PAPER_SPACE
  0
ENDTAB
  0
ENDSEC
  0
SECTION
  2
BLOCKS
  0
BLOCK
  5
20
330
1F
100
AcDbEntity
  8
0
100
AcDbBlockBegin
  2
*MODEL_SPACE
 70
     0
 10
0.0
 20
0.0
 30
0.0
  3
*MODEL_SPACE
  1

  0
ENDBLK
  5
21
330
1F
100
AcDbEntity
  8
0
100
AcDbBlockEnd
  0
BLOCK
  5
1C
330
1B
100
AcDbEntity
 67
     1
  8
0
100
AcDbBlockBegin
  2
*PAPER_SPACE
  1

  0
ENDBLK
  5
1D
330
1B
100
AcDbEntity
 67
     1
  8
0
100
AcDbBlockEnd
  0
ENDSEC
  0
SECTION
  2
ENTITIES
  0
LWPOLYLINE
  5
100
100
AcDbEntity
  8
panel_dxf_import
 62
7
100
AcDbPolyline
 90
2
 70
0
 10
0.049844
 20
0.050322
 30
0.0
 10
50.549780
 20
0.050322
 30
0.0
  0
LWPOLYLINE
  5
101
100
AcDbEntity
  8
panel_dxf_import
 62
7
100
AcDbPolyline
 90
2
 70
0
 10
0.049844
 20
128.550160
 30
0.0
 10
0.049844
 20
0.050322
 30
0.0
  0
SPLINE
  5
102
100
AcDbEntity
  8
panel_dxf_import
 62
7
100
AcDbSpline
 70
8
 71
3
 72
8
 73
4
 74
0
 40
0
 40
0
 40
0
 40
0
 40
1
 40
1
 40
1
 40
1
 10
3.049840
 20
4.600316
 30
0.0
 10
2.194412
 20
4.599450
 30
0.0
 10
1.501410
 20
3.905747
 30
0.0
 10
1.501410
 20
3.050319
 30
0.0
  0
SPLINE
  5
103
100
AcDbEntity
  8
panel_dxf_import
 62
7
100
AcDbSpline
 70
8
 71
3
 72
8
 73
4
 74
0
 40
0
 40
0
 40
0
 40
0
 40
1
 40
1
 40
1
 40
1
 10
1.501410
 20
3.050319
 30
0.0
 10
1.501410
 20
2.194891
 30
0.0
 10
2.194412
 20
1.501187
 30
0.0
 10
3.049840
 20
1.500322
 30
0.0
  0
LWPOLYLINE
  5
104
100
AcDbEntity
  8
panel_dxf_import
 62
7
100
AcDbPolyline
 90
3
 70
0
 10
50.549780
 20
0.050322
 30
0.0
 10
50.549780
 20
128.550160
 30
0.0
 10
0.049844
 20
128.550160
 30
0.0
  0
SPLINE
  5
105
100
AcDbEntity
  8
panel_dxf_import
 62
7
100
AcDbSpline
 70
8
 71
3
 72
8
 73
4
 74
0
 40
0
 40
0
 40
0
 40
0
 40
1
 40
1
 40
1
 40
1
 10
6.149837
 20
1.500322
 30
0.0
 10
7.005264
 20
1.501187
 30
0.0
 10
7.698267
 20
2.194891
 30
0.0
 10
7.698267
 20
3.050319
 30
0.0
  0
SPLINE
  5
106
100
AcDbEntity
  8
panel_dxf_import
 62
7
100
AcDbSpline
 70
8
 71
3
 72
8
 73
4
 74
0
 40
0
 40
0
 40
0
 40
0
 40
1
 40
1
 40
1
 40
1
 10
7.698267
 20
3.050319
 30
0.0
 10
7.698267
 20
3.905747
 30
0.0
 10
7.005264
 20
4.599450
 30
0.0
 10
6.149837
 20
4.600316
 30
0.0
  0
LWPOLYLINE
  5
107
100
AcDbEntity
  8
panel_dxf_import
 62
7
100
AcDbPolyline
 90
2
 70
0
 10
3.049840
 20
1.500322
 30
0.0
 10
6.149837
 20
1.500322
 30
0.0
  0
SPLINE
  5
108
100
AcDbEntity
  8
panel_dxf_import
 62
7
100
AcDbSpline
 70
8
 71
3
 72
8
 73
4
 74
0
 40
0
 40
0
 40
0
 40
0
 40
1
 40
1
 40
1
 40
1
 10
9.044833
 20
19.750299
 30
0.0
 10
9.045485
 20
20.876119
 30
0.0
 10
8.445242
 20
21.916699
 30
0.0
 10
7.470362
 20
22.479797
 30
0.0
  0
SPLINE
  5
109
100
AcDbEntity
  8
panel_dxf_import
 62
7
100
AcDbSpline
 70
8
 71
3
 72
8
 73
4
 74
0
 40
0
 40
0
 40
0
 40
0
 40
1
 40
1
 40
1
 40
1
 10
7.470362
 20
22.479797
 30
0.0
 10
6.495482
 20
23.042896
 30
0.0
 10
5.294192
 20
23.042896
 30
0.0
 10
4.319312
 20
22.479797
 30
0.0
  0
SPLINE
  5
10a
100
AcDbEntity
  8
panel_dxf_import
 62
7
100
AcDbSpline
 70
8
 71
3
 72
8
 73
4
 74
0
 40
0
 40
0
 40
0
 40
0
 40
1
 40
1
 40
1
 40
1
 10
4.319312
 20
22.479797
 30
0.0
 10
3.344432
 20
21.916699
 30
0.0
 10
2.744189
 20
20.876119
 30
0.0
 10
2.744842
 20
19.750299
 30
0.0
  0
SPLINE
  5
10b
100
AcDbEntity
  8
panel_dxf_import
 62
7
100
AcDbSpline
 70
8
 71
3
 72
8
 73
4
 74
0
 40
0
 40
0
 40
0
 40
0
 40
1
 40
1
 40
1
 40
1
 10
2.744842
 20
19.750299
 30
0.0
 10
2.744189
 20
18.624479
 30
0.0
 10
3.344432
 20
17.583899
 30
0.0
 10
4.319312
 20
17.020801
 30
0.0
  0
SPLINE
  5
10c
100
AcDbEntity
  8
panel_dxf_import
 62
7
100
AcDbSpline
 70
8
 71
3
 72
8
 73
4
 74
0
 40
0
 40
0
 40
0
 40
0
 40
1
 40
1
 40
1
 40
1
 10
4.319312
 20
17.020801
 30
0.0
 10
5.294192
 20
16.457703
 30
0.0
 10
6.495482
 20
16.457703
 30
0.0
 10
7.470362
 20
17.020801
 30
0.0
  0
SPLINE
  5
10d
100
AcDbEntity
  8
panel_dxf_import
 62
7
100
AcDbSpline
 70
8
 71
3
 72
8
 73
4
 74
0
 40
0
 40
0
 40
0
 40
0
 40
1
 40
1
 40
1
 40
1
 10
7.470362
 20
17.020801
 30
0.0
 10
8.445242
 20
17.583899
 30
0.0
 10
9.045485
 20
18.624479
 30
0.0
 10
9.044833
 20
19.750299
 30
0.0
  0
LWPOLYLINE
  5
10e
100
AcDbEntity
  8
panel_dxf_import
 62
7
100
AcDbPolyline
 90
2
 70
0
 10
3.049840
 20
4.600316
 30
0.0
 10
6.149837
 20
4.600316
 30
0.0
  0
SPLINE
  5
10f
100
AcDbEntity
  8
panel_dxf_import
 62
7
100
AcDbSpline
 70
8
 71
3
 72
8
 73
4
 74
0
 40
0
 40
0
 40
0
 40
0
 40
1
 40
1
 40
1
 40
1
 10
18.833822
 20
19.750299
 30
0.0
 10
18.833822
 20
20.875685
 30
0.0
 10
18.233436
 20
21.915584
 30
0.0
 10
17.258823
 20
22.478277
 30
0.0
  0
SPLINE
  5
110
100
AcDbEntity
  8
panel_dxf_import
 62
7
100
AcDbSpline
 70
8
 71
3
 72
8
 73
4
 74
0
 40
0
 40
0
 40
0
 40
0
 40
1
 40
1
 40
1
 40
1
 10
17.258823
 20
22.478277
 30
0.0
 10
16.284211
 20
23.040969
 30
0.0
 10
15.083439
 20
23.040969
 30
0.0
 10
14.108826
 20
22.478277
 30
0.0
  0
SPLINE
  5
111
100
AcDbEntity
  8
panel_dxf_import
 62
7
100
AcDbSpline
 70
8
 71
3
 72
8
 73
4
 74
0
 40
0
 40
0
 40
0
 40
0
 40
1
 40
1
 40
1
 40
1
 10
14.108826
 20
22.478277
 30
0.0
 10
13.134214
 20
21.915584
 30
0.0
 10
12.533828
 20
20.875685
 30
0.0
 10
12.533828
 20
19.750299
 30
0.0
  0
SPLINE
  5
112
100
AcDbEntity
  8
panel_dxf_import
 62
7
100
AcDbSpline
 70
8
 71
3
 72
8
 73
4
 74
0
 40
0
 40
0
 40
0
 40
0
 40
1
 40
1
 40
1
 40
1
 10
12.533828
 20
19.750299
 30
0.0
 10
12.533828
 20
18.624914
 30
0.0
 10
13.134214
 20
17.585015
 30
0.0
 10
14.108826
 20
17.022322
 30
0.0
  0
SPLINE
  5
113
100
AcDbEntity
  8
panel_dxf_import
 62
7
100
AcDbSpline
 70
8
 71
3
 72
8
 73
4
 74
0
 40
0
 40
0
 40
0
 40
0
 40
1
 40
1
 40
1
 40
1
 10
14.108826
 20
17.022322
 30
0.0
 10
15.083439
 20
16.459629
 30
0.0
 10
16.284211
 20
16.459629
 30
0.0
 10
17.258823
 20
17.022322
 30
0.0
  0
SPLINE
  5
114
100
AcDbEntity
  8
panel_dxf_import
 62
7
100
AcDbSpline
 70
8
 71
3
 72
8
 73
4
 74
0
 40
0
 40
0
 40
0
 40
0
 40
1
 40
1
 40
1
 40
1
 10
17.258823
 20
17.022322
 30
0.0
 10
18.233436
 20
17.585015
 30
0.0
 10
18.833822
 20
18.624914
 30
0.0
 10
18.833822
 20
19.750299
 30
0.0
  0
LWPOLYLINE
  5
115
100
AcDbEntity
  8
panel_dxf_import
 62
7
100
AcDbPolyline
 90
1
 70
1
 10
9.044833
 20
19.750299
 30
0.0
  0
SPLINE
  5
116
100
AcDbEntity
  8
panel_dxf_import
 62
7
100
AcDbSpline
 70
8
 71
3
 72
8
 73
4
 74
0
 40
0
 40
0
 40
0
 40
0
 40
1
 40
1
 40
1
 40
1
 10
9.044833
 20
35.050279
 30
0.0
 10
9.045485
 20
36.176099
 30
0.0
 10
8.445242
 20
37.216679
 30
0.0
 10
7.470362
 20
37.779778
 30
0.0
  0
SPLINE
  5
117
100
AcDbEntity
  8
panel_dxf_import
 62
7
100
AcDbSpline
 70
8
 71
3
 72
8
 73
4
 74
0
 40
0
 40
0
 40
0
 40
0
 40
1
 40
1
 40
1
 40
1
 10
7.470362
 20
37.779778
 30
0.0
 10
6.495482
 20
38.342876
 30
0.0
 10
5.294192
 20
38.342876
 30
0.0
 10
4.319312
 20
37.779778
 30
0.0
  0
SPLINE
  5
118
100
AcDbEntity
  8
panel_dxf_import
 62
7
100
AcDbSpline
 70
8
 71
3
 72
8
 73
4
 74
0
 40
0
 40
0
 40
0
 40
0
 40
1
 40
1
 40
1
 40
1
 10
4.319312
 20
37.779778
 30
0.0
 10
3.344432
 20
37.216679
 30
0.0
 10
2.744189
 20
36.176099
 30
0.0
 10
2.744842
 20
35.050279
 30
0.0
  0
SPLINE
  5
119
100
AcDbEntity
  8
panel_dxf_import
 62
7
100
AcDbSpline
 70
8
 71
3
 72
8
 73
4
 74
0
 40
0
 40
0
 40
0
 40
0
 40
1
 40
1
 40
1
 40
1
 10
2.744842
 20
35.050279
 30
0.0
 10
2.744189
 20
33.924459
 30
0.0
 10
3.344432
 20
32.883880
 30
0.0
 10
4.319312
 20
32.320781
 30
0.0
  0
SPLINE
  5
11a
100
AcDbEntity
  8
panel_dxf_import
 62
7
100
AcDbSpline
 70
8
 71
3
 72
8
 73
4
 74
0
 40
0
 40
0
 40
0
 40
0
 40
1
 40
1
 40
1
 40
1
 10
4.319312
 20
32.320781
 30
0.0
 10
5.294192
 20
31.757683
 30
0.0
 10
6.495482
 20
31.757683
 30
0.0
 10
7.470362
 20
32.320781
 30
0.0
  0
SPLINE
  5
11b
100
AcDbEntity
  8
panel_dxf_import
 62
7
100
AcDbSpline
 70
8
 71
3
 72
8
 73
4
 74
0
 40
0
 40
0
 40
0
 40
0
 40
1
 40
1
 40
1
 40
1
 10
7.470362
 20
32.320781
 30
0.0
 10
8.445242
 20
32.883880
 30
0.0
 10
9.045485
 20
33.924459
 30
0.0
 10
9.044833
 20
35.050279
 30
0.0
  0
LWPOLYLINE
  5
11c
100
AcDbEntity
  8
panel_dxf_import
 62
7
100
AcDbPolyline
 90
1
 70
1
 10
18.833822
 20
19.750299
 30
0.0
  0
SPLINE
  5
11d
100
AcDbEntity
  8
panel_dxf_import
 62
7
100
AcDbSpline
 70
8
 71
3
 72
8
 73
4
 74
0
 40
0
 40
0
 40
0
 40
0
 40
1
 40
1
 40
1
 40
1
 10
28.622808
 20
19.750299
 30
0.0
 10
28.623461
 20
20.876119
 30
0.0
 10
28.023218
 20
21.916699
 30
0.0
 10
27.048338
 20
22.479797
 30
0.0
  0
SPLINE
  5
11e
100
AcDbEntity
  8
panel_dxf_import
 62
7
100
AcDbSpline
 70
8
 71
3
 72
8
 73
4
 74
0
 40
0
 40
0
 40
0
 40
0
 40
1
 40
1
 40
1
 40
1
 10
27.048338
 20
22.479797
 30
0.0
 10
26.073458
 20
23.042896
 30
0.0
 10
24.872167
 20
23.042896
 30
0.0
 10
23.897287
 20
22.479797
 30
0.0
  0
SPLINE
  5
11f
100
AcDbEntity
  8
panel_dxf_import
 62
7
100
AcDbSpline
 70
8
 71
3
 72
8
 73
4
 74
0
 40
0
 40
0
 40
0
 40
0
 40
1
 40
1
 40
1
 40
1
 10
23.897287
 20
22.479797
 30
0.0
 10
22.922407
 20
21.916699
 30
0.0
 10
22.322164
 20
20.876119
 30
0.0
 10
22.322817
 20
19.750299
 30
0.0
  0
SPLINE
  5
120
100
AcDbEntity
  8
panel_dxf_import
 62
7
100
AcDbSpline
 70
8
 71
3
 72
8
 73
4
 74
0
 40
0
 40
0
 40
0
 40
0
 40
1
 40
1
 40
1
 40
1
 10
22.322817
 20
19.750299
 30
0.0
 10
22.322164
 20
18.624479
 30
0.0
 10
22.922407
 20
17.583899
 30
0.0
 10
23.897287
 20
17.020801
 30
0.0
  0
SPLINE
  5
121
100
AcDbEntity
  8
panel_dxf_import
 62
7
100
AcDbSpline
 70
8
 71
3
 72
8
 73
4
 74
0
 40
0
 40
0
 40
0
 40
0
 40
1
 40
1
 40
1
 40
1
 10
23.897287
 20
17.020801
 30
0.0
 10
24.872167
 20
16.457703
 30
0.0
 10
26.073458
 20
16.457703
 30
0.0
 10
27.048338
 20
17.020801
 30
0.0
  0
SPLINE
  5
122
100
AcDbEntity
  8
panel_dxf_import
 62
7
100
AcDbSpline
 70
8
 71
3
 72
8
 73
4
 74
0
 40
0
 40
0
 40
0
 40
0
 40
1
 40
1
 40
1
 40
1
 10
27.048338
 20
17.020801
 30
0.0
 10
28.023218
 20
17.583899
 30
0.0
 10
28.623461
 20
18.624479
 30
0.0
 10
28.622808
 20
19.750299
 30
0.0
  0
LWPOLYLINE
  5
123
100
AcDbEntity
  8
panel_dxf_import
 62
7
100
AcDbPolyline
 90
1
 70
1
 10
9.044833
 20
35.050279
 30
0.0
  0
SPLINE
  5
124
100
AcDbEntity
  8
panel_dxf_import
 62
7
100
AcDbSpline
 70
8
 71
3
 72
8
 73
4
 74
0
 40
0
 40
0
 40
0
 40
0
 40
1
 40
1
 40
1
 40
1
 10
38.410797
 20
19.750299
 30
0.0
 10
38.410797
 20
20.875685
 30
0.0
 10
37.810411
 20
21.915584
 30
0.0
 10
36.835798
 20
22.478276
 30
0.0
  0
SPLINE
  5
125
100
AcDbEntity
  8
panel_dxf_import
 62
7
100
AcDbSpline
 70
8
 71
3
 72
8
 73
4
 74
0
 40
0
 40
0
 40
0
 40
0
 40
1
 40
1
 40
1
 40
1
 10
36.835798
 20
22.478276
 30
0.0
 10
35.861186
 20
23.040969
 30
0.0
 10
34.660414
 20
23.040969
 30
0.0
 10
33.685802
 20
22.478276
 30
0.0
  0
SPLINE
  5
126
100
AcDbEntity
  8
panel_dxf_import
 62
7
100
AcDbSpline
 70
8
 71
3
 72
8
 73
4
 74
0
 40
0
 40
0
 40
0
 40
0
 40
1
 40
1
 40
1
 40
1
 10
33.685802
 20
22.478276
 30
0.0
 10
32.711189
 20
21.915584
 30
0.0
 10
32.110803
 20
20.875685
 30
0.0
 10
32.110803
 20
19.750299
 30
0.0
  0
SPLINE
  5
127
100
AcDbEntity
  8
panel_dxf_import
 62
7
100
AcDbSpline
 70
8
 71
3
 72
8
 73
4
 74
0
 40
0
 40
0
 40
0
 40
0
 40
1
 40
1
 40
1
 40
1
 10
32.110803
 20
19.750299
 30
0.0
 10
32.110803
 20
18.624914
 30
0.0
 10
32.711189
 20
17.585015
 30
0.0
 10
33.685802
 20
17.022322
 30
0.0
  0
SPLINE
  5
128
100
AcDbEntity
  8
panel_dxf_import
 62
7
100
AcDbSpline
 70
8
 71
3
 72
8
 73
4
 74
0
 40
0
 40
0
 40
0
 40
0
 40
1
 40
1
 40
1
 40
1
 10
33.685802
 20
17.022322
 30
0.0
 10
34.660414
 20
16.459629
 30
0.0
 10
35.861186
 20
16.459629
 30
0.0
 10
36.835798
 20
17.022322
 30
0.0
  0
SPLINE
  5
129
100
AcDbEntity
  8
panel_dxf_import
 62
7
100
AcDbSpline
 70
8
 71
3
 72
8
 73
4
 74
0
 40
0
 40
0
 40
0
 40
0
 40
1
 40
1
 40
1
 40
1
 10
36.835798
 20
17.022322
 30
0.0
 10
37.810411
 20
17.585015
 30
0.0
 10
38.410797
 20
18.624914
 30
0.0
 10
38.410797
 20
19.750299
 30
0.0
  0
LWPOLYLINE
  5
12a
100
AcDbEntity
  8
panel_dxf_import
 62
7
100
AcDbPolyline
 90
1
 70
1
 10
28.622808
 20
19.750299
 30
0.0
  0
SPLINE
  5
12b
100
AcDbEntity
  8
panel_dxf_import
 62
7
100
AcDbSpline
 70
8
 71
3
 72
8
 73
4
 74
0
 40
0
 40
0
 40
0
 40
0
 40
1
 40
1
 40
1
 40
1
 10
44.449787
 20
4.600316
 30
0.0
 10
43.594360
 20
4.599450
 30
0.0
 10
42.901358
 20
3.905747
 30
0.0
 10
42.901358
 20
3.050319
 30
0.0
  0
SPLINE
  5
12c
100
AcDbEntity
  8
panel_dxf_import
 62
7
100
AcDbSpline
 70
8
 71
3
 72
8
 73
4
 74
0
 40
0
 40
0
 40
0
 40
0
 40
1
 40
1
 40
1
 40
1
 10
42.901358
 20
3.050319
 30
0.0
 10
42.901358
 20
2.194891
 30
0.0
 10
43.594360
 20
1.501187
 30
0.0
 10
44.449787
 20
1.500322
 30
0.0
  0
LWPOLYLINE
  5
12d
100
AcDbEntity
  8
panel_dxf_import
 62
7
100
AcDbPolyline
 90
1
 70
1
 10
38.410797
 20
19.750299
 30
0.0
  0
SPLINE
  5
12e
100
AcDbEntity
  8
panel_dxf_import
 62
7
100
AcDbSpline
 70
8
 71
3
 72
8
 73
4
 74
0
 40
0
 40
0
 40
0
 40
0
 40
1
 40
1
 40
1
 40
1
 10
47.549785
 20
1.500322
 30
0.0
 10
48.405212
 20
1.501187
 30
0.0
 10
49.098214
 20
2.194891
 30
0.0
 10
49.098214
 20
3.050319
 30
0.0
  0
SPLINE
  5
12f
100
AcDbEntity
  8
panel_dxf_import
 62
7
100
AcDbSpline
 70
8
 71
3
 72
8
 73
4
 74
0
 40
0
 40
0
 40
0
 40
0
 40
1
 40
1
 40
1
 40
1
 10
49.098214
 20
3.050319
 30
0.0
 10
49.098214
 20
3.905747
 30
0.0
 10
48.405212
 20
4.599450
 30
0.0
 10
47.549785
 20
4.600316
 30
0.0
  0
LWPOLYLINE
  5
130
100
AcDbEntity
  8
panel_dxf_import
 62
7
100
AcDbPolyline
 90
2
 70
0
 10
44.449787
 20
1.500322
 30
0.0
 10
47.549785
 20
1.500322
 30
0.0
  0
SPLINE
  5
131
100
AcDbEntity
  8
panel_dxf_import
 62
7
100
AcDbSpline
 70
8
 71
3
 72
8
 73
4
 74
0
 40
0
 40
0
 40
0
 40
0
 40
1
 40
1
 40
1
 40
1
 10
48.199783
 20
19.750299
 30
0.0
 10
48.200436
 20
20.876119
 30
0.0
 10
47.600193
 20
21.916699
 30
0.0
 10
46.625313
 20
22.479797
 30
0.0
  0
SPLINE
  5
132
100
AcDbEntity
  8
panel_dxf_import
 62
7
100
AcDbSpline
 70
8
 71
3
 72
8
 73
4
 74
0
 40
0
 40
0
 40
0
 40
0
 40
1
 40
1
 40
1
 40
1
 10
46.625313
 20
22.479797
 30
0.0
 10
45.650433
 20
23.042896
 30
0.0
 10
44.449142
 20
23.042896
 30
0.0
 10
43.474262
 20
22.479797
 30
0.0
  0
SPLINE
  5
133
100
AcDbEntity
  8
panel_dxf_import
 62
7
100
AcDbSpline
 70
8
 71
3
 72
8
 73
4
 74
0
 40
0
 40
0
 40
0
 40
0
 40
1
 40
1
 40
1
 40
1
 10
43.474262
 20
22.479797
 30
0.0
 10
42.499382
 20
21.916699
 30
0.0
 10
41.899139
 20
20.876119
 30
0.0
 10
41.899792
 20
19.750299
 30
0.0
  0
SPLINE
  5
134
100
AcDbEntity
  8
panel_dxf_import
 62
7
100
AcDbSpline
 70
8
 71
3
 72
8
 73
4
 74
0
 40
0
 40
0
 40
0
 40
0
 40
1
 40
1
 40
1
 40
1
 10
41.899792
 20
19.750299
 30
0.0
 10
41.899139
 20
18.624479
 30
0.0
 10
42.499382
 20
17.583899
 30
0.0
 10
43.474262
 20
17.020801
 30
0.0
  0
SPLINE
  5
135
100
AcDbEntity
  8
panel_dxf_import
 62
7
100
AcDbSpline
 70
8
 71
3
 72
8
 73
4
 74
0
 40
0
 40
0
 40
0
 40
0
 40
1
 40
1
 40
1
 40
1
 10
43.474262
 20
17.020801
 30
0.0
 10
44.449142
 20
16.457703
 30
0.0
 10
45.650433
 20
16.457703
 30
0.0
 10
46.625313
 20
17.020801
 30
0.0
  0
SPLINE
  5
136
100
AcDbEntity
  8
panel_dxf_import
 62
7
100
AcDbSpline
 70
8
 71
3
 72
8
 73
4
 74
0
 40
0
 40
0
 40
0
 40
0
 40
1
 40
1
 40
1
 40
1
 10
46.625313
 20
17.020801
 30
0.0
 10
47.600193
 20
17.583899
 30
0.0
 10
48.200436
 20
18.624479
 30
0.0
 10
48.199783
 20
19.750299
 30
0.0
  0
LWPOLYLINE
  5
137
100
AcDbEntity
  8
panel_dxf_import
 62
7
100
AcDbPolyline
 90
2
 70
0
 10
44.449787
 20
4.600316
 30
0.0
 10
47.549785
 20
4.600316
 30
0.0
  0
SPLINE
  5
138
100
AcDbEntity
  8
panel_dxf_import
 62
7
100
AcDbSpline
 70
8
 71
3
 72
8
 73
4
 74
0
 40
0
 40
0
 40
0
 40
0
 40
1
 40
1
 40
1
 40
1
 10
17.199823
 20
84.300217
 30
0.0
 10
17.200320
 20
85.604565
 30
0.0
 10
16.504743
 20
86.810046
 30
0.0
 10
15.375227
 20
87.462364
 30
0.0
  0
SPLINE
  5
139
100
AcDbEntity
  8
panel_dxf_import
 62
7
100
AcDbSpline
 70
8
 71
3
 72
8
 73
4
 74
0
 40
0
 40
0
 40
0
 40
0
 40
1
 40
1
 40
1
 40
1
 10
15.375227
 20
87.462364
 30
0.0
 10
14.245711
 20
88.114681
 30
0.0
 10
12.853946
 20
88.114681
 30
0.0
 10
11.724429
 20
87.462364
 30
0.0
  0
SPLINE
  5
13a
100
AcDbEntity
  8
panel_dxf_import
 62
7
100
AcDbSpline
 70
8
 71
3
 72
8
 73
4
 74
0
 40
0
 40
0
 40
0
 40
0
 40
1
 40
1
 40
1
 40
1
 10
11.724429
 20
87.462364
 30
0.0
 10
10.594913
 20
86.810046
 30
0.0
 10
9.899336
 20
85.604565
 30
0.0
 10
9.899833
 20
84.300217
 30
0.0
  0
SPLINE
  5
13b
100
AcDbEntity
  8
panel_dxf_import
 62
7
100
AcDbSpline
 70
8
 71
3
 72
8
 73
4
 74
0
 40
0
 40
0
 40
0
 40
0
 40
1
 40
1
 40
1
 40
1
 10
9.899833
 20
84.300217
 30
0.0
 10
9.899336
 20
82.995868
 30
0.0
 10
10.594913
 20
81.790388
 30
0.0
 10
11.724429
 20
81.138070
 30
0.0
  0
SPLINE
  5
13c
100
AcDbEntity
  8
panel_dxf_import
 62
7
100
AcDbSpline
 70
8
 71
3
 72
8
 73
4
 74
0
 40
0
 40
0
 40
0
 40
0
 40
1
 40
1
 40
1
 40
1
 10
11.724429
 20
81.138070
 30
0.0
 10
12.853946
 20
80.485752
 30
0.0
 10
14.245711
 20
80.485752
 30
0.0
 10
15.375227
 20
81.138070
 30
0.0
  0
SPLINE
  5
13d
100
AcDbEntity
  8
panel_dxf_import
 62
7
100
AcDbSpline
 70
8
 71
3
 72
8
 73
4
 74
0
 40
0
 40
0
 40
0
 40
0
 40
1
 40
1
 40
1
 40
1
 10
15.375227
 20
81.138070
 30
0.0
 10
16.504743
 20
81.790388
 30
0.0
 10
17.200320
 20
82.995868
 30
0.0
 10
17.199823
 20
84.300217
 30
0.0
  0
LWPOLYLINE
  5
13e
100
AcDbEntity
  8
panel_dxf_import
 62
7
100
AcDbPolyline
 90
1
 70
1
 10
48.199783
 20
19.750299
 30
0.0
  0
SPLINE
  5
13f
100
AcDbEntity
  8
panel_dxf_import
 62
7
100
AcDbSpline
 70
8
 71
3
 72
8
 73
4
 74
0
 40
0
 40
0
 40
0
 40
0
 40
1
 40
1
 40
1
 40
1
 10
3.049840
 20
127.100163
 30
0.0
 10
2.496079
 20
127.100163
 30
0.0
 10
1.984382
 20
126.804735
 30
0.0
 10
1.707502
 20
126.325164
 30
0.0
  0
SPLINE
  5
140
100
AcDbEntity
  8
panel_dxf_import
 62
7
100
AcDbSpline
 70
8
 71
3
 72
8
 73
4
 74
0
 40
0
 40
0
 40
0
 40
0
 40
1
 40
1
 40
1
 40
1
 10
1.707502
 20
126.325164
 30
0.0
 10
1.430621
 20
125.845592
 30
0.0
 10
1.430621
 20
125.254736
 30
0.0
 10
1.707502
 20
124.775165
 30
0.0
  0
SPLINE
  5
141
100
AcDbEntity
  8
panel_dxf_import
 62
7
100
AcDbSpline
 70
8
 71
3
 72
8
 73
4
 74
0
 40
0
 40
0
 40
0
 40
0
 40
1
 40
1
 40
1
 40
1
 10
1.707502
 20
124.775165
 30
0.0
 10
1.984382
 20
124.295594
 30
0.0
 10
2.496079
 20
124.000166
 30
0.0
 10
3.049840
 20
124.000166
 30
0.0
  0
LWPOLYLINE
  5
142
100
AcDbEntity
  8
panel_dxf_import
 62
7
100
AcDbPolyline
 90
1
 70
1
 10
17.199823
 20
84.300217
 30
0.0
  0
SPLINE
  5
143
100
AcDbEntity
  8
panel_dxf_import
 62
7
100
AcDbSpline
 70
8
 71
3
 72
8
 73
4
 74
0
 40
0
 40
0
 40
0
 40
0
 40
1
 40
1
 40
1
 40
1
 10
6.149837
 20
124.000166
 30
0.0
 10
6.703598
 20
124.000166
 30
0.0
 10
7.215295
 20
124.295594
 30
0.0
 10
7.492175
 20
124.775165
 30
0.0
  0
SPLINE
  5
144
100
AcDbEntity
  8
panel_dxf_import
 62
7
100
AcDbSpline
 70
8
 71
3
 72
8
 73
4
 74
0
 40
0
 40
0
 40
0
 40
0
 40
1
 40
1
 40
1
 40
1
 10
7.492175
 20
124.775165
 30
0.0
 10
7.769056
 20
125.254736
 30
0.0
 10
7.769056
 20
125.845592
 30
0.0
 10
7.492175
 20
126.325164
 30
0.0
  0
SPLINE
  5
145
100
AcDbEntity
  8
panel_dxf_import
 62
7
100
AcDbSpline
 70
8
 71
3
 72
8
 73
4
 74
0
 40
0
 40
0
 40
0
 40
0
 40
1
 40
1
 40
1
 40
1
 10
7.492175
 20
126.325164
 30
0.0
 10
7.215295
 20
126.804735
 30
0.0
 10
6.703598
 20
127.100163
 30
0.0
 10
6.149837
 20
127.100163
 30
0.0
  0
LWPOLYLINE
  5
146
100
AcDbEntity
  8
panel_dxf_import
 62
7
100
AcDbPolyline
 90
2
 70
0
 10
3.049840
 20
124.000166
 30
0.0
 10
6.149837
 20
124.000166
 30
0.0
  0
SPLINE
  5
147
100
AcDbEntity
  8
panel_dxf_import
 62
7
100
AcDbSpline
 70
8
 71
3
 72
8
 73
4
 74
0
 40
0
 40
0
 40
0
 40
0
 40
1
 40
1
 40
1
 40
1
 10
28.949809
 20
104.300191
 30
0.0
 10
28.950305
 20
105.604540
 30
0.0
 10
28.254729
 20
106.810020
 30
0.0
 10
27.125213
 20
107.462338
 30
0.0
  0
SPLINE
  5
148
100
AcDbEntity
  8
panel_dxf_import
 62
7
100
AcDbSpline
 70
8
 71
3
 72
8
 73
4
 74
0
 40
0
 40
0
 40
0
 40
0
 40
1
 40
1
 40
1
 40
1
 10
27.125213
 20
107.462338
 30
0.0
 10
25.995696
 20
108.114656
 30
0.0
 10
24.603931
 20
108.114656
 30
0.0
 10
23.474415
 20
107.462338
 30
0.0
  0
SPLINE
  5
149
100
AcDbEntity
  8
panel_dxf_import
 62
7
100
AcDbSpline
 70
8
 71
3
 72
8
 73
4
 74
0
 40
0
 40
0
 40
0
 40
0
 40
1
 40
1
 40
1
 40
1
 10
23.474415
 20
107.462338
 30
0.0
 10
22.344898
 20
106.810020
 30
0.0
 10
21.649322
 20
105.604540
 30
0.0
 10
21.649818
 20
104.300191
 30
0.0
  0
SPLINE
  5
14a
100
AcDbEntity
  8
panel_dxf_import
 62
7
100
AcDbSpline
 70
8
 71
3
 72
8
 73
4
 74
0
 40
0
 40
0
 40
0
 40
0
 40
1
 40
1
 40
1
 40
1
 10
21.649818
 20
104.300191
 30
0.0
 10
21.649322
 20
102.995843
 30
0.0
 10
22.344898
 20
101.790362
 30
0.0
 10
23.474415
 20
101.138044
 30
0.0
  0
SPLINE
  5
14b
100
AcDbEntity
  8
panel_dxf_import
 62
7
100
AcDbSpline
 70
8
 71
3
 72
8
 73
4
 74
0
 40
0
 40
0
 40
0
 40
0
 40
1
 40
1
 40
1
 40
1
 10
23.474415
 20
101.138044
 30
0.0
 10
24.603931
 20
100.485727
 30
0.0
 10
25.995696
 20
100.485727
 30
0.0
 10
27.125213
 20
101.138044
 30
0.0
  0
SPLINE
  5
14c
100
AcDbEntity
  8
panel_dxf_import
 62
7
100
AcDbSpline
 70
8
 71
3
 72
8
 73
4
 74
0
 40
0
 40
0
 40
0
 40
0
 40
1
 40
1
 40
1
 40
1
 10
27.125213
 20
101.138044
 30
0.0
 10
28.254729
 20
101.790362
 30
0.0
 10
28.950305
 20
102.995843
 30
0.0
 10
28.949809
 20
104.300191
 30
0.0
  0
LWPOLYLINE
  5
14d
100
AcDbEntity
  8
panel_dxf_import
 62
7
100
AcDbPolyline
 90
2
 70
0
 10
3.049840
 20
127.100163
 30
0.0
 10
6.149837
 20
127.100163
 30
0.0
  0
SPLINE
  5
14e
100
AcDbEntity
  8
panel_dxf_import
 62
7
100
AcDbSpline
 70
8
 71
3
 72
8
 73
4
 74
0
 40
0
 40
0
 40
0
 40
0
 40
1
 40
1
 40
1
 40
1
 10
39.699795
 20
84.300217
 30
0.0
 10
39.700292
 20
85.604565
 30
0.0
 10
39.004715
 20
86.810046
 30
0.0
 10
37.875199
 20
87.462364
 30
0.0
  0
SPLINE
  5
14f
100
AcDbEntity
  8
panel_dxf_import
 62
7
100
AcDbSpline
 70
8
 71
3
 72
8
 73
4
 74
0
 40
0
 40
0
 40
0
 40
0
 40
1
 40
1
 40
1
 40
1
 10
37.875199
 20
87.462364
 30
0.0
 10
36.745682
 20
88.114681
 30
0.0
 10
35.353917
 20
88.114681
 30
0.0
 10
34.224401
 20
87.462364
 30
0.0
  0
SPLINE
  5
150
100
AcDbEntity
  8
panel_dxf_import
 62
7
100
AcDbSpline
 70
8
 71
3
 72
8
 73
4
 74
0
 40
0
 40
0
 40
0
 40
0
 40
1
 40
1
 40
1
 40
1
 10
34.224401
 20
87.462364
 30
0.0
 10
33.094884
 20
86.810046
 30
0.0
 10
32.399308
 20
85.604565
 30
0.0
 10
32.399804
 20
84.300217
 30
0.0
  0
SPLINE
  5
151
100
AcDbEntity
  8
panel_dxf_import
 62
7
100
AcDbSpline
 70
8
 71
3
 72
8
 73
4
 74
0
 40
0
 40
0
 40
0
 40
0
 40
1
 40
1
 40
1
 40
1
 10
32.399804
 20
84.300217
 30
0.0
 10
32.399308
 20
82.995868
 30
0.0
 10
33.094884
 20
81.790388
 30
0.0
 10
34.224401
 20
81.138070
 30
0.0
  0
SPLINE
  5
152
100
AcDbEntity
  8
panel_dxf_import
 62
7
100
AcDbSpline
 70
8
 71
3
 72
8
 73
4
 74
0
 40
0
 40
0
 40
0
 40
0
 40
1
 40
1
 40
1
 40
1
 10
34.224401
 20
81.138070
 30
0.0
 10
35.353917
 20
80.485752
 30
0.0
 10
36.745682
 20
80.485752
 30
0.0
 10
37.875199
 20
81.138070
 30
0.0
  0
SPLINE
  5
153
100
AcDbEntity
  8
panel_dxf_import
 62
7
100
AcDbSpline
 70
8
 71
3
 72
8
 73
4
 74
0
 40
0
 40
0
 40
0
 40
0
 40
1
 40
1
 40
1
 40
1
 10
37.875199
 20
81.138070
 30
0.0
 10
39.004715
 20
81.790388
 30
0.0
 10
39.700292
 20
82.995868
 30
0.0
 10
39.699795
 20
84.300217
 30
0.0
  0
LWPOLYLINE
  5
154
100
AcDbEntity
  8
panel_dxf_import
 62
7
100
AcDbPolyline
 90
1
 70
1
 10
28.949809
 20
104.300191
 30
0.0
  0
SPLINE
  5
155
100
AcDbEntity
  8
panel_dxf_import
 62
7
100
AcDbSpline
 70
8
 71
3
 72
8
 73
4
 74
0
 40
0
 40
0
 40
0
 40
0
 40
1
 40
1
 40
1
 40
1
 10
44.449787
 20
127.100163
 30
0.0
 10
43.896026
 20
127.100163
 30
0.0
 10
43.384330
 20
126.804735
 30
0.0
 10
43.107449
 20
126.325164
 30
0.0
  0
SPLINE
  5
156
100
AcDbEntity
  8
panel_dxf_import
 62
7
100
AcDbSpline
 70
8
 71
3
 72
8
 73
4
 74
0
 40
0
 40
0
 40
0
 40
0
 40
1
 40
1
 40
1
 40
1
 10
43.107449
 20
126.325164
 30
0.0
 10
42.830569
 20
125.845592
 30
0.0
 10
42.830569
 20
125.254736
 30
0.0
 10
43.107449
 20
124.775165
 30
0.0
  0
SPLINE
  5
157
100
AcDbEntity
  8
panel_dxf_import
 62
7
100
AcDbSpline
 70
8
 71
3
 72
8
 73
4
 74
0
 40
0
 40
0
 40
0
 40
0
 40
1
 40
1
 40
1
 40
1
 10
43.107449
 20
124.775165
 30
0.0
 10
43.384330
 20
124.295594
 30
0.0
 10
43.896026
 20
124.000166
 30
0.0
 10
44.449787
 20
124.000166
 30
0.0
  0
LWPOLYLINE
  5
158
100
AcDbEntity
  8
panel_dxf_import
 62
7
100
AcDbPolyline
 90
1
 70
1
 10
39.699795
 20
84.300217
 30
0.0
  0
SPLINE
  5
159
100
AcDbEntity
  8
panel_dxf_import
 62
7
100
AcDbSpline
 70
8
 71
3
 72
8
 73
4
 74
0
 40
0
 40
0
 40
0
 40
0
 40
1
 40
1
 40
1
 40
1
 10
47.549785
 20
124.000166
 30
0.0
 10
48.103546
 20
124.000166
 30
0.0
 10
48.615242
 20
124.295594
 30
0.0
 10
48.892123
 20
124.775165
 30
0.0
  0
SPLINE
  5
15a
100
AcDbEntity
  8
panel_dxf_import
 62
7
100
AcDbSpline
 70
8
 71
3
 72
8
 73
4
 74
0
 40
0
 40
0
 40
0
 40
0
 40
1
 40
1
 40
1
 40
1
 10
48.892123
 20
124.775165
 30
0.0
 10
49.169003
 20
125.254736
 30
0.0
 10
49.169003
 20
125.845592
 30
0.0
 10
48.892123
 20
126.325164
 30
0.0
  0
SPLINE
  5
15b
100
AcDbEntity
  8
panel_dxf_import
 62
7
100
AcDbSpline
 70
8
 71
3
 72
8
 73
4
 74
0
 40
0
 40
0
 40
0
 40
0
 40
1
 40
1
 40
1
 40
1
 10
48.892123
 20
126.325164
 30
0.0
 10
48.615242
 20
126.804735
 30
0.0
 10
48.103546
 20
127.100163
 30
0.0
 10
47.549785
 20
127.100163
 30
0.0
  0
LWPOLYLINE
  5
15c
100
AcDbEntity
  8
panel_dxf_import
 62
7
100
AcDbPolyline
 90
2
 70
0
 10
44.449787
 20
124.000166
 30
0.0
 10
47.549785
 20
124.000166
 30
0.0
  0
LWPOLYLINE
  5
15d
100
AcDbEntity
  8
panel_dxf_import
 62
7
100
AcDbPolyline
 90
2
 70
0
 10
44.449787
 20
127.100163
 30
0.0
 10
47.549785
 20
127.100163
 30
0.0
  0
LWPOLYLINE
  5
15e
100
AcDbEntity
  8
text
 62
7
100
AcDbPolyline
 90
2
 70
0
 10
33.337791
 20
94.722616
 30
0.0
 10
33.337791
 20
92.854300
 30
0.0
  0
LWPOLYLINE
  5
15f
100
AcDbEntity
  8
text
 62
7
100
AcDbPolyline
 90
10
 70
0
 10
33.337791
 20
94.722616
 30
0.0
 10
34.139304
 20
94.722616
 30
0.0
 10
34.404594
 20
94.632305
 30
0.0
 10
34.494905
 20
94.541994
 30
0.0
 10
34.585216
 20
94.367015
 30
0.0
 10
34.585216
 20
94.098903
 30
0.0
 10
34.494905
 20
93.921103
 30
0.0
 10
34.404594
 20
93.830792
 30
0.0
 10
34.139304
 20
93.743302
 30
0.0
 10
33.337791
 20
93.743302
 30
0.0
  0
LWPOLYLINE
  5
160
100
AcDbEntity
  8
text
 62
7
100
AcDbPolyline
 90
2
 70
0
 10
35.031132
 20
94.722616
 30
0.0
 10
35.474222
 20
92.854300
 30
0.0
  0
LWPOLYLINE
  5
161
100
AcDbEntity
  8
text
 62
7
100
AcDbPolyline
 90
2
 70
0
 10
35.917313
 20
94.722616
 30
0.0
 10
35.474222
 20
92.854300
 30
0.0
  0
LWPOLYLINE
  5
162
100
AcDbEntity
  8
text
 62
7
100
AcDbPolyline
 90
2
 70
0
 10
35.917313
 20
94.722616
 30
0.0
 10
36.363225
 20
92.854300
 30
0.0
  0
LWPOLYLINE
  5
163
100
AcDbEntity
  8
text
 62
7
100
AcDbPolyline
 90
2
 70
0
 10
36.809137
 20
94.722616
 30
0.0
 10
36.363225
 20
92.854300
 30
0.0
  0
LWPOLYLINE
  5
164
100
AcDbEntity
  8
text
 62
7
100
AcDbPolyline
 90
2
 70
0
 10
37.339711
 20
94.722616
 30
0.0
 10
37.339711
 20
92.854300
 30
0.0
  0
LWPOLYLINE
  5
165
100
AcDbEntity
  8
text
 62
7
100
AcDbPolyline
 90
2
 70
0
 10
37.339711
 20
94.722616
 30
0.0
 10
38.050913
 20
92.854300
 30
0.0
  0
LWPOLYLINE
  5
166
100
AcDbEntity
  8
text
 62
7
100
AcDbPolyline
 90
2
 70
0
 10
38.762115
 20
94.722616
 30
0.0
 10
38.050913
 20
92.854300
 30
0.0
  0
LWPOLYLINE
  5
167
100
AcDbEntity
  8
text
 62
7
100
AcDbPolyline
 90
2
 70
0
 10
38.762115
 20
94.722616
 30
0.0
 10
38.762115
 20
92.854300
 30
0.0
  0
LWPOLYLINE
  5
168
100
AcDbEntity
  8
text
 62
7
100
AcDbPolyline
 90
2
 70
0
 10
6.793591
 20
94.716716
 30
0.0
 10
6.793591
 20
92.848400
 30
0.0
  0
LWPOLYLINE
  5
169
100
AcDbEntity
  8
text
 62
7
100
AcDbPolyline
 90
2
 70
0
 10
6.793591
 20
94.716716
 30
0.0
 10
7.950705
 20
94.716716
 30
0.0
  0
LWPOLYLINE
  5
16a
100
AcDbEntity
  8
text
 62
7
100
AcDbPolyline
 90
2
 70
0
 10
6.793591
 20
93.824892
 30
0.0
 10
7.504793
 20
93.824892
 30
0.0
  0
LWPOLYLINE
  5
16b
100
AcDbEntity
  8
text
 62
7
100
AcDbPolyline
 90
2
 70
0
 10
8.393791
 20
94.716716
 30
0.0
 10
8.393791
 20
92.848400
 30
0.0
  0
LWPOLYLINE
  5
16c
100
AcDbEntity
  8
text
 62
7
100
AcDbPolyline
 90
2
 70
0
 10
9.105001
 20
94.716716
 30
0.0
 10
9.105001
 20
92.848400
 30
0.0
  0
LWPOLYLINE
  5
16d
100
AcDbEntity
  8
text
 62
7
100
AcDbPolyline
 90
2
 70
0
 10
9.105001
 20
94.716716
 30
0.0
 10
10.352426
 20
92.848400
 30
0.0
  0
LWPOLYLINE
  5
16e
100
AcDbEntity
  8
text
 62
7
100
AcDbPolyline
 90
2
 70
0
 10
10.352426
 20
94.716716
 30
0.0
 10
10.352426
 20
92.848400
 30
0.0
  0
LWPOLYLINE
  5
16f
100
AcDbEntity
  8
text
 62
7
100
AcDbPolyline
 90
2
 70
0
 10
11.060801
 20
94.716716
 30
0.0
 10
11.060801
 20
92.848400
 30
0.0
  0
LWPOLYLINE
  5
170
100
AcDbEntity
  8
text
 62
7
100
AcDbPolyline
 90
2
 70
0
 10
11.060801
 20
94.716716
 30
0.0
 10
12.217915
 20
94.716716
 30
0.0
  0
LWPOLYLINE
  5
171
100
AcDbEntity
  8
text
 62
7
100
AcDbPolyline
 90
2
 70
0
 10
11.060801
 20
93.824892
 30
0.0
 10
11.772003
 20
93.824892
 30
0.0
  0
LWPOLYLINE
  5
172
100
AcDbEntity
  8
text
 62
7
100
AcDbPolyline
 90
2
 70
0
 10
11.060801
 20
92.848400
 30
0.0
 10
12.217915
 20
92.848400
 30
0.0
  0
LWPOLYLINE
  5
173
100
AcDbEntity
  8
text
 62
7
100
AcDbPolyline
 90
2
 70
0
 10
14.170902
 20
94.716716
 30
0.0
 10
14.170902
 20
92.848400
 30
0.0
  0
LWPOLYLINE
  5
174
100
AcDbEntity
  8
text
 62
7
100
AcDbPolyline
 90
2
 70
0
 10
13.550011
 20
94.716716
 30
0.0
 10
14.794614
 20
94.716716
 30
0.0
  0
LWPOLYLINE
  5
175
100
AcDbEntity
  8
text
 62
7
100
AcDbPolyline
 90
10
 70
0
 10
15.237701
 20
94.716716
 30
0.0
 10
15.237701
 20
93.381801
 30
0.0
 10
15.328012
 20
93.115101
 30
0.0
 10
15.505812
 20
92.937300
 30
0.0
 10
15.773924
 20
92.848400
 30
0.0
 10
15.948903
 20
92.848400
 30
0.0
 10
16.217014
 20
92.937300
 30
0.0
 10
16.394815
 20
93.115101
 30
0.0
 10
16.485126
 20
93.381801
 30
0.0
 10
16.485126
 20
94.716716
 30
0.0
  0
LWPOLYLINE
  5
176
100
AcDbEntity
  8
text
 62
7
100
AcDbPolyline
 90
2
 70
0
 10
17.193491
 20
94.716716
 30
0.0
 10
17.193491
 20
92.848400
 30
0.0
  0
LWPOLYLINE
  5
177
100
AcDbEntity
  8
text
 62
7
100
AcDbPolyline
 90
2
 70
0
 10
17.193491
 20
94.716716
 30
0.0
 10
18.440916
 20
92.848400
 30
0.0
  0
LWPOLYLINE
  5
178
100
AcDbEntity
  8
text
 62
7
100
AcDbPolyline
 90
2
 70
0
 10
18.440916
 20
94.716716
 30
0.0
 10
18.440916
 20
92.848400
 30
0.0
  0
LWPOLYLINE
  5
179
100
AcDbEntity
  8
text
 62
7
100
AcDbPolyline
 90
2
 70
0
 10
19.149291
 20
94.716716
 30
0.0
 10
19.149291
 20
92.848400
 30
0.0
  0
LWPOLYLINE
  5
17a
100
AcDbEntity
  8
text
 62
7
100
AcDbPolyline
 90
2
 70
0
 10
19.149291
 20
94.716716
 30
0.0
 10
20.306405
 20
94.716716
 30
0.0
  0
LWPOLYLINE
  5
17b
100
AcDbEntity
  8
text
 62
7
100
AcDbPolyline
 90
2
 70
0
 10
19.149291
 20
93.824892
 30
0.0
 10
19.860493
 20
93.824892
 30
0.0
  0
LWPOLYLINE
  5
17c
100
AcDbEntity
  8
text
 62
7
100
AcDbPolyline
 90
2
 70
0
 10
19.149291
 20
92.848400
 30
0.0
 10
20.306405
 20
92.848400
 30
0.0
  0
LWPOLYLINE
  5
17d
100
AcDbEntity
  8
text
 62
7
100
AcDbPolyline
 90
2
 70
0
 10
17.689691
 20
115.351016
 30
0.0
 10
17.689691
 20
113.482700
 30
0.0
  0
LWPOLYLINE
  5
17e
100
AcDbEntity
  8
text
 62
7
100
AcDbPolyline
 90
2
 70
0
 10
17.689691
 20
115.351016
 30
0.0
 10
18.846805
 20
115.351016
 30
0.0
  0
LWPOLYLINE
  5
17f
100
AcDbEntity
  8
text
 62
7
100
AcDbPolyline
 90
2
 70
0
 10
17.689691
 20
114.459192
 30
0.0
 10
18.400893
 20
114.459192
 30
0.0
  0
LWPOLYLINE
  5
180
100
AcDbEntity
  8
text
 62
7
100
AcDbPolyline
 90
2
 70
0
 10
19.289891
 20
115.351016
 30
0.0
 10
19.289891
 20
113.482700
 30
0.0
  0
LWPOLYLINE
  5
181
100
AcDbEntity
  8
text
 62
7
100
AcDbPolyline
 90
10
 70
0
 10
19.289891
 20
115.351016
 30
0.0
 10
20.091404
 20
115.351016
 30
0.0
 10
20.356694
 20
115.260705
 30
0.0
 10
20.447005
 20
115.170394
 30
0.0
 10
20.537316
 20
114.995415
 30
0.0
 10
20.537316
 20
114.814793
 30
0.0
 10
20.447005
 20
114.639814
 30
0.0
 10
20.356694
 20
114.549503
 30
0.0
 10
20.091404
 20
114.459192
 30
0.0
 10
19.289891
 20
114.459192
 30
0.0
  0
LWPOLYLINE
  5
182
100
AcDbEntity
  8
text
 62
7
100
AcDbPolyline
 90
2
 70
0
 10
19.913603
 20
114.459192
 30
0.0
 10
20.537316
 20
113.482700
 30
0.0
  0
LWPOLYLINE
  5
183
100
AcDbEntity
  8
text
 62
7
100
AcDbPolyline
 90
2
 70
0
 10
21.158211
 20
115.351016
 30
0.0
 10
21.158211
 20
113.482700
 30
0.0
  0
LWPOLYLINE
  5
184
100
AcDbEntity
  8
text
 62
7
100
AcDbPolyline
 90
2
 70
0
 10
21.158211
 20
115.351016
 30
0.0
 10
22.315325
 20
115.351016
 30
0.0
  0
LWPOLYLINE
  5
185
100
AcDbEntity
  8
text
 62
7
100
AcDbPolyline
 90
2
 70
0
 10
21.158211
 20
114.459192
 30
0.0
 10
21.869413
 20
114.459192
 30
0.0
  0
LWPOLYLINE
  5
186
100
AcDbEntity
  8
text
 62
7
100
AcDbPolyline
 90
2
 70
0
 10
21.158211
 20
113.482700
 30
0.0
 10
22.315325
 20
113.482700
 30
0.0
  0
LWPOLYLINE
  5
187
100
AcDbEntity
  8
text
 62
7
100
AcDbPolyline
 90
20
 70
1
 10
23.291813
 20
115.351016
 30
0.0
 10
23.114012
 20
115.260705
 30
0.0
 10
22.936212
 20
115.082904
 30
0.0
 10
22.845901
 20
114.905104
 30
0.0
 10
22.758411
 20
114.639814
 30
0.0
 10
22.758411
 20
114.193902
 30
0.0
 10
22.845901
 20
113.928612
 30
0.0
 10
22.936212
 20
113.749401
 30
0.0
 10
23.114012
 20
113.571600
 30
0.0
 10
23.291813
 20
113.482700
 30
0.0
 10
23.647414
 20
113.482700
 30
0.0
 10
23.825214
 20
113.571600
 30
0.0
 10
24.003015
 20
113.749401
 30
0.0
 10
24.093326
 20
113.928612
 30
0.0
 10
24.180815
 20
114.193902
 30
0.0
 10
24.180815
 20
114.639814
 30
0.0
 10
24.093326
 20
114.905104
 30
0.0
 10
24.003015
 20
115.082904
 30
0.0
 10
23.825214
 20
115.260705
 30
0.0
 10
23.647414
 20
115.351016
 30
0.0
  0
LWPOLYLINE
  5
188
100
AcDbEntity
  8
text
 62
7
100
AcDbPolyline
 90
2
 70
0
 10
23.557103
 20
113.838301
 30
0.0
 10
24.093326
 20
113.304900
 30
0.0
  0
LWPOLYLINE
  5
189
100
AcDbEntity
  8
text
 62
7
100
AcDbPolyline
 90
10
 70
0
 10
24.801711
 20
115.351016
 30
0.0
 10
24.801711
 20
114.016101
 30
0.0
 10
24.892022
 20
113.749401
 30
0.0
 10
25.069822
 20
113.571600
 30
0.0
 10
25.337934
 20
113.482700
 30
0.0
 10
25.512913
 20
113.482700
 30
0.0
 10
25.781024
 20
113.571600
 30
0.0
 10
25.958825
 20
113.749401
 30
0.0
 10
26.049136
 20
114.016101
 30
0.0
 10
26.049136
 20
115.351016
 30
0.0
  0
LWPOLYLINE
  5
18a
100
AcDbEntity
  8
text
 62
7
100
AcDbPolyline
 90
2
 70
0
 10
26.757511
 20
115.351016
 30
0.0
 10
26.757511
 20
113.482700
 30
0.0
  0
LWPOLYLINE
  5
18b
100
AcDbEntity
  8
text
 62
7
100
AcDbPolyline
 90
2
 70
0
 10
26.757511
 20
115.351016
 30
0.0
 10
27.914625
 20
115.351016
 30
0.0
  0
LWPOLYLINE
  5
18c
100
AcDbEntity
  8
text
 62
7
100
AcDbPolyline
 90
2
 70
0
 10
26.757511
 20
114.459192
 30
0.0
 10
27.468713
 20
114.459192
 30
0.0
  0
LWPOLYLINE
  5
18d
100
AcDbEntity
  8
text
 62
7
100
AcDbPolyline
 90
2
 70
0
 10
26.757511
 20
113.482700
 30
0.0
 10
27.914625
 20
113.482700
 30
0.0
  0
LWPOLYLINE
  5
18e
100
AcDbEntity
  8
text
 62
7
100
AcDbPolyline
 90
2
 70
0
 10
28.445191
 20
115.351016
 30
0.0
 10
28.445191
 20
113.482700
 30
0.0
  0
LWPOLYLINE
  5
18f
100
AcDbEntity
  8
text
 62
7
100
AcDbPolyline
 90
2
 70
0
 10
28.445191
 20
115.351016
 30
0.0
 10
29.692616
 20
113.482700
 30
0.0
  0
LWPOLYLINE
  5
190
100
AcDbEntity
  8
text
 62
7
100
AcDbPolyline
 90
2
 70
0
 10
29.692616
 20
115.351016
 30
0.0
 10
29.692616
 20
113.482700
 30
0.0
  0
LWPOLYLINE
  5
191
100
AcDbEntity
  8
text
 62
7
100
AcDbPolyline
 90
18
 70
0
 10
31.648416
 20
114.905104
 30
0.0
 10
31.558105
 20
115.082904
 30
0.0
 10
31.380304
 20
115.260705
 30
0.0
 10
31.202504
 20
115.351016
 30
0.0
 10
30.846903
 20
115.351016
 30
0.0
 10
30.669102
 20
115.260705
 30
0.0
 10
30.491302
 20
115.082904
 30
0.0
 10
30.400991
 20
114.905104
 30
0.0
 10
30.313501
 20
114.639814
 30
0.0
 10
30.313501
 20
114.193902
 30
0.0
 10
30.400991
 20
113.928612
 30
0.0
 10
30.491302
 20
113.749401
 30
0.0
 10
30.669102
 20
113.571600
 30
0.0
 10
30.846903
 20
113.482700
 30
0.0
 10
31.202504
 20
113.482700
 30
0.0
 10
31.380304
 20
113.571600
 30
0.0
 10
31.558105
 20
113.749401
 30
0.0
 10
31.648416
 20
113.928612
 30
0.0
  0
LWPOLYLINE
  5
192
100
AcDbEntity
  8
text
 62
7
100
AcDbPolyline
 90
3
 70
0
 10
32.004001
 20
115.351016
 30
0.0
 10
32.715203
 20
114.459192
 30
0.0
 10
32.715203
 20
113.482700
 30
0.0
  0
LWPOLYLINE
  5
193
100
AcDbEntity
  8
text
 62
7
100
AcDbPolyline
 90
2
 70
0
 10
33.426405
 20
115.351016
 30
0.0
 10
32.715203
 20
114.459192
 30
0.0
  0
LWPOLYLINE
  5
194
100
AcDbEntity
  8
text
 62
7
100
AcDbPolyline
 90
2
 70
0
 10
2.649391
 20
14.946416
 30
0.0
 10
2.649391
 20
13.078100
 30
0.0
  0
LWPOLYLINE
  5
195
100
AcDbEntity
  8
text
 62
7
100
AcDbPolyline
 90
2
 70
0
 10
2.649391
 20
14.946416
 30
0.0
 10
3.806505
 20
14.946416
 30
0.0
  0
LWPOLYLINE
  5
196
100
AcDbEntity
  8
text
 62
7
100
AcDbPolyline
 90
2
 70
0
 10
2.649391
 20
14.054592
 30
0.0
 10
3.360593
 20
14.054592
 30
0.0
  0
LWPOLYLINE
  5
197
100
AcDbEntity
  8
text
 62
7
100
AcDbPolyline
 90
2
 70
0
 10
4.249591
 20
14.946416
 30
0.0
 10
4.249591
 20
13.078100
 30
0.0
  0
LWPOLYLINE
  5
198
100
AcDbEntity
  8
text
 62
7
100
AcDbPolyline
 90
10
 70
0
 10
4.249591
 20
14.946416
 30
0.0
 10
5.051104
 20
14.946416
 30
0.0
 10
5.316394
 20
14.856105
 30
0.0
 10
5.406705
 20
14.765794
 30
0.0
 10
5.497016
 20
14.590815
 30
0.0
 10
5.497016
 20
14.410193
 30
0.0
 10
5.406705
 20
14.235214
 30
0.0
 10
5.316394
 20
14.144903
 30
0.0
 10
5.051104
 20
14.054592
 30
0.0
 10
4.249591
 20
14.054592
 30
0.0
  0
LWPOLYLINE
  5
199
100
AcDbEntity
  8
text
 62
7
100
AcDbPolyline
 90
2
 70
0
 10
4.873303
 20
14.054592
 30
0.0
 10
5.497016
 20
13.078100
 30
0.0
  0
LWPOLYLINE
  5
19a
100
AcDbEntity
  8
text
 62
7
100
AcDbPolyline
 90
2
 70
0
 10
6.117911
 20
14.946416
 30
0.0
 10
6.117911
 20
13.078100
 30
0.0
  0
LWPOLYLINE
  5
19b
100
AcDbEntity
  8
text
 62
7
100
AcDbPolyline
 90
2
 70
0
 10
6.117911
 20
14.946416
 30
0.0
 10
7.275025
 20
14.946416
 30
0.0
  0
LWPOLYLINE
  5
19c
100
AcDbEntity
  8
text
 62
7
100
AcDbPolyline
 90
2
 70
0
 10
6.117911
 20
14.054592
 30
0.0
 10
6.829113
 20
14.054592
 30
0.0
  0
LWPOLYLINE
  5
19d
100
AcDbEntity
  8
text
 62
7
100
AcDbPolyline
 90
2
 70
0
 10
6.117911
 20
13.078100
 30
0.0
 10
7.275025
 20
13.078100
 30
0.0
  0
LWPOLYLINE
  5
19e
100
AcDbEntity
  8
text
 62
7
100
AcDbPolyline
 90
20
 70
1
 10
8.251513
 20
14.946416
 30
0.0
 10
8.073712
 20
14.856105
 30
0.0
 10
7.895912
 20
14.678304
 30
0.0
 10
7.805601
 20
14.500504
 30
0.0
 10
7.718111
 20
14.235214
 30
0.0
 10
7.718111
 20
13.789302
 30
0.0
 10
7.805601
 20
13.524012
 30
0.0
 10
7.895912
 20
13.344801
 30
0.0
 10
8.073712
 20
13.167000
 30
0.0
 10
8.251513
 20
13.078100
 30
0.0
 10
8.607114
 20
13.078100
 30
0.0
 10
8.784914
 20
13.167000
 30
0.0
 10
8.962715
 20
13.344801
 30
0.0
 10
9.053026
 20
13.524012
 30
0.0
 10
9.140515
 20
13.789302
 30
0.0
 10
9.140515
 20
14.235214
 30
0.0
 10
9.053026
 20
14.500504
 30
0.0
 10
8.962715
 20
14.678304
 30
0.0
 10
8.784914
 20
14.856105
 30
0.0
 10
8.607114
 20
14.946416
 30
0.0
  0
LWPOLYLINE
  5
19f
100
AcDbEntity
  8
text
 62
7
100
AcDbPolyline
 90
2
 70
0
 10
8.516803
 20
13.433701
 30
0.0
 10
9.053026
 20
12.900300
 30
0.0
  0
LWPOLYLINE
  5
1a0
100
AcDbEntity
  8
text
 62
7
100
AcDbPolyline
 90
18
 70
0
 10
5.718616
 20
12.210504
 30
0.0
 10
5.628305
 20
12.388304
 30
0.0
 10
5.450504
 20
12.566105
 30
0.0
 10
5.272704
 20
12.656416
 30
0.0
 10
4.917103
 20
12.656416
 30
0.0
 10
4.739302
 20
12.566105
 30
0.0
 10
4.561502
 20
12.388304
 30
0.0
 10
4.471191
 20
12.210504
 30
0.0
 10
4.383701
 20
11.945214
 30
0.0
 10
4.383701
 20
11.499302
 30
0.0
 10
4.471191
 20
11.234012
 30
0.0
 10
4.561502
 20
11.054801
 30
0.0
 10
4.739302
 20
10.877000
 30
0.0
 10
4.917103
 20
10.788100
 30
0.0
 10
5.272704
 20
10.788100
 30
0.0
 10
5.450504
 20
10.877000
 30
0.0
 10
5.628305
 20
11.054801
 30
0.0
 10
5.718616
 20
11.234012
 30
0.0
  0
LWPOLYLINE
  5
1a1
100
AcDbEntity
  8
text
 62
7
100
AcDbPolyline
 90
2
 70
0
 10
6.074221
 20
12.656416
 30
0.0
 10
6.785423
 20
10.788100
 30
0.0
  0
LWPOLYLINE
  5
1a2
100
AcDbEntity
  8
text
 62
7
100
AcDbPolyline
 90
2
 70
0
 10
7.496625
 20
12.656416
 30
0.0
 10
6.785423
 20
10.788100
 30
0.0
  0
LWPOLYLINE
  5
1a3
100
AcDbEntity
  8
text
 62
7
100
AcDbPolyline
 90
20
 70
0
 10
13.594105
 20
14.690604
 30
0.0
 10
13.416304
 20
14.868405
 30
0.0
 10
13.148193
 20
14.958716
 30
0.0
 10
12.792592
 20
14.958716
 30
0.0
 10
12.527302
 20
14.868405
 30
0.0
 10
12.349501
 20
14.690604
 30
0.0
 10
12.349501
 20
14.512804
 30
0.0
 10
12.436991
 20
14.335003
 30
0.0
 10
12.527302
 20
14.247514
 30
0.0
 10
12.705102
 20
14.157203
 30
0.0
 10
13.238504
 20
13.979402
 30
0.0
 10
13.416304
 20
13.891913
 30
0.0
 10
13.503794
 20
13.801602
 30
0.0
 10
13.594105
 20
13.623801
 30
0.0
 10
13.594105
 20
13.357101
 30
0.0
 10
13.416304
 20
13.179300
 30
0.0
 10
13.148193
 20
13.090400
 30
0.0
 10
12.792592
 20
13.090400
 30
0.0
 10
12.527302
 20
13.179300
 30
0.0
 10
12.349501
 20
13.357101
 30
0.0
  0
LWPOLYLINE
  5
1a4
100
AcDbEntity
  8
text
 62
7
100
AcDbPolyline
 90
3
 70
0
 10
13.949701
 20
14.958716
 30
0.0
 10
14.660903
 20
14.066892
 30
0.0
 10
14.660903
 20
13.090400
 30
0.0
  0
LWPOLYLINE
  5
1a5
100
AcDbEntity
  8
text
 62
7
100
AcDbPolyline
 90
2
 70
0
 10
15.372105
 20
14.958716
 30
0.0
 10
14.660903
 20
14.066892
 30
0.0
  0
LWPOLYLINE
  5
1a6
100
AcDbEntity
  8
text
 62
7
100
AcDbPolyline
 90
2
 70
0
 10
15.815201
 20
14.958716
 30
0.0
 10
15.815201
 20
13.090400
 30
0.0
  0
LWPOLYLINE
  5
1a7
100
AcDbEntity
  8
text
 62
7
100
AcDbPolyline
 90
2
 70
0
 10
15.815201
 20
14.958716
 30
0.0
 10
17.062626
 20
13.090400
 30
0.0
  0
LWPOLYLINE
  5
1a8
100
AcDbEntity
  8
text
 62
7
100
AcDbPolyline
 90
2
 70
0
 10
17.062626
 20
14.958716
 30
0.0
 10
17.062626
 20
13.090400
 30
0.0
  0
LWPOLYLINE
  5
1a9
100
AcDbEntity
  8
text
 62
7
100
AcDbPolyline
 90
18
 70
0
 10
19.018426
 20
14.512804
 30
0.0
 10
18.928115
 20
14.690604
 30
0.0
 10
18.750314
 20
14.868405
 30
0.0
 10
18.572514
 20
14.958716
 30
0.0
 10
18.216913
 20
14.958716
 30
0.0
 10
18.039112
 20
14.868405
 30
0.0
 10
17.861312
 20
14.690604
 30
0.0
 10
17.771001
 20
14.512804
 30
0.0
 10
17.683511
 20
14.247514
 30
0.0
 10
17.683511
 20
13.801602
 30
0.0
 10
17.771001
 20
13.536312
 30
0.0
 10
17.861312
 20
13.357101
 30
0.0
 10
18.039112
 20
13.179300
 30
0.0
 10
18.216913
 20
13.090400
 30
0.0
 10
18.572514
 20
13.090400
 30
0.0
 10
18.750314
 20
13.179300
 30
0.0
 10
18.928115
 20
13.357101
 30
0.0
 10
19.018426
 20
13.536312
 30
0.0
  0
LWPOLYLINE
  5
1aa
100
AcDbEntity
  8
text
 62
7
100
AcDbPolyline
 90
2
 70
0
 10
2.559091
 20
29.946916
 30
0.0
 10
2.559091
 20
28.078600
 30
0.0
  0
LWPOLYLINE
  5
1ab
100
AcDbEntity
  8
text
 62
7
100
AcDbPolyline
 90
2
 70
0
 10
3.806516
 20
29.946916
 30
0.0
 10
3.806516
 20
28.078600
 30
0.0
  0
LWPOLYLINE
  5
1ac
100
AcDbEntity
  8
text
 62
7
100
AcDbPolyline
 90
2
 70
0
 10
2.559091
 20
29.055092
 30
0.0
 10
3.806516
 20
29.055092
 30
0.0
  0
LWPOLYLINE
  5
1ad
100
AcDbEntity
  8
text
 62
7
100
AcDbPolyline
 90
2
 70
0
 10
4.960813
 20
29.946916
 30
0.0
 10
4.249611
 20
28.078600
 30
0.0
  0
LWPOLYLINE
  5
1ae
100
AcDbEntity
  8
text
 62
7
100
AcDbPolyline
 90
2
 70
0
 10
4.960813
 20
29.946916
 30
0.0
 10
5.672015
 20
28.078600
 30
0.0
  0
LWPOLYLINE
  5
1af
100
AcDbEntity
  8
text
 62
7
100
AcDbPolyline
 90
2
 70
0
 10
4.514901
 20
28.699491
 30
0.0
 10
5.406725
 20
28.699491
 30
0.0
  0
LWPOLYLINE
  5
1b0
100
AcDbEntity
  8
text
 62
7
100
AcDbPolyline
 90
2
 70
0
 10
6.115101
 20
29.946916
 30
0.0
 10
6.115101
 20
28.078600
 30
0.0
  0
LWPOLYLINE
  5
1b1
100
AcDbEntity
  8
text
 62
7
100
AcDbPolyline
 90
10
 70
0
 10
6.115101
 20
29.946916
 30
0.0
 10
6.916614
 20
29.946916
 30
0.0
 10
7.181904
 20
29.856605
 30
0.0
 10
7.272215
 20
29.766294
 30
0.0
 10
7.362526
 20
29.591315
 30
0.0
 10
7.362526
 20
29.410693
 30
0.0
 10
7.272215
 20
29.235714
 30
0.0
 10
7.181904
 20
29.145403
 30
0.0
 10
6.916614
 20
29.055092
 30
0.0
 10
6.115101
 20
29.055092
 30
0.0
  0
LWPOLYLINE
  5
1b2
100
AcDbEntity
  8
text
 62
7
100
AcDbPolyline
 90
2
 70
0
 10
6.738813
 20
29.055092
 30
0.0
 10
7.362526
 20
28.078600
 30
0.0
  0
LWPOLYLINE
  5
1b3
100
AcDbEntity
  8
text
 62
7
100
AcDbPolyline
 90
2
 70
0
 10
7.983421
 20
29.946916
 30
0.0
 10
7.983421
 20
28.078600
 30
0.0
  0
LWPOLYLINE
  5
1b4
100
AcDbEntity
  8
text
 62
7
100
AcDbPolyline
 90
12
 70
0
 10
7.983421
 20
29.946916
 30
0.0
 10
8.607133
 20
29.946916
 30
0.0
 10
8.875245
 20
29.856605
 30
0.0
 10
9.050224
 20
29.678804
 30
0.0
 10
9.140535
 20
29.501004
 30
0.0
 10
9.230846
 20
29.235714
 30
0.0
 10
9.230846
 20
28.789802
 30
0.0
 10
9.140535
 20
28.524512
 30
0.0
 10
9.050224
 20
28.345301
 30
0.0
 10
8.875245
 20
28.167500
 30
0.0
 10
8.607133
 20
28.078600
 30
0.0
 10
7.983421
 20
28.078600
 30
0.0
  0
LWPOLYLINE
  5
1b5
100
AcDbEntity
  8
text
 62
7
100
AcDbPolyline
 90
20
 70
0
 10
4.117005
 20
41.740504
 30
0.0
 10
3.939204
 20
41.918305
 30
0.0
 10
3.671093
 20
42.008616
 30
0.0
 10
3.315492
 20
42.008616
 30
0.0
 10
3.050202
 20
41.918305
 30
0.0
 10
2.872401
 20
41.740504
 30
0.0
 10
2.872401
 20
41.562704
 30
0.0
 10
2.959891
 20
41.384903
 30
0.0
 10
3.050202
 20
41.297414
 30
0.0
 10
3.228002
 20
41.207103
 30
0.0
 10
3.761404
 20
41.029302
 30
0.0
 10
3.939204
 20
40.941813
 30
0.0
 10
4.026694
 20
40.851502
 30
0.0
 10
4.117005
 20
40.673701
 30
0.0
 10
4.117005
 20
40.407001
 30
0.0
 10
3.939204
 20
40.229200
 30
0.0
 10
3.671093
 20
40.140300
 30
0.0
 10
3.315492
 20
40.140300
 30
0.0
 10
3.050202
 20
40.229200
 30
0.0
 10
2.872401
 20
40.407001
 30
0.0
  0
LWPOLYLINE
  5
1b6
100
AcDbEntity
  8
text
 62
7
100
AcDbPolyline
 90
20
 70
1
 10
5.183803
 20
42.008616
 30
0.0
 10
5.006002
 20
41.918305
 30
0.0
 10
4.828202
 20
41.740504
 30
0.0
 10
4.737891
 20
41.562704
 30
0.0
 10
4.650401
 20
41.297414
 30
0.0
 10
4.650401
 20
40.851502
 30
0.0
 10
4.737891
 20
40.586212
 30
0.0
 10
4.828202
 20
40.407001
 30
0.0
 10
5.006002
 20
40.229200
 30
0.0
 10
5.183803
 20
40.140300
 30
0.0
 10
5.539404
 20
40.140300
 30
0.0
 10
5.717204
 20
40.229200
 30
0.0
 10
5.895005
 20
40.407001
 30
0.0
 10
5.985316
 20
40.586212
 30
0.0
 10
6.072805
 20
40.851502
 30
0.0
 10
6.072805
 20
41.297414
 30
0.0
 10
5.985316
 20
41.562704
 30
0.0
 10
5.895005
 20
41.740504
 30
0.0
 10
5.717204
 20
41.918305
 30
0.0
 10
5.539404
 20
42.008616
 30
0.0
  0
LWPOLYLINE
  5
1b7
100
AcDbEntity
  8
text
 62
7
100
AcDbPolyline
 90
2
 70
0
 10
6.693701
 20
42.008616
 30
0.0
 10
6.693701
 20
40.140300
 30
0.0
  0
LWPOLYLINE
  5
1b8
100
AcDbEntity
  8
text
 62
7
100
AcDbPolyline
 90
2
 70
0
 10
6.693701
 20
42.008616
 30
0.0
 10
7.850815
 20
42.008616
 30
0.0
  0
LWPOLYLINE
  5
1b9
100
AcDbEntity
  8
text
 62
7
100
AcDbPolyline
 90
2
 70
0
 10
6.693701
 20
41.116792
 30
0.0
 10
7.404903
 20
41.116792
 30
0.0
  0
LWPOLYLINE
  5
1ba
100
AcDbEntity
  8
text
 62
7
100
AcDbPolyline
 90
2
 70
0
 10
8.649502
 20
42.008616
 30
0.0
 10
8.649502
 20
40.140300
 30
0.0
  0
LWPOLYLINE
  5
1bb
100
AcDbEntity
  8
text
 62
7
100
AcDbPolyline
 90
2
 70
0
 10
8.028611
 20
42.008616
 30
0.0
 10
9.273214
 20
42.008616
 30
0.0
  0
LWPOLYLINE
  5
1bc
100
AcDbEntity
  8
text
 62
7
100
AcDbPolyline
 90
20
 70
0
 10
11.460105
 20
35.716104
 30
0.0
 10
11.282304
 20
35.893905
 30
0.0
 10
11.014193
 20
35.984216
 30
0.0
 10
10.658592
 20
35.984216
 30
0.0
 10
10.393302
 20
35.893905
 30
0.0
 10
10.215501
 20
35.716104
 30
0.0
 10
10.215501
 20
35.538304
 30
0.0
 10
10.302991
 20
35.360503
 30
0.0
 10
10.393302
 20
35.273014
 30
0.0
 10
10.571102
 20
35.182703
 30
0.0
 10
11.104504
 20
35.004902
 30
0.0
 10
11.282304
 20
34.917413
 30
0.0
 10
11.369794
 20
34.827102
 30
0.0
 10
11.460105
 20
34.649301
 30
0.0
 10
11.460105
 20
34.382601
 30
0.0
 10
11.282304
 20
34.204800
 30
0.0
 10
11.014193
 20
34.115900
 30
0.0
 10
10.658592
 20
34.115900
 30
0.0
 10
10.393302
 20
34.204800
 30
0.0
 10
10.215501
 20
34.382601
 30
0.0
  0
LWPOLYLINE
  5
1bd
100
AcDbEntity
  8
text
 62
7
100
AcDbPolyline
 90
3
 70
0
 10
11.815701
 20
35.984216
 30
0.0
 10
12.526903
 20
35.092392
 30
0.0
 10
12.526903
 20
34.115900
 30
0.0
  0
LWPOLYLINE
  5
1be
100
AcDbEntity
  8
text
 62
7
100
AcDbPolyline
 90
2
 70
0
 10
13.238105
 20
35.984216
 30
0.0
 10
12.526903
 20
35.092392
 30
0.0
  0
LWPOLYLINE
  5
1bf
100
AcDbEntity
  8
text
 62
7
100
AcDbPolyline
 90
2
 70
0
 10
13.681201
 20
35.984216
 30
0.0
 10
13.681201
 20
34.115900
 30
0.0
  0
LWPOLYLINE
  5
1c0
100
AcDbEntity
  8
text
 62
7
100
AcDbPolyline
 90
2
 70
0
 10
13.681201
 20
35.984216
 30
0.0
 10
14.928626
 20
34.115900
 30
0.0
  0
LWPOLYLINE
  5
1c1
100
AcDbEntity
  8
text
 62
7
100
AcDbPolyline
 90
2
 70
0
 10
14.928626
 20
35.984216
 30
0.0
 10
14.928626
 20
34.115900
 30
0.0
  0
LWPOLYLINE
  5
1c2
100
AcDbEntity
  8
text
 62
7
100
AcDbPolyline
 90
18
 70
0
 10
16.884426
 20
35.538304
 30
0.0
 10
16.794115
 20
35.716104
 30
0.0
 10
16.616314
 20
35.893905
 30
0.0
 10
16.438514
 20
35.984216
 30
0.0
 10
16.082913
 20
35.984216
 30
0.0
 10
15.905112
 20
35.893905
 30
0.0
 10
15.727312
 20
35.716104
 30
0.0
 10
15.637001
 20
35.538304
 30
0.0
 10
15.549511
 20
35.273014
 30
0.0
 10
15.549511
 20
34.827102
 30
0.0
 10
15.637001
 20
34.561812
 30
0.0
 10
15.727312
 20
34.382601
 30
0.0
 10
15.905112
 20
34.204800
 30
0.0
 10
16.082913
 20
34.115900
 30
0.0
 10
16.438514
 20
34.115900
 30
0.0
 10
16.616314
 20
34.204800
 30
0.0
 10
16.794115
 20
34.382601
 30
0.0
 10
16.884426
 20
34.561812
 30
0.0
  0
LWPOLYLINE
  5
1c3
100
AcDbEntity
  8
text
 62
7
100
AcDbPolyline
 90
2
 70
0
 10
16.678091
 20
126.200816
 30
0.0
 10
16.678091
 20
124.332500
 30
0.0
  0
LWPOLYLINE
  5
1c4
100
AcDbEntity
  8
text
 62
7
100
AcDbPolyline
 90
10
 70
0
 10
16.678091
 20
126.200816
 30
0.0
 10
17.479604
 20
126.200816
 30
0.0
 10
17.744894
 20
126.110505
 30
0.0
 10
17.835205
 20
126.020194
 30
0.0
 10
17.925516
 20
125.845215
 30
0.0
 10
17.925516
 20
125.664593
 30
0.0
 10
17.835205
 20
125.489614
 30
0.0
 10
17.744894
 20
125.399303
 30
0.0
 10
17.479604
 20
125.308992
 30
0.0
 10
16.678091
 20
125.308992
 30
0.0
  0
LWPOLYLINE
  5
1c5
100
AcDbEntity
  8
text
 62
7
100
AcDbPolyline
 90
2
 70
0
 10
17.301803
 20
125.308992
 30
0.0
 10
17.925516
 20
124.332500
 30
0.0
  0
LWPOLYLINE
  5
1c6
100
AcDbEntity
  8
text
 62
7
100
AcDbPolyline
 90
16
 70
1
 10
18.902012
 20
125.577103
 30
0.0
 10
18.727033
 20
125.489614
 30
0.0
 10
18.546411
 20
125.308992
 30
0.0
 10
18.458921
 20
125.043702
 30
0.0
 10
18.458921
 20
124.865901
 30
0.0
 10
18.546411
 20
124.599201
 30
0.0
 10
18.727033
 20
124.421400
 30
0.0
 10
18.902012
 20
124.332500
 30
0.0
 10
19.170123
 20
124.332500
 30
0.0
 10
19.347924
 20
124.421400
 30
0.0
 10
19.525724
 20
124.599201
 30
0.0
 10
19.613214
 20
124.865901
 30
0.0
 10
19.613214
 20
125.043702
 30
0.0
 10
19.525724
 20
125.308992
 30
0.0
 10
19.347924
 20
125.489614
 30
0.0
 10
19.170123
 20
125.577103
 30
0.0
  0
LWPOLYLINE
  5
1c7
100
AcDbEntity
  8
text
 62
7
100
AcDbPolyline
 90
2
 70
0
 10
20.234101
 20
126.200816
 30
0.0
 10
20.234101
 20
124.332500
 30
0.0
  0
LWPOLYLINE
  5
1c8
100
AcDbEntity
  8
text
 62
7
100
AcDbPolyline
 90
14
 70
0
 10
20.234101
 20
125.308992
 30
0.0
 10
20.414723
 20
125.489614
 30
0.0
 10
20.589702
 20
125.577103
 30
0.0
 10
20.857813
 20
125.577103
 30
0.0
 10
21.035614
 20
125.489614
 30
0.0
 10
21.213414
 20
125.308992
 30
0.0
 10
21.300904
 20
125.043702
 30
0.0
 10
21.300904
 20
124.865901
 30
0.0
 10
21.213414
 20
124.599201
 30
0.0
 10
21.035614
 20
124.421400
 30
0.0
 10
20.857813
 20
124.332500
 30
0.0
 10
20.589702
 20
124.332500
 30
0.0
 10
20.414723
 20
124.421400
 30
0.0
 10
20.234101
 20
124.599201
 30
0.0
  0
LWPOLYLINE
  5
1c9
100
AcDbEntity
  8
text
 62
7
100
AcDbPolyline
 90
16
 70
1
 10
22.277392
 20
125.577103
 30
0.0
 10
22.102413
 20
125.489614
 30
0.0
 10
21.921791
 20
125.308992
 30
0.0
 10
21.834301
 20
125.043702
 30
0.0
 10
21.834301
 20
124.865901
 30
0.0
 10
21.921791
 20
124.599201
 30
0.0
 10
22.102413
 20
124.421400
 30
0.0
 10
22.277392
 20
124.332500
 30
0.0
 10
22.545503
 20
124.332500
 30
0.0
 10
22.723304
 20
124.421400
 30
0.0
 10
22.901104
 20
124.599201
 30
0.0
 10
22.988594
 20
124.865901
 30
0.0
 10
22.988594
 20
125.043702
 30
0.0
 10
22.901104
 20
125.308992
 30
0.0
 10
22.723304
 20
125.489614
 30
0.0
 10
22.545503
 20
125.577103
 30
0.0
  0
LWPOLYLINE
  5
1ca
100
AcDbEntity
  8
text
 62
7
100
AcDbPolyline
 90
5
 70
0
 10
23.699802
 20
126.200816
 30
0.0
 10
23.699802
 20
124.688101
 30
0.0
 10
23.790113
 20
124.421400
 30
0.0
 10
23.965092
 20
124.332500
 30
0.0
 10
24.145714
 20
124.332500
 30
0.0
  0
LWPOLYLINE
  5
1cb
100
AcDbEntity
  8
text
 62
7
100
AcDbPolyline
 90
2
 70
0
 10
23.434512
 20
125.577103
 30
0.0
 10
24.055403
 20
125.577103
 30
0.0
  0
LWPOLYLINE
  5
1cc
100
AcDbEntity
  8
text
 62
7
100
AcDbPolyline
 90
2
 70
0
 10
24.676291
 20
126.200816
 30
0.0
 10
24.676291
 20
124.332500
 30
0.0
  0
LWPOLYLINE
  5
1cd
100
AcDbEntity
  8
text
 62
7
100
AcDbPolyline
 90
12
 70
0
 10
24.676291
 20
126.200816
 30
0.0
 10
25.300003
 20
126.200816
 30
0.0
 10
25.568115
 20
126.110505
 30
0.0
 10
25.743094
 20
125.932704
 30
0.0
 10
25.833405
 20
125.754904
 30
0.0
 10
25.923716
 20
125.489614
 30
0.0
 10
25.923716
 20
125.043702
 30
0.0
 10
25.833405
 20
124.778412
 30
0.0
 10
25.743094
 20
124.599201
 30
0.0
 10
25.568115
 20
124.421400
 30
0.0
 10
25.300003
 20
124.332500
 30
0.0
 10
24.676291
 20
124.332500
 30
0.0
  0
LWPOLYLINE
  5
1ce
100
AcDbEntity
  8
text
 62
7
100
AcDbPolyline
 90
4
 70
1
 10
26.457121
 20
126.200816
 30
0.0
 10
26.544611
 20
126.110505
 30
0.0
 10
26.634922
 20
126.200816
 30
0.0
 10
26.544611
 20
126.288305
 30
0.0
  0
LWPOLYLINE
  5
1cf
100
AcDbEntity
  8
text
 62
7
100
AcDbPolyline
 90
2
 70
0
 10
26.544611
 20
125.577103
 30
0.0
 10
26.544611
 20
124.332500
 30
0.0
  0
LWPOLYLINE
  5
1d0
100
AcDbEntity
  8
text
 62
7
100
AcDbPolyline
 90
2
 70
0
 10
28.235104
 20
125.577103
 30
0.0
 10
28.235104
 20
124.332500
 30
0.0
  0
LWPOLYLINE
  5
1d1
100
AcDbEntity
  8
text
 62
7
100
AcDbPolyline
 90
14
 70
0
 10
28.235104
 20
125.308992
 30
0.0
 10
28.057304
 20
125.489614
 30
0.0
 10
27.879503
 20
125.577103
 30
0.0
 10
27.611392
 20
125.577103
 30
0.0
 10
27.436413
 20
125.489614
 30
0.0
 10
27.255791
 20
125.308992
 30
0.0
 10
27.168301
 20
125.043702
 30
0.0
 10
27.168301
 20
124.865901
 30
0.0
 10
27.255791
 20
124.599201
 30
0.0
 10
27.436413
 20
124.421400
 30
0.0
 10
27.611392
 20
124.332500
 30
0.0
 10
27.879503
 20
124.332500
 30
0.0
 10
28.057304
 20
124.421400
 30
0.0
 10
28.235104
 20
124.599201
 30
0.0
  0
LWPOLYLINE
  5
1d2
100
AcDbEntity
  8
text
 62
7
100
AcDbPolyline
 90
2
 70
0
 10
28.943491
 20
126.200816
 30
0.0
 10
28.943491
 20
124.332500
 30
0.0
  0
LWPOLYLINE
  5
1d3
100
AcDbEntity
  8
text
 62
7
100
AcDbPolyline
 90
16
 70
1
 10
30.010292
 20
125.577103
 30
0.0
 10
29.835313
 20
125.489614
 30
0.0
 10
29.654691
 20
125.308992
 30
0.0
 10
29.567201
 20
125.043702
 30
0.0
 10
29.567201
 20
124.865901
 30
0.0
 10
29.654691
 20
124.599201
 30
0.0
 10
29.835313
 20
124.421400
 30
0.0
 10
30.010292
 20
124.332500
 30
0.0
 10
30.278403
 20
124.332500
 30
0.0
 10
30.456204
 20
124.421400
 30
0.0
 10
30.634004
 20
124.599201
 30
0.0
 10
30.721494
 20
124.865901
 30
0.0
 10
30.721494
 20
125.043702
 30
0.0
 10
30.634004
 20
125.308992
 30
0.0
 10
30.456204
 20
125.489614
 30
0.0
 10
30.278403
 20
125.577103
 30
0.0
  0
LWPOLYLINE
  5
1d4
100
AcDbEntity
  8
text
 62
7
100
AcDbPolyline
 90
7
 70
0
 10
32.321704
 20
125.577103
 30
0.0
 10
32.321704
 20
124.154700
 30
0.0
 10
32.234215
 20
123.886588
 30
0.0
 10
32.143904
 20
123.799099
 30
0.0
 10
31.966103
 20
123.711609
 30
0.0
 10
31.697992
 20
123.711609
 30
0.0
 10
31.523013
 20
123.799099
 30
0.0
  0
LWPOLYLINE
  5
1d5
100
AcDbEntity
  8
text
 62
7
100
AcDbPolyline
 90
14
 70
0
 10
32.321704
 20
125.308992
 30
0.0
 10
32.143904
 20
125.489614
 30
0.0
 10
31.966103
 20
125.577103
 30
0.0
 10
31.697992
 20
125.577103
 30
0.0
 10
31.523013
 20
125.489614
 30
0.0
 10
31.342391
 20
125.308992
 30
0.0
 10
31.254901
 20
125.043702
 30
0.0
 10
31.254901
 20
124.865901
 30
0.0
 10
31.342391
 20
124.599201
 30
0.0
 10
31.523013
 20
124.421400
 30
0.0
 10
31.697992
 20
124.332500
 30
0.0
 10
31.966103
 20
124.332500
 30
0.0
 10
32.143904
 20
124.421400
 30
0.0
 10
32.321704
 20
124.599201
 30
0.0
  0
LWPOLYLINE
  5
1d6
100
AcDbEntity
  8
text
 62
7
100
AcDbPolyline
 90
17
 70
0
 10
33.921915
 20
125.308992
 30
0.0
 10
33.831604
 20
125.489614
 30
0.0
 10
33.566314
 20
125.577103
 30
0.0
 10
33.298202
 20
125.577103
 30
0.0
 10
33.030091
 20
125.489614
 30
0.0
 10
32.942601
 20
125.308992
 30
0.0
 10
33.030091
 20
125.134013
 30
0.0
 10
33.210713
 20
125.043702
 30
0.0
 10
33.653803
 20
124.953391
 30
0.0
 10
33.831604
 20
124.865901
 30
0.0
 10
33.921915
 20
124.688101
 30
0.0
 10
33.921915
 20
124.599201
 30
0.0
 10
33.831604
 20
124.421400
 30
0.0
 10
33.566314
 20
124.332500
 30
0.0
 10
33.298202
 20
124.332500
 30
0.0
 10
33.030091
 20
124.421400
 30
0.0
 10
32.942601
 20
124.599201
 30
0.0
  0
LWPOLYLINE
  5
1d7
100
AcDbEntity
  8
text
 62
7
100
AcDbPolyline
 90
2
 70
0
 10
16.987101
 20
122.934116
 30
0.0
 10
17.698303
 20
121.065800
 30
0.0
  0
LWPOLYLINE
  5
1d8
100
AcDbEntity
  8
text
 62
7
100
AcDbPolyline
 90
2
 70
0
 10
18.409505
 20
122.934116
 30
0.0
 10
17.698303
 20
121.065800
 30
0.0
  0
LWPOLYLINE
  5
1d9
100
AcDbEntity
  8
text
 62
7
100
AcDbPolyline
 90
18
 70
0
 10
20.100016
 20
122.488204
 30
0.0
 10
20.009705
 20
122.666004
 30
0.0
 10
19.831904
 20
122.843805
 30
0.0
 10
19.654104
 20
122.934116
 30
0.0
 10
19.298503
 20
122.934116
 30
0.0
 10
19.120702
 20
122.843805
 30
0.0
 10
18.942902
 20
122.666004
 30
0.0
 10
18.852591
 20
122.488204
 30
0.0
 10
18.765101
 20
122.222914
 30
0.0
 10
18.765101
 20
121.777002
 30
0.0
 10
18.852591
 20
121.511712
 30
0.0
 10
18.942902
 20
121.332501
 30
0.0
 10
19.120702
 20
121.154700
 30
0.0
 10
19.298503
 20
121.065800
 30
0.0
 10
19.654104
 20
121.065800
 30
0.0
 10
19.831904
 20
121.154700
 30
0.0
 10
20.009705
 20
121.332501
 30
0.0
 10
20.100016
 20
121.511712
 30
0.0
  0
LWPOLYLINE
  5
1da
100
AcDbEntity
  8
text
 62
7
100
AcDbPolyline
 90
20
 70
1
 10
21.166823
 20
122.934116
 30
0.0
 10
20.989022
 20
122.843805
 30
0.0
 10
20.811222
 20
122.666004
 30
0.0
 10
20.720911
 20
122.488204
 30
0.0
 10
20.633421
 20
122.222914
 30
0.0
 10
20.633421
 20
121.777002
 30
0.0
 10
20.720911
 20
121.511712
 30
0.0
 10
20.811222
 20
121.332501
 30
0.0
 10
20.989022
 20
121.154700
 30
0.0
 10
21.166823
 20
121.065800
 30
0.0
 10
21.522424
 20
121.065800
 30
0.0
 10
21.700224
 20
121.154700
 30
0.0
 10
21.878025
 20
121.332501
 30
0.0
 10
21.968336
 20
121.511712
 30
0.0
 10
22.055825
 20
121.777002
 30
0.0
 10
22.055825
 20
122.222914
 30
0.0
 10
21.968336
 20
122.488204
 30
0.0
 10
21.878025
 20
122.666004
 30
0.0
 10
21.700224
 20
122.843805
 30
0.0
 10
21.522424
 20
122.934116
 30
0.0
  0
LWPOLYLINE
  5
1db
100
AcDbEntity
  8
text
 62
7
100
AcDbPolyline
 90
2
 70
0
 10
24.189433
 20
122.934116
 30
0.0
 10
23.478231
 20
121.065800
 30
0.0
  0
LWPOLYLINE
  5
1dc
100
AcDbEntity
  8
text
 62
7
100
AcDbPolyline
 90
2
 70
0
 10
24.189433
 20
122.934116
 30
0.0
 10
24.900635
 20
121.065800
 30
0.0
  0
LWPOLYLINE
  5
1dd
100
AcDbEntity
  8
text
 62
7
100
AcDbPolyline
 90
2
 70
0
 10
23.743521
 20
121.686691
 30
0.0
 10
24.635345
 20
121.686691
 30
0.0
  0
LWPOLYLINE
  5
1de
100
AcDbEntity
  8
text
 62
7
100
AcDbPolyline
 90
20
 70
0
 10
26.500835
 20
122.666004
 30
0.0
 10
26.323034
 20
122.843805
 30
0.0
 10
26.054923
 20
122.934116
 30
0.0
 10
25.699322
 20
122.934116
 30
0.0
 10
25.434032
 20
122.843805
 30
0.0
 10
25.256231
 20
122.666004
 30
0.0
 10
25.256231
 20
122.488204
 30
0.0
 10
25.343721
 20
122.310403
 30
0.0
 10
25.434032
 20
122.222914
 30
0.0
 10
25.611832
 20
122.132603
 30
0.0
 10
26.145234
 20
121.954802
 30
0.0
 10
26.323034
 20
121.867313
 30
0.0
 10
26.410524
 20
121.777002
 30
0.0
 10
26.500835
 20
121.599201
 30
0.0
 10
26.500835
 20
121.332501
 30
0.0
 10
26.323034
 20
121.154700
 30
0.0
 10
26.054923
 20
121.065800
 30
0.0
 10
25.699322
 20
121.065800
 30
0.0
 10
25.434032
 20
121.154700
 30
0.0
 10
25.256231
 20
121.332501
 30
0.0
  0
LWPOLYLINE
  5
1df
100
AcDbEntity
  8
text
 62
7
100
AcDbPolyline
 90
15
 70
0
 10
27.212042
 20
122.934116
 30
0.0
 10
28.188534
 20
122.934116
 30
0.0
 10
27.657954
 20
122.222914
 30
0.0
 10
27.923244
 20
122.222914
 30
0.0
 10
28.101044
 20
122.132603
 30
0.0
 10
28.188534
 20
122.042292
 30
0.0
 10
28.278845
 20
121.777002
 30
0.0
 10
28.278845
 20
121.599201
 30
0.0
 10
28.188534
 20
121.332501
 30
0.0
 10
28.013555
 20
121.154700
 30
0.0
 10
27.745443
 20
121.065800
 30
0.0
 10
27.477332
 20
121.065800
 30
0.0
 10
27.212042
 20
121.154700
 30
0.0
 10
27.121731
 20
121.243600
 30
0.0
 10
27.034241
 20
121.421401
 30
0.0
  0
LWPOLYLINE
  5
1e0
100
AcDbEntity
  8
text
 62
7
100
AcDbPolyline
 90
15
 70
0
 10
28.990002
 20
122.934116
 30
0.0
 10
29.966494
 20
122.934116
 30
0.0
 10
29.435914
 20
122.222914
 30
0.0
 10
29.701204
 20
122.222914
 30
0.0
 10
29.879004
 20
122.132603
 30
0.0
 10
29.966494
 20
122.042292
 30
0.0
 10
30.056805
 20
121.777002
 30
0.0
 10
30.056805
 20
121.599201
 30
0.0
 10
29.966494
 20
121.332501
 30
0.0
 10
29.791515
 20
121.154700
 30
0.0
 10
29.523403
 20
121.065800
 30
0.0
 10
29.255292
 20
121.065800
 30
0.0
 10
28.990002
 20
121.154700
 30
0.0
 10
28.899691
 20
121.243600
 30
0.0
 10
28.812201
 20
121.421401
 30
0.0
  0
LWPOLYLINE
  5
1e1
100
AcDbEntity
  8
text
 62
7
100
AcDbPolyline
 90
3
 70
0
 10
31.479204
 20
122.934116
 30
0.0
 10
30.590201
 20
121.686691
 30
0.0
 10
31.925116
 20
121.686691
 30
0.0
  0
LWPOLYLINE
  5
1e2
100
AcDbEntity
  8
text
 62
7
100
AcDbPolyline
 90
2
 70
0
 10
31.479204
 20
122.934116
 30
0.0
 10
31.479204
 20
121.065800
 30
0.0
  0
LWPOLYLINE
  5
1e3
100
AcDbEntity
  8
text
 62
7
100
AcDbPolyline
 90
16
 70
1
 10
32.901703
 20
122.934116
 30
0.0
 10
32.636413
 20
122.843805
 30
0.0
 10
32.455791
 20
122.578515
 30
0.0
 10
32.368301
 20
122.132603
 30
0.0
 10
32.368301
 20
121.867313
 30
0.0
 10
32.455791
 20
121.421401
 30
0.0
 10
32.636413
 20
121.154700
 30
0.0
 10
32.901703
 20
121.065800
 30
0.0
 10
33.079503
 20
121.065800
 30
0.0
 10
33.347615
 20
121.154700
 30
0.0
 10
33.522594
 20
121.421401
 30
0.0
 10
33.612905
 20
121.867313
 30
0.0
 10
33.612905
 20
122.132603
 30
0.0
 10
33.522594
 20
122.578515
 30
0.0
 10
33.347615
 20
122.843805
 30
0.0
 10
33.079503
 20
122.934116
 30
0.0
  0
LWPOLYLINE
  5
1e4
100
AcDbEntity
  8
text
 62
7
100
AcDbPolyline
 90
7
 70
0
 10
22.000000
 20
13.000000
 30
0.0
 10
22.000000
 20
15.000510
 30
0.0
 10
24.000000
 20
13.000000
 30
0.0
 10
24.000000
 20
15.000510
 30
0.0
 10
26.000000
 20
13.000000
 30
0.0
 10
26.000000
 20
15.000510
 30
0.0
 10
27.999999
 20
13.000000
 30
0.0
  0
LWPOLYLINE
  5
1e5
100
AcDbEntity
  8
text
 62
7
100
AcDbPolyline
 90
7
 70
0
 10
32.260999
 20
13.000000
 30
0.0
 10
33.260999
 20
15.000000
 30
0.0
 10
34.260997
 20
13.000000
 30
0.0
 10
35.260998
 20
15.000000
 30
0.0
 10
36.260999
 20
13.000000
 30
0.0
 10
37.260999
 20
15.000000
 30
0.0
 10
38.260997
 20
13.000000
 30
0.0
  0
LWPOLYLINE
  5
1e6
100
AcDbEntity
  8
text
 62
7
100
AcDbPolyline
 90
6
 70
0
 10
43.000001
 20
13.000000
 30
0.0
 10
43.000001
 20
15.000510
 30
0.0
 10
44.999999
 20
15.000510
 30
0.0
 10
44.999999
 20
13.000000
 30
0.0
 10
47.000001
 20
13.000000
 30
0.0
 10
47.000001
 20
15.000000
 30
0.0
  0
LWPOLYLINE
  5
1e7
100
AcDbEntity
  8
text
 62
7
100
AcDbPolyline
 90
16
 70
1
 10
21.686103
 20
26.967316
 30
0.0
 10
21.420813
 20
26.877005
 30
0.0
 10
21.240191
 20
26.611715
 30
0.0
 10
21.152701
 20
26.165803
 30
0.0
 10
21.152701
 20
25.900513
 30
0.0
 10
21.240191
 20
25.454601
 30
0.0
 10
21.420813
 20
25.187900
 30
0.0
 10
21.686103
 20
25.099000
 30
0.0
 10
21.863903
 20
25.099000
 30
0.0
 10
22.132015
 20
25.187900
 30
0.0
 10
22.306994
 20
25.454601
 30
0.0
 10
22.397305
 20
25.900513
 30
0.0
 10
22.397305
 20
26.165803
 30
0.0
 10
22.306994
 20
26.611715
 30
0.0
 10
22.132015
 20
26.877005
 30
0.0
 10
21.863903
 20
26.967316
 30
0.0
  0
LWPOLYLINE
  5
1e8
100
AcDbEntity
  8
text
 62
7
100
AcDbPolyline
 90
2
 70
0
 10
23.018191
 20
25.900513
 30
0.0
 10
24.621217
 20
25.900513
 30
0.0
  0
LWPOLYLINE
  5
1e9
100
AcDbEntity
  8
text
 62
7
100
AcDbPolyline
 90
4
 70
0
 10
25.510223
 20
26.611715
 30
0.0
 10
25.685202
 20
26.699204
 30
0.0
 10
25.953313
 20
26.967316
 30
0.0
 10
25.953313
 20
25.099000
 30
0.0
  0
LWPOLYLINE
  5
1ea
100
AcDbEntity
  8
text
 62
7
100
AcDbPolyline
 90
16
 70
1
 10
27.553523
 20
26.967316
 30
0.0
 10
27.288233
 20
26.877005
 30
0.0
 10
27.107611
 20
26.611715
 30
0.0
 10
27.020121
 20
26.165803
 30
0.0
 10
27.020121
 20
25.900513
 30
0.0
 10
27.107611
 20
25.454601
 30
0.0
 10
27.288233
 20
25.187900
 30
0.0
 10
27.553523
 20
25.099000
 30
0.0
 10
27.731323
 20
25.099000
 30
0.0
 10
27.999435
 20
25.187900
 30
0.0
 10
28.174414
 20
25.454601
 30
0.0
 10
28.264725
 20
25.900513
 30
0.0
 10
28.264725
 20
26.165803
 30
0.0
 10
28.174414
 20
26.611715
 30
0.0
 10
27.999435
 20
26.877005
 30
0.0
 10
27.731323
 20
26.967316
 30
0.0
  0
LWPOLYLINE
  5
1eb
100
AcDbEntity
  8
text
 62
7
100
AcDbPolyline
 90
2
 70
0
 10
28.620321
 20
26.967316
 30
0.0
 10
29.331523
 20
25.099000
 30
0.0
  0
LWPOLYLINE
  5
1ec
100
AcDbEntity
  8
text
 62
7
100
AcDbPolyline
 90
2
 70
0
 10
30.042725
 20
26.967316
 30
0.0
 10
29.331523
 20
25.099000
 30
0.0
  0
LWPOLYLINE
  5
1ed
100
AcDbEntity
  8
logo
 62
7
100
AcDbPolyline
 90
19
 70
0
 10
22.653201
 20
8.493070
 30
0.0
 10
22.874174
 20
8.382586
 30
0.0
 10
22.947831
 20
8.272101
 30
0.0
 10
23.021489
 20
8.051133
 30
0.0
 10
23.021489
 20
7.719680
 30
0.0
 10
22.947831
 20
7.498711
 30
0.0
 10
22.874174
 20
7.388228
 30
0.0
 10
22.726858
 20
7.277743
 30
0.0
 10
22.137613
 20
7.277743
 30
0.0
 10
22.137613
 20
9.597913
 30
0.0
 10
22.653201
 20
9.597913
 30
0.0
 10
22.800516
 20
9.487428
 30
0.0
 10
22.874174
 20
9.376945
 30
0.0
 10
22.947831
 20
9.155976
 30
0.0
 10
22.947831
 20
8.935008
 30
0.0
 10
22.874174
 20
8.714038
 30
0.0
 10
22.800516
 20
8.603555
 30
0.0
 10
22.653201
 20
8.493070
 30
0.0
 10
22.137613
 20
8.493070
 30
0.0
  0
LWPOLYLINE
  5
1ee
100
AcDbEntity
  8
logo
 62
7
100
AcDbPolyline
 90
3
 70
0
 10
24.420954
 20
7.277743
 30
0.0
 10
23.684393
 20
7.277743
 30
0.0
 10
23.684393
 20
9.597913
 30
0.0
  0
LWPOLYLINE
  5
1ef
100
AcDbEntity
  8
logo
 62
7
100
AcDbPolyline
 90
2
 70
0
 10
24.936557
 20
8.493070
 30
0.0
 10
25.452145
 20
8.493070
 30
0.0
  0
LWPOLYLINE
  5
1f0
100
AcDbEntity
  8
logo
 62
7
100
AcDbPolyline
 90
4
 70
0
 10
25.673118
 20
7.277743
 30
0.0
 10
24.936557
 20
7.277743
 30
0.0
 10
24.936557
 20
9.597913
 30
0.0
 10
25.673118
 20
9.597913
 30
0.0
  0
LWPOLYLINE
  5
1f1
100
AcDbEntity
  8
logo
 62
7
100
AcDbPolyline
 90
2
 70
0
 10
26.336022
 20
8.493070
 30
0.0
 10
26.851610
 20
8.493070
 30
0.0
  0
LWPOLYLINE
  5
1f2
100
AcDbEntity
  8
logo
 62
7
100
AcDbPolyline
 90
4
 70
0
 10
27.072583
 20
7.277743
 30
0.0
 10
26.336022
 20
7.277743
 30
0.0
 10
26.336022
 20
9.597913
 30
0.0
 10
27.072583
 20
9.597913
 30
0.0
  0
LWPOLYLINE
  5
1f3
100
AcDbEntity
  8
logo
 62
7
100
AcDbPolyline
 90
11
 70
0
 10
27.735487
 20
7.277743
 30
0.0
 10
27.735487
 20
9.597913
 30
0.0
 10
28.324733
 20
9.597913
 30
0.0
 10
28.472048
 20
9.487428
 30
0.0
 10
28.545705
 20
9.376945
 30
0.0
 10
28.619363
 20
9.155976
 30
0.0
 10
28.619363
 20
8.824523
 30
0.0
 10
28.545705
 20
8.603555
 30
0.0
 10
28.472048
 20
8.493070
 30
0.0
 10
28.324733
 20
8.382586
 30
0.0
 10
27.735487
 20
8.382586
 30
0.0
  0
LWPOLYLINE
  5
1f4
100
AcDbEntity
  8
logo
 62
7
100
AcDbPolyline
 90
19
 70
0
 10
22.432243
 20
5.554188
 30
0.0
 10
22.653201
 20
5.443704
 30
0.0
 10
22.726858
 20
5.333219
 30
0.0
 10
22.800516
 20
5.112251
 30
0.0
 10
22.800516
 20
4.780798
 30
0.0
 10
22.726858
 20
4.559829
 30
0.0
 10
22.653201
 20
4.449346
 30
0.0
 10
22.505901
 20
4.338861
 30
0.0
 10
21.916640
 20
4.338861
 30
0.0
 10
21.916640
 20
6.659031
 30
0.0
 10
22.432243
 20
6.659031
 30
0.0
 10
22.579558
 20
6.548546
 30
0.0
 10
22.653201
 20
6.438063
 30
0.0
 10
22.726858
 20
6.217094
 30
0.0
 10
22.726858
 20
5.996126
 30
0.0
 10
22.653201
 20
5.775156
 30
0.0
 10
22.579558
 20
5.664673
 30
0.0
 10
22.432243
 20
5.554188
 30
0.0
 10
21.916640
 20
5.554188
 30
0.0
  0
LWPOLYLINE
  5
1f5
100
AcDbEntity
  8
logo
 62
7
100
AcDbPolyline
 90
3
 70
0
 10
24.199981
 20
4.338861
 30
0.0
 10
23.463420
 20
4.338861
 30
0.0
 10
23.463420
 20
6.659031
 30
0.0
  0
LWPOLYLINE
  5
1f6
100
AcDbEntity
  8
logo
 62
7
100
AcDbPolyline
 90
16
 70
1
 10
25.010200
 20
6.659031
 30
0.0
 10
25.304830
 20
6.659031
 30
0.0
 10
25.452145
 20
6.548546
 30
0.0
 10
25.599461
 20
6.327578
 30
0.0
 10
25.673118
 20
5.885641
 30
0.0
 10
25.673118
 20
5.112251
 30
0.0
 10
25.599461
 20
4.670314
 30
0.0
 10
25.452145
 20
4.449346
 30
0.0
 10
25.304830
 20
4.338861
 30
0.0
 10
25.010200
 20
4.338861
 30
0.0
 10
24.862900
 20
4.449346
 30
0.0
 10
24.715584
 20
4.670314
 30
0.0
 10
24.641927
 20
5.112251
 30
0.0
 10
24.641927
 20
5.885641
 30
0.0
 10
24.715584
 20
6.327578
 30
0.0
 10
24.862900
 20
6.548546
 30
0.0
  0
LWPOLYLINE
  5
1f7
100
AcDbEntity
  8
logo
 62
7
100
AcDbPolyline
 90
16
 70
1
 10
26.630637
 20
6.659031
 30
0.0
 10
26.925268
 20
6.659031
 30
0.0
 10
27.072583
 20
6.548546
 30
0.0
 10
27.219898
 20
6.327578
 30
0.0
 10
27.293541
 20
5.885641
 30
0.0
 10
27.293541
 20
5.112251
 30
0.0
 10
27.219898
 20
4.670314
 30
0.0
 10
27.072583
 20
4.449346
 30
0.0
 10
26.925268
 20
4.338861
 30
0.0
 10
26.630637
 20
4.338861
 30
0.0
 10
26.483337
 20
4.449346
 30
0.0
 10
26.336022
 20
4.670314
 30
0.0
 10
26.262364
 20
5.112251
 30
0.0
 10
26.262364
 20
5.885641
 30
0.0
 10
26.336022
 20
6.327578
 30
0.0
 10
26.483337
 20
6.548546
 30
0.0
  0
LWPOLYLINE
  5
1f8
100
AcDbEntity
  8
logo
 62
7
100
AcDbPolyline
 90
11
 70
0
 10
27.956460
 20
4.338861
 30
0.0
 10
27.956460
 20
6.659031
 30
0.0
 10
28.545705
 20
6.659031
 30
0.0
 10
28.693021
 20
6.548546
 30
0.0
 10
28.766678
 20
6.438063
 30
0.0
 10
28.840321
 20
6.217094
 30
0.0
 10
28.840321
 20
5.885641
 30
0.0
 10
28.766678
 20
5.664673
 30
0.0
 10
28.693021
 20
5.554188
 30
0.0
 10
28.545705
 20
5.443704
 30
0.0
 10
27.956460
 20
5.443704
 30
0.0
  0
LWPOLYLINE
  5
1f9
100
AcDbEntity
  8
logo
 62
7
100
AcDbPolyline
 90
2
 70
0
 10
20.841612
 20
9.823373
 30
0.0
 10
21.358298
 20
10.155889
 30
0.0
  0
LWPOLYLINE
  5
1fa
100
AcDbEntity
  8
logo
 62
7
100
AcDbPolyline
 90
2
 70
0
 10
20.428003
 20
4.844941
 30
0.0
 10
20.391437
 20
5.362528
 30
0.0
  0
LWPOLYLINE
  5
1fb
100
AcDbEntity
  8
logo
 62
7
100
AcDbPolyline
 90
2
 70
0
 10
20.387477
 20
3.725532
 30
0.0
 10
20.683964
 20
4.363148
 30
0.0
  0
LWPOLYLINE
  5
1fc
100
AcDbEntity
  8
logo
 62
7
100
AcDbPolyline
 90
2
 70
0
 10
30.095826
 20
4.692377
 30
0.0
 10
29.763300
 20
4.175697
 30
0.0
  0
LWPOLYLINE
  5
1fd
100
AcDbEntity
  8
logo
 62
7
100
AcDbPolyline
 90
2
 70
0
 10
20.391437
 20
8.636543
 30
0.0
 10
20.509101
 20
9.306693
 30
0.0
  0
LWPOLYLINE
  5
1fe
100
AcDbEntity
  8
logo
 62
7
100
AcDbPolyline
 90
2
 70
0
 10
29.763300
 20
9.823373
 30
0.0
 10
30.095826
 20
9.306693
 30
0.0
  0
LWPOLYLINE
  5
1ff
100
AcDbEntity
  8
logo
 62
7
100
AcDbPolyline
 90
2
 70
0
 10
29.246629
 20
10.155892
 30
0.0
 10
29.763300
 20
9.823373
 30
0.0
  0
LWPOLYLINE
  5
200
100
AcDbEntity
  8
logo
 62
7
100
AcDbPolyline
 90
2
 70
0
 10
30.213490
 20
8.636546
 30
0.0
 10
30.213475
 20
5.362528
 30
0.0
  0
LWPOLYLINE
  5
201
100
AcDbEntity
  8
logo
 62
7
100
AcDbPolyline
 90
2
 70
0
 10
20.509101
 20
9.306693
 30
0.0
 10
20.841612
 20
9.823373
 30
0.0
  0
LWPOLYLINE
  5
202
100
AcDbEntity
  8
logo
 62
7
100
AcDbPolyline
 90
3
 70
0
 10
21.516951
 20
3.760368
 30
0.0
 10
21.048911
 20
4.004316
 30
0.0
 10
20.387477
 20
3.725532
 30
0.0
  0
LWPOLYLINE
  5
203
100
AcDbEntity
  8
logo
 62
7
100
AcDbPolyline
 90
3
 70
0
 10
22.028441
 20
10.273549
 30
0.0
 10
28.576471
 20
10.273554
 30
0.0
 10
29.246629
 20
10.155892
 30
0.0
  0
LWPOLYLINE
  5
204
100
AcDbEntity
  8
logo
 62
7
100
AcDbPolyline
 90
2
 70
0
 10
29.246629
 20
3.843180
 30
0.0
 10
28.576471
 20
3.725519
 30
0.0
  0
LWPOLYLINE
  5
205
100
AcDbEntity
  8
logo
 62
7
100
AcDbPolyline
 90
2
 70
0
 10
30.213475
 20
5.362528
 30
0.0
 10
30.095826
 20
4.692377
 30
0.0
  0
LWPOLYLINE
  5
206
100
AcDbEntity
  8
logo
 62
7
100
AcDbPolyline
 90
3
 70
0
 10
28.576471
 20
3.725519
 30
0.0
 10
22.028441
 20
3.725519
 30
0.0
 10
21.516951
 20
3.760368
 30
0.0
  0
LWPOLYLINE
  5
207
100
AcDbEntity
  8
logo
 62
7
100
AcDbPolyline
 90
2
 70
0
 10
29.763300
 20
4.175697
 30
0.0
 10
29.246629
 20
3.843180
 30
0.0
  0
LWPOLYLINE
  5
208
100
AcDbEntity
  8
logo
 62
7
100
AcDbPolyline
 90
2
 70
0
 10
20.683964
 20
4.363148
 30
0.0
 10
20.428003
 20
4.844941
 30
0.0
  0
LWPOLYLINE
  5
209
100
AcDbEntity
  8
logo
 62
7
100
AcDbPolyline
 90
2
 70
0
 10
21.358298
 20
10.155889
 30
0.0
 10
22.028441
 20
10.273549
 30
0.0
  0
LWPOLYLINE
  5
20a
100
AcDbEntity
  8
logo
 62
7
100
AcDbPolyline
 90
2
 70
0
 10
30.095826
 20
9.306693
 30
0.0
 10
30.213490
 20
8.636546
 30
0.0
  0
LWPOLYLINE
  5
20b
100
AcDbEntity
  8
logo
 62
7
100
AcDbPolyline
 90
2
 70
0
 10
20.391437
 20
5.362528
 30
0.0
 10
20.391437
 20
8.636543
 30
0.0
  0
ENDSEC
  0
SECTION
  2
OBJECTS
  0
DICTIONARY
  5
C
330
0
100
AcDbDictionary
  3
ACAD_GROUP
350
D
  3
ACAD_MLINESTYLE
350
17
  0
DICTIONARY
  5
D
330
C
100
AcDbDictionary
  0
DICTIONARY
  5
1A
330
C
100
AcDbDictionary
  0
DICTIONARY
  5
17
330
C
100
AcDbDictionary
  3
STANDARD
350
18
  0
DICTIONARY
  5
19
330
C
100
AcDbDictionary
  0
ENDSEC
  0
EOF
