  0
SECTION
  2
HEADER
  9
$ACADVER
  1
AC1014
  9
$HANDSEED
  5
FFFF
  9
$MEASUREMENT
 70
     1
  0
ENDSEC
  0
SECTION
  2
TABLES
  0
TABLE
  2
VPORT
  5
8
330
0
100
AcDbSymbolTable
 70
     4
  0
VPORT
  5
2E
330
8
100
AcDbSymbolTableRecord
100
AcDbViewportTableRecord
  2
*ACTIVE
 70
     0
 10
0.0
 20
0.0
 11
1.0
 21
1.0
 12
210.0
 22
148.5
 13
0.0
 23
0.0
 14
10.0
 24
10.0
 15
10.0
 25
10.0
 16
0.0
 26
0.0
 36
1.0
 17
0.0
 27
0.0
 37
0.0
 40
341.0
 41
1.24
 42
50.0
 43
0.0
 44
0.0
 50
0.0
 51
0.0
 71
     0
 72
   100
 73
     1
 74
     3
 75
     0
 76
     0
 77
     0
 78
     0
  0
ENDTAB
  0
TABLE
  2
LTYPE
  5
5
330
0
100
AcDbSymbolTable
 70
     1
  0
LTYPE
  5
14
330
5
100
AcDbSymbolTableRecord
100
AcDbLinetypeTableRecord
  2
BYBLOCK
 70
     0
  3

 72
    65
 73
     0
 40
0.0
  0
LTYPE
  5
15
330
5
100
AcDbSymbolTableRecord
100
AcDbLinetypeTableRecord
  2
BYLAYER
 70
     0
  3

 72
    65
 73
     0
 40
0.0
  0
LTYPE
  5
16
330
5
100
AcDbSymbolTableRecord
100
AcDbLinetypeTableRecord
  2
CONTINUOUS
 70
     0
  3
Solid line
 72
    65
 73
     0
 40
0.0
  0
ENDTAB
  0
TABLE
  2
LAYER
  5
2
100
AcDbSymbolTable
 70
4
  0
LAYER
  5
50
100
AcDbSymbolTableRecord
100
AcDbLayerTableRecord
  2
0
 70
0
  6
CONTINUOUS
  0
LAYER
  5
51
100
AcDbSymbolTableRecord
100
AcDbLayerTableRecord
  2
panel_dxf_import
 70
0
  6
CONTINUOUS
  0
LAYER
  5
52
100
AcDbSymbolTableRecord
100
AcDbLayerTableRecord
  2
text
 70
0
  6
CONTINUOUS
  0
LAYER
  5
53
100
AcDbSymbolTableRecord
100
AcDbLayerTableRecord
  2
logo
 70
0
  6
CONTINUOUS
  0
ENDTAB
  0
TABLE
  2
STYLE
  5
3
330
0
100
AcDbSymbolTable
 70
     1
  0
STYLE
  5
11
330
3
100
AcDbSymbolTableRecord
100
AcDbTextStyleTableRecord
  2
STANDARD
 70
     0
 40
0.0
 41
1.0
 50
0.0
 71
     0
 42
2.5
  3
txt
  4

  0
ENDTAB
  0
TABLE
  2
VIEW
  5
6
330
0
100
AcDbSymbolTable
 70
     0
  0
ENDTAB
  0
TABLE
  2
UCS
  5
7
330
0
100
AcDbSymbolTable
 70
     0
  0
ENDTAB
  0
TABLE
  2
APPID
  5
9
330
0
100
AcDbSymbolTable
 70
     2
  0
APPID
  5
12
330
9
100
AcDbSymbolTableRecord
100
AcDbRegAppTableRecord
  2
ACAD
 70
     0
  0
ENDTAB
  0
TABLE
  2
DIMSTYLE
  5
A
330
0
100
AcDbSymbolTable
 70
     1
  0
DIMSTYLE
105
27
330
A
100
AcDbSymbolTableRecord
100
AcDbDimStyleTableRecord
  2
ISO-25
 70
     0
  3

  4

  5

  6

  7

 40
1.0
 41
2.5
 42
0.625
 43
3.75
 44
1.25
 45
0.0
 46
0.0
 47
0.0
 48
0.0
140
2.5
141
2.5
142
0.0
143
0.03937007874016
144
1.0
145
0.0
146
1.0
147
0.625
 71
     0
 72
     0
 73
     0
 74
     0
 75
     0
 76
     0
 77
     1
 78
     8
170
     0
171
     3
172
     1
173
     0
174
     0
175
     0
176
     0
177
     0
178
     0
270
     2
271
     2
272
     2
273
     2
274
     3
340
11
275
     0
280
     0
281
     0
282
     0
283
     0
284
     8
285
     0
286
     0
287
     3
288
     0
  0
ENDTAB
  0
TABLE
  2
BLOCK_RECORD
  5
1
330
0
100
AcDbSymbolTable
 70
     1
  0
BLOCK_RECORD
  5
1F
330
1
100
AcDbSymbolTableRecord
100
AcDbBlockTableRecord
  2
*MODEL_SPACE
  0
BLOCK_RECORD
  5
1B
330
1
100
AcDbSymbolTableRecord
100
AcDbBlockTableRecord
  2
*PAPER_SPACE
  0
ENDTAB
  0
ENDSEC
  0
SECTION
  2
BLOCKS
  0
BLOCK
  5
20
330
1F
100
AcDbEntity
  8
0
100
AcDbBlockBegin
  2
*MODEL_SPACE
 70
     0
 10
0.0
 20
0.0
 30
0.0
  3
*MODEL_SPACE
  1

  0
ENDBLK
  5
21
330
1F
100
AcDbEntity
  8
0
100
AcDbBlockEnd
  0
BLOCK
  5
1C
330
1B
100
AcDbEntity
 67
     1
  8
0
100
AcDbBlockBegin
  2
*PAPER_SPACE
  1

  0
ENDBLK
  5
1D
330
1B
100
AcDbEntity
 67
     1
  8
0
100
AcDbBlockEnd
  0
ENDSEC
  0
SECTION
  2
ENTITIES
  0
LINE
  5
100
100
AcDbEntity
  8
panel_dxf_import
 62
7
100
AcDbLine
 10
0.049844
 20
0.050322
 30
0.0
 11
50.549780
 21
0.050322
 31
0.0
  0
LINE
  5
101
100
AcDbEntity
  8
panel_dxf_import
 62
7
100
AcDbLine
 10
0.049844
 20
128.550160
 30
0.0
 11
0.049844
 21
0.050322
 31
0.0
  0
LINE
  5
102
100
AcDbEntity
  8
panel_dxf_import
 62
7
100
AcDbLine
 10
50.549780
 20
0.050322
 30
0.0
 11
50.549780
 21
128.550160
 31
0.0
  0
LINE
  5
103
100
AcDbEntity
  8
panel_dxf_import
 62
7
100
AcDbLine
 10
50.549780
 20
128.550160
 30
0.0
 11
0.049844
 21
128.550160
 31
0.0
  0
SPLINE
  5
104
100
AcDbEntity
  8
panel_dxf_import
 62
7
100
AcDbSpline
 70
8
 71
3
 72
8
 73
4
 74
0
 40
0
 40
0
 40
0
 40
0
 40
1
 40
1
 40
1
 40
1
 10
3.049840
 20
4.600316
 30
0.0
 10
2.194412
 20
4.599450
 30
0.0
 10
1.501410
 20
3.905747
 30
0.0
 10
1.501410
 20
3.050319
 30
0.0
  0
SPLINE
  5
105
100
AcDbEntity
  8
panel_dxf_import
 62
7
100
AcDbSpline
 70
8
 71
3
 72
8
 73
4
 74
0
 40
0
 40
0
 40
0
 40
0
 40
1
 40
1
 40
1
 40
1
 10
1.501410
 20
3.050319
 30
0.0
 10
1.501410
 20
2.194891
 30
0.0
 10
2.194412
 20
1.501187
 30
0.0
 10
3.049840
 20
1.500322
 30
0.0
  0
LINE
  5
106
100
AcDbEntity
  8
panel_dxf_import
 62
7
100
AcDbLine
 10
3.049840
 20
1.500322
 30
0.0
 11
6.149837
 21
1.500322
 31
0.0
  0
SPLINE
  5
107
100
AcDbEntity
  8
panel_dxf_import
 62
7
100
AcDbSpline
 70
8
 71
3
 72
8
 73
4
 74
0
 40
0
 40
0
 40
0
 40
0
 40
1
 40
1
 40
1
 40
1
 10
6.149837
 20
1.500322
 30
0.0
 10
7.005264
 20
1.501187
 30
0.0
 10
7.698267
 20
2.194891
 30
0.0
 10
7.698267
 20
3.050319
 30
0.0
  0
SPLINE
  5
108
100
AcDbEntity
  8
panel_dxf_import
 62
7
100
AcDbSpline
 70
8
 71
3
 72
8
 73
4
 74
0
 40
0
 40
0
 40
0
 40
0
 40
1
 40
1
 40
1
 40
1
 10
7.698267
 20
3.050319
 30
0.0
 10
7.698267
 20
3.905747
 30
0.0
 10
7.005264
 20
4.599450
 30
0.0
 10
6.149837
 20
4.600316
 30
0.0
  0
LINE
  5
109
100
AcDbEntity
  8
panel_dxf_import
 62
7
100
AcDbLine
 10
3.049840
 20
4.600316
 30
0.0
 11
6.149837
 21
4.600316
 31
0.0
  0
SPLINE
  5
10a
100
AcDbEntity
  8
panel_dxf_import
 62
7
100
AcDbSpline
 70
8
 71
3
 72
8
 73
4
 74
0
 40
0
 40
0
 40
0
 40
0
 40
1
 40
1
 40
1
 40
1
 10
9.044833
 20
19.750299
 30
0.0
 10
9.045485
 20
20.876119
 30
0.0
 10
8.445242
 20
21.916699
 30
0.0
 10
7.470362
 20
22.479797
 30
0.0
  0
SPLINE
  5
10b
100
AcDbEntity
  8
panel_dxf_import
 62
7
100
AcDbSpline
 70
8
 71
3
 72
8
 73
4
 74
0
 40
0
 40
0
 40
0
 40
0
 40
1
 40
1
 40
1
 40
1
 10
7.470362
 20
22.479797
 30
0.0
 10
6.495482
 20
23.042896
 30
0.0
 10
5.294192
 20
23.042896
 30
0.0
 10
4.319312
 20
22.479797
 30
0.0
  0
SPLINE
  5
10c
100
AcDbEntity
  8
panel_dxf_import
 62
7
100
AcDbSpline
 70
8
 71
3
 72
8
 73
4
 74
0
 40
0
 40
0
 40
0
 40
0
 40
1
 40
1
 40
1
 40
1
 10
4.319312
 20
22.479797
 30
0.0
 10
3.344432
 20
21.916699
 30
0.0
 10
2.744189
 20
20.876119
 30
0.0
 10
2.744842
 20
19.750299
 30
0.0
  0
SPLINE
  5
10d
100
AcDbEntity
  8
panel_dxf_import
 62
7
100
AcDbSpline
 70
8
 71
3
 72
8
 73
4
 74
0
 40
0
 40
0
 40
0
 40
0
 40
1
 40
1
 40
1
 40
1
 10
2.744842
 20
19.750299
 30
0.0
 10
2.744189
 20
18.624479
 30
0.0
 10
3.344432
 20
17.583899
 30
0.0
 10
4.319312
 20
17.020801
 30
0.0
  0
SPLINE
  5
10e
100
AcDbEntity
  8
panel_dxf_import
 62
7
100
AcDbSpline
 70
8
 71
3
 72
8
 73
4
 74
0
 40
0
 40
0
 40
0
 40
0
 40
1
 40
1
 40
1
 40
1
 10
4.319312
 20
17.020801
 30
0.0
 10
5.294192
 20
16.457703
 30
0.0
 10
6.495482
 20
16.457703
 30
0.0
 10
7.470362
 20
17.020801
 30
0.0
  0
SPLINE
  5
10f
100
AcDbEntity
  8
panel_dxf_import
 62
7
100
AcDbSpline
 70
8
 71
3
 72
8
 73
4
 74
0
 40
0
 40
0
 40
0
 40
0
 40
1
 40
1
 40
1
 40
1
 10
7.470362
 20
17.020801
 30
0.0
 10
8.445242
 20
17.583899
 30
0.0
 10
9.045485
 20
18.624479
 30
0.0
 10
9.044833
 20
19.750299
 30
0.0
  0
LINE
  5
110
100
AcDbEntity
  8
panel_dxf_import
 62
7
100
AcDbLine
 10
9.044833
 20
19.750299
 30
0.0
 11
9.044833
 21
19.750299
 31
0.0
  0
SPLINE
  5
111
100
AcDbEntity
  8
panel_dxf_import
 62
7
100
AcDbSpline
 70
8
 71
3
 72
8
 73
4
 74
0
 40
0
 40
0
 40
0
 40
0
 40
1
 40
1
 40
1
 40
1
 10
18.833822
 20
19.750299
 30
0.0
 10
18.833822
 20
20.875685
 30
0.0
 10
18.233436
 20
21.915584
 30
0.0
 10
17.258823
 20
22.478277
 30
0.0
  0
SPLINE
  5
112
100
AcDbEntity
  8
panel_dxf_import
 62
7
100
AcDbSpline
 70
8
 71
3
 72
8
 73
4
 74
0
 40
0
 40
0
 40
0
 40
0
 40
1
 40
1
 40
1
 40
1
 10
17.258823
 20
22.478277
 30
0.0
 10
16.284211
 20
23.040969
 30
0.0
 10
15.083439
 20
23.040969
 30
0.0
 10
14.108826
 20
22.478277
 30
0.0
  0
SPLINE
  5
113
100
AcDbEntity
  8
panel_dxf_import
 62
7
100
AcDbSpline
 70
8
 71
3
 72
8
 73
4
 74
0
 40
0
 40
0
 40
0
 40
0
 40
1
 40
1
 40
1
 40
1
 10
14.108826
 20
22.478277
 30
0.0
 10
13.134214
 20
21.915584
 30
0.0
 10
12.533828
 20
20.875685
 30
0.0
 10
12.533828
 20
19.750299
 30
0.0
  0
SPLINE
  5
114
100
AcDbEntity
  8
panel_dxf_import
 62
7
100
AcDbSpline
 70
8
 71
3
 72
8
 73
4
 74
0
 40
0
 40
0
 40
0
 40
0
 40
1
 40
1
 40
1
 40
1
 10
12.533828
 20
19.750299
 30
0.0
 10
12.533828
 20
18.624914
 30
0.0
 10
13.134214
 20
17.585015
 30
0.0
 10
14.108826
 20
17.022322
 30
0.0
  0
SPLINE
  5
115
100
AcDbEntity
  8
panel_dxf_import
 62
7
100
AcDbSpline
 70
8
 71
3
 72
8
 73
4
 74
0
 40
0
 40
0
 40
0
 40
0
 40
1
 40
1
 40
1
 40
1
 10
14.108826
 20
17.022322
 30
0.0
 10
15.083439
 20
16.459629
 30
0.0
 10
16.284211
 20
16.459629
 30
0.0
 10
17.258823
 20
17.022322
 30
0.0
  0
SPLINE
  5
116
100
AcDbEntity
  8
panel_dxf_import
 62
7
100
AcDbSpline
 70
8
 71
3
 72
8
 73
4
 74
0
 40
0
 40
0
 40
0
 40
0
 40
1
 40
1
 40
1
 40
1
 10
17.258823
 20
17.022322
 30
0.0
 10
18.233436
 20
17.585015
 30
0.0
 10
18.833822
 20
18.624914
 30
0.0
 10
18.833822
 20
19.750299
 30
0.0
  0
LINE
  5
117
100
AcDbEntity
  8
panel_dxf_import
 62
7
100
AcDbLine
 10
18.833822
 20
19.750299
 30
0.0
 11
18.833822
 21
19.750299
 31
0.0
  0
SPLINE
  5
118
100
AcDbEntity
  8
panel_dxf_import
 62
7
100
AcDbSpline
 70
8
 71
3
 72
8
 73
4
 74
0
 40
0
 40
0
 40
0
 40
0
 40
1
 40
1
 40
1
 40
1
 10
9.044833
 20
35.050279
 30
0.0
 10
9.045485
 20
36.176099
 30
0.0
 10
8.445242
 20
37.216679
 30
0.0
 10
7.470362
 20
37.779778
 30
0.0
  0
SPLINE
  5
119
100
AcDbEntity
  8
panel_dxf_import
 62
7
100
AcDbSpline
 70
8
 71
3
 72
8
 73
4
 74
0
 40
0
 40
0
 40
0
 40
0
 40
1
 40
1
 40
1
 40
1
 10
7.470362
 20
37.779778
 30
0.0
 10
6.495482
 20
38.342876
 30
0.0
 10
5.294192
 20
38.342876
 30
0.0
 10
4.319312
 20
37.779778
 30
0.0
  0
SPLINE
  5
11a
100
AcDbEntity
  8
panel_dxf_import
 62
7
100
AcDbSpline
 70
8
 71
3
 72
8
 73
4
 74
0
 40
0
 40
0
 40
0
 40
0
 40
1
 40
1
 40
1
 40
1
 10
4.319312
 20
37.779778
 30
0.0
 10
3.344432
 20
37.216679
 30
0.0
 10
2.744189
 20
36.176099
 30
0.0
 10
2.744842
 20
35.050279
 30
0.0
  0
SPLINE
  5
11b
100
AcDbEntity
  8
panel_dxf_import
 62
7
100
AcDbSpline
 70
8
 71
3
 72
8
 73
4
 74
0
 40
0
 40
0
 40
0
 40
0
 40
1
 40
1
 40
1
 40
1
 10
2.744842
 20
35.050279
 30
0.0
 10
2.744189
 20
33.924459
 30
0.0
 10
3.344432
 20
32.883880
 30
0.0
 10
4.319312
 20
32.320781
 30
0.0
  0
SPLINE
  5
11c
100
AcDbEntity
  8
panel_dxf_import
 62
7
100
AcDbSpline
 70
8
 71
3
 72
8
 73
4
 74
0
 40
0
 40
0
 40
0
 40
0
 40
1
 40
1
 40
1
 40
1
 10
4.319312
 20
32.320781
 30
0.0
 10
5.294192
 20
31.757683
 30
0.0
 10
6.495482
 20
31.757683
 30
0.0
 10
7.470362
 20
32.320781
 30
0.0
  0
SPLINE
  5
11d
100
AcDbEntity
  8
panel_dxf_import
 62
7
100
AcDbSpline
 70
8
 71
3
 72
8
 73
4
 74
0
 40
0
 40
0
 40
0
 40
0
 40
1
 40
1
 40
1
 40
1
 10
7.470362
 20
32.320781
 30
0.0
 10
8.445242
 20
32.883880
 30
0.0
 10
9.045485
 20
33.924459
 30
0.0
 10
9.044833
 20
35.050279
 30
0.0
  0
LINE
  5
11e
100
AcDbEntity
  8
panel_dxf_import
 62
7
100
AcDbLine
 10
9.044833
 20
35.050279
 30
0.0
 11
9.044833
 21
35.050279
 31
0.0
  0
SPLINE
  5
11f
100
AcDbEntity
  8
panel_dxf_import
 62
7
100
AcDbSpline
 70
8
 71
3
 72
8
 73
4
 74
0
 40
0
 40
0
 40
0
 40
0
 40
1
 40
1
 40
1
 40
1
 10
28.622808
 20
19.750299
 30
0.0
 10
28.623461
 20
20.876119
 30
0.0
 10
28.023218
 20
21.916699
 30
0.0
 10
27.048338
 20
22.479797
 30
0.0
  0
SPLINE
  5
120
100
AcDbEntity
  8
panel_dxf_import
 62
7
100
AcDbSpline
 70
8
 71
3
 72
8
 73
4
 74
0
 40
0
 40
0
 40
0
 40
0
 40
1
 40
1
 40
1
 40
1
 10
27.048338
 20
22.479797
 30
0.0
 10
26.073458
 20
23.042896
 30
0.0
 10
24.872167
 20
23.042896
 30
0.0
 10
23.897287
 20
22.479797
 30
0.0
  0
SPLINE
  5
121
100
AcDbEntity
  8
panel_dxf_import
 62
7
100
AcDbSpline
 70
8
 71
3
 72
8
 73
4
 74
0
 40
0
 40
0
 40
0
 40
0
 40
1
 40
1
 40
1
 40
1
 10
23.897287
 20
22.479797
 30
0.0
 10
22.922407
 20
21.916699
 30
0.0
 10
22.322164
 20
20.876119
 30
0.0
 10
22.322817
 20
19.750299
 30
0.0
  0
SPLINE
  5
122
100
AcDbEntity
  8
panel_dxf_import
 62
7
100
AcDbSpline
 70
8
 71
3
 72
8
 73
4
 74
0
 40
0
 40
0
 40
0
 40
0
 40
1
 40
1
 40
1
 40
1
 10
22.322817
 20
19.750299
 30
0.0
 10
22.322164
 20
18.624479
 30
0.0
 10
22.922407
 20
17.583899
 30
0.0
 10
23.897287
 20
17.020801
 30
0.0
  0
SPLINE
  5
123
100
AcDbEntity
  8
panel_dxf_import
 62
7
100
AcDbSpline
 70
8
 71
3
 72
8
 73
4
 74
0
 40
0
 40
0
 40
0
 40
0
 40
1
 40
1
 40
1
 40
1
 10
23.897287
 20
17.020801
 30
0.0
 10
24.872167
 20
16.457703
 30
0.0
 10
26.073458
 20
16.457703
 30
0.0
 10
27.048338
 20
17.020801
 30
0.0
  0
SPLINE
  5
124
100
AcDbEntity
  8
panel_dxf_import
 62
7
100
AcDbSpline
 70
8
 71
3
 72
8
 73
4
 74
0
 40
0
 40
0
 40
0
 40
0
 40
1
 40
1
 40
1
 40
1
 10
27.048338
 20
17.020801
 30
0.0
 10
28.023218
 20
17.583899
 30
0.0
 10
28.623461
 20
18.624479
 30
0.0
 10
28.622808
 20
19.750299
 30
0.0
  0
LINE
  5
125
100
AcDbEntity
  8
panel_dxf_import
 62
7
100
AcDbLine
 10
28.622808
 20
19.750299
 30
0.0
 11
28.622808
 21
19.750299
 31
0.0
  0
SPLINE
  5
126
100
AcDbEntity
  8
panel_dxf_import
 62
7
100
AcDbSpline
 70
8
 71
3
 72
8
 73
4
 74
0
 40
0
 40
0
 40
0
 40
0
 40
1
 40
1
 40
1
 40
1
 10
38.410797
 20
19.750299
 30
0.0
 10
38.410797
 20
20.875685
 30
0.0
 10
37.810411
 20
21.915584
 30
0.0
 10
36.835798
 20
22.478276
 30
0.0
  0
SPLINE
  5
127
100
AcDbEntity
  8
panel_dxf_import
 62
7
100
AcDbSpline
 70
8
 71
3
 72
8
 73
4
 74
0
 40
0
 40
0
 40
0
 40
0
 40
1
 40
1
 40
1
 40
1
 10
36.835798
 20
22.478276
 30
0.0
 10
35.861186
 20
23.040969
 30
0.0
 10
34.660414
 20
23.040969
 30
0.0
 10
33.685802
 20
22.478276
 30
0.0
  0
SPLINE
  5
128
100
AcDbEntity
  8
panel_dxf_import
 62
7
100
AcDbSpline
 70
8
 71
3
 72
8
 73
4
 74
0
 40
0
 40
0
 40
0
 40
0
 40
1
 40
1
 40
1
 40
1
 10
33.685802
 20
22.478276
 30
0.0
 10
32.711189
 20
21.915584
 30
0.0
 10
32.110803
 20
20.875685
 30
0.0
 10
32.110803
 20
19.750299
 30
0.0
  0
SPLINE
  5
129
100
AcDbEntity
  8
panel_dxf_import
 62
7
100
AcDbSpline
 70
8
 71
3
 72
8
 73
4
 74
0
 40
0
 40
0
 40
0
 40
0
 40
1
 40
1
 40
1
 40
1
 10
32.110803
 20
19.750299
 30
0.0
 10
32.110803
 20
18.624914
 30
0.0
 10
32.711189
 20
17.585015
 30
0.0
 10
33.685802
 20
17.022322
 30
0.0
  0
SPLINE
  5
12a
100
AcDbEntity
  8
panel_dxf_import
 62
7
100
AcDbSpline
 70
8
 71
3
 72
8
 73
4
 74
0
 40
0
 40
0
 40
0
 40
0
 40
1
 40
1
 40
1
 40
1
 10
33.685802
 20
17.022322
 30
0.0
 10
34.660414
 20
16.459629
 30
0.0
 10
35.861186
 20
16.459629
 30
0.0
 10
36.835798
 20
17.022322
 30
0.0
  0
SPLINE
  5
12b
100
AcDbEntity
  8
panel_dxf_import
 62
7
100
AcDbSpline
 70
8
 71
3
 72
8
 73
4
 74
0
 40
0
 40
0
 40
0
 40
0
 40
1
 40
1
 40
1
 40
1
 10
36.835798
 20
17.022322
 30
0.0
 10
37.810411
 20
17.585015
 30
0.0
 10
38.410797
 20
18.624914
 30
0.0
 10
38.410797
 20
19.750299
 30
0.0
  0
LINE
  5
12c
100
AcDbEntity
  8
panel_dxf_import
 62
7
100
AcDbLine
 10
38.410797
 20
19.750299
 30
0.0
 11
38.410797
 21
19.750299
 31
0.0
  0
SPLINE
  5
12d
100
AcDbEntity
  8
panel_dxf_import
 62
7
100
AcDbSpline
 70
8
 71
3
 72
8
 73
4
 74
0
 40
0
 40
0
 40
0
 40
0
 40
1
 40
1
 40
1
 40
1
 10
44.449787
 20
4.600316
 30
0.0
 10
43.594360
 20
4.599450
 30
0.0
 10
42.901358
 20
3.905747
 30
0.0
 10
42.901358
 20
3.050319
 30
0.0
  0
SPLINE
  5
12e
100
AcDbEntity
  8
panel_dxf_import
 62
7
100
AcDbSpline
 70
8
 71
3
 72
8
 73
4
 74
0
 40
0
 40
0
 40
0
 40
0
 40
1
 40
1
 40
1
 40
1
 10
42.901358
 20
3.050319
 30
0.0
 10
42.901358
 20
2.194891
 30
0.0
 10
43.594360
 20
1.501187
 30
0.0
 10
44.449787
 20
1.500322
 30
0.0
  0
LINE
  5
12f
100
AcDbEntity
  8
panel_dxf_import
 62
7
100
AcDbLine
 10
44.449787
 20
1.500322
 30
0.0
 11
47.549785
 21
1.500322
 31
0.0
  0
SPLINE
  5
130
100
AcDbEntity
  8
panel_dxf_import
 62
7
100
AcDbSpline
 70
8
 71
3
 72
8
 73
4
 74
0
 40
0
 40
0
 40
0
 40
0
 40
1
 40
1
 40
1
 40
1
 10
47.549785
 20
1.500322
 30
0.0
 10
48.405212
 20
1.501187
 30
0.0
 10
49.098214
 20
2.194891
 30
0.0
 10
49.098214
 20
3.050319
 30
0.0
  0
SPLINE
  5
131
100
AcDbEntity
  8
panel_dxf_import
 62
7
100
AcDbSpline
 70
8
 71
3
 72
8
 73
4
 74
0
 40
0
 40
0
 40
0
 40
0
 40
1
 40
1
 40
1
 40
1
 10
49.098214
 20
3.050319
 30
0.0
 10
49.098214
 20
3.905747
 30
0.0
 10
48.405212
 20
4.599450
 30
0.0
 10
47.549785
 20
4.600316
 30
0.0
  0
LINE
  5
132
100
AcDbEntity
  8
panel_dxf_import
 62
7
100
AcDbLine
 10
44.449787
 20
4.600316
 30
0.0
 11
47.549785
 21
4.600316
 31
0.0
  0
SPLINE
  5
133
100
AcDbEntity
  8
panel_dxf_import
 62
7
100
AcDbSpline
 70
8
 71
3
 72
8
 73
4
 74
0
 40
0
 40
0
 40
0
 40
0
 40
1
 40
1
 40
1
 40
1
 10
48.199783
 20
19.750299
 30
0.0
 10
48.200436
 20
20.876119
 30
0.0
 10
47.600193
 20
21.916699
 30
0.0
 10
46.625313
 20
22.479797
 30
0.0
  0
SPLINE
  5
134
100
AcDbEntity
  8
panel_dxf_import
 62
7
100
AcDbSpline
 70
8
 71
3
 72
8
 73
4
 74
0
 40
0
 40
0
 40
0
 40
0
 40
1
 40
1
 40
1
 40
1
 10
46.625313
 20
22.479797
 30
0.0
 10
45.650433
 20
23.042896
 30
0.0
 10
44.449142
 20
23.042896
 30
0.0
 10
43.474262
 20
22.479797
 30
0.0
  0
SPLINE
  5
135
100
AcDbEntity
  8
panel_dxf_import
 62
7
100
AcDbSpline
 70
8
 71
3
 72
8
 73
4
 74
0
 40
0
 40
0
 40
0
 40
0
 40
1
 40
1
 40
1
 40
1
 10
43.474262
 20
22.479797
 30
0.0
 10
42.499382
 20
21.916699
 30
0.0
 10
41.899139
 20
20.876119
 30
0.0
 10
41.899792
 20
19.750299
 30
0.0
  0
SPLINE
  5
136
100
AcDbEntity
  8
panel_dxf_import
 62
7
100
AcDbSpline
 70
8
 71
3
 72
8
 73
4
 74
0
 40
0
 40
0
 40
0
 40
0
 40
1
 40
1
 40
1
 40
1
 10
41.899792
 20
19.750299
 30
0.0
 10
41.899139
 20
18.624479
 30
0.0
 10
42.499382
 20
17.583899
 30
0.0
 10
43.474262
 20
17.020801
 30
0.0
  0
SPLINE
  5
137
100
AcDbEntity
  8
panel_dxf_import
 62
7
100
AcDbSpline
 70
8
 71
3
 72
8
 73
4
 74
0
 40
0
 40
0
 40
0
 40
0
 40
1
 40
1
 40
1
 40
1
 10
43.474262
 20
17.020801
 30
0.0
 10
44.449142
 20
16.457703
 30
0.0
 10
45.650433
 20
16.457703
 30
0.0
 10
46.625313
 20
17.020801
 30
0.0
  0
SPLINE
  5
138
100
AcDbEntity
  8
panel_dxf_import
 62
7
100
AcDbSpline
 70
8
 71
3
 72
8
 73
4
 74
0
 40
0
 40
0
 40
0
 40
0
 40
1
 40
1
 40
1
 40
1
 10
46.625313
 20
17.020801
 30
0.0
 10
47.600193
 20
17.583899
 30
0.0
 10
48.200436
 20
18.624479
 30
0.0
 10
48.199783
 20
19.750299
 30
0.0
  0
LINE
  5
139
100
AcDbEntity
  8
panel_dxf_import
 62
7
100
AcDbLine
 10
48.199783
 20
19.750299
 30
0.0
 11
48.199783
 21
19.750299
 31
0.0
  0
SPLINE
  5
13a
100
AcDbEntity
  8
panel_dxf_import
 62
7
100
AcDbSpline
 70
8
 71
3
 72
8
 73
4
 74
0
 40
0
 40
0
 40
0
 40
0
 40
1
 40
1
 40
1
 40
1
 10
17.199823
 20
84.300217
 30
0.0
 10
17.200320
 20
85.604565
 30
0.0
 10
16.504743
 20
86.810046
 30
0.0
 10
15.375227
 20
87.462364
 30
0.0
  0
SPLINE
  5
13b
100
AcDbEntity
  8
panel_dxf_import
 62
7
100
AcDbSpline
 70
8
 71
3
 72
8
 73
4
 74
0
 40
0
 40
0
 40
0
 40
0
 40
1
 40
1
 40
1
 40
1
 10
15.375227
 20
87.462364
 30
0.0
 10
14.245711
 20
88.114681
 30
0.0
 10
12.853946
 20
88.114681
 30
0.0
 10
11.724429
 20
87.462364
 30
0.0
  0
SPLINE
  5
13c
100
AcDbEntity
  8
panel_dxf_import
 62
7
100
AcDbSpline
 70
8
 71
3
 72
8
 73
4
 74
0
 40
0
 40
0
 40
0
 40
0
 40
1
 40
1
 40
1
 40
1
 10
11.724429
 20
87.462364
 30
0.0
 10
10.594913
 20
86.810046
 30
0.0
 10
9.899336
 20
85.604565
 30
0.0
 10
9.899833
 20
84.300217
 30
0.0
  0
SPLINE
  5
13d
100
AcDbEntity
  8
panel_dxf_import
 62
7
100
AcDbSpline
 70
8
 71
3
 72
8
 73
4
 74
0
 40
0
 40
0
 40
0
 40
0
 40
1
 40
1
 40
1
 40
1
 10
9.899833
 20
84.300217
 30
0.0
 10
9.899336
 20
82.995868
 30
0.0
 10
10.594913
 20
81.790388
 30
0.0
 10
11.724429
 20
81.138070
 30
0.0
  0
SPLINE
  5
13e
100
AcDbEntity
  8
panel_dxf_import
 62
7
100
AcDbSpline
 70
8
 71
3
 72
8
 73
4
 74
0
 40
0
 40
0
 40
0
 40
0
 40
1
 40
1
 40
1
 40
1
 10
11.724429
 20
81.138070
 30
0.0
 10
12.853946
 20
80.485752
 30
0.0
 10
14.245711
 20
80.485752
 30
0.0
 10
15.375227
 20
81.138070
 30
0.0
  0
SPLINE
  5
13f
100
AcDbEntity
  8
panel_dxf_import
 62
7
100
AcDbSpline
 70
8
 71
3
 72
8
 73
4
 74
0
 40
0
 40
0
 40
0
 40
0
 40
1
 40
1
 40
1
 40
1
 10
15.375227
 20
81.138070
 30
0.0
 10
16.504743
 20
81.790388
 30
0.0
 10
17.200320
 20
82.995868
 30
0.0
 10
17.199823
 20
84.300217
 30
0.0
  0
LINE
  5
140
100
AcDbEntity
  8
panel_dxf_import
 62
7
100
AcDbLine
 10
17.199823
 20
84.300217
 30
0.0
 11
17.199823
 21
84.300217
 31
0.0
  0
SPLINE
  5
141
100
AcDbEntity
  8
panel_dxf_import
 62
7
100
AcDbSpline
 70
8
 71
3
 72
8
 73
4
 74
0
 40
0
 40
0
 40
0
 40
0
 40
1
 40
1
 40
1
 40
1
 10
3.049840
 20
127.100163
 30
0.0
 10
2.496079
 20
127.100163
 30
0.0
 10
1.984382
 20
126.804735
 30
0.0
 10
1.707502
 20
126.325164
 30
0.0
  0
SPLINE
  5
142
100
AcDbEntity
  8
panel_dxf_import
 62
7
100
AcDbSpline
 70
8
 71
3
 72
8
 73
4
 74
0
 40
0
 40
0
 40
0
 40
0
 40
1
 40
1
 40
1
 40
1
 10
1.707502
 20
126.325164
 30
0.0
 10
1.430621
 20
125.845592
 30
0.0
 10
1.430621
 20
125.254736
 30
0.0
 10
1.707502
 20
124.775165
 30
0.0
  0
SPLINE
  5
143
100
AcDbEntity
  8
panel_dxf_import
 62
7
100
AcDbSpline
 70
8
 71
3
 72
8
 73
4
 74
0
 40
0
 40
0
 40
0
 40
0
 40
1
 40
1
 40
1
 40
1
 10
1.707502
 20
124.775165
 30
0.0
 10
1.984382
 20
124.295594
 30
0.0
 10
2.496079
 20
124.000166
 30
0.0
 10
3.049840
 20
124.000166
 30
0.0
  0
LINE
  5
144
100
AcDbEntity
  8
panel_dxf_import
 62
7
100
AcDbLine
 10
3.049840
 20
124.000166
 30
0.0
 11
6.149837
 21
124.000166
 31
0.0
  0
SPLINE
  5
145
100
AcDbEntity
  8
panel_dxf_import
 62
7
100
AcDbSpline
 70
8
 71
3
 72
8
 73
4
 74
0
 40
0
 40
0
 40
0
 40
0
 40
1
 40
1
 40
1
 40
1
 10
6.149837
 20
124.000166
 30
0.0
 10
6.703598
 20
124.000166
 30
0.0
 10
7.215295
 20
124.295594
 30
0.0
 10
7.492175
 20
124.775165
 30
0.0
  0
SPLINE
  5
146
100
AcDbEntity
  8
panel_dxf_import
 62
7
100
AcDbSpline
 70
8
 71
3
 72
8
 73
4
 74
0
 40
0
 40
0
 40
0
 40
0
 40
1
 40
1
 40
1
 40
1
 10
7.492175
 20
124.775165
 30
0.0
 10
7.769056
 20
125.254736
 30
0.0
 10
7.769056
 20
125.845592
 30
0.0
 10
7.492175
 20
126.325164
 30
0.0
  0
SPLINE
  5
147
100
AcDbEntity
  8
panel_dxf_import
 62
7
100
AcDbSpline
 70
8
 71
3
 72
8
 73
4
 74
0
 40
0
 40
0
 40
0
 40
0
 40
1
 40
1
 40
1
 40
1
 10
7.492175
 20
126.325164
 30
0.0
 10
7.215295
 20
126.804735
 30
0.0
 10
6.703598
 20
127.100163
 30
0.0
 10
6.149837
 20
127.100163
 30
0.0
  0
LINE
  5
148
100
AcDbEntity
  8
panel_dxf_import
 62
7
100
AcDbLine
 10
3.049840
 20
127.100163
 30
0.0
 11
6.149837
 21
127.100163
 31
0.0
  0
SPLINE
  5
149
100
AcDbEntity
  8
panel_dxf_import
 62
7
100
AcDbSpline
 70
8
 71
3
 72
8
 73
4
 74
0
 40
0
 40
0
 40
0
 40
0
 40
1
 40
1
 40
1
 40
1
 10
28.949809
 20
104.300191
 30
0.0
 10
28.950305
 20
105.604540
 30
0.0
 10
28.254729
 20
106.810020
 30
0.0
 10
27.125213
 20
107.462338
 30
0.0
  0
SPLINE
  5
14a
100
AcDbEntity
  8
panel_dxf_import
 62
7
100
AcDbSpline
 70
8
 71
3
 72
8
 73
4
 74
0
 40
0
 40
0
 40
0
 40
0
 40
1
 40
1
 40
1
 40
1
 10
27.125213
 20
107.462338
 30
0.0
 10
25.995696
 20
108.114656
 30
0.0
 10
24.603931
 20
108.114656
 30
0.0
 10
23.474415
 20
107.462338
 30
0.0
  0
SPLINE
  5
14b
100
AcDbEntity
  8
panel_dxf_import
 62
7
100
AcDbSpline
 70
8
 71
3
 72
8
 73
4
 74
0
 40
0
 40
0
 40
0
 40
0
 40
1
 40
1
 40
1
 40
1
 10
23.474415
 20
107.462338
 30
0.0
 10
22.344898
 20
106.810020
 30
0.0
 10
21.649322
 20
105.604540
 30
0.0
 10
21.649818
 20
104.300191
 30
0.0
  0
SPLINE
  5
14c
100
AcDbEntity
  8
panel_dxf_import
 62
7
100
AcDbSpline
 70
8
 71
3
 72
8
 73
4
 74
0
 40
0
 40
0
 40
0
 40
0
 40
1
 40
1
 40
1
 40
1
 10
21.649818
 20
104.300191
 30
0.0
 10
21.649322
 20
102.995843
 30
0.0
 10
22.344898
 20
101.790362
 30
0.0
 10
23.474415
 20
101.138044
 30
0.0
  0
SPLINE
  5
14d
100
AcDbEntity
  8
panel_dxf_import
 62
7
100
AcDbSpline
 70
8
 71
3
 72
8
 73
4
 74
0
 40
0
 40
0
 40
0
 40
0
 40
1
 40
1
 40
1
 40
1
 10
23.474415
 20
101.138044
 30
0.0
 10
24.603931
 20
100.485727
 30
0.0
 10
25.995696
 20
100.485727
 30
0.0
 10
27.125213
 20
101.138044
 30
0.0
  0
SPLINE
  5
14e
100
AcDbEntity
  8
panel_dxf_import
 62
7
100
AcDbSpline
 70
8
 71
3
 72
8
 73
4
 74
0
 40
0
 40
0
 40
0
 40
0
 40
1
 40
1
 40
1
 40
1
 10
27.125213
 20
101.138044
 30
0.0
 10
28.254729
 20
101.790362
 30
0.0
 10
28.950305
 20
102.995843
 30
0.0
 10
28.949809
 20
104.300191
 30
0.0
  0
LINE
  5
14f
100
AcDbEntity
  8
panel_dxf_import
 62
7
100
AcDbLine
 10
28.949809
 20
104.300191
 30
0.0
 11
28.949809
 21
104.300191
 31
0.0
  0
SPLINE
  5
150
100
AcDbEntity
  8
panel_dxf_import
 62
7
100
AcDbSpline
 70
8
 71
3
 72
8
 73
4
 74
0
 40
0
 40
0
 40
0
 40
0
 40
1
 40
1
 40
1
 40
1
 10
39.699795
 20
84.300217
 30
0.0
 10
39.700292
 20
85.604565
 30
0.0
 10
39.004715
 20
86.810046
 30
0.0
 10
37.875199
 20
87.462364
 30
0.0
  0
SPLINE
  5
151
100
AcDbEntity
  8
panel_dxf_import
 62
7
100
AcDbSpline
 70
8
 71
3
 72
8
 73
4
 74
0
 40
0
 40
0
 40
0
 40
0
 40
1
 40
1
 40
1
 40
1
 10
37.875199
 20
87.462364
 30
0.0
 10
36.745682
 20
88.114681
 30
0.0
 10
35.353917
 20
88.114681
 30
0.0
 10
34.224401
 20
87.462364
 30
0.0
  0
SPLINE
  5
152
100
AcDbEntity
  8
panel_dxf_import
 62
7
100
AcDbSpline
 70
8
 71
3
 72
8
 73
4
 74
0
 40
0
 40
0
 40
0
 40
0
 40
1
 40
1
 40
1
 40
1
 10
34.224401
 20
87.462364
 30
0.0
 10
33.094884
 20
86.810046
 30
0.0
 10
32.399308
 20
85.604565
 30
0.0
 10
32.399804
 20
84.300217
 30
0.0
  0
SPLINE
  5
153
100
AcDbEntity
  8
panel_dxf_import
 62
7
100
AcDbSpline
 70
8
 71
3
 72
8
 73
4
 74
0
 40
0
 40
0
 40
0
 40
0
 40
1
 40
1
 40
1
 40
1
 10
32.399804
 20
84.300217
 30
0.0
 10
32.399308
 20
82.995868
 30
0.0
 10
33.094884
 20
81.790388
 30
0.0
 10
34.224401
 20
81.138070
 30
0.0
  0
SPLINE
  5
154
100
AcDbEntity
  8
panel_dxf_import
 62
7
100
AcDbSpline
 70
8
 71
3
 72
8
 73
4
 74
0
 40
0
 40
0
 40
0
 40
0
 40
1
 40
1
 40
1
 40
1
 10
34.224401
 20
81.138070
 30
0.0
 10
35.353917
 20
80.485752
 30
0.0
 10
36.745682
 20
80.485752
 30
0.0
 10
37.875199
 20
81.138070
 30
0.0
  0
SPLINE
  5
155
100
AcDbEntity
  8
panel_dxf_import
 62
7
100
AcDbSpline
 70
8
 71
3
 72
8
 73
4
 74
0
 40
0
 40
0
 40
0
 40
0
 40
1
 40
1
 40
1
 40
1
 10
37.875199
 20
81.138070
 30
0.0
 10
39.004715
 20
81.790388
 30
0.0
 10
39.700292
 20
82.995868
 30
0.0
 10
39.699795
 20
84.300217
 30
0.0
  0
LINE
  5
156
100
AcDbEntity
  8
panel_dxf_import
 62
7
100
AcDbLine
 10
39.699795
 20
84.300217
 30
0.0
 11
39.699795
 21
84.300217
 31
0.0
  0
SPLINE
  5
157
100
AcDbEntity
  8
panel_dxf_import
 62
7
100
AcDbSpline
 70
8
 71
3
 72
8
 73
4
 74
0
 40
0
 40
0
 40
0
 40
0
 40
1
 40
1
 40
1
 40
1
 10
44.449787
 20
127.100163
 30
0.0
 10
43.896026
 20
127.100163
 30
0.0
 10
43.384330
 20
126.804735
 30
0.0
 10
43.107449
 20
126.325164
 30
0.0
  0
SPLINE
  5
158
100
AcDbEntity
  8
panel_dxf_import
 62
7
100
AcDbSpline
 70
8
 71
3
 72
8
 73
4
 74
0
 40
0
 40
0
 40
0
 40
0
 40
1
 40
1
 40
1
 40
1
 10
43.107449
 20
126.325164
 30
0.0
 10
42.830569
 20
125.845592
 30
0.0
 10
42.830569
 20
125.254736
 30
0.0
 10
43.107449
 20
124.775165
 30
0.0
  0
SPLINE
  5
159
100
AcDbEntity
  8
panel_dxf_import
 62
7
100
AcDbSpline
 70
8
 71
3
 72
8
 73
4
 74
0
 40
0
 40
0
 40
0
 40
0
 40
1
 40
1
 40
1
 40
1
 10
43.107449
 20
124.775165
 30
0.0
 10
43.384330
 20
124.295594
 30
0.0
 10
43.896026
 20
124.000166
 30
0.0
 10
44.449787
 20
124.000166
 30
0.0
  0
LINE
  5
15a
100
AcDbEntity
  8
panel_dxf_import
 62
7
100
AcDbLine
 10
44.449787
 20
124.000166
 30
0.0
 11
47.549785
 21
124.000166
 31
0.0
  0
SPLINE
  5
15b
100
AcDbEntity
  8
panel_dxf_import
 62
7
100
AcDbSpline
 70
8
 71
3
 72
8
 73
4
 74
0
 40
0
 40
0
 40
0
 40
0
 40
1
 40
1
 40
1
 40
1
 10
47.549785
 20
124.000166
 30
0.0
 10
48.103546
 20
124.000166
 30
0.0
 10
48.615242
 20
124.295594
 30
0.0
 10
48.892123
 20
124.775165
 30
0.0
  0
SPLINE
  5
15c
100
AcDbEntity
  8
panel_dxf_import
 62
7
100
AcDbSpline
 70
8
 71
3
 72
8
 73
4
 74
0
 40
0
 40
0
 40
0
 40
0
 40
1
 40
1
 40
1
 40
1
 10
48.892123
 20
124.775165
 30
0.0
 10
49.169003
 20
125.254736
 30
0.0
 10
49.169003
 20
125.845592
 30
0.0
 10
48.892123
 20
126.325164
 30
0.0
  0
SPLINE
  5
15d
100
AcDbEntity
  8
panel_dxf_import
 62
7
100
AcDbSpline
 70
8
 71
3
 72
8
 73
4
 74
0
 40
0
 40
0
 40
0
 40
0
 40
1
 40
1
 40
1
 40
1
 10
48.892123
 20
126.325164
 30
0.0
 10
48.615242
 20
126.804735
 30
0.0
 10
48.103546
 20
127.100163
 30
0.0
 10
47.549785
 20
127.100163
 30
0.0
  0
LINE
  5
15e
100
AcDbEntity
  8
panel_dxf_import
 62
7
100
AcDbLine
 10
44.449787
 20
127.100163
 30
0.0
 11
47.549785
 21
127.100163
 31
0.0
  0
LINE
  5
15f
100
AcDbEntity
  8
text
 62
7
100
AcDbLine
 10
33.337791
 20
94.722616
 30
0.0
 11
33.337791
 21
92.854300
 31
0.0
  0
LINE
  5
160
100
AcDbEntity
  8
text
 62
7
100
AcDbLine
 10
33.337791
 20
94.722616
 30
0.0
 11
34.139304
 21
94.722616
 31
0.0
  0
LINE
  5
161
100
AcDbEntity
  8
text
 62
7
100
AcDbLine
 10
34.139304
 20
94.722616
 30
0.0
 11
34.404594
 21
94.632305
 31
0.0
  0
LINE
  5
162
100
AcDbEntity
  8
text
 62
7
100
AcDbLine
 10
34.404594
 20
94.632305
 30
0.0
 11
34.494905
 21
94.541994
 31
0.0
  0
LINE
  5
163
100
AcDbEntity
  8
text
 62
7
100
AcDbLine
 10
34.494905
 20
94.541994
 30
0.0
 11
34.585216
 21
94.367015
 31
0.0
  0
LINE
  5
164
100
AcDbEntity
  8
text
 62
7
100
AcDbLine
 10
34.585216
 20
94.367015
 30
0.0
 11
34.585216
 21
94.098903
 31
0.0
  0
LINE
  5
165
100
AcDbEntity
  8
text
 62
7
100
AcDbLine
 10
34.585216
 20
94.098903
 30
0.0
 11
34.494905
 21
93.921103
 31
0.0
  0
LINE
  5
166
100
AcDbEntity
  8
text
 62
7
100
AcDbLine
 10
34.494905
 20
93.921103
 30
0.0
 11
34.404594
 21
93.830792
 31
0.0
  0
LINE
  5
167
100
AcDbEntity
  8
text
 62
7
100
AcDbLine
 10
34.404594
 20
93.830792
 30
0.0
 11
34.139304
 21
93.743302
 31
0.0
  0
LINE
  5
168
100
AcDbEntity
  8
text
 62
7
100
AcDbLine
 10
34.139304
 20
93.743302
 30
0.0
 11
33.337791
 21
93.743302
 31
0.0
  0
LINE
  5
169
100
AcDbEntity
  8
text
 62
7
100
AcDbLine
 10
35.031132
 20
94.722616
 30
0.0
 11
35.474222
 21
92.854300
 31
0.0
  0
LINE
  5
16a
100
AcDbEntity
  8
text
 62
7
100
AcDbLine
 10
35.917313
 20
94.722616
 30
0.0
 11
35.474222
 21
92.854300
 31
0.0
  0
LINE
  5
16b
100
AcDbEntity
  8
text
 62
7
100
AcDbLine
 10
35.917313
 20
94.722616
 30
0.0
 11
36.363225
 21
92.854300
 31
0.0
  0
LINE
  5
16c
100
AcDbEntity
  8
text
 62
7
100
AcDbLine
 10
36.809137
 20
94.722616
 30
0.0
 11
36.363225
 21
92.854300
 31
0.0
  0
LINE
  5
16d
100
AcDbEntity
  8
text
 62
7
100
AcDbLine
 10
37.339711
 20
94.722616
 30
0.0
 11
37.339711
 21
92.854300
 31
0.0
  0
LINE
  5
16e
100
AcDbEntity
  8
text
 62
7
100
AcDbLine
 10
37.339711
 20
94.722616
 30
0.0
 11
38.050913
 21
92.854300
 31
0.0
  0
LINE
  5
16f
100
AcDbEntity
  8
text
 62
7
100
AcDbLine
 10
38.762115
 20
94.722616
 30
0.0
 11
38.050913
 21
92.854300
 31
0.0
  0
LINE
  5
170
100
AcDbEntity
  8
text
 62
7
100
AcDbLine
 10
38.762115
 20
94.722616
 30
0.0
 11
38.762115
 21
92.854300
 31
0.0
  0
LINE
  5
171
100
AcDbEntity
  8
text
 62
7
100
AcDbLine
 10
6.793591
 20
94.716716
 30
0.0
 11
6.793591
 21
92.848400
 31
0.0
  0
LINE
  5
172
100
AcDbEntity
  8
text
 62
7
100
AcDbLine
 10
6.793591
 20
94.716716
 30
0.0
 11
7.950705
 21
94.716716
 31
0.0
  0
LINE
  5
173
100
AcDbEntity
  8
text
 62
7
100
AcDbLine
 10
6.793591
 20
93.824892
 30
0.0
 11
7.504793
 21
93.824892
 31
0.0
  0
LINE
  5
174
100
AcDbEntity
  8
text
 62
7
100
AcDbLine
 10
8.393791
 20
94.716716
 30
0.0
 11
8.393791
 21
92.848400
 31
0.0
  0
LINE
  5
175
100
AcDbEntity
  8
text
 62
7
100
AcDbLine
 10
9.105001
 20
94.716716
 30
0.0
 11
9.105001
 21
92.848400
 31
0.0
  0
LINE
  5
176
100
AcDbEntity
  8
text
 62
7
100
AcDbLine
 10
9.105001
 20
94.716716
 30
0.0
 11
10.352426
 21
92.848400
 31
0.0
  0
LINE
  5
177
100
AcDbEntity
  8
text
 62
7
100
AcDbLine
 10
10.352426
 20
94.716716
 30
0.0
 11
10.352426
 21
92.848400
 31
0.0
  0
LINE
  5
178
100
AcDbEntity
  8
text
 62
7
100
AcDbLine
 10
11.060801
 20
94.716716
 30
0.0
 11
11.060801
 21
92.848400
 31
0.0
  0
LINE
  5
179
100
AcDbEntity
  8
text
 62
7
100
AcDbLine
 10
11.060801
 20
94.716716
 30
0.0
 11
12.217915
 21
94.716716
 31
0.0
  0
LINE
  5
17a
100
AcDbEntity
  8
text
 62
7
100
AcDbLine
 10
11.060801
 20
93.824892
 30
0.0
 11
11.772003
 21
93.824892
 31
0.0
  0
LINE
  5
17b
100
AcDbEntity
  8
text
 62
7
100
AcDbLine
 10
11.060801
 20
92.848400
 30
0.0
 11
12.217915
 21
92.848400
 31
0.0
  0
LINE
  5
17c
100
AcDbEntity
  8
text
 62
7
100
AcDbLine
 10
14.170902
 20
94.716716
 30
0.0
 11
14.170902
 21
92.848400
 31
0.0
  0
LINE
  5
17d
100
AcDbEntity
  8
text
 62
7
100
AcDbLine
 10
13.550011
 20
94.716716
 30
0.0
 11
14.794614
 21
94.716716
 31
0.0
  0
LINE
  5
17e
100
AcDbEntity
  8
text
 62
7
100
AcDbLine
 10
15.237701
 20
94.716716
 30
0.0
 11
15.237701
 21
93.381801
 31
0.0
  0
LINE
  5
17f
100
AcDbEntity
  8
text
 62
7
100
AcDbLine
 10
15.237701
 20
93.381801
 30
0.0
 11
15.328012
 21
93.115101
 31
0.0
  0
LINE
  5
180
100
AcDbEntity
  8
text
 62
7
100
AcDbLine
 10
15.328012
 20
93.115101
 30
0.0
 11
15.505812
 21
92.937300
 31
0.0
  0
LINE
  5
181
100
AcDbEntity
  8
text
 62
7
100
AcDbLine
 10
15.505812
 20
92.937300
 30
0.0
 11
15.773924
 21
92.848400
 31
0.0
  0
LINE
  5
182
100
AcDbEntity
  8
text
 62
7
100
AcDbLine
 10
15.773924
 20
92.848400
 30
0.0
 11
15.948903
 21
92.848400
 31
0.0
  0
LINE
  5
183
100
AcDbEntity
  8
text
 62
7
100
AcDbLine
 10
15.948903
 20
92.848400
 30
0.0
 11
16.217014
 21
92.937300
 31
0.0
  0
LINE
  5
184
100
AcDbEntity
  8
text
 62
7
100
AcDbLine
 10
16.217014
 20
92.937300
 30
0.0
 11
16.394815
 21
93.115101
 31
0.0
  0
LINE
  5
185
100
AcDbEntity
  8
text
 62
7
100
AcDbLine
 10
16.394815
 20
93.115101
 30
0.0
 11
16.485126
 21
93.381801
 31
0.0
  0
LINE
  5
186
100
AcDbEntity
  8
text
 62
7
100
AcDbLine
 10
16.485126
 20
93.381801
 30
0.0
 11
16.485126
 21
94.716716
 31
0.0
  0
LINE
  5
187
100
AcDbEntity
  8
text
 62
7
100
AcDbLine
 10
17.193491
 20
94.716716
 30
0.0
 11
17.193491
 21
92.848400
 31
0.0
  0
LINE
  5
188
100
AcDbEntity
  8
text
 62
7
100
AcDbLine
 10
17.193491
 20
94.716716
 30
0.0
 11
18.440916
 21
92.848400
 31
0.0
  0
LINE
  5
189
100
AcDbEntity
  8
text
 62
7
100
AcDbLine
 10
18.440916
 20
94.716716
 30
0.0
 11
18.440916
 21
92.848400
 31
0.0
  0
LINE
  5
18a
100
AcDbEntity
  8
text
 62
7
100
AcDbLine
 10
19.149291
 20
94.716716
 30
0.0
 11
19.149291
 21
92.848400
 31
0.0
  0
LINE
  5
18b
100
AcDbEntity
  8
text
 62
7
100
AcDbLine
 10
19.149291
 20
94.716716
 30
0.0
 11
20.306405
 21
94.716716
 31
0.0
  0
LINE
  5
18c
100
AcDbEntity
  8
text
 62
7
100
AcDbLine
 10
19.149291
 20
93.824892
 30
0.0
 11
19.860493
 21
93.824892
 31
0.0
  0
LINE
  5
18d
100
AcDbEntity
  8
text
 62
7
100
AcDbLine
 10
19.149291
 20
92.848400
 30
0.0
 11
20.306405
 21
92.848400
 31
0.0
  0
LINE
  5
18e
100
AcDbEntity
  8
text
 62
7
100
AcDbLine
 10
17.689691
 20
115.351016
 30
0.0
 11
17.689691
 21
113.482700
 31
0.0
  0
LINE
  5
18f
100
AcDbEntity
  8
text
 62
7
100
AcDbLine
 10
17.689691
 20
115.351016
 30
0.0
 11
18.846805
 21
115.351016
 31
0.0
  0
LINE
  5
190
100
AcDbEntity
  8
text
 62
7
100
AcDbLine
 10
17.689691
 20
114.459192
 30
0.0
 11
18.400893
 21
114.459192
 31
0.0
  0
LINE
  5
191
100
AcDbEntity
  8
text
 62
7
100
AcDbLine
 10
19.289891
 20
115.351016
 30
0.0
 11
19.289891
 21
113.482700
 31
0.0
  0
LINE
  5
192
100
AcDbEntity
  8
text
 62
7
100
AcDbLine
 10
19.289891
 20
115.351016
 30
0.0
 11
20.091404
 21
115.351016
 31
0.0
  0
LINE
  5
193
100
AcDbEntity
  8
text
 62
7
100
AcDbLine
 10
20.091404
 20
115.351016
 30
0.0
 11
20.356694
 21
115.260705
 31
0.0
  0
LINE
  5
194
100
AcDbEntity
  8
text
 62
7
100
AcDbLine
 10
20.356694
 20
115.260705
 30
0.0
 11
20.447005
 21
115.170394
 31
0.0
  0
LINE
  5
195
100
AcDbEntity
  8
text
 62
7
100
AcDbLine
 10
20.447005
 20
115.170394
 30
0.0
 11
20.537316
 21
114.995415
 31
0.0
  0
LINE
  5
196
100
AcDbEntity
  8
text
 62
7
100
AcDbLine
 10
20.537316
 20
114.995415
 30
0.0
 11
20.537316
 21
114.814793
 31
0.0
  0
LINE
  5
197
100
AcDbEntity
  8
text
 62
7
100
AcDbLine
 10
20.537316
 20
114.814793
 30
0.0
 11
20.447005
 21
114.639814
 31
0.0
  0
LINE
  5
198
100
AcDbEntity
  8
text
 62
7
100
AcDbLine
 10
20.447005
 20
114.639814
 30
0.0
 11
20.356694
 21
114.549503
 31
0.0
  0
LINE
  5
199
100
AcDbEntity
  8
text
 62
7
100
AcDbLine
 10
20.356694
 20
114.549503
 30
0.0
 11
20.091404
 21
114.459192
 31
0.0
  0
LINE
  5
19a
100
AcDbEntity
  8
text
 62
7
100
AcDbLine
 10
20.091404
 20
114.459192
 30
0.0
 11
19.289891
 21
114.459192
 31
0.0
  0
LINE
  5
19b
100
AcDbEntity
  8
text
 62
7
100
AcDbLine
 10
19.913603
 20
114.459192
 30
0.0
 11
20.537316
 21
113.482700
 31
0.0
  0
LINE
  5
19c
100
AcDbEntity
  8
text
 62
7
100
AcDbLine
 10
21.158211
 20
115.351016
 30
0.0
 11
21.158211
 21
113.482700
 31
0.0
  0
LINE
  5
19d
100
AcDbEntity
  8
text
 62
7
100
AcDbLine
 10
21.158211
 20
115.351016
 30
0.0
 11
22.315325
 21
115.351016
 31
0.0
  0
LINE
  5
19e
100
AcDbEntity
  8
text
 62
7
100
AcDbLine
 10
21.158211
 20
114.459192
 30
0.0
 11
21.869413
 21
114.459192
 31
0.0
  0
LINE
  5
19f
100
AcDbEntity
  8
text
 62
7
100
AcDbLine
 10
21.158211
 20
113.482700
 30
0.0
 11
22.315325
 21
113.482700
 31
0.0
  0
LINE
  5
1a0
100
AcDbEntity
  8
text
 62
7
100
AcDbLine
 10
23.291813
 20
115.351016
 30
0.0
 11
23.114012
 21
115.260705
 31
0.0
  0
LINE
  5
1a1
100
AcDbEntity
  8
text
 62
7
100
AcDbLine
 10
23.114012
 20
115.260705
 30
0.0
 11
22.936212
 21
115.082904
 31
0.0
  0
LINE
  5
1a2
100
AcDbEntity
  8
text
 62
7
100
AcDbLine
 10
22.936212
 20
115.082904
 30
0.0
 11
22.845901
 21
114.905104
 31
0.0
  0
LINE
  5
1a3
100
AcDbEntity
  8
text
 62
7
100
AcDbLine
 10
22.845901
 20
114.905104
 30
0.0
 11
22.758411
 21
114.639814
 31
0.0
  0
LINE
  5
1a4
100
AcDbEntity
  8
text
 62
7
100
AcDbLine
 10
22.758411
 20
114.639814
 30
0.0
 11
22.758411
 21
114.193902
 31
0.0
  0
LINE
  5
1a5
100
AcDbEntity
  8
text
 62
7
100
AcDbLine
 10
22.758411
 20
114.193902
 30
0.0
 11
22.845901
 21
113.928612
 31
0.0
  0
LINE
  5
1a6
100
AcDbEntity
  8
text
 62
7
100
AcDbLine
 10
22.845901
 20
113.928612
 30
0.0
 11
22.936212
 21
113.749401
 31
0.0
  0
LINE
  5
1a7
100
AcDbEntity
  8
text
 62
7
100
AcDbLine
 10
22.936212
 20
113.749401
 30
0.0
 11
23.114012
 21
113.571600
 31
0.0
  0
LINE
  5
1a8
100
AcDbEntity
  8
text
 62
7
100
AcDbLine
 10
23.114012
 20
113.571600
 30
0.0
 11
23.291813
 21
113.482700
 31
0.0
  0
LINE
  5
1a9
100
AcDbEntity
  8
text
 62
7
100
AcDbLine
 10
23.291813
 20
113.482700
 30
0.0
 11
23.647414
 21
113.482700
 31
0.0
  0
LINE
  5
1aa
100
AcDbEntity
  8
text
 62
7
100
AcDbLine
 10
23.647414
 20
113.482700
 30
0.0
 11
23.825214
 21
113.571600
 31
0.0
  0
LINE
  5
1ab
100
AcDbEntity
  8
text
 62
7
100
AcDbLine
 10
23.825214
 20
113.571600
 30
0.0
 11
24.003015
 21
113.749401
 31
0.0
  0
LINE
  5
1ac
100
AcDbEntity
  8
text
 62
7
100
AcDbLine
 10
24.003015
 20
113.749401
 30
0.0
 11
24.093326
 21
113.928612
 31
0.0
  0
LINE
  5
1ad
100
AcDbEntity
  8
text
 62
7
100
AcDbLine
 10
24.093326
 20
113.928612
 30
0.0
 11
24.180815
 21
114.193902
 31
0.0
  0
LINE
  5
1ae
100
AcDbEntity
  8
text
 62
7
100
AcDbLine
 10
24.180815
 20
114.193902
 30
0.0
 11
24.180815
 21
114.639814
 31
0.0
  0
LINE
  5
1af
100
AcDbEntity
  8
text
 62
7
100
AcDbLine
 10
24.180815
 20
114.639814
 30
0.0
 11
24.093326
 21
114.905104
 31
0.0
  0
LINE
  5
1b0
100
AcDbEntity
  8
text
 62
7
100
AcDbLine
 10
24.093326
 20
114.905104
 30
0.0
 11
24.003015
 21
115.082904
 31
0.0
  0
LINE
  5
1b1
100
AcDbEntity
  8
text
 62
7
100
AcDbLine
 10
24.003015
 20
115.082904
 30
0.0
 11
23.825214
 21
115.260705
 31
0.0
  0
LINE
  5
1b2
100
AcDbEntity
  8
text
 62
7
100
AcDbLine
 10
23.825214
 20
115.260705
 30
0.0
 11
23.647414
 21
115.351016
 31
0.0
  0
LINE
  5
1b3
100
AcDbEntity
  8
text
 62
7
100
AcDbLine
 10
23.647414
 20
115.351016
 30
0.0
 11
23.291813
 21
115.351016
 31
0.0
  0
LINE
  5
1b4
100
AcDbEntity
  8
text
 62
7
100
AcDbLine
 10
23.557103
 20
113.838301
 30
0.0
 11
24.093326
 21
113.304900
 31
0.0
  0
LINE
  5
1b5
100
AcDbEntity
  8
text
 62
7
100
AcDbLine
 10
24.801711
 20
115.351016
 30
0.0
 11
24.801711
 21
114.016101
 31
0.0
  0
LINE
  5
1b6
100
AcDbEntity
  8
text
 62
7
100
AcDbLine
 10
24.801711
 20
114.016101
 30
0.0
 11
24.892022
 21
113.749401
 31
0.0
  0
LINE
  5
1b7
100
AcDbEntity
  8
text
 62
7
100
AcDbLine
 10
24.892022
 20
113.749401
 30
0.0
 11
25.069822
 21
113.571600
 31
0.0
  0
LINE
  5
1b8
100
AcDbEntity
  8
text
 62
7
100
AcDbLine
 10
25.069822
 20
113.571600
 30
0.0
 11
25.337934
 21
113.482700
 31
0.0
  0
LINE
  5
1b9
100
AcDbEntity
  8
text
 62
7
100
AcDbLine
 10
25.337934
 20
113.482700
 30
0.0
 11
25.512913
 21
113.482700
 31
0.0
  0
LINE
  5
1ba
100
AcDbEntity
  8
text
 62
7
100
AcDbLine
 10
25.512913
 20
113.482700
 30
0.0
 11
25.781024
 21
113.571600
 31
0.0
  0
LINE
  5
1bb
100
AcDbEntity
  8
text
 62
7
100
AcDbLine
 10
25.781024
 20
113.571600
 30
0.0
 11
25.958825
 21
113.749401
 31
0.0
  0
LINE
  5
1bc
100
AcDbEntity
  8
text
 62
7
100
AcDbLine
 10
25.958825
 20
113.749401
 30
0.0
 11
26.049136
 21
114.016101
 31
0.0
  0
LINE
  5
1bd
100
AcDbEntity
  8
text
 62
7
100
AcDbLine
 10
26.049136
 20
114.016101
 30
0.0
 11
26.049136
 21
115.351016
 31
0.0
  0
LINE
  5
1be
100
AcDbEntity
  8
text
 62
7
100
AcDbLine
 10
26.757511
 20
115.351016
 30
0.0
 11
26.757511
 21
113.482700
 31
0.0
  0
LINE
  5
1bf
100
AcDbEntity
  8
text
 62
7
100
AcDbLine
 10
26.757511
 20
115.351016
 30
0.0
 11
27.914625
 21
115.351016
 31
0.0
  0
LINE
  5
1c0
100
AcDbEntity
  8
text
 62
7
100
AcDbLine
 10
26.757511
 20
114.459192
 30
0.0
 11
27.468713
 21
114.459192
 31
0.0
  0
LINE
  5
1c1
100
AcDbEntity
  8
text
 62
7
100
AcDbLine
 10
26.757511
 20
113.482700
 30
0.0
 11
27.914625
 21
113.482700
 31
0.0
  0
LINE
  5
1c2
100
AcDbEntity
  8
text
 62
7
100
AcDbLine
 10
28.445191
 20
115.351016
 30
0.0
 11
28.445191
 21
113.482700
 31
0.0
  0
LINE
  5
1c3
100
AcDbEntity
  8
text
 62
7
100
AcDbLine
 10
28.445191
 20
115.351016
 30
0.0
 11
29.692616
 21
113.482700
 31
0.0
  0
LINE
  5
1c4
100
AcDbEntity
  8
text
 62
7
100
AcDbLine
 10
29.692616
 20
115.351016
 30
0.0
 11
29.692616
 21
113.482700
 31
0.0
  0
LINE
  5
1c5
100
AcDbEntity
  8
text
 62
7
100
AcDbLine
 10
31.648416
 20
114.905104
 30
0.0
 11
31.558105
 21
115.082904
 31
0.0
  0
LINE
  5
1c6
100
AcDbEntity
  8
text
 62
7
100
AcDbLine
 10
31.558105
 20
115.082904
 30
0.0
 11
31.380304
 21
115.260705
 31
0.0
  0
LINE
  5
1c7
100
AcDbEntity
  8
text
 62
7
100
AcDbLine
 10
31.380304
 20
115.260705
 30
0.0
 11
31.202504
 21
115.351016
 31
0.0
  0
LINE
  5
1c8
100
AcDbEntity
  8
text
 62
7
100
AcDbLine
 10
31.202504
 20
115.351016
 30
0.0
 11
30.846903
 21
115.351016
 31
0.0
  0
LINE
  5
1c9
100
AcDbEntity
  8
text
 62
7
100
AcDbLine
 10
30.846903
 20
115.351016
 30
0.0
 11
30.669102
 21
115.260705
 31
0.0
  0
LINE
  5
1ca
100
AcDbEntity
  8
text
 62
7
100
AcDbLine
 10
30.669102
 20
115.260705
 30
0.0
 11
30.491302
 21
115.082904
 31
0.0
  0
LINE
  5
1cb
100
AcDbEntity
  8
text
 62
7
100
AcDbLine
 10
30.491302
 20
115.082904
 30
0.0
 11
30.400991
 21
114.905104
 31
0.0
  0
LINE
  5
1cc
100
AcDbEntity
  8
text
 62
7
100
AcDbLine
 10
30.400991
 20
114.905104
 30
0.0
 11
30.313501
 21
114.639814
 31
0.0
  0
LINE
  5
1cd
100
AcDbEntity
  8
text
 62
7
100
AcDbLine
 10
30.313501
 20
114.639814
 30
0.0
 11
30.313501
 21
114.193902
 31
0.0
  0
LINE
  5
1ce
100
AcDbEntity
  8
text
 62
7
100
AcDbLine
 10
30.313501
 20
114.193902
 30
0.0
 11
30.400991
 21
113.928612
 31
0.0
  0
LINE
  5
1cf
100
AcDbEntity
  8
text
 62
7
100
AcDbLine
 10
30.400991
 20
113.928612
 30
0.0
 11
30.491302
 21
113.749401
 31
0.0
  0
LINE
  5
1d0
100
AcDbEntity
  8
text
 62
7
100
AcDbLine
 10
30.491302
 20
113.749401
 30
0.0
 11
30.669102
 21
113.571600
 31
0.0
  0
LINE
  5
1d1
100
AcDbEntity
  8
text
 62
7
100
AcDbLine
 10
30.669102
 20
113.571600
 30
0.0
 11
30.846903
 21
113.482700
 31
0.0
  0
LINE
  5
1d2
100
AcDbEntity
  8
text
 62
7
100
AcDbLine
 10
30.846903
 20
113.482700
 30
0.0
 11
31.202504
 21
113.482700
 31
0.0
  0
LINE
  5
1d3
100
AcDbEntity
  8
text
 62
7
100
AcDbLine
 10
31.202504
 20
113.482700
 30
0.0
 11
31.380304
 21
113.571600
 31
0.0
  0
LINE
  5
1d4
100
AcDbEntity
  8
text
 62
7
100
AcDbLine
 10
31.380304
 20
113.571600
 30
0.0
 11
31.558105
 21
113.749401
 31
0.0
  0
LINE
  5
1d5
100
AcDbEntity
  8
text
 62
7
100
AcDbLine
 10
31.558105
 20
113.749401
 30
0.0
 11
31.648416
 21
113.928612
 31
0.0
  0
LINE
  5
1d6
100
AcDbEntity
  8
text
 62
7
100
AcDbLine
 10
32.004001
 20
115.351016
 30
0.0
 11
32.715203
 21
114.459192
 31
0.0
  0
LINE
  5
1d7
100
AcDbEntity
  8
text
 62
7
100
AcDbLine
 10
32.715203
 20
114.459192
 30
0.0
 11
32.715203
 21
113.482700
 31
0.0
  0
LINE
  5
1d8
100
AcDbEntity
  8
text
 62
7
100
AcDbLine
 10
33.426405
 20
115.351016
 30
0.0
 11
32.715203
 21
114.459192
 31
0.0
  0
LINE
  5
1d9
100
AcDbEntity
  8
text
 62
7
100
AcDbLine
 10
2.649391
 20
14.946416
 30
0.0
 11
2.649391
 21
13.078100
 31
0.0
  0
LINE
  5
1da
100
AcDbEntity
  8
text
 62
7
100
AcDbLine
 10
2.649391
 20
14.946416
 30
0.0
 11
3.806505
 21
14.946416
 31
0.0
  0
LINE
  5
1db
100
AcDbEntity
  8
text
 62
7
100
AcDbLine
 10
2.649391
 20
14.054592
 30
0.0
 11
3.360593
 21
14.054592
 31
0.0
  0
LINE
  5
1dc
100
AcDbEntity
  8
text
 62
7
100
AcDbLine
 10
4.249591
 20
14.946416
 30
0.0
 11
4.249591
 21
13.078100
 31
0.0
  0
LINE
  5
1dd
100
AcDbEntity
  8
text
 62
7
100
AcDbLine
 10
4.249591
 20
14.946416
 30
0.0
 11
5.051104
 21
14.946416
 31
0.0
  0
LINE
  5
1de
100
AcDbEntity
  8
text
 62
7
100
AcDbLine
 10
5.051104
 20
14.946416
 30
0.0
 11
5.316394
 21
14.856105
 31
0.0
  0
LINE
  5
1df
100
AcDbEntity
  8
text
 62
7
100
AcDbLine
 10
5.316394
 20
14.856105
 30
0.0
 11
5.406705
 21
14.765794
 31
0.0
  0
LINE
  5
1e0
100
AcDbEntity
  8
text
 62
7
100
AcDbLine
 10
5.406705
 20
14.765794
 30
0.0
 11
5.497016
 21
14.590815
 31
0.0
  0
LINE
  5
1e1
100
AcDbEntity
  8
text
 62
7
100
AcDbLine
 10
5.497016
 20
14.590815
 30
0.0
 11
5.497016
 21
14.410193
 31
0.0
  0
LINE
  5
1e2
100
AcDbEntity
  8
text
 62
7
100
AcDbLine
 10
5.497016
 20
14.410193
 30
0.0
 11
5.406705
 21
14.235214
 31
0.0
  0
LINE
  5
1e3
100
AcDbEntity
  8
text
 62
7
100
AcDbLine
 10
5.406705
 20
14.235214
 30
0.0
 11
5.316394
 21
14.144903
 31
0.0
  0
LINE
  5
1e4
100
AcDbEntity
  8
text
 62
7
100
AcDbLine
 10
5.316394
 20
14.144903
 30
0.0
 11
5.051104
 21
14.054592
 31
0.0
  0
LINE
  5
1e5
100
AcDbEntity
  8
text
 62
7
100
AcDbLine
 10
5.051104
 20
14.054592
 30
0.0
 11
4.249591
 21
14.054592
 31
0.0
  0
LINE
  5
1e6
100
AcDbEntity
  8
text
 62
7
100
AcDbLine
 10
4.873303
 20
14.054592
 30
0.0
 11
5.497016
 21
13.078100
 31
0.0
  0
LINE
  5
1e7
100
AcDbEntity
  8
text
 62
7
100
AcDbLine
 10
6.117911
 20
14.946416
 30
0.0
 11
6.117911
 21
13.078100
 31
0.0
  0
LINE
  5
1e8
100
AcDbEntity
  8
text
 62
7
100
AcDbLine
 10
6.117911
 20
14.946416
 30
0.0
 11
7.275025
 21
14.946416
 31
0.0
  0
LINE
  5
1e9
100
AcDbEntity
  8
text
 62
7
100
AcDbLine
 10
6.117911
 20
14.054592
 30
0.0
 11
6.829113
 21
14.054592
 31
0.0
  0
LINE
  5
1ea
100
AcDbEntity
  8
text
 62
7
100
AcDbLine
 10
6.117911
 20
13.078100
 30
0.0
 11
7.275025
 21
13.078100
 31
0.0
  0
LINE
  5
1eb
100
AcDbEntity
  8
text
 62
7
100
AcDbLine
 10
8.251513
 20
14.946416
 30
0.0
 11
8.073712
 21
14.856105
 31
0.0
  0
LINE
  5
1ec
100
AcDbEntity
  8
text
 62
7
100
AcDbLine
 10
8.073712
 20
14.856105
 30
0.0
 11
7.895912
 21
14.678304
 31
0.0
  0
LINE
  5
1ed
100
AcDbEntity
  8
text
 62
7
100
AcDbLine
 10
7.895912
 20
14.678304
 30
0.0
 11
7.805601
 21
14.500504
 31
0.0
  0
LINE
  5
1ee
100
AcDbEntity
  8
text
 62
7
100
AcDbLine
 10
7.805601
 20
14.500504
 30
0.0
 11
7.718111
 21
14.235214
 31
0.0
  0
LINE
  5
1ef
100
AcDbEntity
  8
text
 62
7
100
AcDbLine
 10
7.718111
 20
14.235214
 30
0.0
 11
7.718111
 21
13.789302
 31
0.0
  0
LINE
  5
1f0
100
AcDbEntity
  8
text
 62
7
100
AcDbLine
 10
7.718111
 20
13.789302
 30
0.0
 11
7.805601
 21
13.524012
 31
0.0
  0
LINE
  5
1f1
100
AcDbEntity
  8
text
 62
7
100
AcDbLine
 10
7.805601
 20
13.524012
 30
0.0
 11
7.895912
 21
13.344801
 31
0.0
  0
LINE
  5
1f2
100
AcDbEntity
  8
text
 62
7
100
AcDbLine
 10
7.895912
 20
13.344801
 30
0.0
 11
8.073712
 21
13.167000
 31
0.0
  0
LINE
  5
1f3
100
AcDbEntity
  8
text
 62
7
100
AcDbLine
 10
8.073712
 20
13.167000
 30
0.0
 11
8.251513
 21
13.078100
 31
0.0
  0
LINE
  5
1f4
100
AcDbEntity
  8
text
 62
7
100
AcDbLine
 10
8.251513
 20
13.078100
 30
0.0
 11
8.607114
 21
13.078100
 31
0.0
  0
LINE
  5
1f5
100
AcDbEntity
  8
text
 62
7
100
AcDbLine
 10
8.607114
 20
13.078100
 30
0.0
 11
8.784914
 21
13.167000
 31
0.0
  0
LINE
  5
1f6
100
AcDbEntity
  8
text
 62
7
100
AcDbLine
 10
8.784914
 20
13.167000
 30
0.0
 11
8.962715
 21
13.344801
 31
0.0
  0
LINE
  5
1f7
100
AcDbEntity
  8
text
 62
7
100
AcDbLine
 10
8.962715
 20
13.344801
 30
0.0
 11
9.053026
 21
13.524012
 31
0.0
  0
LINE
  5
1f8
100
AcDbEntity
  8
text
 62
7
100
AcDbLine
 10
9.053026
 20
13.524012
 30
0.0
 11
9.140515
 21
13.789302
 31
0.0
  0
LINE
  5
1f9
100
AcDbEntity
  8
text
 62
7
100
AcDbLine
 10
9.140515
 20
13.789302
 30
0.0
 11
9.140515
 21
14.235214
 31
0.0
  0
LINE
  5
1fa
100
AcDbEntity
  8
text
 62
7
100
AcDbLine
 10
9.140515
 20
14.235214
 30
0.0
 11
9.053026
 21
14.500504
 31
0.0
  0
LINE
  5
1fb
100
AcDbEntity
  8
text
 62
7
100
AcDbLine
 10
9.053026
 20
14.500504
 30
0.0
 11
8.962715
 21
14.678304
 31
0.0
  0
LINE
  5
1fc
100
AcDbEntity
  8
text
 62
7
100
AcDbLine
 10
8.962715
 20
14.678304
 30
0.0
 11
8.784914
 21
14.856105
 31
0.0
  0
LINE
  5
1fd
100
AcDbEntity
  8
text
 62
7
100
AcDbLine
 10
8.784914
 20
14.856105
 30
0.0
 11
8.607114
 21
14.946416
 31
0.0
  0
LINE
  5
1fe
100
AcDbEntity
  8
text
 62
7
100
AcDbLine
 10
8.607114
 20
14.946416
 30
0.0
 11
8.251513
 21
14.946416
 31
0.0
  0
LINE
  5
1ff
100
AcDbEntity
  8
text
 62
7
100
AcDbLine
 10
8.516803
 20
13.433701
 30
0.0
 11
9.053026
 21
12.900300
 31
0.0
  0
LINE
  5
200
100
AcDbEntity
  8
text
 62
7
100
AcDbLine
 10
5.718616
 20
11.681304
 30
0.0
 11
5.628305
 21
11.859104
 31
0.0
  0
LINE
  5
201
100
AcDbEntity
  8
text
 62
7
100
AcDbLine
 10
5.628305
 20
11.859104
 30
0.0
 11
5.450504
 21
12.036905
 31
0.0
  0
LINE
  5
202
100
AcDbEntity
  8
text
 62
7
100
AcDbLine
 10
5.450504
 20
12.036905
 30
0.0
 11
5.272704
 21
12.127216
 31
0.0
  0
LINE
  5
203
100
AcDbEntity
  8
text
 62
7
100
AcDbLine
 10
5.272704
 20
12.127216
 30
0.0
 11
4.917103
 21
12.127216
 31
0.0
  0
LINE
  5
204
100
AcDbEntity
  8
text
 62
7
100
AcDbLine
 10
4.917103
 20
12.127216
 30
0.0
 11
4.739302
 21
12.036905
 31
0.0
  0
LINE
  5
205
100
AcDbEntity
  8
text
 62
7
100
AcDbLine
 10
4.739302
 20
12.036905
 30
0.0
 11
4.561502
 21
11.859104
 31
0.0
  0
LINE
  5
206
100
AcDbEntity
  8
text
 62
7
100
AcDbLine
 10
4.561502
 20
11.859104
 30
0.0
 11
4.471191
 21
11.681304
 31
0.0
  0
LINE
  5
207
100
AcDbEntity
  8
text
 62
7
100
AcDbLine
 10
4.471191
 20
11.681304
 30
0.0
 11
4.383701
 21
11.416014
 31
0.0
  0
LINE
  5
208
100
AcDbEntity
  8
text
 62
7
100
AcDbLine
 10
4.383701
 20
11.416014
 30
0.0
 11
4.383701
 21
10.970102
 31
0.0
  0
LINE
  5
209
100
AcDbEntity
  8
text
 62
7
100
AcDbLine
 10
4.383701
 20
10.970102
 30
0.0
 11
4.471191
 21
10.704812
 31
0.0
  0
LINE
  5
20a
100
AcDbEntity
  8
text
 62
7
100
AcDbLine
 10
4.471191
 20
10.704812
 30
0.0
 11
4.561502
 21
10.525601
 31
0.0
  0
LINE
  5
20b
100
AcDbEntity
  8
text
 62
7
100
AcDbLine
 10
4.561502
 20
10.525601
 30
0.0
 11
4.739302
 21
10.347800
 31
0.0
  0
LINE
  5
20c
100
AcDbEntity
  8
text
 62
7
100
AcDbLine
 10
4.739302
 20
10.347800
 30
0.0
 11
4.917103
 21
10.258900
 31
0.0
  0
LINE
  5
20d
100
AcDbEntity
  8
text
 62
7
100
AcDbLine
 10
4.917103
 20
10.258900
 30
0.0
 11
5.272704
 21
10.258900
 31
0.0
  0
LINE
  5
20e
100
AcDbEntity
  8
text
 62
7
100
AcDbLine
 10
5.272704
 20
10.258900
 30
0.0
 11
5.450504
 21
10.347800
 31
0.0
  0
LINE
  5
20f
100
AcDbEntity
  8
text
 62
7
100
AcDbLine
 10
5.450504
 20
10.347800
 30
0.0
 11
5.628305
 21
10.525601
 31
0.0
  0
LINE
  5
210
100
AcDbEntity
  8
text
 62
7
100
AcDbLine
 10
5.628305
 20
10.525601
 30
0.0
 11
5.718616
 21
10.704812
 31
0.0
  0
LINE
  5
211
100
AcDbEntity
  8
text
 62
7
100
AcDbLine
 10
6.074221
 20
12.127216
 30
0.0
 11
6.785423
 21
10.258900
 31
0.0
  0
LINE
  5
212
100
AcDbEntity
  8
text
 62
7
100
AcDbLine
 10
7.496625
 20
12.127216
 30
0.0
 11
6.785423
 21
10.258900
 31
0.0
  0
LINE
  5
213
100
AcDbEntity
  8
text
 62
7
100
AcDbLine
 10
13.594105
 20
14.690604
 30
0.0
 11
13.416304
 21
14.868405
 31
0.0
  0
LINE
  5
214
100
AcDbEntity
  8
text
 62
7
100
AcDbLine
 10
13.416304
 20
14.868405
 30
0.0
 11
13.148193
 21
14.958716
 31
0.0
  0
LINE
  5
215
100
AcDbEntity
  8
text
 62
7
100
AcDbLine
 10
13.148193
 20
14.958716
 30
0.0
 11
12.792592
 21
14.958716
 31
0.0
  0
LINE
  5
216
100
AcDbEntity
  8
text
 62
7
100
AcDbLine
 10
12.792592
 20
14.958716
 30
0.0
 11
12.527302
 21
14.868405
 31
0.0
  0
LINE
  5
217
100
AcDbEntity
  8
text
 62
7
100
AcDbLine
 10
12.527302
 20
14.868405
 30
0.0
 11
12.349501
 21
14.690604
 31
0.0
  0
LINE
  5
218
100
AcDbEntity
  8
text
 62
7
100
AcDbLine
 10
12.349501
 20
14.690604
 30
0.0
 11
12.349501
 21
14.512804
 31
0.0
  0
LINE
  5
219
100
AcDbEntity
  8
text
 62
7
100
AcDbLine
 10
12.349501
 20
14.512804
 30
0.0
 11
12.436991
 21
14.335003
 31
0.0
  0
LINE
  5
21a
100
AcDbEntity
  8
text
 62
7
100
AcDbLine
 10
12.436991
 20
14.335003
 30
0.0
 11
12.527302
 21
14.247514
 31
0.0
  0
LINE
  5
21b
100
AcDbEntity
  8
text
 62
7
100
AcDbLine
 10
12.527302
 20
14.247514
 30
0.0
 11
12.705102
 21
14.157203
 31
0.0
  0
LINE
  5
21c
100
AcDbEntity
  8
text
 62
7
100
AcDbLine
 10
12.705102
 20
14.157203
 30
0.0
 11
13.238504
 21
13.979402
 31
0.0
  0
LINE
  5
21d
100
AcDbEntity
  8
text
 62
7
100
AcDbLine
 10
13.238504
 20
13.979402
 30
0.0
 11
13.416304
 21
13.891913
 31
0.0
  0
LINE
  5
21e
100
AcDbEntity
  8
text
 62
7
100
AcDbLine
 10
13.416304
 20
13.891913
 30
0.0
 11
13.503794
 21
13.801602
 31
0.0
  0
LINE
  5
21f
100
AcDbEntity
  8
text
 62
7
100
AcDbLine
 10
13.503794
 20
13.801602
 30
0.0
 11
13.594105
 21
13.623801
 31
0.0
  0
LINE
  5
220
100
AcDbEntity
  8
text
 62
7
100
AcDbLine
 10
13.594105
 20
13.623801
 30
0.0
 11
13.594105
 21
13.357101
 31
0.0
  0
LINE
  5
221
100
AcDbEntity
  8
text
 62
7
100
AcDbLine
 10
13.594105
 20
13.357101
 30
0.0
 11
13.416304
 21
13.179300
 31
0.0
  0
LINE
  5
222
100
AcDbEntity
  8
text
 62
7
100
AcDbLine
 10
13.416304
 20
13.179300
 30
0.0
 11
13.148193
 21
13.090400
 31
0.0
  0
LINE
  5
223
100
AcDbEntity
  8
text
 62
7
100
AcDbLine
 10
13.148193
 20
13.090400
 30
0.0
 11
12.792592
 21
13.090400
 31
0.0
  0
LINE
  5
224
100
AcDbEntity
  8
text
 62
7
100
AcDbLine
 10
12.792592
 20
13.090400
 30
0.0
 11
12.527302
 21
13.179300
 31
0.0
  0
LINE
  5
225
100
AcDbEntity
  8
text
 62
7
100
AcDbLine
 10
12.527302
 20
13.179300
 30
0.0
 11
12.349501
 21
13.357101
 31
0.0
  0
LINE
  5
226
100
AcDbEntity
  8
text
 62
7
100
AcDbLine
 10
13.949701
 20
14.958716
 30
0.0
 11
14.660903
 21
14.066892
 31
0.0
  0
LINE
  5
227
100
AcDbEntity
  8
text
 62
7
100
AcDbLine
 10
14.660903
 20
14.066892
 30
0.0
 11
14.660903
 21
13.090400
 31
0.0
  0
LINE
  5
228
100
AcDbEntity
  8
text
 62
7
100
AcDbLine
 10
15.372105
 20
14.958716
 30
0.0
 11
14.660903
 21
14.066892
 31
0.0
  0
LINE
  5
229
100
AcDbEntity
  8
text
 62
7
100
AcDbLine
 10
15.815201
 20
14.958716
 30
0.0
 11
15.815201
 21
13.090400
 31
0.0
  0
LINE
  5
22a
100
AcDbEntity
  8
text
 62
7
100
AcDbLine
 10
15.815201
 20
14.958716
 30
0.0
 11
17.062626
 21
13.090400
 31
0.0
  0
LINE
  5
22b
100
AcDbEntity
  8
text
 62
7
100
AcDbLine
 10
17.062626
 20
14.958716
 30
0.0
 11
17.062626
 21
13.090400
 31
0.0
  0
LINE
  5
22c
100
AcDbEntity
  8
text
 62
7
100
AcDbLine
 10
19.018426
 20
14.512804
 30
0.0
 11
18.928115
 21
14.690604
 31
0.0
  0
LINE
  5
22d
100
AcDbEntity
  8
text
 62
7
100
AcDbLine
 10
18.928115
 20
14.690604
 30
0.0
 11
18.750314
 21
14.868405
 31
0.0
  0
LINE
  5
22e
100
AcDbEntity
  8
text
 62
7
100
AcDbLine
 10
18.750314
 20
14.868405
 30
0.0
 11
18.572514
 21
14.958716
 31
0.0
  0
LINE
  5
22f
100
AcDbEntity
  8
text
 62
7
100
AcDbLine
 10
18.572514
 20
14.958716
 30
0.0
 11
18.216913
 21
14.958716
 31
0.0
  0
LINE
  5
230
100
AcDbEntity
  8
text
 62
7
100
AcDbLine
 10
18.216913
 20
14.958716
 30
0.0
 11
18.039112
 21
14.868405
 31
0.0
  0
LINE
  5
231
100
AcDbEntity
  8
text
 62
7
100
AcDbLine
 10
18.039112
 20
14.868405
 30
0.0
 11
17.861312
 21
14.690604
 31
0.0
  0
LINE
  5
232
100
AcDbEntity
  8
text
 62
7
100
AcDbLine
 10
17.861312
 20
14.690604
 30
0.0
 11
17.771001
 21
14.512804
 31
0.0
  0
LINE
  5
233
100
AcDbEntity
  8
text
 62
7
100
AcDbLine
 10
17.771001
 20
14.512804
 30
0.0
 11
17.683511
 21
14.247514
 31
0.0
  0
LINE
  5
234
100
AcDbEntity
  8
text
 62
7
100
AcDbLine
 10
17.683511
 20
14.247514
 30
0.0
 11
17.683511
 21
13.801602
 31
0.0
  0
LINE
  5
235
100
AcDbEntity
  8
text
 62
7
100
AcDbLine
 10
17.683511
 20
13.801602
 30
0.0
 11
17.771001
 21
13.536312
 31
0.0
  0
LINE
  5
236
100
AcDbEntity
  8
text
 62
7
100
AcDbLine
 10
17.771001
 20
13.536312
 30
0.0
 11
17.861312
 21
13.357101
 31
0.0
  0
LINE
  5
237
100
AcDbEntity
  8
text
 62
7
100
AcDbLine
 10
17.861312
 20
13.357101
 30
0.0
 11
18.039112
 21
13.179300
 31
0.0
  0
LINE
  5
238
100
AcDbEntity
  8
text
 62
7
100
AcDbLine
 10
18.039112
 20
13.179300
 30
0.0
 11
18.216913
 21
13.090400
 31
0.0
  0
LINE
  5
239
100
AcDbEntity
  8
text
 62
7
100
AcDbLine
 10
18.216913
 20
13.090400
 30
0.0
 11
18.572514
 21
13.090400
 31
0.0
  0
LINE
  5
23a
100
AcDbEntity
  8
text
 62
7
100
AcDbLine
 10
18.572514
 20
13.090400
 30
0.0
 11
18.750314
 21
13.179300
 31
0.0
  0
LINE
  5
23b
100
AcDbEntity
  8
text
 62
7
100
AcDbLine
 10
18.750314
 20
13.179300
 30
0.0
 11
18.928115
 21
13.357101
 31
0.0
  0
LINE
  5
23c
100
AcDbEntity
  8
text
 62
7
100
AcDbLine
 10
18.928115
 20
13.357101
 30
0.0
 11
19.018426
 21
13.536312
 31
0.0
  0
LINE
  5
23d
100
AcDbEntity
  8
text
 62
7
100
AcDbLine
 10
2.559091
 20
28.888516
 30
0.0
 11
2.559091
 21
27.020200
 31
0.0
  0
LINE
  5
23e
100
AcDbEntity
  8
text
 62
7
100
AcDbLine
 10
3.806516
 20
28.888516
 30
0.0
 11
3.806516
 21
27.020200
 31
0.0
  0
LINE
  5
23f
100
AcDbEntity
  8
text
 62
7
100
AcDbLine
 10
2.559091
 20
27.996692
 30
0.0
 11
3.806516
 21
27.996692
 31
0.0
  0
LINE
  5
240
100
AcDbEntity
  8
text
 62
7
100
AcDbLine
 10
4.960813
 20
28.888516
 30
0.0
 11
4.249611
 21
27.020200
 31
0.0
  0
LINE
  5
241
100
AcDbEntity
  8
text
 62
7
100
AcDbLine
 10
4.960813
 20
28.888516
 30
0.0
 11
5.672015
 21
27.020200
 31
0.0
  0
LINE
  5
242
100
AcDbEntity
  8
text
 62
7
100
AcDbLine
 10
4.514901
 20
27.641091
 30
0.0
 11
5.406725
 21
27.641091
 31
0.0
  0
LINE
  5
243
100
AcDbEntity
  8
text
 62
7
100
AcDbLine
 10
6.115101
 20
28.888516
 30
0.0
 11
6.115101
 21
27.020200
 31
0.0
  0
LINE
  5
244
100
AcDbEntity
  8
text
 62
7
100
AcDbLine
 10
6.115101
 20
28.888516
 30
0.0
 11
6.916614
 21
28.888516
 31
0.0
  0
LINE
  5
245
100
AcDbEntity
  8
text
 62
7
100
AcDbLine
 10
6.916614
 20
28.888516
 30
0.0
 11
7.181904
 21
28.798205
 31
0.0
  0
LINE
  5
246
100
AcDbEntity
  8
text
 62
7
100
AcDbLine
 10
7.181904
 20
28.798205
 30
0.0
 11
7.272215
 21
28.707894
 31
0.0
  0
LINE
  5
247
100
AcDbEntity
  8
text
 62
7
100
AcDbLine
 10
7.272215
 20
28.707894
 30
0.0
 11
7.362526
 21
28.532915
 31
0.0
  0
LINE
  5
248
100
AcDbEntity
  8
text
 62
7
100
AcDbLine
 10
7.362526
 20
28.532915
 30
0.0
 11
7.362526
 21
28.352293
 31
0.0
  0
LINE
  5
249
100
AcDbEntity
  8
text
 62
7
100
AcDbLine
 10
7.362526
 20
28.352293
 30
0.0
 11
7.272215
 21
28.177314
 31
0.0
  0
LINE
  5
24a
100
AcDbEntity
  8
text
 62
7
100
AcDbLine
 10
7.272215
 20
28.177314
 30
0.0
 11
7.181904
 21
28.087003
 31
0.0
  0
LINE
  5
24b
100
AcDbEntity
  8
text
 62
7
100
AcDbLine
 10
7.181904
 20
28.087003
 30
0.0
 11
6.916614
 21
27.996692
 31
0.0
  0
LINE
  5
24c
100
AcDbEntity
  8
text
 62
7
100
AcDbLine
 10
6.916614
 20
27.996692
 30
0.0
 11
6.115101
 21
27.996692
 31
0.0
  0
LINE
  5
24d
100
AcDbEntity
  8
text
 62
7
100
AcDbLine
 10
6.738813
 20
27.996692
 30
0.0
 11
7.362526
 21
27.020200
 31
0.0
  0
LINE
  5
24e
100
AcDbEntity
  8
text
 62
7
100
AcDbLine
 10
7.983421
 20
28.888516
 30
0.0
 11
7.983421
 21
27.020200
 31
0.0
  0
LINE
  5
24f
100
AcDbEntity
  8
text
 62
7
100
AcDbLine
 10
7.983421
 20
28.888516
 30
0.0
 11
8.607133
 21
28.888516
 31
0.0
  0
LINE
  5
250
100
AcDbEntity
  8
text
 62
7
100
AcDbLine
 10
8.607133
 20
28.888516
 30
0.0
 11
8.875245
 21
28.798205
 31
0.0
  0
LINE
  5
251
100
AcDbEntity
  8
text
 62
7
100
AcDbLine
 10
8.875245
 20
28.798205
 30
0.0
 11
9.050224
 21
28.620404
 31
0.0
  0
LINE
  5
252
100
AcDbEntity
  8
text
 62
7
100
AcDbLine
 10
9.050224
 20
28.620404
 30
0.0
 11
9.140535
 21
28.442604
 31
0.0
  0
LINE
  5
253
100
AcDbEntity
  8
text
 62
7
100
AcDbLine
 10
9.140535
 20
28.442604
 30
0.0
 11
9.230846
 21
28.177314
 31
0.0
  0
LINE
  5
254
100
AcDbEntity
  8
text
 62
7
100
AcDbLine
 10
9.230846
 20
28.177314
 30
0.0
 11
9.230846
 21
27.731402
 31
0.0
  0
LINE
  5
255
100
AcDbEntity
  8
text
 62
7
100
AcDbLine
 10
9.230846
 20
27.731402
 30
0.0
 11
9.140535
 21
27.466112
 31
0.0
  0
LINE
  5
256
100
AcDbEntity
  8
text
 62
7
100
AcDbLine
 10
9.140535
 20
27.466112
 30
0.0
 11
9.050224
 21
27.286901
 31
0.0
  0
LINE
  5
257
100
AcDbEntity
  8
text
 62
7
100
AcDbLine
 10
9.050224
 20
27.286901
 30
0.0
 11
8.875245
 21
27.109100
 31
0.0
  0
LINE
  5
258
100
AcDbEntity
  8
text
 62
7
100
AcDbLine
 10
8.875245
 20
27.109100
 30
0.0
 11
8.607133
 21
27.020200
 31
0.0
  0
LINE
  5
259
100
AcDbEntity
  8
text
 62
7
100
AcDbLine
 10
8.607133
 20
27.020200
 30
0.0
 11
7.983421
 21
27.020200
 31
0.0
  0
LINE
  5
25a
100
AcDbEntity
  8
text
 62
7
100
AcDbLine
 10
4.117005
 20
42.798804
 30
0.0
 11
3.939204
 21
42.976605
 31
0.0
  0
LINE
  5
25b
100
AcDbEntity
  8
text
 62
7
100
AcDbLine
 10
3.939204
 20
42.976605
 30
0.0
 11
3.671093
 21
43.066916
 31
0.0
  0
LINE
  5
25c
100
AcDbEntity
  8
text
 62
7
100
AcDbLine
 10
3.671093
 20
43.066916
 30
0.0
 11
3.315492
 21
43.066916
 31
0.0
  0
LINE
  5
25d
100
AcDbEntity
  8
text
 62
7
100
AcDbLine
 10
3.315492
 20
43.066916
 30
0.0
 11
3.050202
 21
42.976605
 31
0.0
  0
LINE
  5
25e
100
AcDbEntity
  8
text
 62
7
100
AcDbLine
 10
3.050202
 20
42.976605
 30
0.0
 11
2.872401
 21
42.798804
 31
0.0
  0
LINE
  5
25f
100
AcDbEntity
  8
text
 62
7
100
AcDbLine
 10
2.872401
 20
42.798804
 30
0.0
 11
2.872401
 21
42.621004
 31
0.0
  0
LINE
  5
260
100
AcDbEntity
  8
text
 62
7
100
AcDbLine
 10
2.872401
 20
42.621004
 30
0.0
 11
2.959891
 21
42.443203
 31
0.0
  0
LINE
  5
261
100
AcDbEntity
  8
text
 62
7
100
AcDbLine
 10
2.959891
 20
42.443203
 30
0.0
 11
3.050202
 21
42.355714
 31
0.0
  0
LINE
  5
262
100
AcDbEntity
  8
text
 62
7
100
AcDbLine
 10
3.050202
 20
42.355714
 30
0.0
 11
3.228002
 21
42.265403
 31
0.0
  0
LINE
  5
263
100
AcDbEntity
  8
text
 62
7
100
AcDbLine
 10
3.228002
 20
42.265403
 30
0.0
 11
3.761404
 21
42.087602
 31
0.0
  0
LINE
  5
264
100
AcDbEntity
  8
text
 62
7
100
AcDbLine
 10
3.761404
 20
42.087602
 30
0.0
 11
3.939204
 21
42.000113
 31
0.0
  0
LINE
  5
265
100
AcDbEntity
  8
text
 62
7
100
AcDbLine
 10
3.939204
 20
42.000113
 30
0.0
 11
4.026694
 21
41.909802
 31
0.0
  0
LINE
  5
266
100
AcDbEntity
  8
text
 62
7
100
AcDbLine
 10
4.026694
 20
41.909802
 30
0.0
 11
4.117005
 21
41.732001
 31
0.0
  0
LINE
  5
267
100
AcDbEntity
  8
text
 62
7
100
AcDbLine
 10
4.117005
 20
41.732001
 30
0.0
 11
4.117005
 21
41.465301
 31
0.0
  0
LINE
  5
268
100
AcDbEntity
  8
text
 62
7
100
AcDbLine
 10
4.117005
 20
41.465301
 30
0.0
 11
3.939204
 21
41.287500
 31
0.0
  0
LINE
  5
269
100
AcDbEntity
  8
text
 62
7
100
AcDbLine
 10
3.939204
 20
41.287500
 30
0.0
 11
3.671093
 21
41.198600
 31
0.0
  0
LINE
  5
26a
100
AcDbEntity
  8
text
 62
7
100
AcDbLine
 10
3.671093
 20
41.198600
 30
0.0
 11
3.315492
 21
41.198600
 31
0.0
  0
LINE
  5
26b
100
AcDbEntity
  8
text
 62
7
100
AcDbLine
 10
3.315492
 20
41.198600
 30
0.0
 11
3.050202
 21
41.287500
 31
0.0
  0
LINE
  5
26c
100
AcDbEntity
  8
text
 62
7
100
AcDbLine
 10
3.050202
 20
41.287500
 30
0.0
 11
2.872401
 21
41.465301
 31
0.0
  0
LINE
  5
26d
100
AcDbEntity
  8
text
 62
7
100
AcDbLine
 10
5.183803
 20
43.066916
 30
0.0
 11
5.006002
 21
42.976605
 31
0.0
  0
LINE
  5
26e
100
AcDbEntity
  8
text
 62
7
100
AcDbLine
 10
5.006002
 20
42.976605
 30
0.0
 11
4.828202
 21
42.798804
 31
0.0
  0
LINE
  5
26f
100
AcDbEntity
  8
text
 62
7
100
AcDbLine
 10
4.828202
 20
42.798804
 30
0.0
 11
4.737891
 21
42.621004
 31
0.0
  0
LINE
  5
270
100
AcDbEntity
  8
text
 62
7
100
AcDbLine
 10
4.737891
 20
42.621004
 30
0.0
 11
4.650401
 21
42.355714
 31
0.0
  0
LINE
  5
271
100
AcDbEntity
  8
text
 62
7
100
AcDbLine
 10
4.650401
 20
42.355714
 30
0.0
 11
4.650401
 21
41.909802
 31
0.0
  0
LINE
  5
272
100
AcDbEntity
  8
text
 62
7
100
AcDbLine
 10
4.650401
 20
41.909802
 30
0.0
 11
4.737891
 21
41.644512
 31
0.0
  0
LINE
  5
273
100
AcDbEntity
  8
text
 62
7
100
AcDbLine
 10
4.737891
 20
41.644512
 30
0.0
 11
4.828202
 21
41.465301
 31
0.0
  0
LINE
  5
274
100
AcDbEntity
  8
text
 62
7
100
AcDbLine
 10
4.828202
 20
41.465301
 30
0.0
 11
5.006002
 21
41.287500
 31
0.0
  0
LINE
  5
275
100
AcDbEntity
  8
text
 62
7
100
AcDbLine
 10
5.006002
 20
41.287500
 30
0.0
 11
5.183803
 21
41.198600
 31
0.0
  0
LINE
  5
276
100
AcDbEntity
  8
text
 62
7
100
AcDbLine
 10
5.183803
 20
41.198600
 30
0.0
 11
5.539404
 21
41.198600
 31
0.0
  0
LINE
  5
277
100
AcDbEntity
  8
text
 62
7
100
AcDbLine
 10
5.539404
 20
41.198600
 30
0.0
 11
5.717204
 21
41.287500
 31
0.0
  0
LINE
  5
278
100
AcDbEntity
  8
text
 62
7
100
AcDbLine
 10
5.717204
 20
41.287500
 30
0.0
 11
5.895005
 21
41.465301
 31
0.0
  0
LINE
  5
279
100
AcDbEntity
  8
text
 62
7
100
AcDbLine
 10
5.895005
 20
41.465301
 30
0.0
 11
5.985316
 21
41.644512
 31
0.0
  0
LINE
  5
27a
100
AcDbEntity
  8
text
 62
7
100
AcDbLine
 10
5.985316
 20
41.644512
 30
0.0
 11
6.072805
 21
41.909802
 31
0.0
  0
LINE
  5
27b
100
AcDbEntity
  8
text
 62
7
100
AcDbLine
 10
6.072805
 20
41.909802
 30
0.0
 11
6.072805
 21
42.355714
 31
0.0
  0
LINE
  5
27c
100
AcDbEntity
  8
text
 62
7
100
AcDbLine
 10
6.072805
 20
42.355714
 30
0.0
 11
5.985316
 21
42.621004
 31
0.0
  0
LINE
  5
27d
100
AcDbEntity
  8
text
 62
7
100
AcDbLine
 10
5.985316
 20
42.621004
 30
0.0
 11
5.895005
 21
42.798804
 31
0.0
  0
LINE
  5
27e
100
AcDbEntity
  8
text
 62
7
100
AcDbLine
 10
5.895005
 20
42.798804
 30
0.0
 11
5.717204
 21
42.976605
 31
0.0
  0
LINE
  5
27f
100
AcDbEntity
  8
text
 62
7
100
AcDbLine
 10
5.717204
 20
42.976605
 30
0.0
 11
5.539404
 21
43.066916
 31
0.0
  0
LINE
  5
280
100
AcDbEntity
  8
text
 62
7
100
AcDbLine
 10
5.539404
 20
43.066916
 30
0.0
 11
5.183803
 21
43.066916
 31
0.0
  0
LINE
  5
281
100
AcDbEntity
  8
text
 62
7
100
AcDbLine
 10
6.693701
 20
43.066916
 30
0.0
 11
6.693701
 21
41.198600
 31
0.0
  0
LINE
  5
282
100
AcDbEntity
  8
text
 62
7
100
AcDbLine
 10
6.693701
 20
43.066916
 30
0.0
 11
7.850815
 21
43.066916
 31
0.0
  0
LINE
  5
283
100
AcDbEntity
  8
text
 62
7
100
AcDbLine
 10
6.693701
 20
42.175092
 30
0.0
 11
7.404903
 21
42.175092
 31
0.0
  0
LINE
  5
284
100
AcDbEntity
  8
text
 62
7
100
AcDbLine
 10
8.649502
 20
43.066916
 30
0.0
 11
8.649502
 21
41.198600
 31
0.0
  0
LINE
  5
285
100
AcDbEntity
  8
text
 62
7
100
AcDbLine
 10
8.028611
 20
43.066916
 30
0.0
 11
9.273214
 21
43.066916
 31
0.0
  0
LINE
  5
286
100
AcDbEntity
  8
text
 62
7
100
AcDbLine
 10
13.576805
 20
35.716104
 30
0.0
 11
13.399004
 21
35.893905
 31
0.0
  0
LINE
  5
287
100
AcDbEntity
  8
text
 62
7
100
AcDbLine
 10
13.399004
 20
35.893905
 30
0.0
 11
13.130893
 21
35.984216
 31
0.0
  0
LINE
  5
288
100
AcDbEntity
  8
text
 62
7
100
AcDbLine
 10
13.130893
 20
35.984216
 30
0.0
 11
12.775292
 21
35.984216
 31
0.0
  0
LINE
  5
289
100
AcDbEntity
  8
text
 62
7
100
AcDbLine
 10
12.775292
 20
35.984216
 30
0.0
 11
12.510002
 21
35.893905
 31
0.0
  0
LINE
  5
28a
100
AcDbEntity
  8
text
 62
7
100
AcDbLine
 10
12.510002
 20
35.893905
 30
0.0
 11
12.332201
 21
35.716104
 31
0.0
  0
LINE
  5
28b
100
AcDbEntity
  8
text
 62
7
100
AcDbLine
 10
12.332201
 20
35.716104
 30
0.0
 11
12.332201
 21
35.538304
 31
0.0
  0
LINE
  5
28c
100
AcDbEntity
  8
text
 62
7
100
AcDbLine
 10
12.332201
 20
35.538304
 30
0.0
 11
12.419691
 21
35.360503
 31
0.0
  0
LINE
  5
28d
100
AcDbEntity
  8
text
 62
7
100
AcDbLine
 10
12.419691
 20
35.360503
 30
0.0
 11
12.510002
 21
35.273014
 31
0.0
  0
LINE
  5
28e
100
AcDbEntity
  8
text
 62
7
100
AcDbLine
 10
12.510002
 20
35.273014
 30
0.0
 11
12.687802
 21
35.182703
 31
0.0
  0
LINE
  5
28f
100
AcDbEntity
  8
text
 62
7
100
AcDbLine
 10
12.687802
 20
35.182703
 30
0.0
 11
13.221204
 21
35.004902
 31
0.0
  0
LINE
  5
290
100
AcDbEntity
  8
text
 62
7
100
AcDbLine
 10
13.221204
 20
35.004902
 30
0.0
 11
13.399004
 21
34.917413
 31
0.0
  0
LINE
  5
291
100
AcDbEntity
  8
text
 62
7
100
AcDbLine
 10
13.399004
 20
34.917413
 30
0.0
 11
13.486494
 21
34.827102
 31
0.0
  0
LINE
  5
292
100
AcDbEntity
  8
text
 62
7
100
AcDbLine
 10
13.486494
 20
34.827102
 30
0.0
 11
13.576805
 21
34.649301
 31
0.0
  0
LINE
  5
293
100
AcDbEntity
  8
text
 62
7
100
AcDbLine
 10
13.576805
 20
34.649301
 30
0.0
 11
13.576805
 21
34.382601
 31
0.0
  0
LINE
  5
294
100
AcDbEntity
  8
text
 62
7
100
AcDbLine
 10
13.576805
 20
34.382601
 30
0.0
 11
13.399004
 21
34.204800
 31
0.0
  0
LINE
  5
295
100
AcDbEntity
  8
text
 62
7
100
AcDbLine
 10
13.399004
 20
34.204800
 30
0.0
 11
13.130893
 21
34.115900
 31
0.0
  0
LINE
  5
296
100
AcDbEntity
  8
text
 62
7
100
AcDbLine
 10
13.130893
 20
34.115900
 30
0.0
 11
12.775292
 21
34.115900
 31
0.0
  0
LINE
  5
297
100
AcDbEntity
  8
text
 62
7
100
AcDbLine
 10
12.775292
 20
34.115900
 30
0.0
 11
12.510002
 21
34.204800
 31
0.0
  0
LINE
  5
298
100
AcDbEntity
  8
text
 62
7
100
AcDbLine
 10
12.510002
 20
34.204800
 30
0.0
 11
12.332201
 21
34.382601
 31
0.0
  0
LINE
  5
299
100
AcDbEntity
  8
text
 62
7
100
AcDbLine
 10
13.932401
 20
35.984216
 30
0.0
 11
14.643603
 21
35.092392
 31
0.0
  0
LINE
  5
29a
100
AcDbEntity
  8
text
 62
7
100
AcDbLine
 10
14.643603
 20
35.092392
 30
0.0
 11
14.643603
 21
34.115900
 31
0.0
  0
LINE
  5
29b
100
AcDbEntity
  8
text
 62
7
100
AcDbLine
 10
15.354805
 20
35.984216
 30
0.0
 11
14.643603
 21
35.092392
 31
0.0
  0
LINE
  5
29c
100
AcDbEntity
  8
text
 62
7
100
AcDbLine
 10
15.797901
 20
35.984216
 30
0.0
 11
15.797901
 21
34.115900
 31
0.0
  0
LINE
  5
29d
100
AcDbEntity
  8
text
 62
7
100
AcDbLine
 10
15.797901
 20
35.984216
 30
0.0
 11
17.045326
 21
34.115900
 31
0.0
  0
LINE
  5
29e
100
AcDbEntity
  8
text
 62
7
100
AcDbLine
 10
17.045326
 20
35.984216
 30
0.0
 11
17.045326
 21
34.115900
 31
0.0
  0
LINE
  5
29f
100
AcDbEntity
  8
text
 62
7
100
AcDbLine
 10
19.001126
 20
35.538304
 30
0.0
 11
18.910815
 21
35.716104
 31
0.0
  0
LINE
  5
2a0
100
AcDbEntity
  8
text
 62
7
100
AcDbLine
 10
18.910815
 20
35.716104
 30
0.0
 11
18.733014
 21
35.893905
 31
0.0
  0
LINE
  5
2a1
100
AcDbEntity
  8
text
 62
7
100
AcDbLine
 10
18.733014
 20
35.893905
 30
0.0
 11
18.555214
 21
35.984216
 31
0.0
  0
LINE
  5
2a2
100
AcDbEntity
  8
text
 62
7
100
AcDbLine
 10
18.555214
 20
35.984216
 30
0.0
 11
18.199613
 21
35.984216
 31
0.0
  0
LINE
  5
2a3
100
AcDbEntity
  8
text
 62
7
100
AcDbLine
 10
18.199613
 20
35.984216
 30
0.0
 11
18.021812
 21
35.893905
 31
0.0
  0
LINE
  5
2a4
100
AcDbEntity
  8
text
 62
7
100
AcDbLine
 10
18.021812
 20
35.893905
 30
0.0
 11
17.844012
 21
35.716104
 31
0.0
  0
LINE
  5
2a5
100
AcDbEntity
  8
text
 62
7
100
AcDbLine
 10
17.844012
 20
35.716104
 30
0.0
 11
17.753701
 21
35.538304
 31
0.0
  0
LINE
  5
2a6
100
AcDbEntity
  8
text
 62
7
100
AcDbLine
 10
17.753701
 20
35.538304
 30
0.0
 11
17.666211
 21
35.273014
 31
0.0
  0
LINE
  5
2a7
100
AcDbEntity
  8
text
 62
7
100
AcDbLine
 10
17.666211
 20
35.273014
 30
0.0
 11
17.666211
 21
34.827102
 31
0.0
  0
LINE
  5
2a8
100
AcDbEntity
  8
text
 62
7
100
AcDbLine
 10
17.666211
 20
34.827102
 30
0.0
 11
17.753701
 21
34.561812
 31
0.0
  0
LINE
  5
2a9
100
AcDbEntity
  8
text
 62
7
100
AcDbLine
 10
17.753701
 20
34.561812
 30
0.0
 11
17.844012
 21
34.382601
 31
0.0
  0
LINE
  5
2aa
100
AcDbEntity
  8
text
 62
7
100
AcDbLine
 10
17.844012
 20
34.382601
 30
0.0
 11
18.021812
 21
34.204800
 31
0.0
  0
LINE
  5
2ab
100
AcDbEntity
  8
text
 62
7
100
AcDbLine
 10
18.021812
 20
34.204800
 30
0.0
 11
18.199613
 21
34.115900
 31
0.0
  0
LINE
  5
2ac
100
AcDbEntity
  8
text
 62
7
100
AcDbLine
 10
18.199613
 20
34.115900
 30
0.0
 11
18.555214
 21
34.115900
 31
0.0
  0
LINE
  5
2ad
100
AcDbEntity
  8
text
 62
7
100
AcDbLine
 10
18.555214
 20
34.115900
 30
0.0
 11
18.733014
 21
34.204800
 31
0.0
  0
LINE
  5
2ae
100
AcDbEntity
  8
text
 62
7
100
AcDbLine
 10
18.733014
 20
34.204800
 30
0.0
 11
18.910815
 21
34.382601
 31
0.0
  0
LINE
  5
2af
100
AcDbEntity
  8
text
 62
7
100
AcDbLine
 10
18.910815
 20
34.382601
 30
0.0
 11
19.001126
 21
34.561812
 31
0.0
  0
LINE
  5
2b0
100
AcDbEntity
  8
text
 62
7
100
AcDbLine
 10
14.347925
 20
125.483998
 30
0.0
 11
14.347925
 21
123.110825
 31
0.0
  0
LINE
  5
2b1
100
AcDbEntity
  8
text
 62
7
100
AcDbLine
 10
14.347925
 20
125.483998
 30
0.0
 11
15.366023
 21
125.483998
 31
0.0
  0
LINE
  5
2b2
100
AcDbEntity
  8
text
 62
7
100
AcDbLine
 10
15.366023
 20
125.483998
 30
0.0
 11
15.702999
 21
125.369283
 31
0.0
  0
LINE
  5
2b3
100
AcDbEntity
  8
text
 62
7
100
AcDbLine
 10
15.702999
 20
125.369283
 30
0.0
 11
15.817715
 21
125.254567
 31
0.0
  0
LINE
  5
2b4
100
AcDbEntity
  8
text
 62
7
100
AcDbLine
 10
15.817715
 20
125.254567
 30
0.0
 11
15.932430
 21
125.032307
 31
0.0
  0
LINE
  5
2b5
100
AcDbEntity
  8
text
 62
7
100
AcDbLine
 10
15.932430
 20
125.032307
 30
0.0
 11
15.932430
 21
124.802876
 31
0.0
  0
LINE
  5
2b6
100
AcDbEntity
  8
text
 62
7
100
AcDbLine
 10
15.932430
 20
124.802876
 30
0.0
 11
15.817715
 21
124.580615
 31
0.0
  0
LINE
  5
2b7
100
AcDbEntity
  8
text
 62
7
100
AcDbLine
 10
15.817715
 20
124.580615
 30
0.0
 11
15.702999
 21
124.465900
 31
0.0
  0
LINE
  5
2b8
100
AcDbEntity
  8
text
 62
7
100
AcDbLine
 10
15.702999
 20
124.465900
 30
0.0
 11
15.366023
 21
124.351184
 31
0.0
  0
LINE
  5
2b9
100
AcDbEntity
  8
text
 62
7
100
AcDbLine
 10
15.366023
 20
124.351184
 30
0.0
 11
14.347925
 21
124.351184
 31
0.0
  0
LINE
  5
2ba
100
AcDbEntity
  8
text
 62
7
100
AcDbLine
 10
15.140177
 20
124.351184
 30
0.0
 11
15.932430
 21
123.110825
 31
0.0
  0
LINE
  5
2bb
100
AcDbEntity
  8
text
 62
7
100
AcDbLine
 10
17.172794
 20
124.691745
 30
0.0
 11
16.950533
 21
124.580615
 31
0.0
  0
LINE
  5
2bc
100
AcDbEntity
  8
text
 62
7
100
AcDbLine
 10
16.950533
 20
124.580615
 30
0.0
 11
16.721102
 21
124.351184
 31
0.0
  0
LINE
  5
2bd
100
AcDbEntity
  8
text
 62
7
100
AcDbLine
 10
16.721102
 20
124.351184
 30
0.0
 11
16.609972
 21
124.014208
 31
0.0
  0
LINE
  5
2be
100
AcDbEntity
  8
text
 62
7
100
AcDbLine
 10
16.609972
 20
124.014208
 30
0.0
 11
16.609972
 21
123.788363
 31
0.0
  0
LINE
  5
2bf
100
AcDbEntity
  8
text
 62
7
100
AcDbLine
 10
16.609972
 20
123.788363
 30
0.0
 11
16.721102
 21
123.449594
 31
0.0
  0
LINE
  5
2c0
100
AcDbEntity
  8
text
 62
7
100
AcDbLine
 10
16.721102
 20
123.449594
 30
0.0
 11
16.950533
 21
123.223748
 31
0.0
  0
LINE
  5
2c1
100
AcDbEntity
  8
text
 62
7
100
AcDbLine
 10
16.950533
 20
123.223748
 30
0.0
 11
17.172794
 21
123.110825
 31
0.0
  0
LINE
  5
2c2
100
AcDbEntity
  8
text
 62
7
100
AcDbLine
 10
17.172794
 20
123.110825
 30
0.0
 11
17.513355
 21
123.110825
 31
0.0
  0
LINE
  5
2c3
100
AcDbEntity
  8
text
 62
7
100
AcDbLine
 10
17.513355
 20
123.110825
 30
0.0
 11
17.739201
 21
123.223748
 31
0.0
  0
LINE
  5
2c4
100
AcDbEntity
  8
text
 62
7
100
AcDbLine
 10
17.739201
 20
123.223748
 30
0.0
 11
17.965046
 21
123.449594
 31
0.0
  0
LINE
  5
2c5
100
AcDbEntity
  8
text
 62
7
100
AcDbLine
 10
17.965046
 20
123.449594
 30
0.0
 11
18.076177
 21
123.788363
 31
0.0
  0
LINE
  5
2c6
100
AcDbEntity
  8
text
 62
7
100
AcDbLine
 10
18.076177
 20
123.788363
 30
0.0
 11
18.076177
 21
124.014208
 31
0.0
  0
LINE
  5
2c7
100
AcDbEntity
  8
text
 62
7
100
AcDbLine
 10
18.076177
 20
124.014208
 30
0.0
 11
17.965046
 21
124.351184
 31
0.0
  0
LINE
  5
2c8
100
AcDbEntity
  8
text
 62
7
100
AcDbLine
 10
17.965046
 20
124.351184
 30
0.0
 11
17.739201
 21
124.580615
 31
0.0
  0
LINE
  5
2c9
100
AcDbEntity
  8
text
 62
7
100
AcDbLine
 10
17.739201
 20
124.580615
 30
0.0
 11
17.513355
 21
124.691745
 31
0.0
  0
LINE
  5
2ca
100
AcDbEntity
  8
text
 62
7
100
AcDbLine
 10
17.513355
 20
124.691745
 30
0.0
 11
17.172794
 21
124.691745
 31
0.0
  0
LINE
  5
2cb
100
AcDbEntity
  8
text
 62
7
100
AcDbLine
 10
18.864840
 20
125.483998
 30
0.0
 11
18.864840
 21
123.110825
 31
0.0
  0
LINE
  5
2cc
100
AcDbEntity
  8
text
 62
7
100
AcDbLine
 10
18.864840
 20
124.351184
 30
0.0
 11
19.094270
 21
124.580615
 31
0.0
  0
LINE
  5
2cd
100
AcDbEntity
  8
text
 62
7
100
AcDbLine
 10
19.094270
 20
124.580615
 30
0.0
 11
19.316531
 21
124.691745
 31
0.0
  0
LINE
  5
2ce
100
AcDbEntity
  8
text
 62
7
100
AcDbLine
 10
19.316531
 20
124.691745
 30
0.0
 11
19.657092
 21
124.691745
 31
0.0
  0
LINE
  5
2cf
100
AcDbEntity
  8
text
 62
7
100
AcDbLine
 10
19.657092
 20
124.691745
 30
0.0
 11
19.882938
 21
124.580615
 31
0.0
  0
LINE
  5
2d0
100
AcDbEntity
  8
text
 62
7
100
AcDbLine
 10
19.882938
 20
124.580615
 30
0.0
 11
20.108784
 21
124.351184
 31
0.0
  0
LINE
  5
2d1
100
AcDbEntity
  8
text
 62
7
100
AcDbLine
 10
20.108784
 20
124.351184
 30
0.0
 11
20.219914
 21
124.014208
 31
0.0
  0
LINE
  5
2d2
100
AcDbEntity
  8
text
 62
7
100
AcDbLine
 10
20.219914
 20
124.014208
 30
0.0
 11
20.219914
 21
123.788363
 31
0.0
  0
LINE
  5
2d3
100
AcDbEntity
  8
text
 62
7
100
AcDbLine
 10
20.219914
 20
123.788363
 30
0.0
 11
20.108784
 21
123.449594
 31
0.0
  0
LINE
  5
2d4
100
AcDbEntity
  8
text
 62
7
100
AcDbLine
 10
20.108784
 20
123.449594
 30
0.0
 11
19.882938
 21
123.223748
 31
0.0
  0
LINE
  5
2d5
100
AcDbEntity
  8
text
 62
7
100
AcDbLine
 10
19.882938
 20
123.223748
 30
0.0
 11
19.657092
 21
123.110825
 31
0.0
  0
LINE
  5
2d6
100
AcDbEntity
  8
text
 62
7
100
AcDbLine
 10
19.657092
 20
123.110825
 30
0.0
 11
19.316531
 21
123.110825
 31
0.0
  0
LINE
  5
2d7
100
AcDbEntity
  8
text
 62
7
100
AcDbLine
 10
19.316531
 20
123.110825
 30
0.0
 11
19.094270
 21
123.223748
 31
0.0
  0
LINE
  5
2d8
100
AcDbEntity
  8
text
 62
7
100
AcDbLine
 10
19.094270
 20
123.223748
 30
0.0
 11
18.864840
 21
123.449594
 31
0.0
  0
LINE
  5
2d9
100
AcDbEntity
  8
text
 62
7
100
AcDbLine
 10
21.460269
 20
124.691745
 30
0.0
 11
21.238008
 21
124.580615
 31
0.0
  0
LINE
  5
2da
100
AcDbEntity
  8
text
 62
7
100
AcDbLine
 10
21.238008
 20
124.580615
 30
0.0
 11
21.008577
 21
124.351184
 31
0.0
  0
LINE
  5
2db
100
AcDbEntity
  8
text
 62
7
100
AcDbLine
 10
21.008577
 20
124.351184
 30
0.0
 11
20.897447
 21
124.014208
 31
0.0
  0
LINE
  5
2dc
100
AcDbEntity
  8
text
 62
7
100
AcDbLine
 10
20.897447
 20
124.014208
 30
0.0
 11
20.897447
 21
123.788363
 31
0.0
  0
LINE
  5
2dd
100
AcDbEntity
  8
text
 62
7
100
AcDbLine
 10
20.897447
 20
123.788363
 30
0.0
 11
21.008577
 21
123.449594
 31
0.0
  0
LINE
  5
2de
100
AcDbEntity
  8
text
 62
7
100
AcDbLine
 10
21.008577
 20
123.449594
 30
0.0
 11
21.238008
 21
123.223748
 31
0.0
  0
LINE
  5
2df
100
AcDbEntity
  8
text
 62
7
100
AcDbLine
 10
21.238008
 20
123.223748
 30
0.0
 11
21.460269
 21
123.110825
 31
0.0
  0
LINE
  5
2e0
100
AcDbEntity
  8
text
 62
7
100
AcDbLine
 10
21.460269
 20
123.110825
 30
0.0
 11
21.800830
 21
123.110825
 31
0.0
  0
LINE
  5
2e1
100
AcDbEntity
  8
text
 62
7
100
AcDbLine
 10
21.800830
 20
123.110825
 30
0.0
 11
22.026676
 21
123.223748
 31
0.0
  0
LINE
  5
2e2
100
AcDbEntity
  8
text
 62
7
100
AcDbLine
 10
22.026676
 20
123.223748
 30
0.0
 11
22.252521
 21
123.449594
 31
0.0
  0
LINE
  5
2e3
100
AcDbEntity
  8
text
 62
7
100
AcDbLine
 10
22.252521
 20
123.449594
 30
0.0
 11
22.363652
 21
123.788363
 31
0.0
  0
LINE
  5
2e4
100
AcDbEntity
  8
text
 62
7
100
AcDbLine
 10
22.363652
 20
123.788363
 30
0.0
 11
22.363652
 21
124.014208
 31
0.0
  0
LINE
  5
2e5
100
AcDbEntity
  8
text
 62
7
100
AcDbLine
 10
22.363652
 20
124.014208
 30
0.0
 11
22.252521
 21
124.351184
 31
0.0
  0
LINE
  5
2e6
100
AcDbEntity
  8
text
 62
7
100
AcDbLine
 10
22.252521
 20
124.351184
 30
0.0
 11
22.026676
 21
124.580615
 31
0.0
  0
LINE
  5
2e7
100
AcDbEntity
  8
text
 62
7
100
AcDbLine
 10
22.026676
 20
124.580615
 30
0.0
 11
21.800830
 21
124.691745
 31
0.0
  0
LINE
  5
2e8
100
AcDbEntity
  8
text
 62
7
100
AcDbLine
 10
21.800830
 20
124.691745
 30
0.0
 11
21.460269
 21
124.691745
 31
0.0
  0
LINE
  5
2e9
100
AcDbEntity
  8
text
 62
7
100
AcDbLine
 10
23.267043
 20
125.483998
 30
0.0
 11
23.267043
 21
123.562517
 31
0.0
  0
LINE
  5
2ea
100
AcDbEntity
  8
text
 62
7
100
AcDbLine
 10
23.267043
 20
123.562517
 30
0.0
 11
23.381758
 21
123.223748
 31
0.0
  0
LINE
  5
2eb
100
AcDbEntity
  8
text
 62
7
100
AcDbLine
 10
23.381758
 20
123.223748
 30
0.0
 11
23.604019
 21
123.110825
 31
0.0
  0
LINE
  5
2ec
100
AcDbEntity
  8
text
 62
7
100
AcDbLine
 10
23.604019
 20
123.110825
 30
0.0
 11
23.833450
 21
123.110825
 31
0.0
  0
LINE
  5
2ed
100
AcDbEntity
  8
text
 62
7
100
AcDbLine
 10
22.930067
 20
124.691745
 30
0.0
 11
23.718735
 21
124.691745
 31
0.0
  0
LINE
  5
2ee
100
AcDbEntity
  8
text
 62
7
100
AcDbLine
 10
24.507398
 20
125.483998
 30
0.0
 11
24.507398
 21
123.110825
 31
0.0
  0
LINE
  5
2ef
100
AcDbEntity
  8
text
 62
7
100
AcDbLine
 10
24.507398
 20
125.483998
 30
0.0
 11
25.299651
 21
125.483998
 31
0.0
  0
LINE
  5
2f0
100
AcDbEntity
  8
text
 62
7
100
AcDbLine
 10
25.299651
 20
125.483998
 30
0.0
 11
25.640212
 21
125.369283
 31
0.0
  0
LINE
  5
2f1
100
AcDbEntity
  8
text
 62
7
100
AcDbLine
 10
25.640212
 20
125.369283
 30
0.0
 11
25.862473
 21
125.143437
 31
0.0
  0
LINE
  5
2f2
100
AcDbEntity
  8
text
 62
7
100
AcDbLine
 10
25.862473
 20
125.143437
 30
0.0
 11
25.977188
 21
124.917591
 31
0.0
  0
LINE
  5
2f3
100
AcDbEntity
  8
text
 62
7
100
AcDbLine
 10
25.977188
 20
124.917591
 30
0.0
 11
26.091904
 21
124.580615
 31
0.0
  0
LINE
  5
2f4
100
AcDbEntity
  8
text
 62
7
100
AcDbLine
 10
26.091904
 20
124.580615
 30
0.0
 11
26.091904
 21
124.014208
 31
0.0
  0
LINE
  5
2f5
100
AcDbEntity
  8
text
 62
7
100
AcDbLine
 10
26.091904
 20
124.014208
 30
0.0
 11
25.977188
 21
123.677232
 31
0.0
  0
LINE
  5
2f6
100
AcDbEntity
  8
text
 62
7
100
AcDbLine
 10
25.977188
 20
123.677232
 30
0.0
 11
25.862473
 21
123.449594
 31
0.0
  0
LINE
  5
2f7
100
AcDbEntity
  8
text
 62
7
100
AcDbLine
 10
25.862473
 20
123.449594
 30
0.0
 11
25.640212
 21
123.223748
 31
0.0
  0
LINE
  5
2f8
100
AcDbEntity
  8
text
 62
7
100
AcDbLine
 10
25.640212
 20
123.223748
 30
0.0
 11
25.299651
 21
123.110825
 31
0.0
  0
LINE
  5
2f9
100
AcDbEntity
  8
text
 62
7
100
AcDbLine
 10
25.299651
 20
123.110825
 30
0.0
 11
24.507398
 21
123.110825
 31
0.0
  0
LINE
  5
2fa
100
AcDbEntity
  8
text
 62
7
100
AcDbLine
 10
26.769445
 20
125.483998
 30
0.0
 11
26.880576
 21
125.369283
 31
0.0
  0
LINE
  5
2fb
100
AcDbEntity
  8
text
 62
7
100
AcDbLine
 10
26.880576
 20
125.369283
 30
0.0
 11
26.995291
 21
125.483998
 31
0.0
  0
LINE
  5
2fc
100
AcDbEntity
  8
text
 62
7
100
AcDbLine
 10
26.995291
 20
125.483998
 30
0.0
 11
26.880576
 21
125.595128
 31
0.0
  0
LINE
  5
2fd
100
AcDbEntity
  8
text
 62
7
100
AcDbLine
 10
26.880576
 20
125.595128
 30
0.0
 11
26.769445
 21
125.483998
 31
0.0
  0
LINE
  5
2fe
100
AcDbEntity
  8
text
 62
7
100
AcDbLine
 10
26.880576
 20
124.691745
 30
0.0
 11
26.880576
 21
123.110825
 31
0.0
  0
LINE
  5
2ff
100
AcDbEntity
  8
text
 62
7
100
AcDbLine
 10
29.027875
 20
124.691745
 30
0.0
 11
29.027875
 21
123.110825
 31
0.0
  0
LINE
  5
300
100
AcDbEntity
  8
text
 62
7
100
AcDbLine
 10
29.027875
 20
124.351184
 30
0.0
 11
28.802029
 21
124.580615
 31
0.0
  0
LINE
  5
301
100
AcDbEntity
  8
text
 62
7
100
AcDbLine
 10
28.802029
 20
124.580615
 30
0.0
 11
28.576183
 21
124.691745
 31
0.0
  0
LINE
  5
302
100
AcDbEntity
  8
text
 62
7
100
AcDbLine
 10
28.576183
 20
124.691745
 30
0.0
 11
28.235622
 21
124.691745
 31
0.0
  0
LINE
  5
303
100
AcDbEntity
  8
text
 62
7
100
AcDbLine
 10
28.235622
 20
124.691745
 30
0.0
 11
28.013362
 21
124.580615
 31
0.0
  0
LINE
  5
304
100
AcDbEntity
  8
text
 62
7
100
AcDbLine
 10
28.013362
 20
124.580615
 30
0.0
 11
27.783931
 21
124.351184
 31
0.0
  0
LINE
  5
305
100
AcDbEntity
  8
text
 62
7
100
AcDbLine
 10
27.783931
 20
124.351184
 30
0.0
 11
27.672801
 21
124.014208
 31
0.0
  0
LINE
  5
306
100
AcDbEntity
  8
text
 62
7
100
AcDbLine
 10
27.672801
 20
124.014208
 30
0.0
 11
27.672801
 21
123.788363
 31
0.0
  0
LINE
  5
307
100
AcDbEntity
  8
text
 62
7
100
AcDbLine
 10
27.672801
 20
123.788363
 30
0.0
 11
27.783931
 21
123.449594
 31
0.0
  0
LINE
  5
308
100
AcDbEntity
  8
text
 62
7
100
AcDbLine
 10
27.783931
 20
123.449594
 30
0.0
 11
28.013362
 21
123.223748
 31
0.0
  0
LINE
  5
309
100
AcDbEntity
  8
text
 62
7
100
AcDbLine
 10
28.013362
 20
123.223748
 30
0.0
 11
28.235622
 21
123.110825
 31
0.0
  0
LINE
  5
30a
100
AcDbEntity
  8
text
 62
7
100
AcDbLine
 10
28.235622
 20
123.110825
 30
0.0
 11
28.576183
 21
123.110825
 31
0.0
  0
LINE
  5
30b
100
AcDbEntity
  8
text
 62
7
100
AcDbLine
 10
28.576183
 20
123.110825
 30
0.0
 11
28.802029
 21
123.223748
 31
0.0
  0
LINE
  5
30c
100
AcDbEntity
  8
text
 62
7
100
AcDbLine
 10
28.802029
 20
123.223748
 30
0.0
 11
29.027875
 21
123.449594
 31
0.0
  0
LINE
  5
30d
100
AcDbEntity
  8
text
 62
7
100
AcDbLine
 10
29.927681
 20
125.483998
 30
0.0
 11
29.927681
 21
123.110825
 31
0.0
  0
LINE
  5
30e
100
AcDbEntity
  8
text
 62
7
100
AcDbLine
 10
31.282753
 20
124.691745
 30
0.0
 11
31.060492
 21
124.580615
 31
0.0
  0
LINE
  5
30f
100
AcDbEntity
  8
text
 62
7
100
AcDbLine
 10
31.060492
 20
124.580615
 30
0.0
 11
30.831062
 21
124.351184
 31
0.0
  0
LINE
  5
310
100
AcDbEntity
  8
text
 62
7
100
AcDbLine
 10
30.831062
 20
124.351184
 30
0.0
 11
30.719931
 21
124.014208
 31
0.0
  0
LINE
  5
311
100
AcDbEntity
  8
text
 62
7
100
AcDbLine
 10
30.719931
 20
124.014208
 30
0.0
 11
30.719931
 21
123.788363
 31
0.0
  0
LINE
  5
312
100
AcDbEntity
  8
text
 62
7
100
AcDbLine
 10
30.719931
 20
123.788363
 30
0.0
 11
30.831062
 21
123.449594
 31
0.0
  0
LINE
  5
313
100
AcDbEntity
  8
text
 62
7
100
AcDbLine
 10
30.831062
 20
123.449594
 30
0.0
 11
31.060492
 21
123.223748
 31
0.0
  0
LINE
  5
314
100
AcDbEntity
  8
text
 62
7
100
AcDbLine
 10
31.060492
 20
123.223748
 30
0.0
 11
31.282753
 21
123.110825
 31
0.0
  0
LINE
  5
315
100
AcDbEntity
  8
text
 62
7
100
AcDbLine
 10
31.282753
 20
123.110825
 30
0.0
 11
31.623314
 21
123.110825
 31
0.0
  0
LINE
  5
316
100
AcDbEntity
  8
text
 62
7
100
AcDbLine
 10
31.623314
 20
123.110825
 30
0.0
 11
31.849160
 21
123.223748
 31
0.0
  0
LINE
  5
317
100
AcDbEntity
  8
text
 62
7
100
AcDbLine
 10
31.849160
 20
123.223748
 30
0.0
 11
32.075006
 21
123.449594
 31
0.0
  0
LINE
  5
318
100
AcDbEntity
  8
text
 62
7
100
AcDbLine
 10
32.075006
 20
123.449594
 30
0.0
 11
32.186136
 21
123.788363
 31
0.0
  0
LINE
  5
319
100
AcDbEntity
  8
text
 62
7
100
AcDbLine
 10
32.186136
 20
123.788363
 30
0.0
 11
32.186136
 21
124.014208
 31
0.0
  0
LINE
  5
31a
100
AcDbEntity
  8
text
 62
7
100
AcDbLine
 10
32.186136
 20
124.014208
 30
0.0
 11
32.075006
 21
124.351184
 31
0.0
  0
LINE
  5
31b
100
AcDbEntity
  8
text
 62
7
100
AcDbLine
 10
32.075006
 20
124.351184
 30
0.0
 11
31.849160
 21
124.580615
 31
0.0
  0
LINE
  5
31c
100
AcDbEntity
  8
text
 62
7
100
AcDbLine
 10
31.849160
 20
124.580615
 30
0.0
 11
31.623314
 21
124.691745
 31
0.0
  0
LINE
  5
31d
100
AcDbEntity
  8
text
 62
7
100
AcDbLine
 10
31.623314
 20
124.691745
 30
0.0
 11
31.282753
 21
124.691745
 31
0.0
  0
LINE
  5
31e
100
AcDbEntity
  8
text
 62
7
100
AcDbLine
 10
34.218756
 20
124.691745
 30
0.0
 11
34.218756
 21
122.884980
 31
0.0
  0
LINE
  5
31f
100
AcDbEntity
  8
text
 62
7
100
AcDbLine
 10
34.218756
 20
122.884980
 30
0.0
 11
34.107626
 21
122.544419
 31
0.0
  0
LINE
  5
320
100
AcDbEntity
  8
text
 62
7
100
AcDbLine
 10
34.107626
 20
122.544419
 30
0.0
 11
33.992910
 21
122.433288
 31
0.0
  0
LINE
  5
321
100
AcDbEntity
  8
text
 62
7
100
AcDbLine
 10
33.992910
 20
122.433288
 30
0.0
 11
33.767065
 21
122.322158
 31
0.0
  0
LINE
  5
322
100
AcDbEntity
  8
text
 62
7
100
AcDbLine
 10
33.767065
 20
122.322158
 30
0.0
 11
33.426504
 21
122.322158
 31
0.0
  0
LINE
  5
323
100
AcDbEntity
  8
text
 62
7
100
AcDbLine
 10
33.426504
 20
122.322158
 30
0.0
 11
33.204243
 21
122.433288
 31
0.0
  0
LINE
  5
324
100
AcDbEntity
  8
text
 62
7
100
AcDbLine
 10
34.218756
 20
124.351184
 30
0.0
 11
33.992910
 21
124.580615
 31
0.0
  0
LINE
  5
325
100
AcDbEntity
  8
text
 62
7
100
AcDbLine
 10
33.992910
 20
124.580615
 30
0.0
 11
33.767065
 21
124.691745
 31
0.0
  0
LINE
  5
326
100
AcDbEntity
  8
text
 62
7
100
AcDbLine
 10
33.767065
 20
124.691745
 30
0.0
 11
33.426504
 21
124.691745
 31
0.0
  0
LINE
  5
327
100
AcDbEntity
  8
text
 62
7
100
AcDbLine
 10
33.426504
 20
124.691745
 30
0.0
 11
33.204243
 21
124.580615
 31
0.0
  0
LINE
  5
328
100
AcDbEntity
  8
text
 62
7
100
AcDbLine
 10
33.204243
 20
124.580615
 30
0.0
 11
32.974812
 21
124.351184
 31
0.0
  0
LINE
  5
329
100
AcDbEntity
  8
text
 62
7
100
AcDbLine
 10
32.974812
 20
124.351184
 30
0.0
 11
32.863682
 21
124.014208
 31
0.0
  0
LINE
  5
32a
100
AcDbEntity
  8
text
 62
7
100
AcDbLine
 10
32.863682
 20
124.014208
 30
0.0
 11
32.863682
 21
123.788363
 31
0.0
  0
LINE
  5
32b
100
AcDbEntity
  8
text
 62
7
100
AcDbLine
 10
32.863682
 20
123.788363
 30
0.0
 11
32.974812
 21
123.449594
 31
0.0
  0
LINE
  5
32c
100
AcDbEntity
  8
text
 62
7
100
AcDbLine
 10
32.974812
 20
123.449594
 30
0.0
 11
33.204243
 21
123.223748
 31
0.0
  0
LINE
  5
32d
100
AcDbEntity
  8
text
 62
7
100
AcDbLine
 10
33.204243
 20
123.223748
 30
0.0
 11
33.426504
 21
123.110825
 31
0.0
  0
LINE
  5
32e
100
AcDbEntity
  8
text
 62
7
100
AcDbLine
 10
33.426504
 20
123.110825
 30
0.0
 11
33.767065
 21
123.110825
 31
0.0
  0
LINE
  5
32f
100
AcDbEntity
  8
text
 62
7
100
AcDbLine
 10
33.767065
 20
123.110825
 30
0.0
 11
33.992910
 21
123.223748
 31
0.0
  0
LINE
  5
330
100
AcDbEntity
  8
text
 62
7
100
AcDbLine
 10
33.992910
 20
123.223748
 30
0.0
 11
34.218756
 21
123.449594
 31
0.0
  0
LINE
  5
331
100
AcDbEntity
  8
text
 62
7
100
AcDbLine
 10
36.251376
 20
124.351184
 30
0.0
 11
36.136661
 21
124.580615
 31
0.0
  0
LINE
  5
332
100
AcDbEntity
  8
text
 62
7
100
AcDbLine
 10
36.136661
 20
124.580615
 30
0.0
 11
35.799684
 21
124.691745
 31
0.0
  0
LINE
  5
333
100
AcDbEntity
  8
text
 62
7
100
AcDbLine
 10
35.799684
 20
124.691745
 30
0.0
 11
35.459123
 21
124.691745
 31
0.0
  0
LINE
  5
334
100
AcDbEntity
  8
text
 62
7
100
AcDbLine
 10
35.459123
 20
124.691745
 30
0.0
 11
35.118562
 21
124.580615
 31
0.0
  0
LINE
  5
335
100
AcDbEntity
  8
text
 62
7
100
AcDbLine
 10
35.118562
 20
124.580615
 30
0.0
 11
35.007432
 21
124.351184
 31
0.0
  0
LINE
  5
336
100
AcDbEntity
  8
text
 62
7
100
AcDbLine
 10
35.007432
 20
124.351184
 30
0.0
 11
35.118562
 21
124.128924
 31
0.0
  0
LINE
  5
337
100
AcDbEntity
  8
text
 62
7
100
AcDbLine
 10
35.118562
 20
124.128924
 30
0.0
 11
35.347993
 21
124.014208
 31
0.0
  0
LINE
  5
338
100
AcDbEntity
  8
text
 62
7
100
AcDbLine
 10
35.347993
 20
124.014208
 30
0.0
 11
35.910815
 21
123.899493
 31
0.0
  0
LINE
  5
339
100
AcDbEntity
  8
text
 62
7
100
AcDbLine
 10
35.910815
 20
123.899493
 30
0.0
 11
36.136661
 21
123.788363
 31
0.0
  0
LINE
  5
33a
100
AcDbEntity
  8
text
 62
7
100
AcDbLine
 10
36.136661
 20
123.788363
 30
0.0
 11
36.251376
 21
123.562517
 31
0.0
  0
LINE
  5
33b
100
AcDbEntity
  8
text
 62
7
100
AcDbLine
 10
36.251376
 20
123.562517
 30
0.0
 11
36.251376
 21
123.449594
 31
0.0
  0
LINE
  5
33c
100
AcDbEntity
  8
text
 62
7
100
AcDbLine
 10
36.251376
 20
123.449594
 30
0.0
 11
36.136661
 21
123.223748
 31
0.0
  0
LINE
  5
33d
100
AcDbEntity
  8
text
 62
7
100
AcDbLine
 10
36.136661
 20
123.223748
 30
0.0
 11
35.799684
 21
123.110825
 31
0.0
  0
LINE
  5
33e
100
AcDbEntity
  8
text
 62
7
100
AcDbLine
 10
35.799684
 20
123.110825
 30
0.0
 11
35.459123
 21
123.110825
 31
0.0
  0
LINE
  5
33f
100
AcDbEntity
  8
text
 62
7
100
AcDbLine
 10
35.459123
 20
123.110825
 30
0.0
 11
35.118562
 21
123.223748
 31
0.0
  0
LINE
  5
340
100
AcDbEntity
  8
text
 62
7
100
AcDbLine
 10
35.118562
 20
123.223748
 30
0.0
 11
35.007432
 21
123.449594
 31
0.0
  0
LINE
  5
341
100
AcDbEntity
  8
text
 62
7
100
AcDbLine
 10
14.741567
 20
121.926996
 30
0.0
 11
15.644879
 21
119.554010
 31
0.0
  0
LINE
  5
342
100
AcDbEntity
  8
text
 62
7
100
AcDbLine
 10
16.548191
 20
121.926996
 30
0.0
 11
15.644879
 21
119.554010
 31
0.0
  0
LINE
  5
343
100
AcDbEntity
  8
text
 62
7
100
AcDbLine
 10
18.695343
 20
121.360633
 30
0.0
 11
18.580637
 21
121.586461
 31
0.0
  0
LINE
  5
344
100
AcDbEntity
  8
text
 62
7
100
AcDbLine
 10
18.580637
 20
121.586461
 30
0.0
 11
18.354809
 21
121.812289
 31
0.0
  0
LINE
  5
345
100
AcDbEntity
  8
text
 62
7
100
AcDbLine
 10
18.354809
 20
121.812289
 30
0.0
 11
18.128981
 21
121.926996
 31
0.0
  0
LINE
  5
346
100
AcDbEntity
  8
text
 62
7
100
AcDbLine
 10
18.128981
 20
121.926996
 30
0.0
 11
17.677325
 21
121.926996
 31
0.0
  0
LINE
  5
347
100
AcDbEntity
  8
text
 62
7
100
AcDbLine
 10
17.677325
 20
121.926996
 30
0.0
 11
17.451497
 21
121.812289
 31
0.0
  0
LINE
  5
348
100
AcDbEntity
  8
text
 62
7
100
AcDbLine
 10
17.451497
 20
121.812289
 30
0.0
 11
17.225669
 21
121.586461
 31
0.0
  0
LINE
  5
349
100
AcDbEntity
  8
text
 62
7
100
AcDbLine
 10
17.225669
 20
121.586461
 30
0.0
 11
17.110963
 21
121.360633
 31
0.0
  0
LINE
  5
34a
100
AcDbEntity
  8
text
 62
7
100
AcDbLine
 10
17.110963
 20
121.360633
 30
0.0
 11
16.999841
 21
121.023684
 31
0.0
  0
LINE
  5
34b
100
AcDbEntity
  8
text
 62
7
100
AcDbLine
 10
16.999841
 20
121.023684
 30
0.0
 11
16.999841
 21
120.457322
 31
0.0
  0
LINE
  5
34c
100
AcDbEntity
  8
text
 62
7
100
AcDbLine
 10
16.999841
 20
120.457322
 30
0.0
 11
17.110963
 21
120.120372
 31
0.0
  0
LINE
  5
34d
100
AcDbEntity
  8
text
 62
7
100
AcDbLine
 10
17.110963
 20
120.120372
 30
0.0
 11
17.225669
 21
119.892752
 31
0.0
  0
LINE
  5
34e
100
AcDbEntity
  8
text
 62
7
100
AcDbLine
 10
17.225669
 20
119.892752
 30
0.0
 11
17.451497
 21
119.666924
 31
0.0
  0
LINE
  5
34f
100
AcDbEntity
  8
text
 62
7
100
AcDbLine
 10
17.451497
 20
119.666924
 30
0.0
 11
17.677325
 21
119.554010
 31
0.0
  0
LINE
  5
350
100
AcDbEntity
  8
text
 62
7
100
AcDbLine
 10
17.677325
 20
119.554010
 30
0.0
 11
18.128981
 21
119.554010
 31
0.0
  0
LINE
  5
351
100
AcDbEntity
  8
text
 62
7
100
AcDbLine
 10
18.128981
 20
119.554010
 30
0.0
 11
18.354809
 21
119.666924
 31
0.0
  0
LINE
  5
352
100
AcDbEntity
  8
text
 62
7
100
AcDbLine
 10
18.354809
 20
119.666924
 30
0.0
 11
18.580637
 21
119.892752
 31
0.0
  0
LINE
  5
353
100
AcDbEntity
  8
text
 62
7
100
AcDbLine
 10
18.580637
 20
119.892752
 30
0.0
 11
18.695343
 21
120.120372
 31
0.0
  0
LINE
  5
354
100
AcDbEntity
  8
text
 62
7
100
AcDbLine
 10
20.050316
 20
121.926996
 30
0.0
 11
19.824488
 21
121.812289
 31
0.0
  0
LINE
  5
355
100
AcDbEntity
  8
text
 62
7
100
AcDbLine
 10
19.824488
 20
121.812289
 30
0.0
 11
19.598660
 21
121.586461
 31
0.0
  0
LINE
  5
356
100
AcDbEntity
  8
text
 62
7
100
AcDbLine
 10
19.598660
 20
121.586461
 30
0.0
 11
19.483953
 21
121.360633
 31
0.0
  0
LINE
  5
357
100
AcDbEntity
  8
text
 62
7
100
AcDbLine
 10
19.483953
 20
121.360633
 30
0.0
 11
19.372832
 21
121.023684
 31
0.0
  0
LINE
  5
358
100
AcDbEntity
  8
text
 62
7
100
AcDbLine
 10
19.372832
 20
121.023684
 30
0.0
 11
19.372832
 21
120.457322
 31
0.0
  0
LINE
  5
359
100
AcDbEntity
  8
text
 62
7
100
AcDbLine
 10
19.372832
 20
120.457322
 30
0.0
 11
19.483953
 21
120.120372
 31
0.0
  0
LINE
  5
35a
100
AcDbEntity
  8
text
 62
7
100
AcDbLine
 10
19.483953
 20
120.120372
 30
0.0
 11
19.598660
 21
119.892752
 31
0.0
  0
LINE
  5
35b
100
AcDbEntity
  8
text
 62
7
100
AcDbLine
 10
19.598660
 20
119.892752
 30
0.0
 11
19.824488
 21
119.666924
 31
0.0
  0
LINE
  5
35c
100
AcDbEntity
  8
text
 62
7
100
AcDbLine
 10
19.824488
 20
119.666924
 30
0.0
 11
20.050316
 21
119.554010
 31
0.0
  0
LINE
  5
35d
100
AcDbEntity
  8
text
 62
7
100
AcDbLine
 10
20.050316
 20
119.554010
 30
0.0
 11
20.501971
 21
119.554010
 31
0.0
  0
LINE
  5
35e
100
AcDbEntity
  8
text
 62
7
100
AcDbLine
 10
20.501971
 20
119.554010
 30
0.0
 11
20.727799
 21
119.666924
 31
0.0
  0
LINE
  5
35f
100
AcDbEntity
  8
text
 62
7
100
AcDbLine
 10
20.727799
 20
119.666924
 30
0.0
 11
20.953627
 21
119.892752
 31
0.0
  0
LINE
  5
360
100
AcDbEntity
  8
text
 62
7
100
AcDbLine
 10
20.953627
 20
119.892752
 30
0.0
 11
21.068334
 21
120.120372
 31
0.0
  0
LINE
  5
361
100
AcDbEntity
  8
text
 62
7
100
AcDbLine
 10
21.068334
 20
120.120372
 30
0.0
 11
21.179455
 21
120.457322
 31
0.0
  0
LINE
  5
362
100
AcDbEntity
  8
text
 62
7
100
AcDbLine
 10
21.179455
 20
120.457322
 30
0.0
 11
21.179455
 21
121.023684
 31
0.0
  0
LINE
  5
363
100
AcDbEntity
  8
text
 62
7
100
AcDbLine
 10
21.179455
 20
121.023684
 30
0.0
 11
21.068334
 21
121.360633
 31
0.0
  0
LINE
  5
364
100
AcDbEntity
  8
text
 62
7
100
AcDbLine
 10
21.068334
 20
121.360633
 30
0.0
 11
20.953627
 21
121.586461
 31
0.0
  0
LINE
  5
365
100
AcDbEntity
  8
text
 62
7
100
AcDbLine
 10
20.953627
 20
121.586461
 30
0.0
 11
20.727799
 21
121.812289
 31
0.0
  0
LINE
  5
366
100
AcDbEntity
  8
text
 62
7
100
AcDbLine
 10
20.727799
 20
121.812289
 30
0.0
 11
20.501971
 21
121.926996
 31
0.0
  0
LINE
  5
367
100
AcDbEntity
  8
text
 62
7
100
AcDbLine
 10
20.501971
 20
121.926996
 30
0.0
 11
20.050316
 21
121.926996
 31
0.0
  0
LINE
  5
368
100
AcDbEntity
  8
text
 62
7
100
AcDbLine
 10
23.889393
 20
121.926996
 30
0.0
 11
22.986081
 21
119.554010
 31
0.0
  0
LINE
  5
369
100
AcDbEntity
  8
text
 62
7
100
AcDbLine
 10
23.889393
 20
121.926996
 30
0.0
 11
24.792705
 21
119.554010
 31
0.0
  0
LINE
  5
36a
100
AcDbEntity
  8
text
 62
7
100
AcDbLine
 10
23.323031
 20
120.342615
 30
0.0
 11
24.455755
 21
120.342615
 31
0.0
  0
LINE
  5
36b
100
AcDbEntity
  8
text
 62
7
100
AcDbLine
 10
26.825151
 20
121.586461
 30
0.0
 11
26.599323
 21
121.812289
 31
0.0
  0
LINE
  5
36c
100
AcDbEntity
  8
text
 62
7
100
AcDbLine
 10
26.599323
 20
121.812289
 30
0.0
 11
26.258789
 21
121.926996
 31
0.0
  0
LINE
  5
36d
100
AcDbEntity
  8
text
 62
7
100
AcDbLine
 10
26.258789
 20
121.926996
 30
0.0
 11
25.807133
 21
121.926996
 31
0.0
  0
LINE
  5
36e
100
AcDbEntity
  8
text
 62
7
100
AcDbLine
 10
25.807133
 20
121.926996
 30
0.0
 11
25.470183
 21
121.812289
 31
0.0
  0
LINE
  5
36f
100
AcDbEntity
  8
text
 62
7
100
AcDbLine
 10
25.470183
 20
121.812289
 30
0.0
 11
25.244355
 21
121.586461
 31
0.0
  0
LINE
  5
370
100
AcDbEntity
  8
text
 62
7
100
AcDbLine
 10
25.244355
 20
121.586461
 30
0.0
 11
25.244355
 21
121.360633
 31
0.0
  0
LINE
  5
371
100
AcDbEntity
  8
text
 62
7
100
AcDbLine
 10
25.244355
 20
121.360633
 30
0.0
 11
25.355477
 21
121.134805
 31
0.0
  0
LINE
  5
372
100
AcDbEntity
  8
text
 62
7
100
AcDbLine
 10
25.355477
 20
121.134805
 30
0.0
 11
25.470183
 21
121.023684
 31
0.0
  0
LINE
  5
373
100
AcDbEntity
  8
text
 62
7
100
AcDbLine
 10
25.470183
 20
121.023684
 30
0.0
 11
25.696011
 21
120.908978
 31
0.0
  0
LINE
  5
374
100
AcDbEntity
  8
text
 62
7
100
AcDbLine
 10
25.696011
 20
120.908978
 30
0.0
 11
26.373495
 21
120.683150
 31
0.0
  0
LINE
  5
375
100
AcDbEntity
  8
text
 62
7
100
AcDbLine
 10
26.373495
 20
120.683150
 30
0.0
 11
26.599323
 21
120.572028
 31
0.0
  0
LINE
  5
376
100
AcDbEntity
  8
text
 62
7
100
AcDbLine
 10
26.599323
 20
120.572028
 30
0.0
 11
26.710445
 21
120.457322
 31
0.0
  0
LINE
  5
377
100
AcDbEntity
  8
text
 62
7
100
AcDbLine
 10
26.710445
 20
120.457322
 30
0.0
 11
26.825151
 21
120.231494
 31
0.0
  0
LINE
  5
378
100
AcDbEntity
  8
text
 62
7
100
AcDbLine
 10
26.825151
 20
120.231494
 30
0.0
 11
26.825151
 21
119.892752
 31
0.0
  0
LINE
  5
379
100
AcDbEntity
  8
text
 62
7
100
AcDbLine
 10
26.825151
 20
119.892752
 30
0.0
 11
26.599323
 21
119.666924
 31
0.0
  0
LINE
  5
37a
100
AcDbEntity
  8
text
 62
7
100
AcDbLine
 10
26.599323
 20
119.666924
 30
0.0
 11
26.258789
 21
119.554010
 31
0.0
  0
LINE
  5
37b
100
AcDbEntity
  8
text
 62
7
100
AcDbLine
 10
26.258789
 20
119.554010
 30
0.0
 11
25.807133
 21
119.554010
 31
0.0
  0
LINE
  5
37c
100
AcDbEntity
  8
text
 62
7
100
AcDbLine
 10
25.807133
 20
119.554010
 30
0.0
 11
25.470183
 21
119.666924
 31
0.0
  0
LINE
  5
37d
100
AcDbEntity
  8
text
 62
7
100
AcDbLine
 10
25.470183
 20
119.666924
 30
0.0
 11
25.244355
 21
119.892752
 31
0.0
  0
LINE
  5
37e
100
AcDbEntity
  8
text
 62
7
100
AcDbLine
 10
27.728469
 20
121.926996
 30
0.0
 11
28.968731
 21
121.926996
 31
0.0
  0
LINE
  5
37f
100
AcDbEntity
  8
text
 62
7
100
AcDbLine
 10
28.968731
 20
121.926996
 30
0.0
 11
28.294831
 21
121.023684
 31
0.0
  0
LINE
  5
380
100
AcDbEntity
  8
text
 62
7
100
AcDbLine
 10
28.294831
 20
121.023684
 30
0.0
 11
28.631781
 21
121.023684
 31
0.0
  0
LINE
  5
381
100
AcDbEntity
  8
text
 62
7
100
AcDbLine
 10
28.631781
 20
121.023684
 30
0.0
 11
28.857609
 21
120.908978
 31
0.0
  0
LINE
  5
382
100
AcDbEntity
  8
text
 62
7
100
AcDbLine
 10
28.857609
 20
120.908978
 30
0.0
 11
28.968731
 21
120.794271
 31
0.0
  0
LINE
  5
383
100
AcDbEntity
  8
text
 62
7
100
AcDbLine
 10
28.968731
 20
120.794271
 30
0.0
 11
29.083437
 21
120.457322
 31
0.0
  0
LINE
  5
384
100
AcDbEntity
  8
text
 62
7
100
AcDbLine
 10
29.083437
 20
120.457322
 30
0.0
 11
29.083437
 21
120.231494
 31
0.0
  0
LINE
  5
385
100
AcDbEntity
  8
text
 62
7
100
AcDbLine
 10
29.083437
 20
120.231494
 30
0.0
 11
28.968731
 21
119.892752
 31
0.0
  0
LINE
  5
386
100
AcDbEntity
  8
text
 62
7
100
AcDbLine
 10
28.968731
 20
119.892752
 30
0.0
 11
28.746487
 21
119.666924
 31
0.0
  0
LINE
  5
387
100
AcDbEntity
  8
text
 62
7
100
AcDbLine
 10
28.746487
 20
119.666924
 30
0.0
 11
28.405953
 21
119.554010
 31
0.0
  0
LINE
  5
388
100
AcDbEntity
  8
text
 62
7
100
AcDbLine
 10
28.405953
 20
119.554010
 30
0.0
 11
28.065419
 21
119.554010
 31
0.0
  0
LINE
  5
389
100
AcDbEntity
  8
text
 62
7
100
AcDbLine
 10
28.065419
 20
119.554010
 30
0.0
 11
27.728469
 21
119.666924
 31
0.0
  0
LINE
  5
38a
100
AcDbEntity
  8
text
 62
7
100
AcDbLine
 10
27.728469
 20
119.666924
 30
0.0
 11
27.613763
 21
119.779838
 31
0.0
  0
LINE
  5
38b
100
AcDbEntity
  8
text
 62
7
100
AcDbLine
 10
27.613763
 20
119.779838
 30
0.0
 11
27.502641
 21
120.005666
 31
0.0
  0
LINE
  5
38c
100
AcDbEntity
  8
text
 62
7
100
AcDbLine
 10
29.986692
 20
121.926996
 30
0.0
 11
31.226953
 21
121.926996
 31
0.0
  0
LINE
  5
38d
100
AcDbEntity
  8
text
 62
7
100
AcDbLine
 10
31.226953
 20
121.926996
 30
0.0
 11
30.553054
 21
121.023684
 31
0.0
  0
LINE
  5
38e
100
AcDbEntity
  8
text
 62
7
100
AcDbLine
 10
30.553054
 20
121.023684
 30
0.0
 11
30.890004
 21
121.023684
 31
0.0
  0
LINE
  5
38f
100
AcDbEntity
  8
text
 62
7
100
AcDbLine
 10
30.890004
 20
121.023684
 30
0.0
 11
31.115831
 21
120.908978
 31
0.0
  0
LINE
  5
390
100
AcDbEntity
  8
text
 62
7
100
AcDbLine
 10
31.115831
 20
120.908978
 30
0.0
 11
31.226953
 21
120.794271
 31
0.0
  0
LINE
  5
391
100
AcDbEntity
  8
text
 62
7
100
AcDbLine
 10
31.226953
 20
120.794271
 30
0.0
 11
31.341659
 21
120.457322
 31
0.0
  0
LINE
  5
392
100
AcDbEntity
  8
text
 62
7
100
AcDbLine
 10
31.341659
 20
120.457322
 30
0.0
 11
31.341659
 21
120.231494
 31
0.0
  0
LINE
  5
393
100
AcDbEntity
  8
text
 62
7
100
AcDbLine
 10
31.341659
 20
120.231494
 30
0.0
 11
31.226953
 21
119.892752
 31
0.0
  0
LINE
  5
394
100
AcDbEntity
  8
text
 62
7
100
AcDbLine
 10
31.226953
 20
119.892752
 30
0.0
 11
31.004710
 21
119.666924
 31
0.0
  0
LINE
  5
395
100
AcDbEntity
  8
text
 62
7
100
AcDbLine
 10
31.004710
 20
119.666924
 30
0.0
 11
30.664176
 21
119.554010
 31
0.0
  0
LINE
  5
396
100
AcDbEntity
  8
text
 62
7
100
AcDbLine
 10
30.664176
 20
119.554010
 30
0.0
 11
30.323641
 21
119.554010
 31
0.0
  0
LINE
  5
397
100
AcDbEntity
  8
text
 62
7
100
AcDbLine
 10
30.323641
 20
119.554010
 30
0.0
 11
29.986692
 21
119.666924
 31
0.0
  0
LINE
  5
398
100
AcDbEntity
  8
text
 62
7
100
AcDbLine
 10
29.986692
 20
119.666924
 30
0.0
 11
29.871985
 21
119.779838
 31
0.0
  0
LINE
  5
399
100
AcDbEntity
  8
text
 62
7
100
AcDbLine
 10
29.871985
 20
119.779838
 30
0.0
 11
29.760864
 21
120.005666
 31
0.0
  0
LINE
  5
39a
100
AcDbEntity
  8
text
 62
7
100
AcDbLine
 10
33.148277
 20
121.926996
 30
0.0
 11
32.019137
 21
120.342615
 31
0.0
  0
LINE
  5
39b
100
AcDbEntity
  8
text
 62
7
100
AcDbLine
 10
32.019137
 20
120.342615
 30
0.0
 11
33.714639
 21
120.342615
 31
0.0
  0
LINE
  5
39c
100
AcDbEntity
  8
text
 62
7
100
AcDbLine
 10
33.148277
 20
121.926996
 30
0.0
 11
33.148277
 21
119.554010
 31
0.0
  0
LINE
  5
39d
100
AcDbEntity
  8
text
 62
7
100
AcDbLine
 10
34.955021
 20
121.926996
 30
0.0
 11
34.618072
 21
121.812289
 31
0.0
  0
LINE
  5
39e
100
AcDbEntity
  8
text
 62
7
100
AcDbLine
 10
34.618072
 20
121.812289
 30
0.0
 11
34.388659
 21
121.475340
 31
0.0
  0
LINE
  5
39f
100
AcDbEntity
  8
text
 62
7
100
AcDbLine
 10
34.388659
 20
121.475340
 30
0.0
 11
34.277537
 21
120.908978
 31
0.0
  0
LINE
  5
3a0
100
AcDbEntity
  8
text
 62
7
100
AcDbLine
 10
34.277537
 20
120.908978
 30
0.0
 11
34.277537
 21
120.572028
 31
0.0
  0
LINE
  5
3a1
100
AcDbEntity
  8
text
 62
7
100
AcDbLine
 10
34.277537
 20
120.572028
 30
0.0
 11
34.388659
 21
120.005666
 31
0.0
  0
LINE
  5
3a2
100
AcDbEntity
  8
text
 62
7
100
AcDbLine
 10
34.388659
 20
120.005666
 30
0.0
 11
34.618072
 21
119.666924
 31
0.0
  0
LINE
  5
3a3
100
AcDbEntity
  8
text
 62
7
100
AcDbLine
 10
34.618072
 20
119.666924
 30
0.0
 11
34.955021
 21
119.554010
 31
0.0
  0
LINE
  5
3a4
100
AcDbEntity
  8
text
 62
7
100
AcDbLine
 10
34.955021
 20
119.554010
 30
0.0
 11
35.180849
 21
119.554010
 31
0.0
  0
LINE
  5
3a5
100
AcDbEntity
  8
text
 62
7
100
AcDbLine
 10
35.180849
 20
119.554010
 30
0.0
 11
35.521384
 21
119.666924
 31
0.0
  0
LINE
  5
3a6
100
AcDbEntity
  8
text
 62
7
100
AcDbLine
 10
35.521384
 20
119.666924
 30
0.0
 11
35.743627
 21
120.005666
 31
0.0
  0
LINE
  5
3a7
100
AcDbEntity
  8
text
 62
7
100
AcDbLine
 10
35.743627
 20
120.005666
 30
0.0
 11
35.858333
 21
120.572028
 31
0.0
  0
LINE
  5
3a8
100
AcDbEntity
  8
text
 62
7
100
AcDbLine
 10
35.858333
 20
120.572028
 30
0.0
 11
35.858333
 21
120.908978
 31
0.0
  0
LINE
  5
3a9
100
AcDbEntity
  8
text
 62
7
100
AcDbLine
 10
35.858333
 20
120.908978
 30
0.0
 11
35.743627
 21
121.475340
 31
0.0
  0
LINE
  5
3aa
100
AcDbEntity
  8
text
 62
7
100
AcDbLine
 10
35.743627
 20
121.475340
 30
0.0
 11
35.521384
 21
121.812289
 31
0.0
  0
LINE
  5
3ab
100
AcDbEntity
  8
text
 62
7
100
AcDbLine
 10
35.521384
 20
121.812289
 30
0.0
 11
35.180849
 21
121.926996
 31
0.0
  0
LINE
  5
3ac
100
AcDbEntity
  8
text
 62
7
100
AcDbLine
 10
35.180849
 20
121.926996
 30
0.0
 11
34.955021
 21
121.926996
 31
0.0
  0
LINE
  5
3ad
100
AcDbEntity
  8
text
 62
7
100
AcDbLine
 10
22.000000
 20
13.000000
 30
0.0
 11
22.000000
 21
15.000510
 31
0.0
  0
LINE
  5
3ae
100
AcDbEntity
  8
text
 62
7
100
AcDbLine
 10
22.000000
 20
15.000510
 30
0.0
 11
24.000000
 21
13.000000
 31
0.0
  0
LINE
  5
3af
100
AcDbEntity
  8
text
 62
7
100
AcDbLine
 10
24.000000
 20
13.000000
 30
0.0
 11
24.000000
 21
15.000510
 31
0.0
  0
LINE
  5
3b0
100
AcDbEntity
  8
text
 62
7
100
AcDbLine
 10
24.000000
 20
15.000510
 30
0.0
 11
26.000000
 21
13.000000
 31
0.0
  0
LINE
  5
3b1
100
AcDbEntity
  8
text
 62
7
100
AcDbLine
 10
26.000000
 20
13.000000
 30
0.0
 11
26.000000
 21
15.000510
 31
0.0
  0
LINE
  5
3b2
100
AcDbEntity
  8
text
 62
7
100
AcDbLine
 10
26.000000
 20
15.000510
 30
0.0
 11
27.999999
 21
13.000000
 31
0.0
  0
LINE
  5
3b3
100
AcDbEntity
  8
text
 62
7
100
AcDbLine
 10
32.260999
 20
13.000000
 30
0.0
 11
33.260999
 21
15.000000
 31
0.0
  0
LINE
  5
3b4
100
AcDbEntity
  8
text
 62
7
100
AcDbLine
 10
33.260999
 20
15.000000
 30
0.0
 11
34.260997
 21
13.000000
 31
0.0
  0
LINE
  5
3b5
100
AcDbEntity
  8
text
 62
7
100
AcDbLine
 10
34.260997
 20
13.000000
 30
0.0
 11
35.260998
 21
15.000000
 31
0.0
  0
LINE
  5
3b6
100
AcDbEntity
  8
text
 62
7
100
AcDbLine
 10
35.260998
 20
15.000000
 30
0.0
 11
36.260999
 21
13.000000
 31
0.0
  0
LINE
  5
3b7
100
AcDbEntity
  8
text
 62
7
100
AcDbLine
 10
36.260999
 20
13.000000
 30
0.0
 11
37.260999
 21
15.000000
 31
0.0
  0
LINE
  5
3b8
100
AcDbEntity
  8
text
 62
7
100
AcDbLine
 10
37.260999
 20
15.000000
 30
0.0
 11
38.260997
 21
13.000000
 31
0.0
  0
LINE
  5
3b9
100
AcDbEntity
  8
text
 62
7
100
AcDbLine
 10
43.000001
 20
13.000000
 30
0.0
 11
43.000001
 21
15.000510
 31
0.0
  0
LINE
  5
3ba
100
AcDbEntity
  8
text
 62
7
100
AcDbLine
 10
43.000001
 20
15.000510
 30
0.0
 11
44.999999
 21
15.000510
 31
0.0
  0
LINE
  5
3bb
100
AcDbEntity
  8
text
 62
7
100
AcDbLine
 10
44.999999
 20
15.000510
 30
0.0
 11
44.999999
 21
13.000000
 31
0.0
  0
LINE
  5
3bc
100
AcDbEntity
  8
text
 62
7
100
AcDbLine
 10
44.999999
 20
13.000000
 30
0.0
 11
47.000001
 21
13.000000
 31
0.0
  0
LINE
  5
3bd
100
AcDbEntity
  8
text
 62
7
100
AcDbLine
 10
47.000001
 20
13.000000
 30
0.0
 11
47.000001
 21
15.000000
 31
0.0
  0
LINE
  5
3be
100
AcDbEntity
  8
text
 62
7
100
AcDbLine
 10
21.686103
 20
26.967316
 30
0.0
 11
21.420813
 21
26.877005
 31
0.0
  0
LINE
  5
3bf
100
AcDbEntity
  8
text
 62
7
100
AcDbLine
 10
21.420813
 20
26.877005
 30
0.0
 11
21.240191
 21
26.611715
 31
0.0
  0
LINE
  5
3c0
100
AcDbEntity
  8
text
 62
7
100
AcDbLine
 10
21.240191
 20
26.611715
 30
0.0
 11
21.152701
 21
26.165803
 31
0.0
  0
LINE
  5
3c1
100
AcDbEntity
  8
text
 62
7
100
AcDbLine
 10
21.152701
 20
26.165803
 30
0.0
 11
21.152701
 21
25.900513
 31
0.0
  0
LINE
  5
3c2
100
AcDbEntity
  8
text
 62
7
100
AcDbLine
 10
21.152701
 20
25.900513
 30
0.0
 11
21.240191
 21
25.454601
 31
0.0
  0
LINE
  5
3c3
100
AcDbEntity
  8
text
 62
7
100
AcDbLine
 10
21.240191
 20
25.454601
 30
0.0
 11
21.420813
 21
25.187900
 31
0.0
  0
LINE
  5
3c4
100
AcDbEntity
  8
text
 62
7
100
AcDbLine
 10
21.420813
 20
25.187900
 30
0.0
 11
21.686103
 21
25.099000
 31
0.0
  0
LINE
  5
3c5
100
AcDbEntity
  8
text
 62
7
100
AcDbLine
 10
21.686103
 20
25.099000
 30
0.0
 11
21.863903
 21
25.099000
 31
0.0
  0
LINE
  5
3c6
100
AcDbEntity
  8
text
 62
7
100
AcDbLine
 10
21.863903
 20
25.099000
 30
0.0
 11
22.132015
 21
25.187900
 31
0.0
  0
LINE
  5
3c7
100
AcDbEntity
  8
text
 62
7
100
AcDbLine
 10
22.132015
 20
25.187900
 30
0.0
 11
22.306994
 21
25.454601
 31
0.0
  0
LINE
  5
3c8
100
AcDbEntity
  8
text
 62
7
100
AcDbLine
 10
22.306994
 20
25.454601
 30
0.0
 11
22.397305
 21
25.900513
 31
0.0
  0
LINE
  5
3c9
100
AcDbEntity
  8
text
 62
7
100
AcDbLine
 10
22.397305
 20
25.900513
 30
0.0
 11
22.397305
 21
26.165803
 31
0.0
  0
LINE
  5
3ca
100
AcDbEntity
  8
text
 62
7
100
AcDbLine
 10
22.397305
 20
26.165803
 30
0.0
 11
22.306994
 21
26.611715
 31
0.0
  0
LINE
  5
3cb
100
AcDbEntity
  8
text
 62
7
100
AcDbLine
 10
22.306994
 20
26.611715
 30
0.0
 11
22.132015
 21
26.877005
 31
0.0
  0
LINE
  5
3cc
100
AcDbEntity
  8
text
 62
7
100
AcDbLine
 10
22.132015
 20
26.877005
 30
0.0
 11
21.863903
 21
26.967316
 31
0.0
  0
LINE
  5
3cd
100
AcDbEntity
  8
text
 62
7
100
AcDbLine
 10
21.863903
 20
26.967316
 30
0.0
 11
21.686103
 21
26.967316
 31
0.0
  0
LINE
  5
3ce
100
AcDbEntity
  8
text
 62
7
100
AcDbLine
 10
23.018191
 20
25.900513
 30
0.0
 11
24.621217
 21
25.900513
 31
0.0
  0
LINE
  5
3cf
100
AcDbEntity
  8
text
 62
7
100
AcDbLine
 10
25.510223
 20
26.611715
 30
0.0
 11
25.685202
 21
26.699204
 31
0.0
  0
LINE
  5
3d0
100
AcDbEntity
  8
text
 62
7
100
AcDbLine
 10
25.685202
 20
26.699204
 30
0.0
 11
25.953313
 21
26.967316
 31
0.0
  0
LINE
  5
3d1
100
AcDbEntity
  8
text
 62
7
100
AcDbLine
 10
25.953313
 20
26.967316
 30
0.0
 11
25.953313
 21
25.099000
 31
0.0
  0
LINE
  5
3d2
100
AcDbEntity
  8
text
 62
7
100
AcDbLine
 10
27.553523
 20
26.967316
 30
0.0
 11
27.288233
 21
26.877005
 31
0.0
  0
LINE
  5
3d3
100
AcDbEntity
  8
text
 62
7
100
AcDbLine
 10
27.288233
 20
26.877005
 30
0.0
 11
27.107611
 21
26.611715
 31
0.0
  0
LINE
  5
3d4
100
AcDbEntity
  8
text
 62
7
100
AcDbLine
 10
27.107611
 20
26.611715
 30
0.0
 11
27.020121
 21
26.165803
 31
0.0
  0
LINE
  5
3d5
100
AcDbEntity
  8
text
 62
7
100
AcDbLine
 10
27.020121
 20
26.165803
 30
0.0
 11
27.020121
 21
25.900513
 31
0.0
  0
LINE
  5
3d6
100
AcDbEntity
  8
text
 62
7
100
AcDbLine
 10
27.020121
 20
25.900513
 30
0.0
 11
27.107611
 21
25.454601
 31
0.0
  0
LINE
  5
3d7
100
AcDbEntity
  8
text
 62
7
100
AcDbLine
 10
27.107611
 20
25.454601
 30
0.0
 11
27.288233
 21
25.187900
 31
0.0
  0
LINE
  5
3d8
100
AcDbEntity
  8
text
 62
7
100
AcDbLine
 10
27.288233
 20
25.187900
 30
0.0
 11
27.553523
 21
25.099000
 31
0.0
  0
LINE
  5
3d9
100
AcDbEntity
  8
text
 62
7
100
AcDbLine
 10
27.553523
 20
25.099000
 30
0.0
 11
27.731323
 21
25.099000
 31
0.0
  0
LINE
  5
3da
100
AcDbEntity
  8
text
 62
7
100
AcDbLine
 10
27.731323
 20
25.099000
 30
0.0
 11
27.999435
 21
25.187900
 31
0.0
  0
LINE
  5
3db
100
AcDbEntity
  8
text
 62
7
100
AcDbLine
 10
27.999435
 20
25.187900
 30
0.0
 11
28.174414
 21
25.454601
 31
0.0
  0
LINE
  5
3dc
100
AcDbEntity
  8
text
 62
7
100
AcDbLine
 10
28.174414
 20
25.454601
 30
0.0
 11
28.264725
 21
25.900513
 31
0.0
  0
LINE
  5
3dd
100
AcDbEntity
  8
text
 62
7
100
AcDbLine
 10
28.264725
 20
25.900513
 30
0.0
 11
28.264725
 21
26.165803
 31
0.0
  0
LINE
  5
3de
100
AcDbEntity
  8
text
 62
7
100
AcDbLine
 10
28.264725
 20
26.165803
 30
0.0
 11
28.174414
 21
26.611715
 31
0.0
  0
LINE
  5
3df
100
AcDbEntity
  8
text
 62
7
100
AcDbLine
 10
28.174414
 20
26.611715
 30
0.0
 11
27.999435
 21
26.877005
 31
0.0
  0
LINE
  5
3e0
100
AcDbEntity
  8
text
 62
7
100
AcDbLine
 10
27.999435
 20
26.877005
 30
0.0
 11
27.731323
 21
26.967316
 31
0.0
  0
LINE
  5
3e1
100
AcDbEntity
  8
text
 62
7
100
AcDbLine
 10
27.731323
 20
26.967316
 30
0.0
 11
27.553523
 21
26.967316
 31
0.0
  0
LINE
  5
3e2
100
AcDbEntity
  8
text
 62
7
100
AcDbLine
 10
28.620321
 20
26.967316
 30
0.0
 11
29.331523
 21
25.099000
 31
0.0
  0
LINE
  5
3e3
100
AcDbEntity
  8
text
 62
7
100
AcDbLine
 10
30.042725
 20
26.967316
 30
0.0
 11
29.331523
 21
25.099000
 31
0.0
  0
LINE
  5
3e4
100
AcDbEntity
  8
logo
 62
7
100
AcDbLine
 10
22.653201
 20
7.817070
 30
0.0
 11
22.874174
 21
7.706586
 31
0.0
  0
LINE
  5
3e5
100
AcDbEntity
  8
logo
 62
7
100
AcDbLine
 10
22.874174
 20
7.706586
 30
0.0
 11
22.947831
 21
7.596101
 31
0.0
  0
LINE
  5
3e6
100
AcDbEntity
  8
logo
 62
7
100
AcDbLine
 10
22.947831
 20
7.596101
 30
0.0
 11
23.021489
 21
7.375133
 31
0.0
  0
LINE
  5
3e7
100
AcDbEntity
  8
logo
 62
7
100
AcDbLine
 10
23.021489
 20
7.375133
 30
0.0
 11
23.021489
 21
7.043680
 31
0.0
  0
LINE
  5
3e8
100
AcDbEntity
  8
logo
 62
7
100
AcDbLine
 10
23.021489
 20
7.043680
 30
0.0
 11
22.947831
 21
6.822711
 31
0.0
  0
LINE
  5
3e9
100
AcDbEntity
  8
logo
 62
7
100
AcDbLine
 10
22.947831
 20
6.822711
 30
0.0
 11
22.874174
 21
6.712228
 31
0.0
  0
LINE
  5
3ea
100
AcDbEntity
  8
logo
 62
7
100
AcDbLine
 10
22.874174
 20
6.712228
 30
0.0
 11
22.726858
 21
6.601743
 31
0.0
  0
LINE
  5
3eb
100
AcDbEntity
  8
logo
 62
7
100
AcDbLine
 10
22.726858
 20
6.601743
 30
0.0
 11
22.137613
 21
6.601743
 31
0.0
  0
LINE
  5
3ec
100
AcDbEntity
  8
logo
 62
7
100
AcDbLine
 10
22.137613
 20
6.601743
 30
0.0
 11
22.137613
 21
8.921913
 31
0.0
  0
LINE
  5
3ed
100
AcDbEntity
  8
logo
 62
7
100
AcDbLine
 10
22.137613
 20
8.921913
 30
0.0
 11
22.653201
 21
8.921913
 31
0.0
  0
LINE
  5
3ee
100
AcDbEntity
  8
logo
 62
7
100
AcDbLine
 10
22.653201
 20
8.921913
 30
0.0
 11
22.800516
 21
8.811428
 31
0.0
  0
LINE
  5
3ef
100
AcDbEntity
  8
logo
 62
7
100
AcDbLine
 10
22.800516
 20
8.811428
 30
0.0
 11
22.874174
 21
8.700945
 31
0.0
  0
LINE
  5
3f0
100
AcDbEntity
  8
logo
 62
7
100
AcDbLine
 10
22.874174
 20
8.700945
 30
0.0
 11
22.947831
 21
8.479976
 31
0.0
  0
LINE
  5
3f1
100
AcDbEntity
  8
logo
 62
7
100
AcDbLine
 10
22.947831
 20
8.479976
 30
0.0
 11
22.947831
 21
8.259008
 31
0.0
  0
LINE
  5
3f2
100
AcDbEntity
  8
logo
 62
7
100
AcDbLine
 10
22.947831
 20
8.259008
 30
0.0
 11
22.874174
 21
8.038038
 31
0.0
  0
LINE
  5
3f3
100
AcDbEntity
  8
logo
 62
7
100
AcDbLine
 10
22.874174
 20
8.038038
 30
0.0
 11
22.800516
 21
7.927555
 31
0.0
  0
LINE
  5
3f4
100
AcDbEntity
  8
logo
 62
7
100
AcDbLine
 10
22.800516
 20
7.927555
 30
0.0
 11
22.653201
 21
7.817070
 31
0.0
  0
LINE
  5
3f5
100
AcDbEntity
  8
logo
 62
7
100
AcDbLine
 10
22.653201
 20
7.817070
 30
0.0
 11
22.137613
 21
7.817070
 31
0.0
  0
LINE
  5
3f6
100
AcDbEntity
  8
logo
 62
7
100
AcDbLine
 10
24.420954
 20
6.601743
 30
0.0
 11
23.684393
 21
6.601743
 31
0.0
  0
LINE
  5
3f7
100
AcDbEntity
  8
logo
 62
7
100
AcDbLine
 10
23.684393
 20
6.601743
 30
0.0
 11
23.684393
 21
8.921913
 31
0.0
  0
LINE
  5
3f8
100
AcDbEntity
  8
logo
 62
7
100
AcDbLine
 10
24.936557
 20
7.817070
 30
0.0
 11
25.452145
 21
7.817070
 31
0.0
  0
LINE
  5
3f9
100
AcDbEntity
  8
logo
 62
7
100
AcDbLine
 10
25.673118
 20
6.601743
 30
0.0
 11
24.936557
 21
6.601743
 31
0.0
  0
LINE
  5
3fa
100
AcDbEntity
  8
logo
 62
7
100
AcDbLine
 10
24.936557
 20
6.601743
 30
0.0
 11
24.936557
 21
8.921913
 31
0.0
  0
LINE
  5
3fb
100
AcDbEntity
  8
logo
 62
7
100
AcDbLine
 10
24.936557
 20
8.921913
 30
0.0
 11
25.673118
 21
8.921913
 31
0.0
  0
LINE
  5
3fc
100
AcDbEntity
  8
logo
 62
7
100
AcDbLine
 10
26.336022
 20
7.817070
 30
0.0
 11
26.851610
 21
7.817070
 31
0.0
  0
LINE
  5
3fd
100
AcDbEntity
  8
logo
 62
7
100
AcDbLine
 10
27.072583
 20
6.601743
 30
0.0
 11
26.336022
 21
6.601743
 31
0.0
  0
LINE
  5
3fe
100
AcDbEntity
  8
logo
 62
7
100
AcDbLine
 10
26.336022
 20
6.601743
 30
0.0
 11
26.336022
 21
8.921913
 31
0.0
  0
LINE
  5
3ff
100
AcDbEntity
  8
logo
 62
7
100
AcDbLine
 10
26.336022
 20
8.921913
 30
0.0
 11
27.072583
 21
8.921913
 31
0.0
  0
LINE
  5
400
100
AcDbEntity
  8
logo
 62
7
100
AcDbLine
 10
27.735487
 20
6.601743
 30
0.0
 11
27.735487
 21
8.921913
 31
0.0
  0
LINE
  5
401
100
AcDbEntity
  8
logo
 62
7
100
AcDbLine
 10
27.735487
 20
8.921913
 30
0.0
 11
28.324733
 21
8.921913
 31
0.0
  0
LINE
  5
402
100
AcDbEntity
  8
logo
 62
7
100
AcDbLine
 10
28.324733
 20
8.921913
 30
0.0
 11
28.472048
 21
8.811428
 31
0.0
  0
LINE
  5
403
100
AcDbEntity
  8
logo
 62
7
100
AcDbLine
 10
28.472048
 20
8.811428
 30
0.0
 11
28.545705
 21
8.700945
 31
0.0
  0
LINE
  5
404
100
AcDbEntity
  8
logo
 62
7
100
AcDbLine
 10
28.545705
 20
8.700945
 30
0.0
 11
28.619363
 21
8.479976
 31
0.0
  0
LINE
  5
405
100
AcDbEntity
  8
logo
 62
7
100
AcDbLine
 10
28.619363
 20
8.479976
 30
0.0
 11
28.619363
 21
8.148523
 31
0.0
  0
LINE
  5
406
100
AcDbEntity
  8
logo
 62
7
100
AcDbLine
 10
28.619363
 20
8.148523
 30
0.0
 11
28.545705
 21
7.927555
 31
0.0
  0
LINE
  5
407
100
AcDbEntity
  8
logo
 62
7
100
AcDbLine
 10
28.545705
 20
7.927555
 30
0.0
 11
28.472048
 21
7.817070
 31
0.0
  0
LINE
  5
408
100
AcDbEntity
  8
logo
 62
7
100
AcDbLine
 10
28.472048
 20
7.817070
 30
0.0
 11
28.324733
 21
7.706586
 31
0.0
  0
LINE
  5
409
100
AcDbEntity
  8
logo
 62
7
100
AcDbLine
 10
28.324733
 20
7.706586
 30
0.0
 11
27.735487
 21
7.706586
 31
0.0
  0
LINE
  5
40a
100
AcDbEntity
  8
logo
 62
7
100
AcDbLine
 10
22.432243
 20
4.878188
 30
0.0
 11
22.653201
 21
4.767704
 31
0.0
  0
LINE
  5
40b
100
AcDbEntity
  8
logo
 62
7
100
AcDbLine
 10
22.653201
 20
4.767704
 30
0.0
 11
22.726858
 21
4.657219
 31
0.0
  0
LINE
  5
40c
100
AcDbEntity
  8
logo
 62
7
100
AcDbLine
 10
22.726858
 20
4.657219
 30
0.0
 11
22.800516
 21
4.436251
 31
0.0
  0
LINE
  5
40d
100
AcDbEntity
  8
logo
 62
7
100
AcDbLine
 10
22.800516
 20
4.436251
 30
0.0
 11
22.800516
 21
4.104798
 31
0.0
  0
LINE
  5
40e
100
AcDbEntity
  8
logo
 62
7
100
AcDbLine
 10
22.800516
 20
4.104798
 30
0.0
 11
22.726858
 21
3.883829
 31
0.0
  0
LINE
  5
40f
100
AcDbEntity
  8
logo
 62
7
100
AcDbLine
 10
22.726858
 20
3.883829
 30
0.0
 11
22.653201
 21
3.773346
 31
0.0
  0
LINE
  5
410
100
AcDbEntity
  8
logo
 62
7
100
AcDbLine
 10
22.653201
 20
3.773346
 30
0.0
 11
22.505901
 21
3.662861
 31
0.0
  0
LINE
  5
411
100
AcDbEntity
  8
logo
 62
7
100
AcDbLine
 10
22.505901
 20
3.662861
 30
0.0
 11
21.916640
 21
3.662861
 31
0.0
  0
LINE
  5
412
100
AcDbEntity
  8
logo
 62
7
100
AcDbLine
 10
21.916640
 20
3.662861
 30
0.0
 11
21.916640
 21
5.983031
 31
0.0
  0
LINE
  5
413
100
AcDbEntity
  8
logo
 62
7
100
AcDbLine
 10
21.916640
 20
5.983031
 30
0.0
 11
22.432243
 21
5.983031
 31
0.0
  0
LINE
  5
414
100
AcDbEntity
  8
logo
 62
7
100
AcDbLine
 10
22.432243
 20
5.983031
 30
0.0
 11
22.579558
 21
5.872546
 31
0.0
  0
LINE
  5
415
100
AcDbEntity
  8
logo
 62
7
100
AcDbLine
 10
22.579558
 20
5.872546
 30
0.0
 11
22.653201
 21
5.762063
 31
0.0
  0
LINE
  5
416
100
AcDbEntity
  8
logo
 62
7
100
AcDbLine
 10
22.653201
 20
5.762063
 30
0.0
 11
22.726858
 21
5.541094
 31
0.0
  0
LINE
  5
417
100
AcDbEntity
  8
logo
 62
7
100
AcDbLine
 10
22.726858
 20
5.541094
 30
0.0
 11
22.726858
 21
5.320126
 31
0.0
  0
LINE
  5
418
100
AcDbEntity
  8
logo
 62
7
100
AcDbLine
 10
22.726858
 20
5.320126
 30
0.0
 11
22.653201
 21
5.099156
 31
0.0
  0
LINE
  5
419
100
AcDbEntity
  8
logo
 62
7
100
AcDbLine
 10
22.653201
 20
5.099156
 30
0.0
 11
22.579558
 21
4.988673
 31
0.0
  0
LINE
  5
41a
100
AcDbEntity
  8
logo
 62
7
100
AcDbLine
 10
22.579558
 20
4.988673
 30
0.0
 11
22.432243
 21
4.878188
 31
0.0
  0
LINE
  5
41b
100
AcDbEntity
  8
logo
 62
7
100
AcDbLine
 10
22.432243
 20
4.878188
 30
0.0
 11
21.916640
 21
4.878188
 31
0.0
  0
LINE
  5
41c
100
AcDbEntity
  8
logo
 62
7
100
AcDbLine
 10
24.199981
 20
3.662861
 30
0.0
 11
23.463420
 21
3.662861
 31
0.0
  0
LINE
  5
41d
100
AcDbEntity
  8
logo
 62
7
100
AcDbLine
 10
23.463420
 20
3.662861
 30
0.0
 11
23.463420
 21
5.983031
 31
0.0
  0
LINE
  5
41e
100
AcDbEntity
  8
logo
 62
7
100
AcDbLine
 10
25.010200
 20
5.983031
 30
0.0
 11
25.304830
 21
5.983031
 31
0.0
  0
LINE
  5
41f
100
AcDbEntity
  8
logo
 62
7
100
AcDbLine
 10
25.304830
 20
5.983031
 30
0.0
 11
25.452145
 21
5.872546
 31
0.0
  0
LINE
  5
420
100
AcDbEntity
  8
logo
 62
7
100
AcDbLine
 10
25.452145
 20
5.872546
 30
0.0
 11
25.599461
 21
5.651578
 31
0.0
  0
LINE
  5
421
100
AcDbEntity
  8
logo
 62
7
100
AcDbLine
 10
25.599461
 20
5.651578
 30
0.0
 11
25.673118
 21
5.209641
 31
0.0
  0
LINE
  5
422
100
AcDbEntity
  8
logo
 62
7
100
AcDbLine
 10
25.673118
 20
5.209641
 30
0.0
 11
25.673118
 21
4.436251
 31
0.0
  0
LINE
  5
423
100
AcDbEntity
  8
logo
 62
7
100
AcDbLine
 10
25.673118
 20
4.436251
 30
0.0
 11
25.599461
 21
3.994314
 31
0.0
  0
LINE
  5
424
100
AcDbEntity
  8
logo
 62
7
100
AcDbLine
 10
25.599461
 20
3.994314
 30
0.0
 11
25.452145
 21
3.773346
 31
0.0
  0
LINE
  5
425
100
AcDbEntity
  8
logo
 62
7
100
AcDbLine
 10
25.452145
 20
3.773346
 30
0.0
 11
25.304830
 21
3.662861
 31
0.0
  0
LINE
  5
426
100
AcDbEntity
  8
logo
 62
7
100
AcDbLine
 10
25.304830
 20
3.662861
 30
0.0
 11
25.010200
 21
3.662861
 31
0.0
  0
LINE
  5
427
100
AcDbEntity
  8
logo
 62
7
100
AcDbLine
 10
25.010200
 20
3.662861
 30
0.0
 11
24.862900
 21
3.773346
 31
0.0
  0
LINE
  5
428
100
AcDbEntity
  8
logo
 62
7
100
AcDbLine
 10
24.862900
 20
3.773346
 30
0.0
 11
24.715584
 21
3.994314
 31
0.0
  0
LINE
  5
429
100
AcDbEntity
  8
logo
 62
7
100
AcDbLine
 10
24.715584
 20
3.994314
 30
0.0
 11
24.641927
 21
4.436251
 31
0.0
  0
LINE
  5
42a
100
AcDbEntity
  8
logo
 62
7
100
AcDbLine
 10
24.641927
 20
4.436251
 30
0.0
 11
24.641927
 21
5.209641
 31
0.0
  0
LINE
  5
42b
100
AcDbEntity
  8
logo
 62
7
100
AcDbLine
 10
24.641927
 20
5.209641
 30
0.0
 11
24.715584
 21
5.651578
 31
0.0
  0
LINE
  5
42c
100
AcDbEntity
  8
logo
 62
7
100
AcDbLine
 10
24.715584
 20
5.651578
 30
0.0
 11
24.862900
 21
5.872546
 31
0.0
  0
LINE
  5
42d
100
AcDbEntity
  8
logo
 62
7
100
AcDbLine
 10
24.862900
 20
5.872546
 30
0.0
 11
25.010200
 21
5.983031
 31
0.0
  0
LINE
  5
42e
100
AcDbEntity
  8
logo
 62
7
100
AcDbLine
 10
26.630637
 20
5.983031
 30
0.0
 11
26.925268
 21
5.983031
 31
0.0
  0
LINE
  5
42f
100
AcDbEntity
  8
logo
 62
7
100
AcDbLine
 10
26.925268
 20
5.983031
 30
0.0
 11
27.072583
 21
5.872546
 31
0.0
  0
LINE
  5
430
100
AcDbEntity
  8
logo
 62
7
100
AcDbLine
 10
27.072583
 20
5.872546
 30
0.0
 11
27.219898
 21
5.651578
 31
0.0
  0
LINE
  5
431
100
AcDbEntity
  8
logo
 62
7
100
AcDbLine
 10
27.219898
 20
5.651578
 30
0.0
 11
27.293541
 21
5.209641
 31
0.0
  0
LINE
  5
432
100
AcDbEntity
  8
logo
 62
7
100
AcDbLine
 10
27.293541
 20
5.209641
 30
0.0
 11
27.293541
 21
4.436251
 31
0.0
  0
LINE
  5
433
100
AcDbEntity
  8
logo
 62
7
100
AcDbLine
 10
27.293541
 20
4.436251
 30
0.0
 11
27.219898
 21
3.994314
 31
0.0
  0
LINE
  5
434
100
AcDbEntity
  8
logo
 62
7
100
AcDbLine
 10
27.219898
 20
3.994314
 30
0.0
 11
27.072583
 21
3.773346
 31
0.0
  0
LINE
  5
435
100
AcDbEntity
  8
logo
 62
7
100
AcDbLine
 10
27.072583
 20
3.773346
 30
0.0
 11
26.925268
 21
3.662861
 31
0.0
  0
LINE
  5
436
100
AcDbEntity
  8
logo
 62
7
100
AcDbLine
 10
26.925268
 20
3.662861
 30
0.0
 11
26.630637
 21
3.662861
 31
0.0
  0
LINE
  5
437
100
AcDbEntity
  8
logo
 62
7
100
AcDbLine
 10
26.630637
 20
3.662861
 30
0.0
 11
26.483337
 21
3.773346
 31
0.0
  0
LINE
  5
438
100
AcDbEntity
  8
logo
 62
7
100
AcDbLine
 10
26.483337
 20
3.773346
 30
0.0
 11
26.336022
 21
3.994314
 31
0.0
  0
LINE
  5
439
100
AcDbEntity
  8
logo
 62
7
100
AcDbLine
 10
26.336022
 20
3.994314
 30
0.0
 11
26.262364
 21
4.436251
 31
0.0
  0
LINE
  5
43a
100
AcDbEntity
  8
logo
 62
7
100
AcDbLine
 10
26.262364
 20
4.436251
 30
0.0
 11
26.262364
 21
5.209641
 31
0.0
  0
LINE
  5
43b
100
AcDbEntity
  8
logo
 62
7
100
AcDbLine
 10
26.262364
 20
5.209641
 30
0.0
 11
26.336022
 21
5.651578
 31
0.0
  0
LINE
  5
43c
100
AcDbEntity
  8
logo
 62
7
100
AcDbLine
 10
26.336022
 20
5.651578
 30
0.0
 11
26.483337
 21
5.872546
 31
0.0
  0
LINE
  5
43d
100
AcDbEntity
  8
logo
 62
7
100
AcDbLine
 10
26.483337
 20
5.872546
 30
0.0
 11
26.630637
 21
5.983031
 31
0.0
  0
LINE
  5
43e
100
AcDbEntity
  8
logo
 62
7
100
AcDbLine
 10
27.956460
 20
3.662861
 30
0.0
 11
27.956460
 21
5.983031
 31
0.0
  0
LINE
  5
43f
100
AcDbEntity
  8
logo
 62
7
100
AcDbLine
 10
27.956460
 20
5.983031
 30
0.0
 11
28.545705
 21
5.983031
 31
0.0
  0
LINE
  5
440
100
AcDbEntity
  8
logo
 62
7
100
AcDbLine
 10
28.545705
 20
5.983031
 30
0.0
 11
28.693021
 21
5.872546
 31
0.0
  0
LINE
  5
441
100
AcDbEntity
  8
logo
 62
7
100
AcDbLine
 10
28.693021
 20
5.872546
 30
0.0
 11
28.766678
 21
5.762063
 31
0.0
  0
LINE
  5
442
100
AcDbEntity
  8
logo
 62
7
100
AcDbLine
 10
28.766678
 20
5.762063
 30
0.0
 11
28.840321
 21
5.541094
 31
0.0
  0
LINE
  5
443
100
AcDbEntity
  8
logo
 62
7
100
AcDbLine
 10
28.840321
 20
5.541094
 30
0.0
 11
28.840321
 21
5.209641
 31
0.0
  0
LINE
  5
444
100
AcDbEntity
  8
logo
 62
7
100
AcDbLine
 10
28.840321
 20
5.209641
 30
0.0
 11
28.766678
 21
4.988673
 31
0.0
  0
LINE
  5
445
100
AcDbEntity
  8
logo
 62
7
100
AcDbLine
 10
28.766678
 20
4.988673
 30
0.0
 11
28.693021
 21
4.878188
 31
0.0
  0
LINE
  5
446
100
AcDbEntity
  8
logo
 62
7
100
AcDbLine
 10
28.693021
 20
4.878188
 30
0.0
 11
28.545705
 21
4.767704
 31
0.0
  0
LINE
  5
447
100
AcDbEntity
  8
logo
 62
7
100
AcDbLine
 10
28.545705
 20
4.767704
 30
0.0
 11
27.956460
 21
4.767704
 31
0.0
  0
LINE
  5
448
100
AcDbEntity
  8
logo
 62
7
100
AcDbLine
 10
20.841612
 20
9.147373
 30
0.0
 11
21.358298
 21
9.479889
 31
0.0
  0
LINE
  5
449
100
AcDbEntity
  8
logo
 62
7
100
AcDbLine
 10
20.428003
 20
4.168941
 30
0.0
 11
20.391437
 21
4.686528
 31
0.0
  0
LINE
  5
44a
100
AcDbEntity
  8
logo
 62
7
100
AcDbLine
 10
20.387477
 20
3.049532
 30
0.0
 11
20.683964
 21
3.687148
 31
0.0
  0
LINE
  5
44b
100
AcDbEntity
  8
logo
 62
7
100
AcDbLine
 10
30.095826
 20
4.016377
 30
0.0
 11
29.763300
 21
3.499697
 31
0.0
  0
LINE
  5
44c
100
AcDbEntity
  8
logo
 62
7
100
AcDbLine
 10
20.391437
 20
7.960543
 30
0.0
 11
20.509101
 21
8.630693
 31
0.0
  0
LINE
  5
44d
100
AcDbEntity
  8
logo
 62
7
100
AcDbLine
 10
29.763300
 20
9.147373
 30
0.0
 11
30.095826
 21
8.630693
 31
0.0
  0
LINE
  5
44e
100
AcDbEntity
  8
logo
 62
7
100
AcDbLine
 10
29.246629
 20
9.479892
 30
0.0
 11
29.763300
 21
9.147373
 31
0.0
  0
LINE
  5
44f
100
AcDbEntity
  8
logo
 62
7
100
AcDbLine
 10
30.213490
 20
7.960546
 30
0.0
 11
30.213475
 21
4.686528
 31
0.0
  0
LINE
  5
450
100
AcDbEntity
  8
logo
 62
7
100
AcDbLine
 10
20.509101
 20
8.630693
 30
0.0
 11
20.841612
 21
9.147373
 31
0.0
  0
LINE
  5
451
100
AcDbEntity
  8
logo
 62
7
100
AcDbLine
 10
21.516951
 20
3.084368
 30
0.0
 11
21.048911
 21
3.328316
 31
0.0
  0
LINE
  5
452
100
AcDbEntity
  8
logo
 62
7
100
AcDbLine
 10
21.048911
 20
3.328316
 30
0.0
 11
20.387477
 21
3.049532
 31
0.0
  0
LINE
  5
453
100
AcDbEntity
  8
logo
 62
7
100
AcDbLine
 10
22.028441
 20
9.597549
 30
0.0
 11
28.576471
 21
9.597554
 31
0.0
  0
LINE
  5
454
100
AcDbEntity
  8
logo
 62
7
100
AcDbLine
 10
28.576471
 20
9.597554
 30
0.0
 11
29.246629
 21
9.479892
 31
0.0
  0
LINE
  5
455
100
AcDbEntity
  8
logo
 62
7
100
AcDbLine
 10
29.246629
 20
3.167180
 30
0.0
 11
28.576471
 21
3.049519
 31
0.0
  0
LINE
  5
456
100
AcDbEntity
  8
logo
 62
7
100
AcDbLine
 10
30.213475
 20
4.686528
 30
0.0
 11
30.095826
 21
4.016377
 31
0.0
  0
LINE
  5
457
100
AcDbEntity
  8
logo
 62
7
100
AcDbLine
 10
28.576471
 20
3.049519
 30
0.0
 11
22.028441
 21
3.049519
 31
0.0
  0
LINE
  5
458
100
AcDbEntity
  8
logo
 62
7
100
AcDbLine
 10
22.028441
 20
3.049519
 30
0.0
 11
21.516951
 21
3.084368
 31
0.0
  0
LINE
  5
459
100
AcDbEntity
  8
logo
 62
7
100
AcDbLine
 10
29.763300
 20
3.499697
 30
0.0
 11
29.246629
 21
3.167180
 31
0.0
  0
LINE
  5
45a
100
AcDbEntity
  8
logo
 62
7
100
AcDbLine
 10
20.683964
 20
3.687148
 30
0.0
 11
20.428003
 21
4.168941
 31
0.0
  0
LINE
  5
45b
100
AcDbEntity
  8
logo
 62
7
100
AcDbLine
 10
21.358298
 20
9.479889
 30
0.0
 11
22.028441
 21
9.597549
 31
0.0
  0
LINE
  5
45c
100
AcDbEntity
  8
logo
 62
7
100
AcDbLine
 10
30.095826
 20
8.630693
 30
0.0
 11
30.213490
 21
7.960546
 31
0.0
  0
LINE
  5
45d
100
AcDbEntity
  8
logo
 62
7
100
AcDbLine
 10
20.391437
 20
4.686528
 30
0.0
 11
20.391437
 21
7.960543
 31
0.0
  0
ENDSEC
  0
SECTION
  2
OBJECTS
  0
DICTIONARY
  5
C
330
0
100
AcDbDictionary
  3
ACAD_GROUP
350
D
  3
ACAD_MLINESTYLE
350
17
  0
DICTIONARY
  5
D
330
C
100
AcDbDictionary
  0
DICTIONARY
  5
1A
330
C
100
AcDbDictionary
  0
DICTIONARY
  5
17
330
C
100
AcDbDictionary
  3
STANDARD
350
18
  0
DICTIONARY
  5
19
330
C
100
AcDbDictionary
  0
ENDSEC
  0
EOF
